<?xml version="1.0" encoding="UTF-8" standalone="no"?>
<svg
   width="16"
   height="16"
   viewBox="0 0 16 16"
   version="1.1"
   id="svg1395"
   sodipodi:docname="audio-speakers.svg"
   inkscape:version="1.2.1 (9c6d41e410, 2022-07-14, custom)"
   xmlns:inkscape="http://www.inkscape.org/namespaces/inkscape"
   xmlns:sodipodi="http://sodipodi.sourceforge.net/DTD/sodipodi-0.dtd"
   xmlns="http://www.w3.org/2000/svg"
   xmlns:svg="http://www.w3.org/2000/svg">
  <sodipodi:namedview
     id="namedview1397"
     pagecolor="#ffffff"
     bordercolor="#000000"
     borderopacity="0.25"
     inkscape:showpageshadow="2"
     inkscape:pageopacity="0.0"
     inkscape:pagecheckerboard="0"
     inkscape:deskcolor="#d1d1d1"
     showgrid="false"
     inkscape:zoom="46.8125"
     inkscape:cx="7.7436582"
     inkscape:cy="8"
     inkscape:window-width="1920"
     inkscape:window-height="1057"
     inkscape:window-x="0"
     inkscape:window-y="0"
     inkscape:window-maximized="1"
     inkscape:current-layer="svg1395" />
  <defs
     id="defs1391">
    <style
       id="current-color-scheme"
       type="text/css">
   .ColorScheme-Text { color:#d2cfca; } .ColorScheme-Highlight { color:#4285f4; } .ColorScheme-NeutralText { color:#ff9800; } .ColorScheme-PositiveText { color:#4caf50; } .ColorScheme-NegativeText { color:#f44336; }
  </style>
  </defs>
  <path
     style="fill:currentColor;stroke-width:0.6"
     class="ColorScheme-Text"
     d="M 5.6,4 C 4.4,4 4.4,5.2 4.4,5.2 v 6.6 c 0,1.2 1.13598,1.19784 1.2,1.2 h 4.8 c 0,0 1.2,-0.0024 1.2,-1.2 V 5.2 C 11.6,4 10.4,4 10.4,4 Z M 8,5.2 C 8.332442,5.2 8.6,5.46967 8.6,5.8 8.6,6.130384 8.332442,6.4 8,6.4 7.667456,6.4 7.4,6.130384 7.4,5.8 7.4,5.46967 7.667456,5.2 8,5.2 Z M 8,7 c 1.32546,0 2.4,1.07454 2.4,2.4 0,1.32546 -1.07454,2.4 -2.4,2.4 C 6.67454,11.8 5.6,10.72546 5.6,9.4 5.6,8.07454 6.67454,7 8,7 Z m 0,1.2 c -0.66276,0 -1.2,0.537258 -1.2,1.2 0,0.662742 0.537258,1.2 1.2,1.2 0.662742,0 1.2,-0.537258 1.2,-1.2 C 9.2,8.737258 8.662742,8.2 8,8.2 Z"
     id="path1393" />
</svg>
