<?xml version="1.0" encoding="UTF-8" standalone="no"?>
<svg
   width="16"
   height="16"
   version="1.1"
   id="svg7"
   sodipodi:docname="camera-photo.svg"
   inkscape:version="1.2.1 (9c6d41e410, 2022-07-14, custom)"
   xmlns:inkscape="http://www.inkscape.org/namespaces/inkscape"
   xmlns:sodipodi="http://sodipodi.sourceforge.net/DTD/sodipodi-0.dtd"
   xmlns="http://www.w3.org/2000/svg"
   xmlns:svg="http://www.w3.org/2000/svg">
  <sodipodi:namedview
     id="namedview9"
     pagecolor="#ffffff"
     bordercolor="#000000"
     borderopacity="0.25"
     inkscape:showpageshadow="2"
     inkscape:pageopacity="0.0"
     inkscape:pagecheckerboard="0"
     inkscape:deskcolor="#d1d1d1"
     showgrid="false"
     inkscape:zoom="55.625"
     inkscape:cx="7.4247191"
     inkscape:cy="8.0089888"
     inkscape:window-width="1920"
     inkscape:window-height="1057"
     inkscape:window-x="0"
     inkscape:window-y="0"
     inkscape:window-maximized="1"
     inkscape:current-layer="svg7" />
  <defs
     id="defs3">
    <style
       id="current-color-scheme"
       type="text/css">
   .ColorScheme-Text { color:#d2cfca; } .ColorScheme-Highlight { color:#4285f4; } .ColorScheme-NeutralText { color:#ff9800; } .ColorScheme-PositiveText { color:#4caf50; } .ColorScheme-NegativeText { color:#f44336; }
  </style>
  </defs>
  <path
     style="fill:currentColor;stroke-width:0.6"
     class="ColorScheme-Text"
     d="m 6.8,3.7999997 c -0.24,0 -0.239667,4.242e-4 -0.4675782,0.2425782 L 5.6820314,4.9999997 H 4.159766 C 3.6317654,4.9999997 3.2,5.3936977 3.2,5.907031 v 5.360156 C 3.2,11.780521 3.6317654,12.2 4.159766,12.2 h 7.680469 C 12.368235,12.2 12.8,11.780521 12.8,11.267187 V 5.907031 C 12.8,5.3936976 12.368235,4.9999997 11.840235,4.9999997 H 10.317969 L 9.659375,4.0332029 C 9.4402682,3.8004035 9.44,3.7999997 9.2,3.7999997 Z m 5.092969,1.8 a 0.3,0.3 0 0 1 0.007,0 0.3,0.3 0 0 1 0.3,0.3 0.3,0.3 0 0 1 -0.3,0.3 0.3,0.3 0 0 1 -0.3,-0.3 0.3,0.3 0 0 1 0.292968,-0.3 z m -3.9292972,0.6 a 2.4,2.4 0 0 1 0.03633,0 2.4,2.4 0 0 1 2.4000002,2.4 A 2.4,2.4 0 0 1 8.0000018,11 a 2.4,2.4 0 0 1 -2.4,-2.4000003 2.4,2.4 0 0 1 2.3636718,-2.4 z m 0.00703,1.2 a 1.2,1.2 0 0 0 -1.1707032,1.2 1.2,1.2 0 0 0 1.2,1.1999996 1.2,1.2 0 0 0 1.2,-1.1999996 1.2,1.2 0 0 0 -1.2,-1.2 1.2,1.2 0 0 0 -0.029298,0 z"
     id="path5" />
</svg>
