<?xml version="1.0" encoding="UTF-8" standalone="no"?>
<svg
   width="16"
   height="16"
   version="1.1"
   id="svg7"
   sodipodi:docname="camera-web.svg"
   inkscape:version="1.2.1 (9c6d41e410, 2022-07-14, custom)"
   xmlns:inkscape="http://www.inkscape.org/namespaces/inkscape"
   xmlns:sodipodi="http://sodipodi.sourceforge.net/DTD/sodipodi-0.dtd"
   xmlns="http://www.w3.org/2000/svg"
   xmlns:svg="http://www.w3.org/2000/svg">
  <sodipodi:namedview
     id="namedview9"
     pagecolor="#ffffff"
     bordercolor="#000000"
     borderopacity="0.25"
     inkscape:showpageshadow="2"
     inkscape:pageopacity="0.0"
     inkscape:pagecheckerboard="0"
     inkscape:deskcolor="#d1d1d1"
     showgrid="false"
     inkscape:zoom="55.625"
     inkscape:cx="7.4247191"
     inkscape:cy="8.0089888"
     inkscape:window-width="1920"
     inkscape:window-height="1057"
     inkscape:window-x="0"
     inkscape:window-y="0"
     inkscape:window-maximized="1"
     inkscape:current-layer="svg7" />
  <defs
     id="defs3">
    <style
       id="current-color-scheme"
       type="text/css">
   .ColorScheme-Text { color:#d2cfca; } .ColorScheme-Highlight { color:#4285f4; } .ColorScheme-NeutralText { color:#ff9800; } .ColorScheme-PositiveText { color:#4caf50; } .ColorScheme-NegativeText { color:#f44336; }
  </style>
  </defs>
  <path
     style="fill:currentColor;stroke-width:0.6"
     class="ColorScheme-Text"
     d="m 7.94375,3.2000471 a 4.2,4.2 0 0 0 -4.14375,4.2 4.2,4.2 0 0 0 2.4175781,3.8027339 C 5.5744642,11.417571 5,11.663812 5,11.867234 v 0.466406 c 0,0.258534 0.2233907,0.466407 0.5003906,0.466407 H 10.49961 C 10.77661,12.800047 11,12.592174 11,12.33364 V 11.867234 C 11,11.663812 10.425536,11.417571 9.7824218,11.202781 A 4.2,4.2 0 0 0 12.2,7.4000471 a 4.2,4.2 0 0 0 -4.2,-4.2 4.2,4.2 0 0 0 -0.05625,0 z m 0.019922,1.8 a 2.4,2.4 0 0 1 0.036328,0 2.4,2.4 0 0 1 2.4,2.4 A 2.4,2.4 0 0 1 8,9.8000473 2.4,2.4 0 0 1 5.6,7.4000471 a 2.4,2.4 0 0 1 2.363672,-2.4 z m 0.00703,1.2 a 1.2,1.2 0 0 0 -1.1707032,1.2 1.2,1.2 0 0 0 1.2,1.2 1.2,1.2 0 0 0 1.2,-1.2 1.2,1.2 0 0 0 -1.2,-1.2 1.2,1.2 0 0 0 -0.029297,0 z"
     id="path5" />
</svg>
