<?xml version="1.0" encoding="UTF-8" standalone="no"?>
<svg
   width="16"
   height="16"
   version="1.1"
   viewBox="0 0 16 16"
   id="svg7"
   sodipodi:docname="drive-harddisk.svg"
   inkscape:version="1.2.1 (9c6d41e410, 2022-07-14, custom)"
   xmlns:inkscape="http://www.inkscape.org/namespaces/inkscape"
   xmlns:sodipodi="http://sodipodi.sourceforge.net/DTD/sodipodi-0.dtd"
   xmlns="http://www.w3.org/2000/svg"
   xmlns:svg="http://www.w3.org/2000/svg">
  <sodipodi:namedview
     id="namedview9"
     pagecolor="#ffffff"
     bordercolor="#000000"
     borderopacity="0.25"
     inkscape:showpageshadow="2"
     inkscape:pageopacity="0.0"
     inkscape:pagecheckerboard="0"
     inkscape:deskcolor="#d1d1d1"
     showgrid="false"
     inkscape:zoom="46.8125"
     inkscape:cx="7.6582109"
     inkscape:cy="8"
     inkscape:window-width="1920"
     inkscape:window-height="1057"
     inkscape:window-x="0"
     inkscape:window-y="0"
     inkscape:window-maximized="1"
     inkscape:current-layer="svg7" />
  <defs
     id="defs3">
    <style
       id="current-color-scheme"
       type="text/css">
   .ColorScheme-Text { color:#d2cfca; } .ColorScheme-Highlight { color:#4285f4; } .ColorScheme-NeutralText { color:#ff9800; } .ColorScheme-PositiveText { color:#4caf50; } .ColorScheme-NegativeText { color:#f44336; }
  </style>
  </defs>
  <path
     style="fill:currentColor;stroke-width:0.6"
     class="ColorScheme-Text"
     d="M 5,3.8 C 4.4,3.8 4.4,4.4 4.4,4.4 v 7.2 c 0,0 0,0.6 0.6,0.6 h 6 c 0,0 0.6,0 0.6,-0.6 V 4.4 c 0,0 0,-0.6 -0.6,-0.6 z M 8,5 c 1.3254,0 2.4,1.07454 2.4,2.4 0,1.32546 -1.0746,2.4 -2.4,2.4 H 5.6 V 7.4 C 5.6,6.07454 6.67454,5 8,5 Z M 8,6.2 C 7.33724,6.2 6.8,6.73724 6.8,7.4 6.8,8.06276 7.33724,8.6 8,8.6 8.66276,8.6 9.2,8.06276 9.2,7.4 9.2,6.73724 8.66276,6.2 8,6.2 Z"
     id="path5" />
</svg>
