<?xml version="1.0" encoding="UTF-8" standalone="no"?>
<svg
   width="16"
   height="16"
   version="1.1"
   viewBox="0 0 16 16"
   id="svg9"
   sodipodi:docname="input-tablet.svg"
   inkscape:version="1.2.1 (9c6d41e410, 2022-07-14, custom)"
   xmlns:inkscape="http://www.inkscape.org/namespaces/inkscape"
   xmlns:sodipodi="http://sodipodi.sourceforge.net/DTD/sodipodi-0.dtd"
   xmlns="http://www.w3.org/2000/svg"
   xmlns:svg="http://www.w3.org/2000/svg">
  <sodipodi:namedview
     id="namedview11"
     pagecolor="#ffffff"
     bordercolor="#000000"
     borderopacity="0.25"
     inkscape:showpageshadow="2"
     inkscape:pageopacity="0.0"
     inkscape:pagecheckerboard="0"
     inkscape:deskcolor="#d1d1d1"
     showgrid="false"
     inkscape:zoom="55.625"
     inkscape:cx="7.4247191"
     inkscape:cy="8.0089888"
     inkscape:window-width="1920"
     inkscape:window-height="1057"
     inkscape:window-x="0"
     inkscape:window-y="0"
     inkscape:window-maximized="1"
     inkscape:current-layer="svg9" />
  <defs
     id="defs3">
    <style
       id="current-color-scheme"
       type="text/css">
   .ColorScheme-Text { color:#d2cfca; } .ColorScheme-Highlight { color:#4285f4; } .ColorScheme-NeutralText { color:#ff9800; } .ColorScheme-PositiveText { color:#4caf50; } .ColorScheme-NegativeText { color:#f44336; }
  </style>
  </defs>
  <path
     style="fill:currentColor"
     class="ColorScheme-Text"
     d="M 16,3 C 16,2.4477 15.552,2 15,2 14.735,2.0001 14.48,2.1055 14.293,2.293 L 8.293,8.293 C 7.9025,8.6835 8,10 8,10 8,10 9.3165,10.098 9.707,9.707 L 15.707,3.707 C 15.9,3.5146 16,3.2652 16,3 Z"
     id="path5" />
  <path
     style="fill:currentColor;stroke-width:0.6"
     class="ColorScheme-Text"
     d="M 3.4,3.6 C 3.0676,3.6 2.8,3.8676 2.8,4.2 v 6.6 c 0,0.3324 0.2676,0.6 0.6,0.6 h 7.2 c 0.3324,0 0.6,-0.2676 0.6,-0.6 V 7.09686 l -1.2,1.2 V 10.2 H 4 V 4.8 h 6 V 4.90194 L 11.0746,3.8496 C 10.9654,3.70182 10.7986,3.6 10.6,3.6 Z"
     id="path7" />
</svg>
