<?xml version="1.0" encoding="UTF-8" standalone="no"?>
<svg
   width="16"
   height="16"
   version="1.1"
   id="svg7"
   sodipodi:docname="network-vpn.svg"
   inkscape:version="1.2.1 (9c6d41e410, 2022-07-14, custom)"
   xmlns:inkscape="http://www.inkscape.org/namespaces/inkscape"
   xmlns:sodipodi="http://sodipodi.sourceforge.net/DTD/sodipodi-0.dtd"
   xmlns="http://www.w3.org/2000/svg"
   xmlns:svg="http://www.w3.org/2000/svg">
  <sodipodi:namedview
     id="namedview9"
     pagecolor="#ffffff"
     bordercolor="#000000"
     borderopacity="0.25"
     inkscape:showpageshadow="2"
     inkscape:pageopacity="0.0"
     inkscape:pagecheckerboard="0"
     inkscape:deskcolor="#d1d1d1"
     showgrid="false"
     inkscape:zoom="39.332815"
     inkscape:cx="6.5848326"
     inkscape:cy="8.2501088"
     inkscape:window-width="1920"
     inkscape:window-height="1057"
     inkscape:window-x="0"
     inkscape:window-y="0"
     inkscape:window-maximized="1"
     inkscape:current-layer="svg7" />
  <defs
     id="defs3">
    <style
       id="current-color-scheme"
       type="text/css">
   .ColorScheme-Text { color:#d2cfca; } .ColorScheme-Highlight { color:#4285f4; } .ColorScheme-NeutralText { color:#ff9800; } .ColorScheme-PositiveText { color:#4caf50; } .ColorScheme-NegativeText { color:#f44336; }
  </style>
  </defs>
  <path
     style="fill:currentColor;stroke-width:0.6"
     class="ColorScheme-Text"
     d="m 8,3.2000002 a 1.8,1.8 0 0 0 -1.8,1.8 v 1.2 H 5.6 c -0.3324,0 -0.6,0.2676 -0.6,0.6 V 9.2 c 0,0.3324 0.2676,0.6 0.6,0.6 h 4.8 C 10.7324,9.8 11,9.5324 11,9.2 V 6.8000002 c 0,-0.3324 -0.2676,-0.6 -0.6,-0.6 H 9.8 v -1.2 a 1.8,1.8 0 0 0 -1.8,-1.8 z m 0,1.2 c 0.3455844,0 0.6,0.2544156 0.6,0.6 v 1.2 H 7.4 v -1.2 c 0,-0.3455844 0.2544156,-0.6 0.6,-0.6 z M 7.4,10.4 V 11 H 6.2 v 0.6 1.2 H 9.8 V 11.6 11 H 8.6 v -0.6 z m -3.6,1.2 c -0.3324,0 -0.6,0.2676 -0.6,0.6 0,0.3324 0.2676,0.6 0.6,0.6 h 1.8 v -1.2 z m 6.6,0 v 1.2 h 1.8 c 0.3324,0 0.6,-0.2676 0.6,-0.6 0,-0.3324 -0.2676,-0.6 -0.6,-0.6 z"
     id="path5" />
</svg>
