<?xml version="1.0" encoding="UTF-8" standalone="no"?>
<svg
   width="16"
   height="16"
   version="1.1"
   id="svg7"
   sodipodi:docname="phone.svg"
   inkscape:version="1.2.1 (9c6d41e410, 2022-07-14, custom)"
   xmlns:inkscape="http://www.inkscape.org/namespaces/inkscape"
   xmlns:sodipodi="http://sodipodi.sourceforge.net/DTD/sodipodi-0.dtd"
   xmlns="http://www.w3.org/2000/svg"
   xmlns:svg="http://www.w3.org/2000/svg">
  <sodipodi:namedview
     id="namedview9"
     pagecolor="#ffffff"
     bordercolor="#000000"
     borderopacity="0.25"
     inkscape:showpageshadow="2"
     inkscape:pageopacity="0.0"
     inkscape:pagecheckerboard="0"
     inkscape:deskcolor="#d1d1d1"
     showgrid="false"
     inkscape:zoom="55.625"
     inkscape:cx="7.4247191"
     inkscape:cy="8.0089888"
     inkscape:window-width="1920"
     inkscape:window-height="1057"
     inkscape:window-x="0"
     inkscape:window-y="0"
     inkscape:window-maximized="1"
     inkscape:current-layer="svg7" />
  <defs
     id="defs3">
    <style
       id="current-color-scheme"
       type="text/css">
   .ColorScheme-Text { color:#d2cfca; } .ColorScheme-Highlight { color:#4285f4; } .ColorScheme-NeutralText { color:#ff9800; } .ColorScheme-PositiveText { color:#4caf50; } .ColorScheme-NegativeText { color:#f44336; }
  </style>
  </defs>
  <path
     style="fill:currentColor;stroke-width:0.6"
     class="ColorScheme-Text"
     d="M 5.6,3.8 C 5,3.8 5,4.4 5,4.4 v 7.2 c 0,0 0,0.6 0.6,0.6 h 4.8 C 11,12.2 11,11.6 11,11.6 V 4.4 c 0,0 0,-0.6 -0.6,-0.6 z m 0.6,1.8 h 3.6 v 4.8 H 6.2 Z M 7.7,11 h 0.6 c 0,0 0.3,0 0.3,0.3 0,0.3 -0.3,0.3 -0.3,0.3 H 7.7 c 0,0 -0.3,0 -0.3,-0.3 C 7.4,11 7.7,11 7.7,11 Z"
     id="path5" />
</svg>
