<?xml version="1.0" encoding="UTF-8" standalone="no"?>
<!-- Generator: Adobe Illustrator 15.1.0, SVG Export Plug-In . SVG Version: 6.00 Build 0)  -->

<svg
   version="1.1"
   id="Layer_1"
   x="0px"
   y="0px"
   width="56.69px"
   height="56.69px"
   viewBox="0 0 56.69 56.69"
   enable-background="new 0 0 56.69 56.69"
   xml:space="preserve"
   sodipodi:docname="weather7.svg"
   inkscape:version="1.2.1 (9c6d41e410, 2022-07-14)"
   xmlns:inkscape="http://www.inkscape.org/namespaces/inkscape"
   xmlns:sodipodi="http://sodipodi.sourceforge.net/DTD/sodipodi-0.dtd"
   xmlns="http://www.w3.org/2000/svg"
   xmlns:svg="http://www.w3.org/2000/svg"><defs
   id="defs7" /><sodipodi:namedview
   id="namedview5"
   pagecolor="#ffffff"
   bordercolor="#000000"
   borderopacity="0.25"
   inkscape:showpageshadow="2"
   inkscape:pageopacity="0.0"
   inkscape:pagecheckerboard="0"
   inkscape:deskcolor="#d1d1d1"
   showgrid="false"
   inkscape:zoom="17.936489"
   inkscape:cx="31.109767"
   inkscape:cy="31.388528"
   inkscape:window-width="1920"
   inkscape:window-height="1046"
   inkscape:window-x="0"
   inkscape:window-y="34"
   inkscape:window-maximized="1"
   inkscape:current-layer="Layer_1" />
<path
   d="m 42.543,40.652 c -0.002,0 -0.002,0 -0.004,0 -0.551,0 -0.998,0.445 -1,0.997 l -0.008,3 c -0.002,0.553 0.443,1.001 0.996,1.003 0.002,0 0.002,0 0.004,0 0.551,0 0.998,-0.446 1,-0.997 l 0.008,-3 c 0.002,-0.552 -0.443,-1.001 -0.996,-1.003 z"
   id="path864"
   style="fill:#44dbff;fill-opacity:1" /><path
   d="m 42.525,46.652 c -0.002,0 -0.002,0 -0.004,0 -0.551,0 -0.998,0.445 -1,0.997 l -0.008,2.461 c -0.002,0.552 0.445,1.001 0.998,1.003 h 0.002 c 0.551,0 0.998,-0.445 1,-0.997 l 0.008,-2.461 c 0.002,-0.551 -0.443,-1.001 -0.996,-1.003 z"
   id="path862"
   style="fill:#44dbff;fill-opacity:1" /><path
   d="m 35.799,45.563 h -0.004 c -0.551,0 -0.998,0.445 -1,0.996 l -0.004,1 c -0.002,0.553 0.443,1.002 0.998,1.004 h 0.002 c 0.551,0 0.998,-0.445 1,-0.996 l 0.004,-1 c 0.002,-0.553 -0.443,-1.003 -0.996,-1.004 z"
   id="path860"
   style="fill:#44dbff;fill-opacity:1" /><path
   d="m 35.814,40.652 c 0,0 -0.002,0 -0.004,0 -0.551,0 -0.998,0.445 -1,0.996 l -0.004,1 c -0.002,0.553 0.443,1.002 0.996,1.004 0.002,0 0.004,0 0.004,0 0.551,0 0.998,-0.445 1,-0.996 l 0.004,-1 c 0.003,-0.552 -0.443,-1.002 -0.996,-1.004 z"
   id="path858"
   style="fill:#44dbff;fill-opacity:1" /><path
   d="m 29.092,40.652 c -0.002,0 -0.004,0 -0.004,0 -0.551,0 -0.998,0.445 -1,0.997 l -0.01,3 c -0.002,0.552 0.445,1.001 0.998,1.003 h 0.002 c 0.551,0 0.998,-0.445 1,-0.997 l 0.01,-3 c 0.002,-0.551 -0.443,-1.001 -0.996,-1.003 z"
   id="path856"
   style="fill:#44dbff;fill-opacity:1" /><path
   d="m 29.072,46.652 c -0.002,0 -0.002,0 -0.004,0 -0.551,0 -0.998,0.445 -1,0.997 L 28.06,50.11 c -0.002,0.552 0.445,1.001 0.998,1.003 h 0.002 c 0.551,0 0.998,-0.445 1,-0.997 l 0.008,-2.461 c 0.002,-0.551 -0.443,-1.001 -0.996,-1.003 z"
   id="path854"
   style="fill:#44dbff;fill-opacity:1" /><path
   d="m 22.346,45.563 c -0.002,0 -0.002,0 -0.004,0 -0.551,0 -0.998,0.446 -1,0.997 l -0.002,1 c -0.002,0.553 0.445,1.001 0.996,1.003 0.002,0 0.002,0 0.004,0 0.551,0 0.998,-0.446 1,-0.997 l 0.002,-1 c 0.002,-0.553 -0.444,-1.002 -0.996,-1.003 z"
   id="path852"
   style="fill:#44dbff;fill-opacity:1" /><path
   d="m 22.361,40.652 c -0.002,0 -0.002,0 -0.004,0 -0.551,0 -0.998,0.446 -1,0.997 l -0.002,1 c -0.002,0.553 0.445,1.001 0.996,1.003 0.002,0 0.002,0 0.004,0 0.551,0 0.998,-0.446 1,-0.997 l 0.002,-1 c 0.002,-0.552 -0.443,-1.001 -0.996,-1.003 z"
   id="path850"
   style="fill:#44dbff;fill-opacity:1" /><path
   d="m 15.622,46.652 c -0.002,0 -0.002,0 -0.004,0 -0.551,0 -0.998,0.445 -1,0.997 L 14.61,50.11 c -0.002,0.552 0.445,1.001 0.997,1.003 0.001,0 0.003,0 0.003,0 0.55,0 0.998,-0.445 1,-0.997 l 0.008,-2.461 c 0.001,-0.551 -0.444,-1.001 -0.996,-1.003 z"
   id="path848"
   style="fill:#44dbff;fill-opacity:1" /><path
   d="m 15.639,40.652 h -0.002 c -0.551,0 -0.998,0.445 -1,0.997 l -0.01,3 c -0.002,0.552 0.445,1.001 0.997,1.003 10e-4,0 0.002,0 0.003,0 0.55,0 0.998,-0.445 1,-0.997 l 0.01,-3 c 0.002,-0.551 -0.446,-1.001 -0.998,-1.003 z"
   id="path846"
   style="fill:#44dbff;fill-opacity:1" /><path
   d="m 52.68,28.037 c 0,5.123 -4.154,9.277 -9.277,9.277 H 13.29 c -5.125,0 -9.279,-4.154 -9.279,-9.277 0,-4.851 3.725,-8.821 8.467,-9.233 0,-0.014 -0.002,-0.027 -0.002,-0.041 0,-4.498 3.644,-8.141 8.138,-8.141 1.67,0 3.219,0.504 4.512,1.365 2.227,-3.83 6.363,-6.41 11.113,-6.41 7.104,0 12.859,5.754 12.859,12.857 0,0.733 -0.074,1.447 -0.193,2.147 2.286,1.69 3.775,4.395 3.775,7.456 z"
   id="path2"
   style="fill:#ffffff;fill-opacity:1" />
</svg>
