<?xml version="1.0" encoding="UTF-8" standalone="no"?>
<!-- Generator: Adobe Illustrator 15.1.0, SVG Export Plug-In . SVG Version: 6.00 Build 0)  -->

<svg
   version="1.1"
   id="Layer_1"
   x="0px"
   y="0px"
   width="56.69px"
   height="56.69px"
   viewBox="0 0 56.69 56.69"
   enable-background="new 0 0 56.69 56.69"
   xml:space="preserve"
   sodipodi:docname="weather3.svg"
   inkscape:version="1.2.1 (9c6d41e410, 2022-07-14)"
   xmlns:inkscape="http://www.inkscape.org/namespaces/inkscape"
   xmlns:sodipodi="http://sodipodi.sourceforge.net/DTD/sodipodi-0.dtd"
   xmlns="http://www.w3.org/2000/svg"
   xmlns:svg="http://www.w3.org/2000/svg"><defs
   id="defs1192" /><sodipodi:namedview
   id="namedview1190"
   pagecolor="#ffffff"
   bordercolor="#000000"
   borderopacity="0.25"
   inkscape:showpageshadow="2"
   inkscape:pageopacity="0.0"
   inkscape:pagecheckerboard="0"
   inkscape:deskcolor="#d1d1d1"
   showgrid="false"
   inkscape:zoom="12.683013"
   inkscape:cx="28.305577"
   inkscape:cy="28.305577"
   inkscape:window-width="1920"
   inkscape:window-height="1046"
   inkscape:window-x="0"
   inkscape:window-y="34"
   inkscape:window-maximized="1"
   inkscape:current-layer="Layer_1" />
<path
   d="M52.805,40.516c0,5.568-4.248,10.145-9.68,10.666c-0.314,0.033-0.633,0.053-0.955,0.053h-0.084h-1.703H19.838  c-4.934,0-8.933-4-8.933-8.934s3.999-8.932,8.933-8.932h1.721c1.029-4.932,5.398-8.635,10.636-8.635c3.865,0,7.25,2.022,9.176,5.063  h0.715C48.006,29.797,52.805,34.594,52.805,40.516z M19.348,30.379c2.094-5.128,7.158-8.645,12.847-8.645  c4.203,0,8.104,1.875,10.723,5.087c3.564,0.214,6.764,1.798,9.084,4.226c0.352-0.979,0.553-2.029,0.553-3.129  c0-3.062-1.488-5.768-3.775-7.456c0.119-0.7,0.193-1.414,0.193-2.147c0-7.104-5.756-12.857-12.859-12.857  c-4.75,0-8.887,2.58-11.114,6.41c-1.292-0.861-2.843-1.365-4.511-1.365c-4.494,0-8.139,3.643-8.139,8.141  c0,0.014,0.002,0.027,0.002,0.041c-4.743,0.411-8.467,4.383-8.467,9.234c0,3.809,2.299,7.081,5.584,8.508  C11.447,32.949,15.112,30.551,19.348,30.379z"
   id="path1187"
   style="fill:#ffffff;fill-opacity:1" />
</svg>
