<?xml version="1.0" encoding="UTF-8" standalone="no"?>
<svg
   width="16"
   height="16"
   version="1.1"
   id="svg7"
   sodipodi:docname="camera-video.svg"
   inkscape:version="1.2.1 (9c6d41e410, 2022-07-14, custom)"
   xmlns:inkscape="http://www.inkscape.org/namespaces/inkscape"
   xmlns:sodipodi="http://sodipodi.sourceforge.net/DTD/sodipodi-0.dtd"
   xmlns="http://www.w3.org/2000/svg"
   xmlns:svg="http://www.w3.org/2000/svg">
  <sodipodi:namedview
     id="namedview9"
     pagecolor="#ffffff"
     bordercolor="#000000"
     borderopacity="0.25"
     inkscape:showpageshadow="2"
     inkscape:pageopacity="0.0"
     inkscape:pagecheckerboard="0"
     inkscape:deskcolor="#d1d1d1"
     showgrid="false"
     inkscape:zoom="55.625"
     inkscape:cx="7.4247191"
     inkscape:cy="8.0089888"
     inkscape:window-width="1920"
     inkscape:window-height="1057"
     inkscape:window-x="0"
     inkscape:window-y="0"
     inkscape:window-maximized="1"
     inkscape:current-layer="svg7" />
  <defs
     id="defs3">
    <style
       id="current-color-scheme"
       type="text/css">
   .ColorScheme-Text { color:#d8c4f1; } .ColorScheme-Highlight { color:#4285f4; } .ColorScheme-NeutralText { color:#ff9800; } .ColorScheme-PositiveText { color:#4caf50; } .ColorScheme-NegativeText { color:#f44336; }
  </style>
  </defs>
  <path
     style="fill:currentColor;stroke-width:0.6"
     class="ColorScheme-Text"
     d="M 5.7,3.2 C 4.869,3.2 4.2,3.869 4.2,4.7 v 6.6 c 0,0.831 0.669,1.5 1.5,1.5 h 4.8 c 0.831,0 1.5,-0.669 1.5,-1.5 V 4.7 C 12,3.869 11.331,3.2 10.5,3.2 Z m 5.1,0.6 A 0.6,0.6 0 0 1 11.4,4.4 0.6,0.6 0 0 1 10.8,5 0.6,0.6 0 0 1 10.2,4.4 0.6,0.6 0 0 1 10.8,3.8 Z M 3.3,5 C 3.1338,5 3,5.1338 3,5.3 v 5.4 C 3,10.8662 3.1338,11 3.3,11 3.4662,11 3.6,10.8662 3.6,10.7 V 5.3 C 3.6,5.1338 3.4662,5 3.3,5 Z M 8.1,5.6 A 2.1,2.1 0 0 1 10.2,7.7 2.1,2.1 0 0 1 8.1,9.8 2.1,2.1 0 0 1 6,7.7 2.1,2.1 0 0 1 8.1,5.6 Z m 0,0.6 A 1.5,1.5 0 0 0 6.6,7.7 1.5,1.5 0 0 0 8.1,9.2 1.5,1.5 0 0 0 9.6,7.7 1.5,1.5 0 0 0 8.1,6.2 Z m 0,0.6 A 0.9,0.9 0 0 1 9,7.7 0.9,0.9 0 0 1 8.1,8.6 0.9,0.9 0 0 1 7.2,7.7 0.9,0.9 0 0 1 8.1,6.8 Z M 5.1,11 A 0.3,0.3 0 0 1 5.4,11.3 0.3,0.3 0 0 1 5.1,11.6 0.3,0.3 0 0 1 4.8,11.3 0.3,0.3 0 0 1 5.1,11 Z m 1.2,0 A 0.3,0.3 0 0 1 6.6,11.3 0.3,0.3 0 0 1 6.3,11.6 0.3,0.3 0 0 1 6,11.3 0.3,0.3 0 0 1 6.3,11 Z m 1.2,0 A 0.3,0.3 0 0 1 7.8,11.3 0.3,0.3 0 0 1 7.5,11.6 0.3,0.3 0 0 1 7.2,11.3 0.3,0.3 0 0 1 7.5,11 Z M 5.7,11.6 A 0.3,0.3 0 0 1 6,11.9 0.3,0.3 0 0 1 5.7,12.2 0.3,0.3 0 0 1 5.4,11.9 0.3,0.3 0 0 1 5.7,11.6 Z m 1.2,0 a 0.3,0.3 0 0 1 0.3,0.3 0.3,0.3 0 0 1 -0.3,0.3 0.3,0.3 0 0 1 -0.3,-0.3 0.3,0.3 0 0 1 0.3,-0.3 z"
     id="path5" />
</svg>
