<?xml version="1.0" encoding="UTF-8" standalone="no"?>
<svg
   width="16"
   height="16"
   version="1.1"
   id="svg7"
   sodipodi:docname="cpu.svg"
   inkscape:version="1.2.1 (9c6d41e410, 2022-07-14, custom)"
   xmlns:inkscape="http://www.inkscape.org/namespaces/inkscape"
   xmlns:sodipodi="http://sodipodi.sourceforge.net/DTD/sodipodi-0.dtd"
   xmlns="http://www.w3.org/2000/svg"
   xmlns:svg="http://www.w3.org/2000/svg">
  <sodipodi:namedview
     id="namedview9"
     pagecolor="#ffffff"
     bordercolor="#000000"
     borderopacity="0.25"
     inkscape:showpageshadow="2"
     inkscape:pageopacity="0.0"
     inkscape:pagecheckerboard="0"
     inkscape:deskcolor="#d1d1d1"
     showgrid="false"
     inkscape:zoom="55.625"
     inkscape:cx="7.4247191"
     inkscape:cy="8.0089888"
     inkscape:window-width="1920"
     inkscape:window-height="1057"
     inkscape:window-x="0"
     inkscape:window-y="0"
     inkscape:window-maximized="1"
     inkscape:current-layer="svg7" />
  <defs
     id="defs3">
    <style
       id="current-color-scheme"
       type="text/css">
   .ColorScheme-Text { color:#d8c4f1; } .ColorScheme-Highlight { color:#4285f4; } .ColorScheme-NeutralText { color:#ff9800; } .ColorScheme-PositiveText { color:#4caf50; } .ColorScheme-NegativeText { color:#f44336; }
  </style>
  </defs>
  <path
     style="fill:currentColor;stroke-width:0.6"
     class="ColorScheme-Text"
     d="M 3.480468,3 C 3.214548,3 3,3.214548 3,3.480468 V 11.5194 C 3,11.7852 3.214548,12 3.480468,12 H 4.8 v -0.3 c 0,-0.3 0.3,-0.3 0.3,-0.3 0,0 0.3,0 0.3,0.3 V 12 h 6.1194 C 11.7852,12 12,11.7852 12,11.5194 V 3.480468 C 12,3.214548 11.7852,3 11.5194,3 H 5.4 v 0.3 c 0,0.3 -0.3,0.3 -0.3,0.3 0,0 -0.3,0 -0.3,-0.3 V 3 Z M 6,3.6 H 6.6 V 4.2 H 6 Z m 1.2,0 H 7.8 V 4.2 H 7.2 Z m 1.2,0 H 9 V 4.2 H 8.4 Z m 1.2,0 h 0.6 V 4.2 H 9.6 Z m 1.2,0 h 0.6 V 4.2 H 10.8 Z M 3.6,4.8 H 4.2 V 5.4 H 3.6 Z m 1.2,0 H 5.4 V 5.4 H 4.8 Z M 6,4.8 H 6.6 V 5.4 H 6 Z m 1.2,0 H 7.8 V 5.4 H 7.2 Z m 1.2,0 H 9 V 5.4 H 8.4 Z m 1.2,0 h 0.6 V 5.4 H 9.6 Z m 1.2,0 h 0.6 V 5.4 H 10.8 Z M 3.6,6 H 4.2 V 6.6 H 3.6 Z M 4.8,6 H 5.4 V 6.6 H 4.8 Z m 4.8,0 h 0.6 V 6.6 H 9.6 Z m 1.2,0 h 0.6 V 6.6 H 10.8 Z M 3.6,7.2 H 4.2 V 7.8 H 3.6 Z m 1.2,0 H 5.4 V 7.8 H 4.8 Z m 4.8,0 h 0.6 V 7.8 H 9.6 Z m 1.2,0 h 0.6 V 7.8 H 10.8 Z M 3.6,8.4 H 4.2 V 9 H 3.6 Z m 1.2,0 H 5.4 V 9 H 4.8 Z m 4.8,0 h 0.6 V 9 H 9.6 Z m 1.2,0 h 0.6 V 9 H 10.8 Z M 3.6,9.6 h 0.6 v 0.6 H 3.6 Z m 1.2,0 h 0.6 v 0.6 H 4.8 Z m 1.2,0 h 0.6 v 0.6 H 6 Z m 1.2,0 h 0.6 v 0.6 H 7.2 Z m 1.2,0 H 9 v 0.6 H 8.4 Z m 1.2,0 h 0.6 v 0.6 H 9.6 Z m 1.2,0 h 0.6 v 0.6 h -0.6 z m -7.2,1.2 h 0.6 v 0.6 H 3.6 Z m 2.4,0 h 0.6 v 0.6 H 6 Z m 1.2,0 h 0.6 v 0.6 H 7.2 Z m 1.2,0 H 9 v 0.6 H 8.4 Z m 1.2,0 h 0.6 v 0.6 H 9.6 Z m 1.2,0 h 0.6 v 0.6 h -0.6 z"
     id="path5" />
</svg>
