<?xml version="1.0" encoding="UTF-8" standalone="no"?>
<svg
   width="16"
   height="16"
   version="1.1"
   viewBox="0 0 16 16"
   id="svg7"
   sodipodi:docname="drive-multidisk.svg"
   inkscape:version="1.2.1 (9c6d41e410, 2022-07-14, custom)"
   xmlns:inkscape="http://www.inkscape.org/namespaces/inkscape"
   xmlns:sodipodi="http://sodipodi.sourceforge.net/DTD/sodipodi-0.dtd"
   xmlns="http://www.w3.org/2000/svg"
   xmlns:svg="http://www.w3.org/2000/svg">
  <sodipodi:namedview
     id="namedview9"
     pagecolor="#ffffff"
     bordercolor="#000000"
     borderopacity="0.25"
     inkscape:showpageshadow="2"
     inkscape:pageopacity="0.0"
     inkscape:pagecheckerboard="0"
     inkscape:deskcolor="#d1d1d1"
     showgrid="false"
     inkscape:zoom="55.625"
     inkscape:cx="7.4247191"
     inkscape:cy="8.0089888"
     inkscape:window-width="1920"
     inkscape:window-height="1057"
     inkscape:window-x="0"
     inkscape:window-y="0"
     inkscape:window-maximized="1"
     inkscape:current-layer="svg7" />
  <defs
     id="defs3">
    <style
       id="current-color-scheme"
       type="text/css">
   .ColorScheme-Text { color:#d8c4f1; } .ColorScheme-Highlight { color:#4285f4; } .ColorScheme-NeutralText { color:#ff9800; } .ColorScheme-PositiveText { color:#4caf50; } .ColorScheme-NegativeText { color:#f44336; }
  </style>
  </defs>
  <path
     style="fill:currentColor;stroke-width:0.6"
     class="ColorScheme-Text"
     d="M 3.8,3.8 C 3.4676,3.8 3.2,4.0676 3.2,4.4 v 2.4 c 0,0.3324 0.2676,0.6 0.6,0.6 H 4.4 V 8 H 3.8 C 3.4676,8 3.2,8.2676 3.2,8.6 V 11 c 0,0.3324 0.2676,0.6 0.6,0.6 h 0.6 v 0.6 H 5 v -0.6 h 6 v 0.6 h 0.6 v -0.6 h 0.6 c 0.3324,0 0.6,-0.2676 0.6,-0.6 V 8.6 C 12.8,8.2676 12.5324,8 12.2,8 H 11.6 V 7.4 h 0.6 c 0.3324,0 0.6,-0.2676 0.6,-0.6 V 4.4 C 12.8,4.0676 12.5324,3.8 12.2,3.8 Z M 11,5 A 0.6,0.6 0 0 1 11.6,5.6 0.6,0.6 0 0 1 11,6.2 0.6,0.6 0 0 1 10.4,5.6 0.6,0.6 0 0 1 11,5 Z M 5,7.4 h 6 V 8 H 5 Z m 6,1.8 A 0.6,0.6 0 0 1 11.6,9.8 0.6,0.6 0 0 1 11,10.4 0.6,0.6 0 0 1 10.4,9.8 0.6,0.6 0 0 1 11,9.2 Z"
     id="path5" />
</svg>
