<?xml version="1.0" encoding="UTF-8" standalone="no"?>
<svg
   width="16"
   height="16"
   viewBox="0 0 16 16"
   version="1.1"
   id="svg7"
   sodipodi:docname="drive-removable-media-usb.svg"
   inkscape:version="1.2.1 (9c6d41e410, 2022-07-14, custom)"
   xmlns:inkscape="http://www.inkscape.org/namespaces/inkscape"
   xmlns:sodipodi="http://sodipodi.sourceforge.net/DTD/sodipodi-0.dtd"
   xmlns="http://www.w3.org/2000/svg"
   xmlns:svg="http://www.w3.org/2000/svg">
  <sodipodi:namedview
     id="namedview9"
     pagecolor="#ffffff"
     bordercolor="#000000"
     borderopacity="0.25"
     inkscape:showpageshadow="2"
     inkscape:pageopacity="0.0"
     inkscape:pagecheckerboard="0"
     inkscape:deskcolor="#d1d1d1"
     showgrid="false"
     inkscape:zoom="55.625"
     inkscape:cx="7.4247191"
     inkscape:cy="8.0089888"
     inkscape:window-width="1920"
     inkscape:window-height="1057"
     inkscape:window-x="0"
     inkscape:window-y="0"
     inkscape:window-maximized="1"
     inkscape:current-layer="svg7" />
  <defs
     id="defs3">
    <style
       id="current-color-scheme"
       type="text/css">
   .ColorScheme-Text { color:#d8c4f1; } .ColorScheme-Highlight { color:#4285f4; } .ColorScheme-NeutralText { color:#ff9800; } .ColorScheme-PositiveText { color:#4caf50; } .ColorScheme-NegativeText { color:#f44336; }
  </style>
  </defs>
  <path
     style="fill:currentColor;stroke-width:0.6"
     class="ColorScheme-Text"
     d="m 8.0019391,3.2 -1.5,2.4 h 0.9 v 3 h -1.8 V 7.8371094 c 0.370626,-0.213978 0.599244,-0.6091294 0.6,-1.0371094 0,-0.66276 -0.537258,-1.2 -1.2,-1.2 -0.662742,0 -1.2,0.537258 -1.2,1.2 3.36e-4,0.428382 0.229014,0.8240813 0.6,1.0382813 V 8.6 c 0,1.2 1.2,1.2 1.2,1.2 h 1.8 v 0.76289 c -0.370626,0.213978 -0.599244,0.60913 -0.6,1.03711 0,0.66276 0.537258,1.2 1.2,1.2 0.662742,0 1.2,-0.537258 1.2,-1.2 -3.36e-4,-0.428382 -0.229014,-0.824081 -0.6,-1.038281 V 9.8 h 1.7999999 c 0,0 1.2,0 1.2,-1.2 V 8 c 0,0 0.675,-0.1125 0.6,-0.6 V 6.2 c 0.075,-0.675 -0.6,-0.6 -0.6,-0.6 h -1.2 C 9.7644391,5.6 9.8019391,6.2 9.8019391,6.2 v 1.2 c 0,0.6 0.5999999,0.6 0.5999999,0.6 V 8.6 H 8.6019391 v -3 h 0.9 z"
     id="path5" />
</svg>
