<?xml version="1.0" encoding="UTF-8" standalone="no"?>
<svg
   width="16"
   height="16"
   version="1.1"
   id="svg7"
   sodipodi:docname="hifi.svg"
   inkscape:version="1.2.1 (9c6d41e410, 2022-07-14, custom)"
   xmlns:inkscape="http://www.inkscape.org/namespaces/inkscape"
   xmlns:sodipodi="http://sodipodi.sourceforge.net/DTD/sodipodi-0.dtd"
   xmlns="http://www.w3.org/2000/svg"
   xmlns:svg="http://www.w3.org/2000/svg">
  <sodipodi:namedview
     id="namedview9"
     pagecolor="#ffffff"
     bordercolor="#000000"
     borderopacity="0.25"
     inkscape:showpageshadow="2"
     inkscape:pageopacity="0.0"
     inkscape:pagecheckerboard="0"
     inkscape:deskcolor="#d1d1d1"
     showgrid="false"
     inkscape:zoom="55.625"
     inkscape:cx="7.4247191"
     inkscape:cy="8.0089888"
     inkscape:window-width="1920"
     inkscape:window-height="1057"
     inkscape:window-x="0"
     inkscape:window-y="0"
     inkscape:window-maximized="1"
     inkscape:current-layer="svg7" />
  <defs
     id="defs3">
    <style
       id="current-color-scheme"
       type="text/css">
   .ColorScheme-Text { color:#d8c4f1; } .ColorScheme-Highlight { color:#4285f4; } .ColorScheme-NeutralText { color:#ff9800; } .ColorScheme-PositiveText { color:#4caf50; } .ColorScheme-NegativeText { color:#f44336; }
  </style>
  </defs>
  <path
     style="fill:currentColor;stroke-width:0.6"
     class="ColorScheme-Text"
     d="M 5.375,3.1999998 C 5.16725,3.1999998 5,3.3603255 5,3.5597655 V 10.040235 C 5,10.239675 5.16725,10.4 5.375,10.4 H 7.4 v 1.2 H 6.8 c -0.3324,0 -0.6,0.2676 -0.6,0.6 0,0.3324 0.2676,0.6 0.6,0.6 h 2.4 c 0.3324,0 0.6,-0.2676 0.6,-0.6 0,-0.3324 -0.2676,-0.6 -0.6,-0.6 H 8.6 v -1.2 h 2.025 C 10.83275,10.4 11,10.239675 11,10.040235 V 3.5597655 c 0,-0.19944 -0.16725,-0.3597657 -0.375,-0.3597657 z m 0.525,0.6 a 0.3,0.3 0 0 1 0.3,0.3 0.3,0.3 0 0 1 -0.3,0.3 0.3,0.3 0 0 1 -0.3,-0.3 0.3,0.3 0 0 1 0.3,-0.3 z m 2.1,0 a 2.3999999,2.3999999 0 0 1 2.4,2.4 2.3999999,2.3999999 0 0 1 -2.4,2.4 2.3999999,2.3999999 0 0 1 -2.4,-2.4 2.3999999,2.3999999 0 0 1 2.4,-2.4 z m 2.1,0 a 0.3,0.3 0 0 1 0.3,0.3 0.3,0.3 0 0 1 -0.3,0.3 0.3,0.3 0 0 1 -0.3,-0.3 0.3,0.3 0 0 1 0.3,-0.3 z m -2.1,0.6 a 1.8,1.8 0 0 0 -1.8,1.8 1.8,1.8 0 0 0 1.8,1.8 1.8,1.8 0 0 0 1.8,-1.8 1.8,1.8 0 0 0 -1.8,-1.8 z m 0,1.2 a 0.6,0.6 0 0 1 0.6,0.6 0.6,0.6 0 0 1 -0.6,0.6 0.6,0.6 0 0 1 -0.6,-0.6 0.6,0.6 0 0 1 0.6,-0.6 z m -2.1,3.6 A 0.3,0.3 0 0 1 6.2,9.5 0.3,0.3 0 0 1 5.9,9.8 0.3,0.3 0 0 1 5.6,9.5 0.3,0.3 0 0 1 5.9,9.1999998 Z m 4.2,0 A 0.3,0.3 0 0 1 10.4,9.5 0.3,0.3 0 0 1 10.1,9.8 0.3,0.3 0 0 1 9.8,9.5 0.3,0.3 0 0 1 10.1,9.1999998 Z"
     id="path5" />
</svg>
