<?xml version="1.0" encoding="UTF-8" standalone="no"?>
<svg
   width="16"
   height="16"
   viewBox="0 0 16 16"
   version="1.1"
   id="svg7"
   sodipodi:docname="input-gaming.svg"
   inkscape:version="1.2.1 (9c6d41e410, 2022-07-14, custom)"
   xmlns:inkscape="http://www.inkscape.org/namespaces/inkscape"
   xmlns:sodipodi="http://sodipodi.sourceforge.net/DTD/sodipodi-0.dtd"
   xmlns="http://www.w3.org/2000/svg"
   xmlns:svg="http://www.w3.org/2000/svg">
  <sodipodi:namedview
     id="namedview9"
     pagecolor="#ffffff"
     bordercolor="#000000"
     borderopacity="0.25"
     inkscape:showpageshadow="2"
     inkscape:pageopacity="0.0"
     inkscape:pagecheckerboard="0"
     inkscape:deskcolor="#d1d1d1"
     showgrid="false"
     inkscape:zoom="55.625"
     inkscape:cx="7.4247191"
     inkscape:cy="8.0089888"
     inkscape:window-width="1920"
     inkscape:window-height="1057"
     inkscape:window-x="0"
     inkscape:window-y="0"
     inkscape:window-maximized="1"
     inkscape:current-layer="svg7" />
  <defs
     id="defs3">
    <style
       id="current-color-scheme"
       type="text/css">
   .ColorScheme-Text { color:#d8c4f1; } .ColorScheme-Highlight { color:#4285f4; } .ColorScheme-NeutralText { color:#ff9800; } .ColorScheme-PositiveText { color:#4caf50; } .ColorScheme-NegativeText { color:#f44336; }
  </style>
  </defs>
  <path
     style="fill:currentColor;stroke-width:0.6"
     class="ColorScheme-Text"
     d="M 10.541797,4.3890599 C 10.39725,4.3897349 10.263652,4.4351456 10.138672,4.5238256 9.8223578,4.7496056 9.16322,4.9916156 8,4.9925756 c -1.16322,0 -1.8223518,-0.24297 -2.1386718,-0.46875 -0.124992,-0.08868 -0.2448305,-0.13191 -0.3902345,-0.13125 -0.1454039,6e-4 -0.3130743,0.03957 -0.4839843,0.13125 -0.62244,0.3279 -1.1946394,1.40163 -1.5058594,2.79375 -0.265296,1.18254 -0.3632381,2.7996604 -0.2050781,3.4500004 0.137748,0.55902 0.3757747,0.80625 0.7992188,0.80625 0.62754,-0.0108 1.4160356,-0.70938 1.9160156,-1.6500004 C 6.3530262,9.4030856 7.19174,9.1663556 8,9.1925756 c 0.8082,-0.0282 1.6469136,0.21051 2.008594,0.73125 0.49998,0.9406204 1.288476,1.6392604 1.916016,1.6500004 0.423456,0 0.661458,-0.24723 0.799218,-0.80625 0.15816,-0.65034 0.06022,-2.2674604 -0.205078,-3.4500004 -0.311214,-1.39212 -0.88342,-2.46585 -1.50586,-2.79375 -0.17091,-0.09138 -0.326545,-0.1354407 -0.471093,-0.1347657 z M 5.6199219,6.1925756 h 0.5953125 v 0.6 H 6.809375 v 0.6 H 6.2152344 v 0.6 H 5.6199219 v -0.6 H 5.0246094 v -0.6 h 0.5953125 z m 4.4625001,0 c 0.16434,0 0.297656,0.13434 0.297656,0.3 0,0.16572 -0.133316,0.3 -0.297656,0.3 -0.1643402,0 -0.2964842,-0.13428 -0.2964848,-0.3 0,-0.16566 0.1321446,-0.3 0.2964848,-0.3 z m -0.5941406,0.6 c 0.16434,0 0.2976558,0.13434 0.2976558,0.3 0,0.16572 -0.1333158,0.3 -0.2976558,0.3 -0.164334,0 -0.2976564,-0.13428 -0.2976564,-0.3 0,-0.16566 0.1333224,-0.3 0.2976564,-0.3 z m 1.1894536,0 c 0.164334,0 0.297655,0.13434 0.297655,0.3 0,0.16572 -0.133321,0.3 -0.297655,0.3 -0.16434,0 -0.297657,-0.13428 -0.297657,-0.3 0,-0.16566 0.133317,-0.3 0.297657,-0.3 z m -0.595313,0.6 c 0.16434,0 0.297656,0.13434 0.297656,0.3 0,0.16572 -0.133316,0.3 -0.297656,0.3 -0.1643402,0 -0.2964848,-0.13428 -0.2964848,-0.3 0,-0.16566 0.1321446,-0.3 0.2964848,-0.3 z"
     id="path5" />
</svg>
