<?xml version="1.0" encoding="UTF-8" standalone="no"?>
<svg
   width="16"
   height="16"
   version="1.1"
   id="svg7"
   sodipodi:docname="input-dialpad.svg"
   inkscape:version="1.2.1 (9c6d41e410, 2022-07-14, custom)"
   xmlns:inkscape="http://www.inkscape.org/namespaces/inkscape"
   xmlns:sodipodi="http://sodipodi.sourceforge.net/DTD/sodipodi-0.dtd"
   xmlns="http://www.w3.org/2000/svg"
   xmlns:svg="http://www.w3.org/2000/svg">
  <sodipodi:namedview
     id="namedview9"
     pagecolor="#ffffff"
     bordercolor="#000000"
     borderopacity="0.25"
     inkscape:showpageshadow="2"
     inkscape:pageopacity="0.0"
     inkscape:pagecheckerboard="0"
     inkscape:deskcolor="#d1d1d1"
     showgrid="false"
     inkscape:zoom="55.625"
     inkscape:cx="7.4247191"
     inkscape:cy="8.0089888"
     inkscape:window-width="1920"
     inkscape:window-height="1057"
     inkscape:window-x="0"
     inkscape:window-y="0"
     inkscape:window-maximized="1"
     inkscape:current-layer="svg7" />
  <defs
     id="defs3">
    <style
       id="current-color-scheme"
       type="text/css">
   .ColorScheme-Text { color:#d8c4f1; } .ColorScheme-Highlight { color:#4285f4; } .ColorScheme-NeutralText { color:#ff9800; } .ColorScheme-PositiveText { color:#4caf50; } .ColorScheme-NegativeText { color:#f44336; }
  </style>
  </defs>
  <path
     style="fill:currentColor;stroke-width:0.6"
     class="ColorScheme-Text"
     d="m 7.9,11.2 h 1.2 c 0.1662,0 0.3,0.1338 0.3,0.3 v 1.2 C 9.4,12.8662 9.2662,13 9.1,13 H 7.9 C 7.7338,13 7.6,12.8662 7.6,12.7 v -1.2 c 0,-0.1662 0.1338,-0.3 0.3,-0.3 z m 2.4,-2.4 h 1.2 c 0.1662,0 0.3,0.1338 0.3,0.3 v 1.2 c 0,0.1662 -0.1338,0.3 -0.3,0.3 H 10.3 C 10.1338,10.6 10,10.4662 10,10.3 V 9.1 c 0,-0.1662 0.1338,-0.3 0.3,-0.3 z m -2.4,0 h 1.2 c 0.1662,0 0.3,0.1338 0.3,0.3 v 1.2 c 0,0.1662 -0.1338,0.3 -0.3,0.3 H 7.9 C 7.7338,10.6 7.6,10.4662 7.6,10.3 V 9.1 C 7.6,8.9338 7.7338,8.8 7.9,8.8 Z m -2.4,0 H 6.7 C 6.8662,8.8 7,8.9338 7,9.1 v 1.2 c 0,0.1662 -0.1338,0.3 -0.3,0.3 H 5.5 C 5.3338,10.6 5.2,10.4662 5.2,10.3 V 9.1 C 5.2,8.9338 5.3338,8.8 5.5,8.8 Z m 0,-2.4 H 6.7 C 6.8662,6.4 7,6.5338 7,6.7 V 7.9 C 7,8.0662 6.8662,8.2 6.7,8.2 H 5.5 C 5.3338,8.2 5.2,8.0662 5.2,7.9 V 6.7 C 5.2,6.5338 5.3338,6.4 5.5,6.4 Z m 2.4,0 h 1.2 c 0.1662,0 0.3,0.1338 0.3,0.3 V 7.9 C 9.4,8.0662 9.2662,8.2 9.1,8.2 H 7.9 C 7.7338,8.2 7.6,8.0662 7.6,7.9 V 6.7 C 7.6,6.5338 7.7338,6.4 7.9,6.4 Z m 2.4,0 h 1.2 c 0.1662,0 0.3,0.1338 0.3,0.3 v 1.2 c 0,0.1662 -0.1338,0.3 -0.3,0.3 H 10.3 C 10.1338,8.2 10,8.0662 10,7.9 V 6.7 c 0,-0.1662 0.1338,-0.3 0.3,-0.3 z m 0,-2.4 h 1.2 c 0.1662,0 0.3,0.1338 0.3,0.3 v 1.2 c 0,0.1662 -0.1338,0.3 -0.3,0.3 H 10.3 C 10.1338,5.8 10,5.6662 10,5.5 V 4.3 C 10,4.1338 10.1338,4 10.3,4 Z M 7.9,4 H 9.1 C 9.2662,4 9.4,4.1338 9.4,4.3 V 5.5 C 9.4,5.6662 9.2662,5.8 9.1,5.8 H 7.9 C 7.7338,5.8 7.6,5.6662 7.6,5.5 V 4.3 C 7.6,4.1338 7.7338,4 7.9,4 Z M 5.5,4 H 6.7 C 6.8662,4 7,4.1338 7,4.3 V 5.5 C 7,5.6662 6.8662,5.8 6.7,5.8 H 5.5 C 5.3338,5.8 5.2,5.6662 5.2,5.5 V 4.3 C 5.2,4.1338 5.3338,4 5.5,4 Z"
     id="path5" />
</svg>
