<?xml version="1.0" encoding="UTF-8" standalone="no"?>
<svg
   width="16"
   height="16"
   version="1.1"
   id="svg7"
   sodipodi:docname="media-tape.svg"
   inkscape:version="1.2.1 (9c6d41e410, 2022-07-14, custom)"
   xmlns:inkscape="http://www.inkscape.org/namespaces/inkscape"
   xmlns:sodipodi="http://sodipodi.sourceforge.net/DTD/sodipodi-0.dtd"
   xmlns="http://www.w3.org/2000/svg"
   xmlns:svg="http://www.w3.org/2000/svg">
  <sodipodi:namedview
     id="namedview9"
     pagecolor="#ffffff"
     bordercolor="#000000"
     borderopacity="0.25"
     inkscape:showpageshadow="2"
     inkscape:pageopacity="0.0"
     inkscape:pagecheckerboard="0"
     inkscape:deskcolor="#d1d1d1"
     showgrid="false"
     inkscape:zoom="55.625"
     inkscape:cx="7.4247191"
     inkscape:cy="8.0089888"
     inkscape:window-width="1920"
     inkscape:window-height="1057"
     inkscape:window-x="0"
     inkscape:window-y="0"
     inkscape:window-maximized="1"
     inkscape:current-layer="svg7" />
  <defs
     id="defs3">
    <style
       id="current-color-scheme"
       type="text/css">
   .ColorScheme-Text { color:#d8c4f1; } .ColorScheme-Highlight { color:#4285f4; } .ColorScheme-NeutralText { color:#ff9800; } .ColorScheme-PositiveText { color:#4caf50; } .ColorScheme-NegativeText { color:#f44336; }
  </style>
  </defs>
  <path
     style="fill:currentColor;stroke-width:0.6"
     class="ColorScheme-Text"
     d="M 5,4.4 C 3.8,4.4 3.8,5.6 3.8,5.6 v 4.8 c 0,0 0,1.2 1.2,1.2 h 6 c 0,0 1.2,0 1.2,-1.2 V 5.6 C 12.2,4.4 11,4.4 11,4.4 Z M 6.2,6.8 C 6.86,6.8 7.4,7.34 7.4,8 7.4,8.216 7.334,8.426 7.232,8.6 H 8.768 C 8.666,8.426 8.6,8.216 8.6,8 8.6,7.34 9.14,6.8 9.8,6.8 10.46,6.8 11,7.34 11,8 11,8.66 10.46,9.2 9.8,9.2 H 6.2 C 5.54,9.2 5,8.66 5,8 5,7.34 5.54,6.8 6.2,6.8 Z m 0,0.6 C 5.87,7.4 5.6,7.67 5.6,8 5.6,8.33 5.87,8.6 6.2,8.6 6.53,8.6 6.8,8.33 6.8,8 6.8,7.67 6.53,7.4 6.2,7.4 Z m 3.6,0 C 9.47,7.4 9.2,7.67 9.2,8 c 0,0.33 0.27,0.6 0.6,0.6 0.33,0 0.6,-0.27 0.6,-0.6 0,-0.33 -0.27,-0.6 -0.6,-0.6 z"
     id="path5" />
</svg>
