<?xml version="1.0" encoding="UTF-8" standalone="no"?>
<svg
   width="16"
   height="16"
   version="1.1"
   viewBox="0 0 16 16"
   id="svg7"
   sodipodi:docname="network-server.svg"
   inkscape:version="1.2.1 (9c6d41e410, 2022-07-14, custom)"
   xmlns:inkscape="http://www.inkscape.org/namespaces/inkscape"
   xmlns:sodipodi="http://sodipodi.sourceforge.net/DTD/sodipodi-0.dtd"
   xmlns="http://www.w3.org/2000/svg"
   xmlns:svg="http://www.w3.org/2000/svg">
  <sodipodi:namedview
     id="namedview9"
     pagecolor="#ffffff"
     bordercolor="#000000"
     borderopacity="0.25"
     inkscape:showpageshadow="2"
     inkscape:pageopacity="0.0"
     inkscape:pagecheckerboard="0"
     inkscape:deskcolor="#d1d1d1"
     showgrid="false"
     inkscape:zoom="55.625"
     inkscape:cx="7.4247191"
     inkscape:cy="8.0089888"
     inkscape:window-width="1920"
     inkscape:window-height="1057"
     inkscape:window-x="0"
     inkscape:window-y="0"
     inkscape:window-maximized="1"
     inkscape:current-layer="svg7" />
  <defs
     id="defs3">
    <style
       id="current-color-scheme"
       type="text/css">
   .ColorScheme-Text { color:#d8c4f1; } .ColorScheme-Highlight { color:#4285f4; } .ColorScheme-NeutralText { color:#ff9800; } .ColorScheme-PositiveText { color:#4caf50; } .ColorScheme-NegativeText { color:#f44336; }
  </style>
  </defs>
  <path
     style="fill:currentColor;stroke-width:0.6"
     class="ColorScheme-Text"
     d="M 4.4,3.2 C 4.0676,3.2 3.8,3.4676 3.8,3.8 v 1.8 h 8.4 V 3.8 C 12.2,3.4676 11.9324,3.2 11.6,3.2 Z M 8,3.8 H 8.6 V 5 H 8 Z m 1.2,0 H 9.8 V 5 H 9.2 Z m 1.2,0 H 11 V 5 H 10.4 Z M 3.8,6.2 v 2.4 h 8.4 V 6.2 Z M 8,6.8 H 8.6 V 8 H 8 Z m 1.2,0 H 9.8 V 8 H 9.2 Z m 1.2,0 H 11 V 8 H 10.4 Z M 3.8,9.2 V 11 c 0,0.3324 0.2676,0.6 0.6,0.6 h 3 v 1.2 h 1.2 v -1.2 h 3 c 0.3324,0 0.6,-0.2676 0.6,-0.6 V 9.2 Z M 8,9.8 H 8.6 V 11 H 8 Z m 1.2,0 H 9.8 V 11 H 9.2 Z m 1.2,0 H 11 V 11 h -0.6 z"
     id="path5" />
</svg>
