<?xml version="1.0" encoding="UTF-8" standalone="no"?>
<!-- Generator: Adobe Illustrator 15.1.0, SVG Export Plug-In . SVG Version: 6.00 Build 0)  -->

<svg
   version="1.1"
   id="Layer_1"
   x="0px"
   y="0px"
   width="56.69px"
   height="56.69px"
   viewBox="0 0 56.69 56.69"
   enable-background="new 0 0 56.69 56.69"
   xml:space="preserve"
   sodipodi:docname="weather10.svg"
   inkscape:version="1.2.1 (9c6d41e410, 2022-07-14)"
   xmlns:inkscape="http://www.inkscape.org/namespaces/inkscape"
   xmlns:sodipodi="http://sodipodi.sourceforge.net/DTD/sodipodi-0.dtd"
   xmlns="http://www.w3.org/2000/svg"
   xmlns:svg="http://www.w3.org/2000/svg"><defs
   id="defs7" /><sodipodi:namedview
   id="namedview5"
   pagecolor="#c91d18"
   bordercolor="#000000"
   borderopacity="0.25"
   inkscape:showpageshadow="2"
   inkscape:pageopacity="0"
   inkscape:pagecheckerboard="0"
   inkscape:deskcolor="#d1d1d1"
   showgrid="false"
   inkscape:zoom="3.1707533"
   inkscape:cx="-19.869095"
   inkscape:cy="-34.376689"
   inkscape:window-width="1920"
   inkscape:window-height="1046"
   inkscape:window-x="0"
   inkscape:window-y="34"
   inkscape:window-maximized="1"
   inkscape:current-layer="Layer_1" />
<path
   d="m 45.342,24.997 1.114,3.408 0.921,-3.467 3.408,-1.113 -3.467,-0.922 -1.116,-3.406 -0.918,3.465 -3.409,1.115 z"
   id="path848"
   style="fill-opacity:1;fill:#f6ff24" /><path
   d="m 37.475,22.091 1.5,-4.871 4.905,-1.395 -4.872,-1.5 -1.394,-4.902 -1.5,4.869 -4.904,1.393 4.872,1.502 z"
   id="path846"
   style="fill-opacity:1;fill:#f6ff24" /><path
   d="M 51.004,41.19 C 47.85,46.297 42.831,50.266 36.582,51.961 23.532,55.498 10.084,47.787 6.546,34.736 3.008,21.685 10.72,8.237 23.771,4.698 25.563,4.214 27.362,3.946 29.141,3.87 23.933,9.382 21.631,17.393 23.76,25.249 26.979,37.124 39.12,44.19 51.004,41.19 Z"
   id="path2"
   style="fill:#f6ff24;fill-opacity:1" />
</svg>
