<?xml version="1.0" encoding="UTF-8" standalone="no"?>
<!-- Generator: Gravit.io -->

<svg
   style="isolation:isolate"
   viewBox="0 0 48 48"
   width="48pt"
   height="48pt"
   version="1.1"
   id="svg10"
   sodipodi:docname="folder-music.svg"
   inkscape:version="1.2.1 (9c6d41e410, 2022-07-14)"
   xmlns:inkscape="http://www.inkscape.org/namespaces/inkscape"
   xmlns:sodipodi="http://sodipodi.sourceforge.net/DTD/sodipodi-0.dtd"
   xmlns="http://www.w3.org/2000/svg"
   xmlns:svg="http://www.w3.org/2000/svg">
  <defs
     id="defs14">
    <linearGradient
       id="linearGradient4227">
      <stop
         id="stop00"
         offset="0.0"
         style="stop-color:#f7aa94;stop-opacity:1.0" />
      <stop
         id="stop01"
         offset="0.5"
         style="stop-color:#f07cac;stop-opacity:1.0" />
      <stop
         id="stop02"
         offset="1.0"
         style="stop-color:#ed72c7;stop-opacity:1.0" />
    </linearGradient>
  </defs>
  <sodipodi:namedview
     id="namedview12"
     pagecolor="#ffffff"
     bordercolor="#666666"
     borderopacity="1.0"
     inkscape:pageshadow="2"
     inkscape:pageopacity="0.0"
     inkscape:pagecheckerboard="0"
     inkscape:document-units="pt"
     showgrid="false"
     inkscape:zoom="8.9375"
     inkscape:cx="30.545455"
     inkscape:cy="31.832168"
     inkscape:window-width="1920"
     inkscape:window-height="1046"
     inkscape:window-x="0"
     inkscape:window-y="34"
     inkscape:window-maximized="1"
     inkscape:current-layer="svg10"
     inkscape:showpageshadow="2"
     inkscape:deskcolor="#d1d1d1" />
  <path
     d="m 3.4961,14.791447 v 25.1172 c 0,1.4904 1.2096,2.7 2.7,2.7 h 35.0838 c 1.4904,0 2.7,-1.2096 2.7,-2.7 v -21.3687 c 0,-1.4904 -1.2096,-2.7009 -2.7,-2.7018 l -19.9017,-0.0153 c -0.4968,-9e-4 -1.1853,-0.2862 -1.5363,-0.6381 l -1.899,-1.9026 c -0.702,-0.7029 -2.0781,-1.2681 -3.0717,-1.2618 l -8.6751,0.054 c -1.4904,0.0099 -2.7,1.2267 -2.7,2.7171 z"
     id="path2"
     style="fill:#e5e5e5;fill-opacity:1;stroke-width:0.9" />
  <path
     d="m 8.2238,17.221447 h 31.5 c 0.9936,0 1.8,0.8064 1.8,1.8 v 9 c 0,0.9936 -0.8064,1.8 -1.8,1.8 h -31.5 c -0.9936,0 -1.8,-0.8064 -1.8,-1.8 v -9 c 0,-0.9936 0.8064,-1.8 1.8,-1.8 z"
     id="path4"
     style="fill:#d2d2d2;fill-opacity:1;stroke-width:0.9" />
  <path
     d="m 3.4961,18.989947 v 22.7187 c 0,1.4904 1.2096,2.7 2.7,2.7 h 35.0838 c 1.4904,0 2.7,-1.2096 2.7,-2.7 v -20.0187 c 0,-1.4904 -1.2096,-2.7009 -2.7,-2.7018 l -19.9017,-0.0153 c -0.4968,-9e-4 -1.3032,-9e-4 -1.8,0 z"
     id="path6"
     style="fill:#f4f4f4;fill-opacity:1;stroke-width:0.9"
     sodipodi:nodetypes="cssssscccc" />
  <path
     d="m 30.7274,24.824647 c -0.4203,-0.342 -0.9657,-0.4752 -1.4976,-0.3654 l -6.9912,1.4688 c -0.828,0.171 -1.4292,0.9099 -1.4292,1.7559 v 6.705 c -0.4923,-0.3672 -1.1025,-0.5841 -1.7631,-0.5841 -1.6308,0 -2.9583,1.3266 -2.9583,2.9583 0,1.6308 1.3275,2.9583 2.9583,2.9583 1.6272,0 2.9511,-1.3203 2.9583,-2.9448 0,-9e-4 0,-0.0027 0,-0.0036 v -6.7257 l 8.1882,-1.7415 v 4.1706 c -0.4932,-0.3672 -1.1034,-0.5841 -1.7631,-0.5841 -1.6317,0 -2.9583,1.3266 -2.9583,2.9583 0,1.6308 1.3266,2.9583 2.9583,2.9583 0.3195,0 0.6345,-0.0513 0.936,-0.1512 0.3132,-0.1044 0.4824,-0.4428 0.378,-0.756 -0.1044,-0.3132 -0.4428,-0.4824 -0.756,-0.378 -0.1791,0.0594 -0.3672,0.09 -0.558,0.09 -0.972,0 -1.7631,-0.7911 -1.7631,-1.7631 0,-0.972 0.7911,-1.7631 1.7631,-1.7631 0.972,0 1.7631,0.7911 1.7631,1.7631 v 0.0036 c 0,0.3303 0.2673,0.5976 0.5976,0.5976 0.3303,0 0.5976,-0.2673 0.5976,-0.5976 v -8.64 0 0 c 0,-0.5409 -0.2412,-1.0476 -0.6606,-1.3896 z m -11.6811,13.7016 c -0.972,0 -1.7631,-0.7911 -1.7631,-1.7631 0,-0.972 0.7911,-1.7631 1.7631,-1.7631 0.972,0 1.7631,0.7911 1.7631,1.7631 0,0.972 -0.7911,1.7631 -1.7631,1.7631 z m 2.9583,-10.8423 c 0,-0.2826 0.2007,-0.5283 0.4788,-0.5859 l 6.9903,-1.4688 c 0.0405,-0.0081 0.0819,-0.0126 0.1224,-0.0126 0.1359,0 0.2682,0.0468 0.3762,0.1341 0.1404,0.1143 0.2205,0.2835 0.2205,0.4635 v 0.8694 l -8.1882,1.7415 z"
     id="path8"
     style="fill:#516367;fill-opacity:1;stroke-width:0.9" />
</svg>
