<?xml version="1.0" encoding="UTF-8" standalone="no"?>
<!-- Generator: Adobe Illustrator 15.1.0, SVG Export Plug-In . SVG Version: 6.00 Build 0)  -->

<svg
   version="1.1"
   id="Layer_1"
   x="0px"
   y="0px"
   width="56.69px"
   height="56.69px"
   viewBox="0 0 56.69 56.69"
   enable-background="new 0 0 56.69 56.69"
   xml:space="preserve"
   sodipodi:docname="jdwi-unknown.svg"
   inkscape:version="1.2.1 (9c6d41e410, 2022-07-14)"
   xmlns:inkscape="http://www.inkscape.org/namespaces/inkscape"
   xmlns:sodipodi="http://sodipodi.sourceforge.net/DTD/sodipodi-0.dtd"
   xmlns="http://www.w3.org/2000/svg"
   xmlns:svg="http://www.w3.org/2000/svg"><defs
   id="defs7" /><sodipodi:namedview
   id="namedview5"
   pagecolor="#ffffff"
   bordercolor="#000000"
   borderopacity="0.25"
   inkscape:showpageshadow="2"
   inkscape:pageopacity="0.0"
   inkscape:pagecheckerboard="0"
   inkscape:deskcolor="#d1d1d1"
   showgrid="false"
   inkscape:zoom="6.3415066"
   inkscape:cx="37.845896"
   inkscape:cy="13.719137"
   inkscape:window-width="1920"
   inkscape:window-height="1046"
   inkscape:window-x="0"
   inkscape:window-y="34"
   inkscape:window-maximized="1"
   inkscape:current-layer="Layer_1" />

<path
   d="m 29.124023,3.4557164 c -13.399459,0 -24.2636224,10.8641606 -24.2636224,24.2636206 0,13.399458 10.8641634,24.263618 24.2636224,24.263618 13.399458,0 24.263622,-10.86416 24.263622,-24.263618 0,-13.39946 -10.864164,-24.2636206 -24.263622,-24.2636206 z m 0,43.4467346 c -1.876713,0 -3.396907,-1.525141 -3.396907,-3.396906 0,-1.876718 1.525137,-3.396909 3.396907,-3.396909 1.876714,0 3.396905,1.525142 3.396905,3.396909 0,1.876716 -1.520191,3.396906 -3.396905,3.396906 z M 33.82819,31.467817 c -0.01981,0.0098 -0.03961,0.01487 -0.05942,0.0297 -1.297359,0.609067 -2.134203,1.931187 -2.134203,3.362244 0,1.386492 -1.124057,2.510542 -2.510545,2.510542 -1.38649,0 -2.510544,-1.12405 -2.510544,-2.510542 0,-3.342436 1.946036,-6.427381 4.95671,-7.873297 0.01981,-0.0098 0.03961,-0.0198 0.05943,-0.0297 2.064879,-0.970544 3.396906,-3.07009 3.396906,-5.347898 0,-3.258259 -2.649192,-5.907451 -5.907451,-5.907451 -3.258259,0 -5.907437,2.649192 -5.907437,5.907451 0,1.38649 -1.124056,2.51054 -2.510545,2.51054 -1.386503,0 -2.510547,-1.12405 -2.510547,-2.51054 0,-6.026292 4.902238,-10.923583 10.923584,-10.923583 6.026291,0 10.923583,4.90224 10.923583,10.923583 0.0097,4.189188 -2.426374,8.051558 -6.209512,9.858949 z"
   id="path4"
   style="fill:#ffffff;fill-opacity:1;stroke-width:0.0495176" /></svg>
