<svg xmlns="http://www.w3.org/2000/svg" width="32" height="32" version="1.1">
 <g id="22-22-video-card-inactive" transform="translate(27,-26.999998)">
  <rect style="opacity:0.001" width="22" height="22" x="5" y="5"/>
  <path style="fill:#fefefe" d="m 9,8 c -1.325,0 -1.325,2 0,2 h 1 v 3 H 8 v 3 h 2 v 1 H 8 v 3 h 2 v 2 c 0,1.325 2,1.325 2,0 V 9 C 12,8.0000398 11,8 11,8 Z m 4,3 v 2 h 9 v 5 h 0.199219 c 0.31658,0 0.477092,0.07124 0.46289,0.06836 a 1.0001,1.0001 0 0 1 0.507813,0.273438 L 24,19.171875 V 11 Z m -4,3 h 1 v 1 H 9 Z m 5,0 v 4 h 1 v -4 z m 2,0 v 4 h 1 v -4 z m 2,0 v 4 h 1 v -4 z m 2,0 v 4 h 1 V 14 Z M 9,18 h 1 v 1 H 9 Z m 4,1 v 2 h 1 v 2 h 6.205078 a 1.0001,1.0001 0 0 1 0.136719,-0.169922 L 21.171875,22 20.341797,21.169922 A 1.0001,1.0001 0 0 1 20.207031,21 H 16 v -2 z"/>
  <path style="fill:#d94126" d="m 21.000002,18.999998 v 1.199219 c 0,0.0926 0.0311,0.176228 0.04883,0.263672 l 1.537108,1.537109 -1.53711,1.537109 C 21.03039,23.624697 21,23.709689 21,23.800779 v 1.199219 h 1.199219 c 0.09036,0 0.175657,-0.03068 0.263672,-0.04883 L 24,23.41406 25.537109,24.95117 C 25.625129,24.96932 25.710422,25 25.800781,25 H 27 V 23.800781 C 27,23.709691 26.96961,23.6247 26.95117,23.537109 L 25.414062,22 l 1.53711,-1.537109 c 0.01773,-0.08744 0.04883,-0.171072 0.04883,-0.263672 V 19 h -1.199219 c -0.0926,0 -0.17623,0.0311 -0.263672,0.04883 l -1.537109,1.537108 -1.537109,-1.53711 c -0.08744,-0.01772 -0.171076,-0.04883 -0.263672,-0.04883 z"/>
 </g>
 <g id="video-card-inactive" transform="translate(32)">
  <rect style="opacity:0.001" width="32" height="32" x="0" y="0"/>
  <path style="fill:#fefefe" d="m 5.5,4.0996094 c -1.9875,0 -1.9875,3 0,3 H 7 V 12 H 4 v 4.099609 H 7 V 18 H 4 v 4.099609 H 7 V 25.5 c 0,1.9875 3,1.9875 3,0 V 5.5996094 c 0,-1.4999403 -1.5,-1.5 -1.5,-1.5 z m 5.5,4 v 2.9999996 h 14 v 7.9375 c 0.249745,0.03519 0.406463,0.08027 0.347656,0.06836 l 0.589844,0.11914 1.0625,1.0625 1,-1.001953 V 8.0996094 Z M 13,13 v 6 h 1 v -6 z m 3,0 v 6 h 1 v -6 z m 3,0 v 6 h 1 v -6 z m 3,0 v 6 h 1 V 13 Z M 5,13.099609 H 7 V 15 H 5 Z M 5,19 h 2 v 2 H 5 Z m 6,1 v 3 h 2 v 3 h 8.285156 l 1,-1 -1.060547,-1.060547 -0.11914,-0.591797 C 21.117359,23.406327 21.072293,23.249698 21.037109,23 H 16 v -3 z"/>
  <path style="fill:#d94126" d="m 23.000002,21 v 1.598958 c 0,0.123466 0.04147,0.234971 0.0651,0.351562 l 2.049478,2.049479 -2.04948,2.049478 C 23.04051,27.166263 23,27.279586 23,27.401039 v 1.598958 h 1.598958 c 0.12048,0 0.234209,-0.04091 0.351562,-0.06511 l 2.049479,-2.049476 2.049478,2.049479 C 29.166837,28.95909 29.28056,29 29.401039,29 h 1.598958 v -1.598959 c 0,-0.121452 -0.04052,-0.234774 -0.06511,-0.351562 L 28.885411,25.000001 30.93489,22.950523 C 30.95853,22.833937 31,22.722427 31,22.598961 v -1.598958 h -1.598959 c -0.123466,0 -0.234972,0.04147 -0.351562,0.0651 l -2.049478,2.049478 -2.049478,-2.04948 c -0.116586,-0.02362 -0.228101,-0.0651 -0.351562,-0.0651 z"/>
 </g>
 <g id="video-display" transform="translate(2e-7,66.000002)">
  <rect style="opacity:0.001" width="32" height="32" x="0" y="-34"/>
  <g transform="translate(2e-4,-35)">
   <path style="fill:#fefefe" transform="translate(0,1)" d="M 4.3007812,4 C 3.5805813,4 3,4.5575 3,5.25 v 17.5 C 3,23.4425 3.5805813,24 4.3007812,24 H 8 v 1.6875 C 8,26.414902 8.5935493,27 9.3320312,27 H 22.667969 C 23.406451,27 24,26.414902 24,25.6875 V 24 h 3.699219 C 28.419419,24 29,23.4425 29,22.75 V 5.25 C 29,4.5575 28.419419,4 27.699219,4 Z M 6,7 H 26 V 21 H 24 8 6 Z"/>
  </g>
 </g>
 <g id="22-22-video-display" transform="translate(27,37)">
  <rect style="opacity:0.001" width="22" height="22" x="5" y="5"/>
  <path style="fill:#fefefe" d="M 9,9 C 8.446,9 8,9.446 8,10 v 10 c 0,0.554 0.446,1 1,1 h 5 c -0.554,0 -1,0.446 -1,1 v 1 h 6 v -1 c 0,-0.554 -0.446,-1 -1,-1 h 5 c 0.554,0 1,-0.446 1,-1 V 10 C 24,9.446 23.554,9 23,9 Z m 1,2 h 12 v 8 H 10 Z"/>
 </g>
 <g id="video-display-brightness">
  <rect style="opacity:0.001" width="32" height="32" x="0" y="0"/>
  <path style="fill:#fefefe" d="M 14 4 L 14 7.3339844 C 14 7.7760094 14.210837 8.1991603 14.585938 8.5117188 C 14.961037 8.8242854 15.4696 9 16 9 C 16.5304 9 17.038963 8.8242853 17.414062 8.5117188 C 17.789162 8.1991603 18 7.7760094 18 7.3339844 L 18 4 L 14 4 z M 8.9296875 6.0996094 L 6.0996094 8.9296875 L 8.4570312 11.287109 C 8.76959 11.599668 9.2188298 11.749301 9.7050781 11.705078 C 10.19133 11.660858 10.675731 11.42583 11.050781 11.050781 C 11.42583 10.675731 11.66086 10.19133 11.705078 9.7050781 C 11.749298 9.218829 11.599668 8.76959 11.287109 8.4570312 L 8.9296875 6.0996094 z M 23.070312 6.0996094 L 20.712891 8.4570312 C 20.400332 8.76959 20.250702 9.218829 20.294922 9.7050781 C 20.33914 10.19133 20.57417 10.675731 20.949219 11.050781 C 21.324269 11.42583 21.80867 11.660858 22.294922 11.705078 C 22.78117 11.749301 23.230411 11.599668 23.542969 11.287109 L 25.900391 8.9296875 L 23.070312 6.0996094 z M 16 11 C 15.011072 11 14.044941 11.292369 13.222656 11.841797 C 12.400442 12.391225 11.759359 13.172296 11.380859 14.085938 C 11.00243 14.99958 10.902774 16.004753 11.095703 16.974609 C 11.288631 17.944537 11.765559 18.835943 12.464844 19.535156 C 13.164057 20.234441 14.055464 20.711369 15.025391 20.904297 C 15.995248 21.097226 17.000422 20.997569 17.914062 20.619141 C 18.827704 20.240641 19.608775 19.599557 20.158203 18.777344 C 20.707631 17.955059 21 16.988927 21 16 C 21 14.67393 20.472869 13.402486 19.535156 12.464844 C 18.597514 11.527131 17.32607 11 16 11 z M 4 14 L 4 18 L 7.3339844 18 C 7.7760094 18 8.1991597 17.789162 8.5117188 17.414062 C 8.8242848 17.038963 9 16.5304 9 16 C 9 15.4696 8.8242848 14.961036 8.5117188 14.585938 C 8.1991597 14.210836 7.7760094 14 7.3339844 14 L 4 14 z M 24.666016 14 C 24.223991 14 23.80084 14.210836 23.488281 14.585938 C 23.175715 14.961036 23 15.4696 23 16 C 23 16.5304 23.175715 17.038963 23.488281 17.414062 C 23.80084 17.789162 24.223991 18 24.666016 18 L 28 18 L 28 14 L 24.666016 14 z M 9.5253906 20.287109 C 9.1095617 20.290492 8.7305204 20.439401 8.4570312 20.712891 L 6.0996094 23.070312 L 8.9296875 25.900391 L 11.287109 23.542969 C 11.599668 23.23041 11.749298 22.78117 11.705078 22.294922 C 11.66086 21.80867 11.42583 21.324269 11.050781 20.949219 C 10.675731 20.57417 10.19133 20.339142 9.7050781 20.294922 C 9.644297 20.289394 9.5847948 20.286626 9.5253906 20.287109 z M 22.474609 20.287109 C 22.415205 20.286626 22.355703 20.289394 22.294922 20.294922 C 21.80867 20.339142 21.324269 20.57417 20.949219 20.949219 C 20.57417 21.324269 20.33914 21.80867 20.294922 22.294922 C 20.250702 22.78117 20.400332 23.23041 20.712891 23.542969 L 23.070312 25.900391 L 25.900391 23.070312 L 23.542969 20.712891 C 23.26948 20.439401 22.890438 20.290492 22.474609 20.287109 z M 16 23 C 15.4696 23 14.961037 23.175715 14.585938 23.488281 C 14.210837 23.80084 14 24.223991 14 24.666016 L 14 28 L 18 28 L 18 24.666016 C 18 24.223991 17.789162 23.80084 17.414062 23.488281 C 17.038963 23.175715 16.5304 23 16 23 z"/>
 </g>
 <g id="22-22-video-display-brightness" transform="translate(-5,-27)">
  <rect style="opacity:0.001" width="22" height="22" x="5" y="5"/>
  <path style="fill:#fefefe" d="m 15,8 v 2 c 0,0.265215 0.105419,0.519496 0.292969,0.707031 C 15.480519,10.894571 15.7348,11 16,11 16.2652,11 16.519481,10.894571 16.707031,10.707031 16.894581,10.519496 17,10.265215 17,10 V 8 Z m -3.949219,1.6347656 -1.4160154,1.4160154 1.4160154,1.414063 c 0.09287,0.093 0.202819,0.166497 0.324219,0.216797 0.121395,0.05035 0.251398,0.07617 0.382812,0.07617 0.131416,0 0.261413,-0.02582 0.382813,-0.07617 0.1214,-0.0503 0.231369,-0.123797 0.324219,-0.216797 0.093,-0.09285 0.166497,-0.202819 0.216797,-0.324219 0.05035,-0.1214 0.07617,-0.251398 0.07617,-0.382813 0,-0.131415 -0.02582,-0.261417 -0.07617,-0.382812 -0.0503,-0.1214 -0.123797,-0.231344 -0.216797,-0.324219 z m 9.898438,0 -1.414063,1.4160154 c -0.0929,0.09291 -0.166497,0.202824 -0.216797,0.324219 -0.0503,0.12139 -0.07617,0.251418 -0.07617,0.382812 0,0.131395 0.02587,0.261413 0.07617,0.382813 0.0503,0.1214 0.123897,0.231319 0.216797,0.324219 0.0929,0.0929 0.202819,0.166497 0.324219,0.216797 0.1214,0.0503 0.251413,0.07617 0.382813,0.07617 0.131399,0 0.261412,-0.02587 0.382812,-0.07617 0.1214,-0.0503 0.231319,-0.123897 0.324219,-0.216797 l 1.416015,-1.414063 z M 16,12 c -0.791142,0 -1.564828,0.234286 -2.222656,0.673828 -0.65777,0.439543 -1.169857,1.064009 -1.472656,1.794922 -0.30274,0.730914 -0.382859,1.536615 -0.228516,2.3125 0.154343,0.775942 0.536275,1.487504 1.095703,2.046875 0.559371,0.559428 1.270933,0.94136 2.046875,1.095703 0.775885,0.154343 1.581586,0.07423 2.3125,-0.228516 0.730913,-0.302799 1.355379,-0.814886 1.794922,-1.472656 C 19.765714,17.564828 20,16.791142 20,16 20,14.939144 19.578295,13.921989 18.828125,13.171875 18.078011,12.421705 17.060856,12 16,12 Z m -8,3 v 2 h 2 c 0.265215,0 0.519496,-0.105419 0.707031,-0.292969 C 10.894571,16.519481 11,16.2652 11,16 11,15.7348 10.894571,15.480519 10.707031,15.292969 10.519496,15.105419 10.265215,15 10,15 Z m 14,0 c -0.2652,0 -0.519481,0.105419 -0.707031,0.292969 C 21.105419,15.480519 21,15.7348 21,16 c 0,0.2652 0.105419,0.519481 0.292969,0.707031 C 21.480519,16.894581 21.7348,17 22,17 h 2 v -2 z m -10.291016,4.242188 c -0.114588,0.0056 -0.227768,0.03216 -0.333984,0.07617 -0.121395,0.0503 -0.231309,0.123897 -0.324219,0.216797 l -1.4160154,1.414063 1.4160154,1.416015 1.414063,-1.416015 c 0.0929,-0.0929 0.166497,-0.202819 0.216797,-0.324219 0.0503,-0.1214 0.07617,-0.251413 0.07617,-0.382812 0,-0.1314 -0.02587,-0.261413 -0.07617,-0.382813 -0.0503,-0.1214 -0.123897,-0.231319 -0.216797,-0.324219 -0.0929,-0.0929 -0.202819,-0.166497 -0.324219,-0.216797 -0.1214,-0.0503 -0.251417,-0.07617 -0.382813,-0.07617 -0.01642,0 -0.03246,-8.06e-4 -0.04883,0 z m 8.484375,0 c -0.114599,0.0056 -0.227759,0.03212 -0.333984,0.07617 -0.1214,0.0503 -0.231369,0.123797 -0.324219,0.216797 -0.093,0.09285 -0.166497,0.202819 -0.216797,0.324219 -0.05035,0.1214 -0.07617,0.251413 -0.07617,0.382813 0,0.131399 0.02582,0.261412 0.07617,0.382812 0.0503,0.1214 0.123797,0.231369 0.216797,0.324219 l 1.414063,1.416015 1.416015,-1.416015 -1.416015,-1.414063 c -0.09285,-0.093 -0.202819,-0.166497 -0.324219,-0.216797 -0.1214,-0.05035 -0.251413,-0.07617 -0.382812,-0.07617 -0.01642,0 -0.03246,-8.07e-4 -0.04883,0 z M 16,21 c -0.2652,0 -0.519481,0.105419 -0.707031,0.292969 C 15.105419,21.480519 15,21.7348 15,22 v 2 h 2 V 22 C 17,21.7348 16.894581,21.480519 16.707031,21.292969 16.519481,21.105419 16.2652,21 16,21 Z"/>
 </g>
</svg>
