<?xml version="1.0" encoding="UTF-8" standalone="no"?>
<svg
   width="32"
   height="32"
   version="1.1"
   id="svg4979"
   sodipodi:docname="start.svg"
   inkscape:version="1.2.1 (9c6d41e410, 2022-07-14)"
   xmlns:inkscape="http://www.inkscape.org/namespaces/inkscape"
   xmlns:sodipodi="http://sodipodi.sourceforge.net/DTD/sodipodi-0.dtd"
   xmlns="http://www.w3.org/2000/svg"
   xmlns:svg="http://www.w3.org/2000/svg">
  <defs
     id="defs4983" />
  <sodipodi:namedview
     id="namedview4981"
     pagecolor="#ffffff"
     bordercolor="#000000"
     borderopacity="0.25"
     inkscape:showpageshadow="2"
     inkscape:pageopacity="0.0"
     inkscape:pagecheckerboard="0"
     inkscape:deskcolor="#d1d1d1"
     showgrid="false"
     inkscape:zoom="17.743961"
     inkscape:cx="13.920229"
     inkscape:cy="14.90648"
     inkscape:window-width="1920"
     inkscape:window-height="1042"
     inkscape:window-x="0"
     inkscape:window-y="38"
     inkscape:window-maximized="1"
     inkscape:current-layer="start-here-kde" />
  <g
     id="22-22-start-here-kde"
     transform="translate(27,5.0000005)">
    <rect
       style="opacity:0.001"
       width="22"
       height="22"
       x="5"
       y="5"
       id="rect4969" />
    <path
       style="fill:#d3dae3"
       d="m 17.007931,8.000006 -3.01305,0.5245581 V 18.894826 l 2.997438,-0.386106 -0.01562,-4.674223 3.536041,5.173431 3.473594,-0.499208 -3.996585,-5.354784 4.010245,-4.4928697 -3.516526,-0.6474102 -3.506769,4.4928699 z m -6.336382,2.648141 c -0.02894,0.0024 -0.05625,0.01509 -0.07806,0.03705 l -1.0342725,1.045216 c -0.044912,0.04523 -0.052405,0.115739 -0.017565,0.169653 l 1.2489325,1.91688 c -0.235608,0.417818 -0.41363,0.875932 -0.528845,1.355271 L 8.1053789,15.700675 C 8.0455199,15.715355 8,15.769425 8,15.831327 v 0.680561 0.680561 c 0,0.0619 0.045521,0.115975 0.1053789,0.130651 l 2.1563601,0.528459 c 0.115215,0.47934 0.293237,0.937455 0.528845,1.355272 l -1.2489325,1.91688 c -0.03484,0.05391 -0.027347,0.124425 0.017565,0.169652 l 1.0342725,1.045217 c 0.0436,0.04393 0.111261,0.04755 0.163922,0.01559 l 1.957312,-1.199264 c 0.384,0.223545 0.984668,0.403397 1.422612,0.522608 l 0.458593,2.213284 C 14.608668,23.954698 14.659458,24 14.722773,24 h 0.770825 0.770825 c 0.06333,0 0.114105,-0.0453 0.126846,-0.109202 l 0.458592,-2.213284 c 0.437944,-0.119211 1.038614,-0.299063 1.422612,-0.522608 l 1.957311,1.199268 c 0.05266,0.03195 0.120319,0.02834 0.163923,-0.0156 l 1.034272,-1.045217 c 0.04491,-0.04523 0.05241,-0.115738 0.01757,-0.169652 l -1.040126,-1.597076 -0.128797,0.0195 -0.729844,-1.068616 c -0.745428,1.561485 -2.321859,2.556557 -4.053177,2.55844 -2.483159,0 -4.496158,-2.011527 -4.496158,-4.492871 0.0014,-1.705422 0.969019,-3.263001 2.497864,-4.020965 v -0.980866 c -0.284995,0.09495 -0.565029,0.202121 -0.780583,0.327606 l -1.957312,-1.199269 c -0.02633,-0.01598 -0.05692,-0.02385 -0.08587,-0.02145 z"
       id="path4971" />
  </g>
  <g
     id="start-here-kde">
    <rect
       style="opacity:0.001"
       width="32"
       height="32"
       x="0"
       y="0"
       id="rect4974" />
    <path
       style="fill:#d3dae3;stroke-width:1.32864"
       d="M 17.324222,-0.14960521 11.981099,0.86244854 V 20.890733 l 5.314579,-0.747363 -0.02854,-9.025443 6.83266,9.990785 L 30.556177,20.14337 23.126665,9.8048517 30.582127,1.1271395 24.045297,-0.12365516 17.267133,8.5540563 Z M 5.1873638,5.935692 C 5.1314348,5.940322 5.0764078,5.963318 5.0342583,6.005758 L 3.036101,8.0272701 C 2.949306,8.1146861 2.935035,8.2500489 3.002366,8.3542419 L 5.415725,12.05732 c -0.4553304,0.807463 -0.7997725,1.694601 -1.022434,2.620959 l -4.16758521,1.019839 c -0.11568237,0.02837 -0.20241077,0.134681 -0.20241077,0.254311 v 1.313075 1.315669 c 0,0.119632 0.08673047,0.225948 0.20241077,0.254311 L 4.393291,19.855323 c 0.2226615,0.926361 0.5671038,1.810902 1.0224339,2.618365 l -2.413359,3.705673 c -0.06733,0.104177 -0.05306,0.239567 0.033735,0.326971 l 1.9981573,2.021512 c 0.08426,0.0849 0.2174147,0.0903 0.3191862,0.02854 l 3.7809293,-2.317343 c 0.7421087,0.432017 1.9043503,0.779075 2.7507093,1.009458 l 0.884898,4.279171 c 0.02463,0.123498 0.124169,0.210196 0.246526,0.210196 h 1.489537 1.489534 c 0.122395,0 0.219307,-0.0867 0.243932,-0.210196 l 0.887493,-4.279171 c 0.84636,-0.230383 2.00601,-0.577441 2.748114,-1.009458 l 3.783524,2.317343 c 0.101774,0.06175 0.232324,0.05636 0.316592,-0.02854 l 1.998157,-2.021512 c 0.08678,-0.08742 0.101062,-0.222778 0.03373,-0.326971 l -2.008538,-3.085465 -0.249121,0.03633 -2.61058,-3.905489 A 7.3075468,7.3075468 0 0 1 13.974061,25.094646 7.3075468,7.3075468 0 0 1 6.6665133,17.7871 7.3075468,7.3075468 0 0 1 10.644664,11.281412 V 7.6613718 C 10.093886,7.844871 9.5509419,8.0520463 9.134368,8.2945546 L 5.3534445,5.9746172 C 5.3025598,5.9437343 5.2433116,5.9310537 5.1873638,5.935692 Z"
       id="path4976" />
  </g>
</svg>
