<svg xmlns="http://www.w3.org/2000/svg" width="32" height="32" version="1.1">
 <g id="22-22-input-num-on" transform="translate(145,-27)">
  <rect style="opacity:0.001" width="22" height="22" x="5" y="5"/>
  <path style="fill:#fefefe" d="M 11,8 C 9.8920001,8 9,8.892 9,10 v 11 c 0,1.108 0.892,2 2,2 h 11 c 1.108,0 2,-0.892 2,-2 V 10 C 24,8.892 23.108,8 22,8 Z m 1,4 h 1 v 6 h 1 v 1 h -3 v -1 h 1 v -4 h -1 v -1 h 1 z m 3,0 h 3 v 1 2 1 h -2 v 2 h 2 v 1 h -2 -1 v -3 -1 h 2 v -2 h -2 z m 4,0 h 3 v 1 3 3 h -1 -2 v -1 h 2 v -2 h -2 v -1 h 2 v -2 h -2 z"/>
 </g>
 <g id="22-22-input-mouse-battery" transform="translate(-29,69)">
  <rect style="opacity:0.001" width="22" height="22" x="201" y="-91"/>
  <path style="fill:#fefefe" d="m 211,-88 c -2.81081,0.251538 -5,2.601833 -5,5.484375 v 0.5 h 5 z m 1,0 v 5.984375 h 5 v -0.5 c 0,-2.882542 -2.18919,-5.232837 -5,-5.484375 z m -6,6.986328 v 3.50586 c 0,2.775553 2.0295,5.059018 4.68945,5.449218 A 1.0001,1.0001 0 0 1 210,-73 v -2 h -1 a 1.0001,1.0001 0 0 1 -0.80078,-1.599609 l 3,-4 a 1.0001,1.0001 0 0 1 1.11719,-0.34961 A 1.0001,1.0001 0 0 1 213,-80 v 2 h 1 a 1.0001,1.0001 0 0 1 0.80078,1.599609 l -3,4 a 1.0001,1.0001 0 0 1 -0.66406,0.386719 c 0.12029,0.0078 0.24096,0.01367 0.36328,0.01367 3.047,0 5.5,-2.456344 5.5,-5.507812 v -3.50586 h -5 -1 z"/>
  <path style="fill:#54c341" d="m 212,-80 v 3 h 2 l -3,4 v -3 h -2 z"/>
 </g>
 <g id="22-22-input-touchpad-on" transform="translate(-231.0002,143.00336)">
  <path style="opacity:0.001" d="m 425.0002,-165.00336 h 22 c 0,0 0,0 0,0 v 22 c 0,0 0,0 0,0 h -22 c 0,0 0,0 0,0 v -22 c 0,0 0,0 0,0 z"/>
  <path style="fill:#fefefe" d="m 428.19942,-162.00336 c -1.2,0 -1.19922,1.23047 -1.19922,1.23047 v 13.53906 c 0,0 -7.8e-4,1.23047 1.19922,1.23047 h 15.60156 c 0,0 1.19922,3e-4 1.19922,-1.23047 v -13.53906 c 0,-1.23077 -1.19922,-1.23047 -1.19922,-1.23047 z m 12.80078,2 h 2 v 1 h -2 z m 0,2 h 2 v 1 h -2 z m 0,2 h 2 v 1 h -2 z m 0,2 h 2 v 1 h -2 z m -12,3 h 6 v 3 h -6 z m 8,0 h 6 v 3 h -6 z"/>
 </g>
 <g id="22-22-input-touchpad-off" transform="translate(-231.0002,143.00336)">
  <path style="opacity:0.001" d="m 447.0002,-165.00336 h 22 c 0,0 0,0 0,0 v 22 c 0,0 0,0 0,0 h -22 c 0,0 0,0 0,0 v -22 c 0,0 0,0 0,0 z"/>
  <path style="opacity:0.3;fill:#fefefe" d="m 450.19942,-162.00336 c -1.2,0 -1.19922,1.23047 -1.19922,1.23047 v 13.53906 c 0,0 -7.8e-4,1.23047 1.19922,1.23047 h 15.60156 c 0,0 1.19922,3e-4 1.19922,-1.23047 v -13.53906 c 0,-1.23077 -1.19922,-1.23047 -1.19922,-1.23047 z m 12.80078,2 h 2 v 1 h -2 z m 0,2 h 2 v 1 h -2 z m 0,2 h 2 v 1 h -2 z m 0,2 h 2 v 1 h -2 z m -12,3 h 6 v 3 h -6 z m 8,0 h 6 v 3 h -6 z"/>
 </g>
 <g id="input-mouse-battery">
  <rect style="opacity:0.001" width="32" height="32" x="236" y="0"/>
  <path style="fill:#fefefe" d="M 251 4.0390625 C 247.04453 4.5452568 244 8.0000842 244 12.226562 L 244 12.599609 L 244 12.976562 L 244 13 L 251 13 L 251 4.0390625 z M 253 4.0390625 L 253 13 L 260 13 L 260 12.976562 L 260 12.599609 L 260 12.226562 C 260 8.0000901 256.95547 4.5452568 253 4.0390625 z M 244 15 L 244 19.738281 C 244 24.288369 247.5264 27.954746 251.92188 27.998047 A 2.0002 2.0002 0 0 1 250 26 L 250 24 L 249 24 A 2.0002 2.0002 0 0 1 247.33594 20.890625 L 251.26367 15 L 244 15 z M 251.92188 27.998047 C 251.94807 27.998305 251.97374 28 252 28 C 256.432 28 260 24.315486 260 19.738281 L 260 15 L 254.72656 15 A 2.0002 2.0002 0 0 1 255 16 L 255 18 L 256 18 A 2.0002 2.0002 0 0 1 257.66406 21.109375 L 253.66406 27.109375 A 2.0002 2.0002 0 0 1 251.92188 27.998047 z"/>
  <path style="fill:#54c341" d="m 253,16 v 4 h 3 l -4,6 v -4 h -3 z"/>
 </g>
 <g id="input-touchpad-on" transform="translate(268)">
  <path style="opacity:0.001" d="M -1.5909e-6,-4.77288e-6 H 31.999999 c 0,0 0,0 0,0 V 31.999996 c 0,0 0,0 0,0 H -1.5909e-6 c 0,0 0,0 0,0 V -4.77288e-6 c 0,0 0,0 0,0 z"/>
  <path style="fill:#fefefe" d="M 4.7324219,4 C 2.9990886,4 3,5.7695312 3,5.7695312 V 25.230469 C 3,25.230469 2.9990952,27 4.7324219,27 H 27.267578 C 27.267578,27 29,26.999701 29,25.230469 V 5.7695312 C 29,4.0002996 27.267578,4 27.267578,4 Z M 23,7 h 3 v 1 h -3 z m 0,3 h 3 v 1 h -3 z m 0,3 h 3 v 1 h -3 z m 0,3 h 3 v 1 H 23 Z M 6,20 h 9 v 4 H 6 Z m 11,0 h 9 v 4 h -9 z"/>
 </g>
 <g id="input-touchpad-off" transform="translate(300)">
  <path style="opacity:0.001" d="M -1.5909e-6,-4.77288e-6 H 31.999999 c 0,0 0,0 0,0 V 31.999996 c 0,0 0,0 0,0 H -1.5909e-6 c 0,0 0,0 0,0 V -4.77288e-6 c 0,0 0,0 0,0 z"/>
  <path style="opacity:0.3;fill:#fefefe" d="M 4.7324219,4 C 2.9990886,4 3,5.7695312 3,5.7695312 V 25.230469 C 3,25.230469 2.9990952,27 4.7324219,27 H 27.267578 C 27.267578,27 29,26.999701 29,25.230469 V 5.7695312 C 29,4.0002996 27.267578,4 27.267578,4 Z M 23,7 h 3 v 1 h -3 z m 0,3 h 3 v 1 h -3 z m 0,3 h 3 v 1 h -3 z m 0,3 h 3 v 1 H 23 Z M 6,20 h 9 v 4 H 6 Z m 11,0 h 9 v 4 h -9 z"/>
 </g>
 <g id="22-22-input-keyboard" transform="translate(-5,-27)">
  <rect style="opacity:0.001" width="22" height="22" x="5" y="5"/>
  <path style="fill:#fefefe" d="m 18.998047,5.06289 -0.996094,0.07422 c 0,0 0.04503,0.514172 0.0332,1.177344 -0.0059,0.331586 -0.02781,0.675321 -0.07031,0.939453 -0.03542,0.22011 -0.118125,0.380589 -0.115235,0.398438 -0.0614,0.03241 -0.439686,0.147267 -0.894531,0.201171 -0.482219,0.05715 -1.045904,0.04395 -1.49414,0.492188 -0.480759,0.480758 -0.505295,1.127623 -0.435547,1.654297 H 5 V 22 H 27 V 10 H 16.037109 c -0.0698,-0.408838 -0.02773,-0.788669 0.13086,-0.947266 0.02317,-0.02317 0.42403,-0.149882 0.90625,-0.207031 0.482219,-0.05715 1.045903,-0.04395 1.49414,-0.492188 0.287539,-0.287538 0.327686,-0.598844 0.382813,-0.941406 0.05513,-0.342561 0.07757,-0.72059 0.08398,-1.080078 0.01282,-0.718976 -0.03711,-1.269141 -0.03711,-1.269141 z M 9,12 h 2 v 2 H 9 Z m 3,0 h 2 v 2 h -2 z m 9,0 h 2 v 2 H 21 Z M 6,15 h 2 v 2 H 6 Z m 9,0 h 2 v 2 h -2 z m 3,0 h 2 v 2 h -2 z m 6,0 h 2 v 2 h -2 z m -14,3 h 12 v 2 H 10 Z"/>
 </g>
 <g id="22-22-input-keyboard-battery" transform="translate(73,-27)">
  <rect style="opacity:0.001" width="22" height="22" x="5" y="5"/>
  <path style="fill:#fefefe" d="M 5,10 V 22 H 19.277344 C 19.102865,21.704098 19,21.36286 19,21 v -1 h -9 v -2 h 9 v -1 h -1 v -2 h 1 v -1 c 0,-1.090702 0.909298,-2 2,-2 5.5e-5,-0.552262 0.447738,-0.999945 1,-1 h 3 c 0.552262,5.5e-5 0.999945,0.447738 1,1 0.36286,0 0.704098,0.102865 1,0.277344 V 10 Z m 4,2 h 2 v 2 H 9 Z m 3,0 h 2 v 2 h -2 z m -6,3 h 2 v 2 H 6 Z m 9,0 h 2 v 2 h -2 z"/>
  <path style="fill:#54c341" d="m 22,12 v 1 h -1 c -0.554,0 -1,0.446 -1,1 v 7 c 0,0.554 0.446,1 1,1 h 5 c 0.554,0 1,-0.446 1,-1 v -7 c 0,-0.554 -0.446,-1 -1,-1 h -1 v -1 z m -1,3 h 5 v 1 h -5 z m 0,2 h 5 v 1 h -5 z m 0,2 h 5 v 1 h -5 z"/>
 </g>
 <g id="22-22-input-keyboard-virtual-on" transform="translate(21,-27)">
  <rect style="opacity:0.001" width="22" height="22" x="5" y="5"/>
  <path style="fill:#fefefe" d="M 5,10.000001 V 22 H 27 V 10 Z M 9,12 h 2 v 2 H 9 Z m 3,0 h 2 v 2 h -2 z m 9,0 h 2 v 2 H 21 Z M 6,15 h 2 v 2 H 6 Z m 9,0 h 2 v 2 h -2 z m 3,0 h 2 v 2 h -2 z m 6,0 h 2 v 2 h -2 z m -14,3 h 12 v 2 H 10 Z"/>
 </g>
 <g id="22-22-input-keyboard-brightness" transform="translate(99,-27)">
  <rect style="opacity:0.001" width="22" height="22" x="5" y="5"/>
  <path style="fill:#fefefe" d="M 5,10 V 22 H 19.357422 C 18.621516,21.485683 18.022707,20.799031 17.613281,20 H 10 v -2 h 7.037109 C 17.017145,17.833984 17.004763,17.667144 17,17.5 17,14.462434 19.462434,12 22.5,12 c 0.159742,2.09e-4 0.319398,0.0074 0.478516,0.02148 L 23,12 v 0.02344 c 1.609165,0.147654 3.07198,0.995487 4,2.318359 V 10 Z m 4,2 h 2 v 2 H 9 Z m 3,0 h 2 v 2 h -2 z m -6,3 h 2 v 2 H 6 Z m 9,0 h 2 v 2 h -2 z"/>
  <path style="fill:#fec440" d="m 22,13 v 2 h 1 v -2 z m -2.328125,0.964844 -0.707031,0.707031 1.414062,1.414063 0.707032,-0.707032 z m 5.65625,0 -1.414063,1.414062 0.707032,0.707032 1.414062,-1.414063 z M 22.5,16 A 1.5,1.5 0 0 0 21,17.5 1.5,1.5 0 0 0 22.5,19 1.5,1.5 0 0 0 24,17.5 1.5,1.5 0 0 0 22.5,16 Z M 18,17 v 1 h 2 v -1 z m 7,0 v 1 h 2 v -1 z m -4.621094,1.914062 -1.414062,1.414063 0.707031,0.707031 1.414063,-1.414062 z m 4.242188,0 -0.707032,0.707032 1.414063,1.414062 0.707031,-0.707031 z M 22,20 v 2 h 1 v -2 z"/>
 </g>
 <g id="22-22-input-caps-on" transform="translate(123,-27)">
  <rect style="opacity:0.001" width="22" height="22" x="5" y="5"/>
  <path style="fill:#fefefe" d="M 9,8 C 7.892,8 7,8.892 7,10 v 11 c 0,1.108 0.892,2 2,2 h 15 c 1.108,0 2,-0.892 2,-2 V 10 C 26,8.892 25.108,8 24,8 Z m 0,4 h 1 2 v 1 h -2 v 5 h 2 v 1 H 9 v -1 -5 z m 4,0 h 3 v 1 6 h -1 v -3 h -1 v 3 h -1 v -3 -1 -2 z m 4,0 h 3 v 1 2 1 h -2 v 3 h -1 v -6 z m 4,0 h 1 2 v 1 h -2 v 2 h 2 v 3 1 h -3 v -1 h 2 v -2 h -2 v -1 z m -7,1 v 2 h 1 v -2 z m 4,0 v 2 h 1 v -2 z"/>
 </g>
 <g id="22-22-input-keyboard-virtual-off" transform="translate(47,-27)">
  <rect style="opacity:0.001" width="22" height="22" x="5" y="5"/>
  <path style="opacity:0.3;fill:#fefefe" d="M 5,10 V 22 H 20.021484 C 19.324411,21.483259 18.773815,20.794004 18.423828,20 H 10 v -2 h 8 c 0.004,-0.336295 0.04199,-0.671325 0.113281,-1 H 18 v -2 h 1.015625 C 19.530756,14.31292 20.214164,13.770095 21,13.423828 V 12 h 2 v 1 c 1.57413,4.61e-4 3.056137,0.742188 4,2.001953 V 10 Z m 4,2 h 2 v 2 H 9 Z m 3,0 h 2 v 2 h -2 z m -6,3 h 2 v 2 H 6 Z m 9,0 h 2 v 2 h -2 z"/>
  <path style="fill:#fefefe" d="m 23,14 c -2.2091,0 -4,1.7909 -4,4 0,2.2091 1.7909,4 4,4 2.2091,0 4,-1.7909 4,-4 0,-2.2091 -1.7909,-4 -4,-4 z m -1.64258,1.632812 -0.004,0.01367 1.64648,1.646485 1.64648,-1.646485 0.70704,0.707032 L 23.70703,18 l 1.64649,1.646484 -0.70704,0.707032 -1.64257,-1.660157 -1.64649,1.646485 -0.70703,-0.707032 1.64649,-1.646484 -1.64649,-1.646484 z"/>
 </g>
 <g id="input-keyboard-virtual-off" transform="translate(68)">
  <rect style="opacity:0.001" width="32" height="32" x="0" y="0"/>
  <path style="opacity:0.3;fill:#fefefe" d="m 0,7 v 17 h 20.714844 c -0.92736,-0.822749 -1.650818,-1.849765 -2.113282,-3 H 7 V 19 H 18.072266 C 18.027293,18.668505 18.003157,18.334516 18,18 c 0,-4.418278 3.581722,-8 8,-8 2.296389,6.18e-4 4.481782,0.988029 6,2.710938 V 7 Z m 7,4 h 2 v 2 H 7 Z m 4,0 h 2 v 2 h -2 z m -8,4 h 2 v 2 H 3 Z m 12,0 h 2 v 2 h -2 z"/>
  <path style="fill:#fefefe" d="m 26,12 c -3.31365,0 -6,2.68635 -6,6 0,3.31365 2.68635,6 6,6 3.31365,0 6,-2.68635 6,-6 0,-3.31365 -2.68635,-6 -6,-6 z m -2.46484,2.449219 -0.006,0.01953 2.47074,2.470704 2.46875,-2.470703 1.06055,1.060547 L 27.06045,18 l 2.4707,2.46875 -1.0625,1.060547 -2.46289,-2.490235 -2.4707,2.470704 -1.06055,-1.060547 2.4707,-2.470703 -2.4707,-2.46875 z"/>
 </g>
 <g id="input-keyboard-virtual-on" transform="translate(34)">
  <rect style="opacity:0.001" width="32" height="32" x="0" y="0"/>
  <path style="fill:#fefefe" d="M 0,24 V 7 H 32 V 24 Z M 3,11 h 2 v 2 H 3 Z m 2,4 H 3 v 2 h 2 z m -2,4 h 2 v 2 H 3 Z M 9,11 H 7 v 2 h 2 z m -2,4 h 2 v 2 H 7 Z m 6,-4 h -2 v 2 h 2 z m -2,4 h 2 v 2 h -2 z m 14,6 V 19 H 7 v 2 z M 15,13 v -2 h 2 v 2 z m 2,4 v -2 h -2 v 2 z m 2,-6 h 2 v 2 h -2 z m 6,0 h -2 v 2 h 2 z m 2,0 h 2 v 2 h -2 z m -6,4 h -2 v 2 h 2 z m 2,0 h 2 v 2 h -2 z m 6,0 h -2 v 2 h 2 z m -2,4 h 2 v 2 h -2 z"/>
 </g>
 <g id="input-keyboard-battery" transform="translate(102)">
  <rect style="opacity:0.001" width="32" height="32" x="0" y="0"/>
  <path style="fill:#fefefe" d="M 0,7 V 24 H 20.316406 C 20.115877,23.571891 20,23.098646 20,22.599609 V 21 H 7 v -2 h 13 v -2 h -1 v -2 h 1 V 12.400391 C 20,10.530925 21.583714,9 23.427734,9 H 24 a 2.0002,2.0002 0 0 1 1,-1 h 4 a 2.0002,2.0002 0 0 1 1,1 h 0.572266 L 30.431641,9.00391 C 30.998772,8.9642072 31.528855,9.0721271 32,9.2851562 V 7 Z m 7,4 h 2 v 2 H 7 Z m 4,0 h 2 v 2 h -2 z m -8,4 h 2 v 2 H 3 Z m 12,0 h 2 v 2 h -2 z"/>
  <path style="fill:#54c341" d="m 25,10 v 1 H 23.427734 C 22.636303,11 22,11.62479 22,12.400391 V 22.599609 C 22,23.37521 22.636303,24 23.427734,24 h 7.144532 C 31.363687,24 32,23.37521 32,22.599609 V 12.400391 C 32,11.62479 31.361755,10.944736 30.572266,11 H 29 v -1 z m -1,4 h 6 v 1 h -6 z m 0,3 h 6 v 1 h -6 z m 0,3 h 6 v 1 h -6 z"/>
 </g>
 <g id="input-keyboard-brightness" transform="translate(136)">
  <rect style="opacity:0.001" width="32" height="32" x="0" y="0"/>
  <path style="fill:#fefefe" d="M 0,7 V 24 H 19.371094 C 18.35869,23.186076 17.534477,22.162639 16.955078,21 H 7 v -2 h 9.248047 C 16.090748,18.344722 16.007545,17.673851 16,17 h -1 v -2 h 1.248047 C 17.179459,10.913385 20.8086,8.0107198 25,8 c 2.718919,6.241e-4 5.291825,1.2303639 7,3.345703 V 7 Z m 7,4 h 2 v 2 H 7 Z m 4,0 h 2 v 2 h -2 z m -8,4 h 2 v 2 H 3 Z"/>
  <path style="fill:#fec440" d="m 24,10 v 3 h 2 v -3 z m -3.242188,1.34375 -1.414062,1.414062 2.121094,2.121094 1.414062,-1.414062 z m 8.484376,0 -2.121094,2.121094 1.414062,1.414062 2.121094,-2.121094 z M 25,14 a 3,3 0 0 0 -3,3 3,3 0 0 0 3,3 3,3 0 0 0 3,-3 3,3 0 0 0 -3,-3 z m -7,2 v 2 h 3 v -2 z m 11,0 v 2 h 3 v -2 z m -7.535156,3.121094 -2.121094,2.121094 1.414062,1.414062 2.121094,-2.121094 z m 7.070312,0 -1.414062,1.414062 2.121094,2.121094 1.414062,-1.414062 z M 24,21 v 3 h 2 v -3 z"/>
 </g>
 <g id="input-num-on" transform="translate(204)">
  <rect style="opacity:0.001" width="32" height="32" x="0" y="0"/>
  <path style="fill:#fefefe" d="M 7.9333331,5 C 6.3082665,5 4.9999997,6.3082667 4.9999997,7.9333334 V 24.066668 C 4.9999997,25.691734 6.3082664,27 7.9333331,27 H 24.066667 C 25.691733,27 27,25.691734 27,24.066668 V 7.9333334 C 27,6.3082667 25.691733,5 24.066667,5 Z M 9,10 h 1 v 10 h 2 v 1 H 7 V 20 H 9 V 13 H 7 v -1 h 2 z m 5,0 h 4 v 1 4 1 h -3 v 4 h 3 v 1 h -3 -1 v -5 -1 h 3 v -4 h -3 z m 6,0 h 4 v 1 5 5 h -1 -3 v -1 h 3 v -4 h -3 v -1 h 3 v -4 h -3 z"/>
 </g>
 <g id="input-caps-on" transform="translate(170)">
  <rect style="opacity:0.001" width="32" height="32" x="0" y="0"/>
  <path style="fill:#fefefe" d="M 4.9473681,5 C 3.314526,5 1.9999997,6.3082668 1.9999997,7.9333335 V 24.066668 C 1.9999997,25.691734 3.314526,27 4.9473681,27 H 27.052631 C 28.685473,27 30,25.691734 30,24.066668 V 7.9333335 C 30,6.3082668 28.685473,5 27.052631,5 Z m 0,6 H 6 9 v 1 H 6 v 9 h 3 v 0.999666 H 4.9473681 V 21 12 Z M 11,11 h 4 v 1 9.999666 H 14 V 17 h -2 v 4.999666 H 11 V 17 16 12 Z m 6,0 h 4 v 1 4 1 h -3 v 4.999666 H 17 V 12 Z m 6,0 h 1 3.052631 v 1 H 24 l -3.16e-4,4 h 3.052631 l 3.16e-4,4.999666 v 1 H 23 v -1 h 3 V 17 h -3 l -3.16e-4,-1 z m -11,1 v 4 h 2 v -4 z m 6,0 v 4 h 2 v -4 z"/>
 </g>
 <g id="input-keyboard">
  <rect style="opacity:0.001" width="32" height="32" x="0" y="0"/>
  <path style="fill:#fefefe" d="M 19.984375 0.033203125 L 19 0.20117188 C 19 0.20117188 19.121682 0.92494764 19.136719 1.7695312 C 19.151759 2.6141149 18.993242 3.558858 18.722656 3.875 C 18.414275 4.2353004 17.995331 4.2839524 17.386719 4.3515625 C 16.778107 4.4191725 15.974005 4.5096218 15.412109 5.1972656 C 14.988974 5.7150956 14.917718 6.3769405 14.939453 7 L 0 7 L 0 24 L 32 24 L 32 7 L 15.951172 7 C 15.954482 6.4852341 16.042692 6.0072967 16.1875 5.8300781 C 16.48687 5.4637113 16.890522 5.4129755 17.496094 5.3457031 C 18.101665 5.2784311 18.903769 5.1972303 19.480469 4.5234375 C 20.117277 3.7794169 20.153303 2.6834177 20.136719 1.7519531 C 20.120139 0.82048858 19.984375 0.033203125 19.984375 0.033203125 z M 7 11 L 9 11 L 9 13 L 7 13 L 7 11 z M 11 11 L 13 11 L 13 13 L 11 13 L 11 11 z M 23 11 L 25 11 L 25 13 L 23 13 L 23 11 z M 3 15 L 5 15 L 5 17 L 3 17 L 3 15 z M 15 15 L 17 15 L 17 17 L 15 17 L 15 15 z M 19 15 L 21 15 L 21 17 L 19 17 L 19 15 z M 27 15 L 29 15 L 29 17 L 27 17 L 27 15 z M 7 19 L 25 19 L 25 21 L 7 21 L 7 19 z"/>
 </g>
</svg>
