<svg xmlns="http://www.w3.org/2000/svg" width="32" height="32" version="1.1">
 <g id="quota" transform="translate(-87,93)">
  <rect style="opacity:0.001" width="32" height="32" x="87" y="-93"/>
  <path style="fill:#fefefe" d="M 93.066406,-89 89,-76 h 28 l -4.06641,-13 z M 113,-74 c -2.20822,0 -3.99871,0.639083 -4,1.427734 v 7.144532 c 0.001,0.788651 1.79178,1.427734 4,1.427734 2.20822,0 3.99871,-0.639083 4,-1.427734 v -7.144532 C 116.99871,-73.360917 115.20822,-74 113,-74 Z m -0.13672,1.029297 c 0.0456,-2.2e-4 0.0911,-2.2e-4 0.13672,0 1.10832,9.37e-4 2.17656,0.131685 3,0.367187 v 0.695313 c -0.82435,0.234793 -1.8925,0.364833 -3,0.365234 -1.10913,-0.0015 -2.17747,-0.132929 -3,-0.36914 v -0.69336 c 0.789,-0.225072 1.80309,-0.354426 2.86328,-0.365234 z M 89,-72 v 7 h 18 v -7 z m 21,2.005859 c 0.82435,0.234793 1.8925,0.364834 3,0.365235 1.1075,-4.01e-4 2.17565,-0.130442 3,-0.365235 v 1.427735 c -0.82344,0.235502 -1.89168,0.36625 -3,0.367187 -1.10913,-0.0015 -2.17747,-0.132929 -3,-0.36914 z m 0,3.199219 c 0.82344,0.235502 1.89168,0.366251 3,0.367188 1.10832,-9.37e-4 2.17656,-0.131686 3,-0.367188 v 1.429688 c -0.82435,0.234793 -1.8925,0.364833 -3,0.365234 -1.10913,-0.0015 -2.17747,-0.13293 -3,-0.369141 z"/>
 </g>
 <g id="22-22-quota" transform="translate(1,31)">
  <rect style="opacity:0.001" width="22" height="22" x="-1" y="-53"/>
  <path style="fill:#fefefe" d="M 3.6152344,-50 1,-41 h 18 l -2.615234,-9 z M 16,-40 c -1.656854,0 -3,0.447715 -3,1 v 5 c 0,0.552285 1.343146,1 3,1 1.656854,0 3,-0.447715 3,-1 v -5 c 0,-0.552285 -1.343146,-1 -3,-1 z m -15,1 v 5 h 11 v -5 z m 14.908203,0 c 0.0306,-1.56e-4 0.0612,-1.56e-4 0.0918,0 0.739186,8.71e-4 1.451387,0.09268 2,0.257812 v 0.486329 c -0.549483,0.164426 -1.261587,0.255525 -2,0.255859 -0.739186,-8.7e-4 -1.451386,-0.09268 -2,-0.257812 v -0.486329 C 14.525747,-38.901715 15.201558,-38.99233 15.908203,-39 Z M 14,-37.255859 c 0.549483,0.164426 1.261587,0.255525 2,0.255859 0.738413,-3.34e-4 1.450517,-0.09143 2,-0.255859 v 1 c -0.549483,0.164426 -1.261587,0.255525 -2,0.255859 -0.739186,-8.7e-4 -1.451386,-0.09268 -2,-0.257812 z m 0,2 c 0.549483,0.164426 1.261587,0.255525 2,0.255859 0.738413,-3.34e-4 1.450517,-0.09143 2,-0.255859 v 1 c -0.549483,0.164426 -1.261587,0.255525 -2,0.255859 -0.739186,-8.7e-4 -1.451386,-0.09268 -2,-0.257812 z"/>
 </g>
 <g id="22-22-quota-low" transform="translate(33,31)">
  <rect style="opacity:0.001" width="22" height="22" x="-1" y="-53"/>
  <path style="fill:#fefefe" d="M 3.6152344,-50 1,-41 h 18 l -2.615234,-9 z M 16,-40 c -1.656854,0 -3,0.447715 -3,1 v 5 c 0,0.552285 1.343146,1 3,1 1.656854,0 3,-0.447715 3,-1 v -5 c 0,-0.552285 -1.343146,-1 -3,-1 z m -15,1 v 5 h 11 v -5 z m 14.908203,0 c 0.0306,-1.56e-4 0.0612,-1.56e-4 0.0918,0 0.739186,8.71e-4 1.451387,0.09268 2,0.257812 v 0.486329 c -0.549483,0.164426 -1.261587,0.255525 -2,0.255859 -0.739186,-8.7e-4 -1.451386,-0.09268 -2,-0.257812 v -0.486329 C 14.525747,-38.901715 15.201558,-38.99233 15.908203,-39 Z M 14,-37.255859 c 0.549483,0.164426 1.261587,0.255525 2,0.255859 0.738413,-3.34e-4 1.450517,-0.09143 2,-0.255859 v 1 c -0.549483,0.164426 -1.261587,0.255525 -2,0.255859 -0.739186,-8.7e-4 -1.451386,-0.09268 -2,-0.257812 z"/>
 </g>
 <g id="22-22-quota-high" transform="translate(65,31)">
  <rect style="opacity:0.001" width="22" height="22" x="-1" y="-53"/>
  <path style="fill:#fec440" transform="translate(-65,-9)" d="m 81,-31 c -1.656854,0 -3,0.447715 -3,1 v 5 c 0,0.552285 1.343146,1 3,1 1.656854,0 3,-0.447715 3,-1 v -5 c 0,-0.552285 -1.343146,-1 -3,-1 z m -0.0918,1 c 0.0306,-1.56e-4 0.0612,-1.56e-4 0.0918,0 0.739186,8.71e-4 1.451387,0.09268 2,0.257812 v 0.486329 c -0.549483,0.164426 -1.261587,0.255525 -2,0.255859 -0.739186,-8.7e-4 -1.451386,-0.09268 -2,-0.257812 v -0.486329 C 79.525744,-29.901715 80.201558,-29.99233 80.908203,-30 Z"/>
  <path style="fill:#fefefe" transform="translate(-65,-9)" d="M 68.615234,-41 66,-32 h 18 l -2.615234,-9 z M 66,-30 v 5 h 11 v -5 z"/>
 </g>
 <g id="22-22-quota-critical" transform="translate(97,31)">
  <rect style="opacity:0.001" width="22" height="22" x="-1" y="-53"/>
  <path style="fill:#d94126" transform="translate(-97,-9)" d="M 100.61523,-41 98,-32 h 18 l -2.61523,-9 z M 113,-31 c -1.65685,0 -3,0.447715 -3,1 v 5 c 0,0.552285 1.34315,1 3,1 1.65685,0 3,-0.447715 3,-1 v -5 c 0,-0.552285 -1.34315,-1 -3,-1 z m -15,1 v 5 h 11 v -5 z m 14.9082,0 c 0.0306,-1.56e-4 0.0612,-1.56e-4 0.0918,0 0.73919,8.71e-4 1.45139,0.09268 2,0.257812 v 0.486329 c -0.54948,0.164426 -1.26159,0.255525 -2,0.255859 -0.73919,-8.7e-4 -1.45139,-0.09268 -2,-0.257812 v -0.486329 c 0.52574,-0.157574 1.20156,-0.248189 1.9082,-0.255859 z"/>
 </g>
 <g id="22-22-quota-missing" transform="translate(129,31)">
  <rect style="opacity:0.001" width="22" height="22" x="-1" y="-53"/>
  <path style="opacity:0.3;fill:#fefefe" d="M 3.6152344,-50 1,-41 h 18 l -2.615234,-9 z M 16,-40 c -1.656854,0 -3,0.447715 -3,1 v 5 c 0,0.552285 1.343146,1 3,1 1.656854,0 3,-0.447715 3,-1 v -5 c 0,-0.552285 -1.343146,-1 -3,-1 z m -15,1 v 5 h 11 v -5 z m 14.908203,0 c 0.0306,-1.56e-4 0.0612,-1.56e-4 0.0918,0 0.739186,8.71e-4 1.451387,0.09268 2,0.257812 v 0.486329 c -0.549483,0.164426 -1.261587,0.255525 -2,0.255859 -0.739186,-8.7e-4 -1.451386,-0.09268 -2,-0.257812 v -0.486329 C 14.525747,-38.901715 15.201558,-38.99233 15.908203,-39 Z M 14,-37.255859 c 0.549483,0.164426 1.261587,0.255525 2,0.255859 0.738413,-3.34e-4 1.450517,-0.09143 2,-0.255859 v 1 c -0.549483,0.164426 -1.261587,0.255525 -2,0.255859 -0.739186,-8.7e-4 -1.451386,-0.09268 -2,-0.257812 z m 0,2 c 0.549483,0.164426 1.261587,0.255525 2,0.255859 0.738413,-3.34e-4 1.450517,-0.09143 2,-0.255859 v 1 c -0.549483,0.164426 -1.261587,0.255525 -2,0.255859 -0.739186,-8.7e-4 -1.451386,-0.09268 -2,-0.257812 z"/>
 </g>
 <g id="quota-low" transform="translate(-55,93)">
  <rect style="opacity:0.001" width="32" height="32" x="87" y="-93"/>
  <path style="fill:#fefefe" d="M 93.066406,-89 89,-76 h 28 l -4.06641,-13 z M 113,-74 c -2.20822,0 -3.99871,0.639083 -4,1.427734 v 7.144532 c 0.001,0.788651 1.79178,1.427734 4,1.427734 2.20822,0 3.99871,-0.639083 4,-1.427734 v -7.144532 C 116.99871,-73.360917 115.20822,-74 113,-74 Z m -0.13672,1.029297 c 0.0456,-2.2e-4 0.0911,-2.2e-4 0.13672,0 1.10832,9.37e-4 2.17656,0.131685 3,0.367187 v 0.695313 c -0.82435,0.234793 -1.8925,0.364833 -3,0.365234 -1.10913,-0.0015 -2.17747,-0.132929 -3,-0.36914 v -0.69336 c 0.789,-0.225072 1.80309,-0.354426 2.86328,-0.365234 z M 89,-72 v 7 h 18 v -7 z m 21,2.005859 c 0.82435,0.234793 1.8925,0.364834 3,0.365235 1.1075,-4.01e-4 2.17565,-0.130442 3,-0.365235 v 1.427735 c -0.82344,0.235502 -1.89168,0.36625 -3,0.367187 -1.10913,-0.0015 -2.17747,-0.132929 -3,-0.36914 z"/>
 </g>
 <g id="quota-high" transform="translate(-23,93)">
  <rect style="opacity:0.001" width="32" height="32" x="87" y="-93"/>
  <path style="fill:#fec440" transform="translate(-64)" d="m 177,-74 c -2.20822,0 -3.99871,0.639083 -4,1.427734 v 7.144532 c 0.001,0.788651 1.79178,1.427734 4,1.427734 2.20822,0 3.99871,-0.639083 4,-1.427734 v -7.144532 C 180.99871,-73.360917 179.20822,-74 177,-74 Z m -0.13672,1.029297 c 0.0456,-2.2e-4 0.0911,-2.2e-4 0.13672,0 1.10832,9.37e-4 2.17656,0.131685 3,0.367187 v 0.695313 c -0.82435,0.234793 -1.8925,0.364833 -3,0.365234 -1.10913,-0.0015 -2.17747,-0.132929 -3,-0.36914 v -0.69336 c 0.789,-0.225072 1.80309,-0.354426 2.86328,-0.365234 z"/>
  <path style="fill:#fefefe" transform="translate(-64)" d="M 157.06641,-89 153,-76 h 28 l -4.06641,-13 z M 153,-72 v 7 h 18 v -7 z"/>
 </g>
 <g id="quota-critical" transform="translate(9,93)">
  <rect style="opacity:0.001" width="32" height="32" x="87" y="-93"/>
  <path style="fill:#d94126" d="M 93.066406,-89 89,-76 h 28 l -4.06641,-13 z M 113,-74 c -2.20822,0 -3.99871,0.639083 -4,1.427734 v 7.144532 c 0.001,0.788651 1.79178,1.427734 4,1.427734 2.20822,0 3.99871,-0.639083 4,-1.427734 v -7.144532 C 116.99871,-73.360917 115.20822,-74 113,-74 Z m -0.13672,1.029297 c 0.0456,-2.2e-4 0.0911,-2.2e-4 0.13672,0 1.10832,9.37e-4 2.17656,0.131685 3,0.367187 v 0.695313 c -0.82435,0.234793 -1.8925,0.364833 -3,0.365234 -1.10913,-0.0015 -2.17747,-0.132929 -3,-0.36914 v -0.69336 c 0.789,-0.225072 1.80309,-0.354426 2.86328,-0.365234 z M 89,-72 v 7 h 18 v -7 z"/>
 </g>
 <g id="quota-missing" transform="translate(41,93)">
  <rect style="opacity:0.001" width="32" height="32" x="87" y="-93"/>
  <path style="opacity:0.3;fill:#fefefe" d="M 93.066406,-89 89,-76 h 28 l -4.06641,-13 z M 113,-74 c -2.20822,0 -3.99871,0.639083 -4,1.427734 v 7.144532 c 0.001,0.788651 1.79178,1.427734 4,1.427734 2.20822,0 3.99871,-0.639083 4,-1.427734 v -7.144532 C 116.99871,-73.360917 115.20822,-74 113,-74 Z m -0.13672,1.029297 c 0.0456,-2.2e-4 0.0911,-2.2e-4 0.13672,0 1.10832,9.37e-4 2.17656,0.131685 3,0.367187 v 0.695313 c -0.82435,0.234793 -1.8925,0.364833 -3,0.365234 -1.10913,-0.0015 -2.17747,-0.132929 -3,-0.36914 v -0.69336 c 0.789,-0.225072 1.80309,-0.354426 2.86328,-0.365234 z M 89,-72 v 7 h 18 v -7 z m 21,2.005859 c 0.82435,0.234793 1.8925,0.364834 3,0.365235 1.1075,-4.01e-4 2.17565,-0.130442 3,-0.365235 v 1.427735 c -0.82344,0.235502 -1.89168,0.36625 -3,0.367187 -1.10913,-0.0015 -2.17747,-0.132929 -3,-0.36914 z m 0,3.199219 c 0.82344,0.235502 1.89168,0.366251 3,0.367188 1.10832,-9.37e-4 2.17656,-0.131686 3,-0.367188 v 1.429688 c -0.82435,0.234793 -1.8925,0.364833 -3,0.365234 -1.10913,-0.0015 -2.17747,-0.13293 -3,-0.369141 z"/>
 </g>
</svg>
