<?xml version="1.0" encoding="UTF-8" standalone="no"?>
<svg
   width="32"
   height="32"
   version="1.1"
   id="svg7"
   sodipodi:docname="folder-apps.svg"
   inkscape:version="1.2.1 (9c6d41e410, 2022-07-14, custom)"
   xmlns:inkscape="http://www.inkscape.org/namespaces/inkscape"
   xmlns:sodipodi="http://sodipodi.sourceforge.net/DTD/sodipodi-0.dtd"
   xmlns="http://www.w3.org/2000/svg"
   xmlns:svg="http://www.w3.org/2000/svg">
  <sodipodi:namedview
     id="namedview9"
     pagecolor="#ffffff"
     bordercolor="#d8c4f1"
     borderopacity="1.0"
     inkscape:pageshadow="2"
     inkscape:pageopacity="0.0"
     inkscape:pagecheckerboard="0"
     showgrid="false"
     inkscape:zoom="26.42008"
     inkscape:cx="17.5624"
     inkscape:cy="9.4814247"
     inkscape:window-width="1920"
     inkscape:window-height="1057"
     inkscape:window-x="0"
     inkscape:window-y="0"
     inkscape:window-maximized="1"
     inkscape:current-layer="svg7"
     inkscape:showpageshadow="2"
     inkscape:deskcolor="#d1d1d1"
     showguides="true">
    <sodipodi:guide
       position="7.9749111,41.793819"
       orientation="1,0"
       id="guide3941"
       inkscape:locked="false" />
    <sodipodi:guide
       position="24,23.710543"
       orientation="0,-1"
       id="guide3943"
       inkscape:locked="false" />
    <sodipodi:guide
       position="26.656934,8.2335767"
       orientation="0,-1"
       id="guide3945"
       inkscape:locked="false" />
    <sodipodi:guide
       position="24,20.223844"
       orientation="1,0"
       id="guide3947"
       inkscape:locked="false" />
  </sodipodi:namedview>
  <defs
     id="defs3">
    <style
       id="current-color-scheme"
       type="text/css">.ColorScheme-Text { color:#fff; } .ColorScheme-Highlight { color:#5294e2; }</style>
  </defs>
  <path
     style="isolation:isolate;fill:none;fill-opacity:1;fill-rule:evenodd;stroke:#d8c4f1;stroke-width:1.99514;stroke-linecap:round;stroke-dasharray:none;stroke-opacity:1"
     d="m 19.04672,18.335728 c -0.219164,0 -0.409049,0.07507 -0.565899,0.227886 -0.156853,0.152828 -0.234204,0.340621 -0.234204,0.560175 v 3.189297 c 0,0.219558 0.07736,0.407349 0.234204,0.560175 0.156851,0.152826 0.346735,0.227887 0.565899,0.227887 h 3.175756 c 0.219168,0 0.405498,-0.07508 0.558056,-0.227887 0.152554,-0.152826 0.227481,-0.340617 0.227481,-0.560175 h -0.0022 v -3.189297 c 0,-0.219554 -0.07494,-0.407347 -0.227482,-0.560175 -0.152543,-0.152827 -0.338881,-0.227886 -0.558043,-0.227886 z"
     id="path14308" />
  <path
     style="isolation:isolate;fill:none;fill-opacity:1;fill-rule:evenodd;stroke:#d8c4f1;stroke-width:1.99514;stroke-linecap:round;stroke-dasharray:none;stroke-opacity:1"
     d="m 9.7591353,18.335728 c -0.2191642,0 -0.405502,0.07507 -0.5580556,0.227886 -0.1525539,0.152828 -0.2286009,0.340621 -0.2286009,0.560175 v 3.189297 c 0,0.219558 0.076045,0.407349 0.2286009,0.560175 0.1525536,0.152826 0.3388914,0.227887 0.5580556,0.227887 H 12.93489 c 0.219164,0 0.40793,-0.07508 0.564781,-0.227887 0.156852,-0.152826 0.234204,-0.340617 0.234204,-0.560175 l -0.0022,-3.189297 c 0,-0.219554 -0.07735,-0.407347 -0.234205,-0.560175 -0.156838,-0.152827 -0.345603,-0.227886 -0.564765,-0.227886 z"
     id="path14306" />
  <path
     style="isolation:isolate;fill:none;fill-opacity:1;fill-rule:evenodd;stroke:#d8c4f1;stroke-width:1.99514;stroke-linecap:round;stroke-dasharray:none;stroke-opacity:1"
     d="m 9.7591353,10.388025 c -0.2191642,0 -0.405502,0.07508 -0.5580556,0.227887 -0.1525539,0.152826 -0.2286009,0.340622 -0.2286009,0.560177 v 3.179193 c 0,0.219554 0.076045,0.408654 0.2286009,0.565788 0.1525536,0.157133 0.3388914,0.234623 0.5580556,0.234623 H 12.93489 c 0.219164,0 0.40793,-0.07748 0.564781,-0.234623 0.156852,-0.157134 0.234204,-0.346234 0.234204,-0.565788 l -0.0022,-3.179193 c 0,-0.219555 -0.07735,-0.407351 -0.234205,-0.560177 -0.156863,-0.152828 -0.345628,-0.227887 -0.564789,-0.227887 z"
     id="path14304" />
  <path
     style="isolation:isolate;fill:none;fill-opacity:1;fill-rule:evenodd;stroke:#d8c4f1;stroke-width:1.99514;stroke-linecap:round;stroke-dasharray:none;stroke-opacity:1"
     d="m 21.136762,9.080341 c -0.22561,0 -0.420807,0.079921 -0.590552,0.2413585 l -2.361087,2.3653095 c -0.16115,0.170049 -0.240926,0.37018 -0.240926,0.598345 0,0.230317 0.07978,0.424557 0.240926,0.585997 l 2.361087,2.363063 c 0.169745,0.170048 0.367088,0.253707 0.590552,0.253707 0.225606,0 0.421929,-0.08365 0.591672,-0.253707 l 2.361088,-2.363063 c 0.167595,-0.16144 0.253255,-0.357834 0.253255,-0.585997 0,-0.230316 -0.0835,-0.428296 -0.253255,-0.598345 L 21.728435,9.3216995 C 21.558692,9.1602614 21.360223,9.080341 21.136762,9.080341 Z"
     id="path1258" />
</svg>
