<?xml version="1.0" encoding="UTF-8" standalone="no"?>
<svg
   width="32"
   height="32"
   version="1.1"
   id="svg7417"
   sodipodi:docname="leepassxc.svg"
   xml:space="preserve"
   inkscape:version="1.2.1 (9c6d41e410, 2022-07-14)"
   xmlns:inkscape="http://www.inkscape.org/namespaces/inkscape"
   xmlns:sodipodi="http://sodipodi.sourceforge.net/DTD/sodipodi-0.dtd"
   xmlns="http://www.w3.org/2000/svg"
   xmlns:svg="http://www.w3.org/2000/svg"><defs
     id="defs7421" /><sodipodi:namedview
     id="namedview7419"
     pagecolor="#585858"
     bordercolor="#000000"
     borderopacity="0.25"
     inkscape:showpageshadow="2"
     inkscape:pageopacity="0"
     inkscape:pagecheckerboard="0"
     inkscape:deskcolor="#d1d1d1"
     showgrid="false"
     inkscape:zoom="12.546875"
     inkscape:cx="-7.2129514"
     inkscape:cy="34.391034"
     inkscape:window-width="1920"
     inkscape:window-height="1046"
     inkscape:window-x="0"
     inkscape:window-y="34"
     inkscape:window-maximized="1"
     inkscape:current-layer="svg7417" /><g
     id="22-22-keepassxc"
     transform="translate(71.506996,1.1393432)"><rect
       style="opacity:0.00100002"
       width="22"
       height="22"
       x="0"
       y="10"
       id="rect7407" /><path
       d="m 15.398438,17.878906 a 1.4248821,1.4248821 0 0 1 -1.387874,-1.387871 1.3878732,1.3878732 0 0 1 2.775745,0 1.4248821,1.4248821 0 0 1 -1.387871,1.387871 z m -1.387874,-4.62624 a 5.1351272,5.1351272 0 0 0 -5.088865,5.088864 6.3009398,6.3009398 0 0 0 0.647674,2.590695 l -7.124411,7.124412 v 1.850496 H 6.145954 V 28.056637 H 7.99645 V 26.20614 h 1.850497 l 2.960794,-2.960795 a 5.4127017,5.4127017 0 0 0 1.202823,0.18505 5.1351272,5.1351272 0 0 0 5.088864,-5.088865 5.1351272,5.1351272 0 0 0 -5.088864,-5.088864 z"
       id="path6471"
       style="fill:#ffffff;fill-opacity:1;stroke-width:0.925327;stroke-dasharray:none" /></g><g
     id="keepassxc"><rect
       style="opacity:0.001"
       width="32"
       height="32"
       x="0"
       y="0"
       id="rect7412" /><path
       d="m 22.170788,11.532669 a 1.9006018,1.9006018 0 0 1 -1.851238,-1.8512338 1.8512368,1.8512368 0 0 1 3.702473,0 1.9006018,1.9006018 0 0 1 -1.851235,1.8512338 z M 20.31955,5.3618865 a 6.8495716,6.8495716 0 0 0 -6.787863,6.7878635 8.4046092,8.4046092 0 0 0 0.86391,3.45564 L 4.8925873,25.1084 v 2.468314 h 4.9366279 v -2.468315 h 2.4683128 v -2.468314 h 2.468315 l 3.949302,-3.949305 a 7.2198188,7.2198188 0 0 0 1.604405,0.246833 6.8495716,6.8495716 0 0 0 6.787863,-6.787865 6.8495716,6.8495716 0 0 0 -6.787863,-6.7878615 z"
       id="path6471-7"
       style="fill:#ffffff;fill-opacity:1;stroke-width:1.23426;stroke-dasharray:none" /></g></svg>
