<?xml version="1.0" encoding="UTF-8" standalone="no"?>
<!-- Generator: Adobe Illustrator 15.1.0, SVG Export Plug-In . SVG Version: 6.00 Build 0)  -->

<svg
   version="1.1"
   id="Layer_1"
   x="0px"
   y="0px"
   width="56.69px"
   height="56.69px"
   viewBox="0 0 56.69 56.69"
   enable-background="new 0 0 56.69 56.69"
   xml:space="preserve"
   sodipodi:docname="weather14.svg"
   inkscape:version="1.2.1 (9c6d41e410, 2022-07-14)"
   xmlns:inkscape="http://www.inkscape.org/namespaces/inkscape"
   xmlns:sodipodi="http://sodipodi.sourceforge.net/DTD/sodipodi-0.dtd"
   xmlns="http://www.w3.org/2000/svg"
   xmlns:svg="http://www.w3.org/2000/svg"><defs
   id="defs7" /><sodipodi:namedview
   id="namedview5"
   pagecolor="#ffffff"
   bordercolor="#000000"
   borderopacity="0.25"
   inkscape:showpageshadow="2"
   inkscape:pageopacity="0.0"
   inkscape:pagecheckerboard="0"
   inkscape:deskcolor="#d1d1d1"
   showgrid="false"
   showguides="false"
   inkscape:zoom="12.683013"
   inkscape:cx="28.305577"
   inkscape:cy="28.305577"
   inkscape:window-width="1920"
   inkscape:window-height="1046"
   inkscape:window-x="0"
   inkscape:window-y="34"
   inkscape:window-maximized="1"
   inkscape:current-layer="Layer_1"><sodipodi:guide
     position="64.101488,51.880417"
     orientation="0,-1"
     id="guide132"
     inkscape:locked="false" /></sodipodi:namedview>
<path
   d="M4.297,29.773c0-0.551,0.447-1,1-1l31.426-0.009c0.166,0.006,0.287,0.009,0.411,0.009c4.708,0,8.538-3.83,8.538-8.537  c0-4.708-3.83-8.539-8.538-8.539s-8.537,3.831-8.537,8.539c0,1.157,0.228,2.279,0.675,3.334c0.217,0.508-0.021,1.095-0.529,1.311  c-0.508,0.219-1.096-0.021-1.311-0.529c-0.555-1.303-0.835-2.688-0.835-4.115c0-5.812,4.728-10.539,10.537-10.539  c5.811,0,10.538,4.728,10.538,10.539c0,5.811-4.728,10.537-10.538,10.537c-0.153,0-0.304-0.002-0.454-0.01l-31.382,0.01  C4.745,30.773,4.297,30.326,4.297,29.773z M45.144,32.492c-0.105,0-0.208,0.002-0.27,0.006L5.297,32.492c-0.552,0-1,0.447-1,1  s0.448,1,1,1l39.621,0.006l0.226-0.006c2.896,0,5.25,2.355,5.25,5.25s-2.354,5.25-5.25,5.25s-5.25-2.355-5.25-5.25  c0-0.713,0.14-1.402,0.415-2.049c0.217-0.508-0.02-1.096-0.528-1.313c-0.505-0.217-1.095,0.02-1.312,0.529  c-0.382,0.896-0.575,1.85-0.575,2.832c0,3.998,3.253,7.25,7.25,7.25s7.25-3.252,7.25-7.25S49.141,32.492,45.144,32.492z   M5.297,26.868L5.297,26.868l11.722-0.004l0.229,0.004c3.197,0,5.799-2.602,5.799-5.799s-2.602-5.799-5.799-5.799  c-3.198,0-5.8,2.602-5.8,5.799c0,0.787,0.155,1.55,0.459,2.267c0.217,0.509,0.803,0.747,1.312,0.528  c0.508-0.216,0.745-0.803,0.529-1.312c-0.199-0.468-0.3-0.967-0.3-1.483c0-2.095,1.705-3.799,3.8-3.799  c2.095,0,3.799,1.704,3.799,3.799s-1.704,3.799-3.799,3.799l-0.207-0.004L5.296,24.868c-0.552,0-1,0.448-1,1  C4.297,26.42,4.745,26.868,5.297,26.868z M19.464,36.535H5.297c-0.552,0-1,0.447-1,1s0.448,1,1,1h14.167c0.552,0,1-0.447,1-1  S20.016,36.535,19.464,36.535z"
   id="path2"
   style="fill:#44dbff;fill-opacity:1" />
</svg>
