<?xml version="1.0" encoding="UTF-8" standalone="no"?>
<!-- Generator: Adobe Illustrator 15.1.0, SVG Export Plug-In . SVG Version: 6.00 Build 0)  -->

<svg
   version="1.1"
   id="Layer_1"
   x="0px"
   y="0px"
   width="56.69px"
   height="56.69px"
   viewBox="0 0 56.69 56.69"
   enable-background="new 0 0 56.69 56.69"
   xml:space="preserve"
   sodipodi:docname="weather9.svg"
   inkscape:version="1.2.1 (9c6d41e410, 2022-07-14)"
   xmlns:inkscape="http://www.inkscape.org/namespaces/inkscape"
   xmlns:sodipodi="http://sodipodi.sourceforge.net/DTD/sodipodi-0.dtd"
   xmlns="http://www.w3.org/2000/svg"
   xmlns:svg="http://www.w3.org/2000/svg"><defs
   id="defs7" /><sodipodi:namedview
   id="namedview5"
   pagecolor="#c91d18"
   bordercolor="#000000"
   borderopacity="0.25"
   inkscape:showpageshadow="2"
   inkscape:pageopacity="0"
   inkscape:pagecheckerboard="0"
   inkscape:deskcolor="#d1d1d1"
   showgrid="false"
   inkscape:zoom="2.2420612"
   inkscape:cx="-121.31694"
   inkscape:cy="-23.638963"
   inkscape:window-width="1920"
   inkscape:window-height="1046"
   inkscape:window-x="0"
   inkscape:window-y="34"
   inkscape:window-maximized="1"
   inkscape:current-layer="Layer_1" />
<path
   d="M15.533,12.095c0-0.553,0.447-1,1-1h22.374c0.553,0,1,0.447,1,1s-0.447,1-1,1H16.533  C15.98,13.095,15.533,12.648,15.533,12.095z M7.033,17.738h37.624c0.553,0,1-0.447,1-1s-0.447-1-1-1H7.033c-0.553,0-1,0.447-1,1  S6.48,17.738,7.033,17.738z M39.907,21.381c0-0.552-0.447-1-1-1H7.158c-0.553,0-1,0.448-1,1s0.447,1,1,1h31.749  C39.46,22.381,39.907,21.933,39.907,21.381z M16.908,26.024c0,0.552,0.447,1,1,1h31.749c0.553,0,1-0.448,1-1s-0.447-1-1-1H17.908  C17.355,25.024,16.908,25.472,16.908,26.024z M11.408,31.666h36.249c0.553,0,1-0.447,1-1s-0.447-1-1-1H11.408c-0.553,0-1,0.447-1,1  S10.855,31.666,11.408,31.666z M45.407,35.309c0-0.553-0.447-1-1-1H6.908c-0.553,0-1,0.447-1,1s0.447,1,1,1h37.499  C44.96,36.309,45.407,35.861,45.407,35.309z M49.782,38.953H20.533c-0.553,0-1,0.447-1,1s0.447,1,1,1h29.249c0.553,0,1-0.447,1-1  S50.335,38.953,49.782,38.953z M47.407,43.596H17.908c-0.553,0-1,0.447-1,1s0.447,1,1,1h29.499c0.553,0,1-0.447,1-1  S47.96,43.596,47.407,43.596z"
   id="path2"
   style="fill:#c1c1c1;fill-opacity:1" />
</svg>
