<?xml version="1.0" encoding="UTF-8" standalone="no"?>
<!-- Generator: Gravit.io -->

<svg
   style="isolation:isolate"
   viewBox="0 0 48 48"
   width="48pt"
   height="48pt"
   version="1.1"
   id="svg10"
   sodipodi:docname="folder-dropbox.svg"
   inkscape:version="1.2.1 (9c6d41e410, 2022-07-14)"
   xmlns:inkscape="http://www.inkscape.org/namespaces/inkscape"
   xmlns:sodipodi="http://sodipodi.sourceforge.net/DTD/sodipodi-0.dtd"
   xmlns="http://www.w3.org/2000/svg"
   xmlns:svg="http://www.w3.org/2000/svg">
  <defs
     id="defs14">
    <linearGradient
       id="linearGradient4227">
      <stop
         id="stop00"
         offset="0.0"
         style="stop-color:#f7aa94;stop-opacity:1.0" />
      <stop
         id="stop01"
         offset="0.5"
         style="stop-color:#f07cac;stop-opacity:1.0" />
      <stop
         id="stop02"
         offset="1.0"
         style="stop-color:#ed72c7;stop-opacity:1.0" />
    </linearGradient>
  </defs>
  <sodipodi:namedview
     id="namedview12"
     pagecolor="#ffffff"
     bordercolor="#666666"
     borderopacity="1.0"
     inkscape:pageshadow="2"
     inkscape:pageopacity="0.0"
     inkscape:pagecheckerboard="0"
     inkscape:document-units="pt"
     showgrid="false"
     inkscape:zoom="8.9375"
     inkscape:cx="13.706294"
     inkscape:cy="42.573427"
     inkscape:window-width="1920"
     inkscape:window-height="1046"
     inkscape:window-x="0"
     inkscape:window-y="34"
     inkscape:window-maximized="1"
     inkscape:current-layer="svg10"
     inkscape:showpageshadow="2"
     inkscape:deskcolor="#d1d1d1"
     showguides="true">
    <sodipodi:guide
       position="16.027972,31.3"
       orientation="1,0"
       id="guide11033"
       inkscape:locked="false" />
    <sodipodi:guide
       position="36.503497,7.8041958"
       orientation="0,-1"
       id="guide11035"
       inkscape:locked="false" />
    <sodipodi:guide
       position="31.32905,28.633288"
       orientation="1,0"
       id="guide11037"
       inkscape:locked="false" />
    <sodipodi:guide
       position="24.923077,23.15"
       orientation="0,-1"
       id="guide11039"
       inkscape:locked="false" />
  </sodipodi:namedview>
  <path
     d="m 3.4961,14.691447 v 25.1172 c 0,1.4904 1.2096,2.7 2.7,2.7 h 35.0838 c 1.4904,0 2.7,-1.2096 2.7,-2.7 v -21.3687 c 0,-1.4904 -1.2096,-2.7009 -2.7,-2.7018 l -19.9017,-0.0153 c -0.4968,-9e-4 -1.1853,-0.2862 -1.5363,-0.6381 l -1.899,-1.9026 c -0.702,-0.7029 -2.0781,-1.2681 -3.0717,-1.2618 l -8.6751,0.054 c -1.4904,0.0099 -2.7,1.2267 -2.7,2.7171 z"
     id="path2"
     style="fill:#e5e5e5;fill-opacity:1;stroke-width:0.9" />
  <path
     d="m 8.25,16.7 h 31.5 c 0.9936,0 1.8,0.8064 1.8,1.8 v 9 c 0,0.9936 -0.8064,1.8 -1.8,1.8 H 8.25 c -0.9936,0 -1.8,-0.8064 -1.8,-1.8 v -9 c 0,-0.9936 0.8064,-1.8 1.8,-1.8 z"
     id="path4"
     style="fill:#d2d2d2;fill-opacity:1;stroke-width:0.9" />
  <path
     d="m 3.4961,19.376162 v 22.7187 c 0,1.4904 1.2096,2.7 2.7,2.7 h 35.0838 c 1.4904,0 2.7,-1.2096 2.7,-2.7 v -20.0187 c 0,-1.490399 -1.2096,-2.7009 -2.7,-2.7018 l -19.9017,-0.0153 c -0.4968,-9e-4 -1.3032,-9e-4 -1.8,0 z"
     id="path6"
     style="fill:#f4f4f4;fill-opacity:1;stroke-width:0.9"
     sodipodi:nodetypes="cssssscccc" />
  <path
     id="path10785"
     style="fill:#516367;fill-opacity:1;fill-rule:evenodd;stroke:none;stroke-width:0.340766;stroke-linecap:round"
     d="m 20.829671,24.85 -4.791765,3.003675 3.240912,2.717426 c 1.57345,-1.009229 3.147732,-2.017973 4.721181,-3.027204 C 22.943093,26.645912 21.886577,25.747988 20.829671,24.85 Z m 3.170328,2.693897 c 1.581378,1.009231 3.163336,2.017975 4.744711,3.027204 1.072799,-0.890023 2.144585,-1.778387 3.217384,-2.668409 -1.549591,-1.017196 -3.099049,-2.035498 -4.64864,-3.052692 -1.104582,0.897988 -2.208873,1.795912 -3.313455,2.693897 z m 4.744711,3.027204 c -1.581375,1.009231 -3.163333,2.019932 -4.744711,3.029164 1.017159,0.778777 2.033571,1.556325 3.050732,2.335102 1.549595,-1.03305 3.099047,-2.066695 4.64864,-3.099746 z m -4.744711,3.029164 c -1.573449,-1.009232 -3.147731,-2.019933 -4.721181,-3.029164 -0.977411,0.79467 -1.953723,1.589447 -2.931133,2.384119 1.517808,0.993338 3.034758,1.986809 4.552568,2.980147 1.033053,-0.778777 2.066694,-1.556325 3.099746,-2.335102 z m 0,1.007761 c -1.043668,0.735015 -2.087447,1.470685 -3.131116,2.205701 -0.603932,-0.381443 -1.207685,-0.763562 -1.811616,-1.145004 0.04097,0.450733 -0.08089,0.989915 0.06078,1.386161 1.601056,1.046445 3.200513,2.094475 4.801569,3.14092 1.674077,-1.017158 3.349041,-2.035534 5.023118,-3.052692 -7e-5,-0.529745 1.87e-4,-1.058534 0,-1.588105 -0.646302,0.423809 -1.292757,0.846673 -1.939058,1.270484 -1.001265,-0.738927 -2.002408,-1.478539 -3.003675,-2.217465 z" />
</svg>
