<?xml version="1.0" encoding="UTF-8" standalone="no"?>
<!-- Generator: Gravit.io -->

<svg
   style="isolation:isolate"
   viewBox="0 0 48 48"
   width="48pt"
   height="48pt"
   version="1.1"
   id="svg10"
   sodipodi:docname="folder-download.svg"
   inkscape:version="1.2.1 (9c6d41e410, 2022-07-14)"
   xmlns:inkscape="http://www.inkscape.org/namespaces/inkscape"
   xmlns:sodipodi="http://sodipodi.sourceforge.net/DTD/sodipodi-0.dtd"
   xmlns="http://www.w3.org/2000/svg"
   xmlns:svg="http://www.w3.org/2000/svg">
  <defs
     id="defs14">
    <linearGradient
       id="linearGradient4227">
      <stop
         id="stop00"
         offset="0.0"
         style="stop-color:#f7aa94;stop-opacity:1.0" />
      <stop
         id="stop01"
         offset="0.5"
         style="stop-color:#f07cac;stop-opacity:1.0" />
      <stop
         id="stop02"
         offset="1.0"
         style="stop-color:#ed72c7;stop-opacity:1.0" />
    </linearGradient>
  </defs>
  <sodipodi:namedview
     id="namedview12"
     pagecolor="#ffffff"
     bordercolor="#666666"
     borderopacity="1.0"
     inkscape:pageshadow="2"
     inkscape:pageopacity="0.0"
     inkscape:pagecheckerboard="0"
     inkscape:document-units="pt"
     showgrid="false"
     inkscape:zoom="12.639534"
     inkscape:cx="7.1600742"
     inkscape:cy="22.152716"
     inkscape:window-width="1920"
     inkscape:window-height="1046"
     inkscape:window-x="0"
     inkscape:window-y="34"
     inkscape:window-maximized="1"
     inkscape:current-layer="svg10"
     inkscape:showpageshadow="2"
     inkscape:deskcolor="#d1d1d1" />
  <path
     d="m 3.4961,14.791447 v 25.1172 c 0,1.4904 1.2096,2.7 2.7,2.7 h 35.0838 c 1.4904,0 2.7,-1.2096 2.7,-2.7 v -21.3687 c 0,-1.4904 -1.2096,-2.7009 -2.7,-2.7018 l -19.9017,-0.0153 c -0.4968,-9e-4 -1.1853,-0.2862 -1.5363,-0.6381 l -1.899,-1.9026 c -0.702,-0.7029 -2.0781,-1.2681 -3.0717,-1.2618 l -8.6751,0.054 c -1.4904,0.0099 -2.7,1.2267 -2.7,2.7171 z"
     id="path2"
     style="fill:#383d43;fill-opacity:1;stroke:none;stroke-width:0.9;stroke-opacity:1;opacity:0.51" />
  <path
     d="m 8.2238,17.221447 h 31.5 c 0.9936,0 1.8,0.8064 1.8,1.8 v 9 c 0,0.9936 -0.8064,1.8 -1.8,1.8 h -31.5 c -0.9936,0 -1.8,-0.8064 -1.8,-1.8 v -9 c 0,-0.9936 0.8064,-1.8 1.8,-1.8 z"
     id="path4"
     style="fill:#383d43;fill-opacity:1;stroke-width:0.9;opacity:0.65" />
  <path
     d="m 3.4961,18.989947 v 22.7187 c 0,1.4904 1.2096,2.7 2.7,2.7 h 35.0838 c 1.4904,0 2.7,-1.2096 2.7,-2.7 v -20.0187 c 0,-1.4904 -1.2096,-2.7009 -2.7,-2.7018 l -19.9017,-0.0153 c -0.4968,-9e-4 -1.3032,-9e-4 -1.8,0 z"
     id="path6"
     style="fill:#383d43;fill-opacity:1;stroke:none;stroke-width:0.9;stroke-opacity:1"
     sodipodi:nodetypes="cssssscccc" />
  <path
     d="m 24.521,29.900647 v 0 c 0,-0.432 0.3501,-0.783 0.7821,-0.783 v 0 c 0.432,0 0.783,0.351 0.783,0.783 v 0 3.2319 l 2.5353,-1.6893 c 0.8991,-0.5994 2.0106,-0.2961 2.4804,0.6759 l 0.2682,0.5553 c 0.4707,0.972 0.1287,2.2563 -0.7632,2.8665 l -5.5764,3.8151 c -0.7137,0.4869 -1.8711,0.4869 -2.5848,0 l -5.5764,-3.8151 c -0.8919,-0.6102 -1.2339,-1.8945 -0.7632,-2.8665 l 0.2682,-0.5553 c 0.4698,-0.972 1.5813,-1.2753 2.4804,-0.6759 l 2.5353,1.6893 v -7.9281 0 c 0,-0.432 0.351,-0.783 0.783,-0.783 v 0 c 0.432,0 0.7821,0.351 0.7821,0.783 v 0 10.0728 c 0,0.432 -0.2916,0.5877 -0.6507,0.3483 l -3.9258,-2.6181 c -0.36,-0.2394 -0.7353,-0.1206 -0.8397,0.2664 v 0 c -0.1035,0.3861 0.1017,0.8982 0.4581,1.1421 l 5.0949,3.4875 c 0.3564,0.2439 0.936,0.2439 1.2924,0 l 5.0949,-3.4875 c 0.3564,-0.2439 0.5616,-0.756 0.4581,-1.1421 v 0 c -0.1044,-0.387 -0.4797,-0.5058 -0.8397,-0.2664 l -3.9258,2.6181 c -0.3591,0.2394 -0.6507,0.0837 -0.6507,-0.3483 z m 0,-3.5226 c 0,-0.432 0.3501,-0.783 0.7821,-0.783 0.432,0 0.783,0.351 0.783,0.783 0,0.432 -0.351,0.783 -0.783,0.783 -0.432,0 -0.7821,-0.351 -0.7821,-0.783 z"
     fill-rule="evenodd"
     id="path8"
     style="fill:#fafbfc;fill-opacity:1;stroke:none;stroke-width:0.36;stroke-miterlimit:4;stroke-dasharray:none" />
</svg>
