<?xml version="1.0" encoding="UTF-8" standalone="no"?>
<!-- Generator: Gravit.io -->

<svg
   style="isolation:isolate"
   viewBox="0 0 48 48"
   width="48pt"
   height="48pt"
   version="1.1"
   id="svg10"
   sodipodi:docname="folder-apps.svg"
   inkscape:version="1.2.1 (9c6d41e410, 2022-07-14)"
   xml:space="preserve"
   xmlns:inkscape="http://www.inkscape.org/namespaces/inkscape"
   xmlns:sodipodi="http://sodipodi.sourceforge.net/DTD/sodipodi-0.dtd"
   xmlns="http://www.w3.org/2000/svg"
   xmlns:svg="http://www.w3.org/2000/svg"><defs
     id="defs14"><linearGradient
       id="linearGradient4227"><stop
         id="stop00"
         offset="0.0"
         style="stop-color:#f7aa94;stop-opacity:1.0" /><stop
         id="stop01"
         offset="0.5"
         style="stop-color:#f07cac;stop-opacity:1.0" /><stop
         id="stop02"
         offset="1.0"
         style="stop-color:#ed72c7;stop-opacity:1.0" /></linearGradient></defs><sodipodi:namedview
     id="namedview12"
     pagecolor="#ffffff"
     bordercolor="#666666"
     borderopacity="1.0"
     inkscape:pageshadow="2"
     inkscape:pageopacity="0.0"
     inkscape:pagecheckerboard="0"
     inkscape:document-units="pt"
     showgrid="false"
     inkscape:zoom="12.639534"
     inkscape:cx="41.101199"
     inkscape:cy="37.659617"
     inkscape:window-width="1920"
     inkscape:window-height="1046"
     inkscape:window-x="0"
     inkscape:window-y="34"
     inkscape:window-maximized="1"
     inkscape:current-layer="svg10"
     inkscape:showpageshadow="2"
     inkscape:deskcolor="#d1d1d1"
     showguides="true"><sodipodi:guide
       position="27.356643,24"
       orientation="0,-1"
       id="guide1244"
       inkscape:locked="false" /><sodipodi:guide
       position="37.426573,7.2167832"
       orientation="0,-1"
       id="guide1246"
       inkscape:locked="false" /><sodipodi:guide
       position="15.238,24"
       orientation="1,0"
       id="guide1248"
       inkscape:locked="false" /><sodipodi:guide
       position="32.238,21.566434"
       orientation="1,0"
       id="guide1250"
       inkscape:locked="false" /></sodipodi:namedview><path
     d="m 3.4961,14.691447 v 25.1172 c 0,1.4904 1.2096,2.7 2.7,2.7 h 35.0838 c 1.4904,0 2.7,-1.2096 2.7,-2.7 v -21.3687 c 0,-1.4904 -1.2096,-2.7009 -2.7,-2.7018 l -19.9017,-0.0153 c -0.4968,-9e-4 -1.1853,-0.2862 -1.5363,-0.6381 l -1.899,-1.9026 c -0.702,-0.7029 -2.0781,-1.2681 -3.0717,-1.2618 l -8.6751,0.054 c -1.4904,0.0099 -2.7,1.2267 -2.7,2.7171 z"
     id="path2"
     style="fill:#383d43;fill-opacity:1;stroke-width:0.9;opacity:0.51" /><path
     d="m 8.25,16.7 h 31.5 c 0.9936,0 1.8,0.8064 1.8,1.8 v 9 c 0,0.9936 -0.8064,1.8 -1.8,1.8 H 8.25 c -0.9936,0 -1.8,-0.8064 -1.8,-1.8 v -9 c 0,-0.9936 0.8064,-1.8 1.8,-1.8 z"
     id="path4"
     style="fill:#383d43;fill-opacity:1;stroke-width:0.9;opacity:0.65" /><path
     d="m 3.4961,19.376162 v 22.7187 c 0,1.4904 1.2096,2.7 2.7,2.7 h 35.0838 c 1.4904,0 2.7,-1.2096 2.7,-2.7 v -20.0187 c 0,-1.490399 -1.2096,-2.7009 -2.7,-2.7018 l -19.9017,-0.0153 c -0.4968,-9e-4 -1.3032,-9e-4 -1.8,0 z"
     id="path6"
     style="fill:#383d43;fill-opacity:1;stroke-width:0.9"
     sodipodi:nodetypes="cssssscccc" /><path
     id="path1258"
     style="fill:#383d43;fill-opacity:1;fill-rule:evenodd;stroke:#fafbfc;stroke-width:1.08049;stroke-linecap:round;stroke-dasharray:none;stroke-opacity:1"
     d="m 27.136004,25.231975 c -0.258649,0 -0.482431,0.09146 -0.677032,0.276209 l -2.706841,2.706841 c -0.184749,0.194602 -0.276209,0.423629 -0.276209,0.68474 0,0.263574 0.09146,0.48586 0.276209,0.670608 l 2.706841,2.704272 c 0.194601,0.194601 0.420845,0.29034 0.677032,0.29034 0.258645,0 0.483715,-0.09574 0.678316,-0.29034 l 2.706841,-2.704272 c 0.192137,-0.184748 0.29034,-0.409499 0.29034,-0.670608 0,-0.263572 -0.09574,-0.490138 -0.29034,-0.68474 l -2.70684,-2.706841 C 27.61972,25.323435 27.392187,25.231975 27.136004,25.231975 Z M 17.56635,26.61687 c -0.251258,0 -0.464882,0.08591 -0.639776,0.260793 -0.174894,0.174894 -0.262076,0.389805 -0.262076,0.64106 v 3.638242 c 0,0.251257 0.08718,0.467664 0.262076,0.647484 0.174894,0.17982 0.388518,0.2685 0.639776,0.2685 h 3.640809 c 0.251258,0 0.467665,-0.08868 0.647485,-0.2685 0.179822,-0.17982 0.268501,-0.396227 0.268501,-0.647484 l -0.0025,-3.638242 c 0,-0.251255 -0.08868,-0.466166 -0.2685,-0.64106 C 21.672277,26.702769 21.45587,26.61687 21.204614,26.61687 Z m 0,7.276484 c -0.251258,0 -0.464882,0.0859 -0.639776,0.260793 -0.174894,0.174894 -0.262076,0.389803 -0.262076,0.64106 v 3.649803 c 0,0.251261 0.08718,0.466167 0.262076,0.641061 0.174894,0.174895 0.388518,0.260792 0.639776,0.260792 h 3.640809 c 0.251258,0 0.467665,-0.0859 0.647485,-0.260792 0.179822,-0.174894 0.268501,-0.3898 0.268501,-0.641061 l -0.0025,-3.649803 c 0,-0.251257 -0.08868,-0.466166 -0.2685,-0.64106 -0.179821,-0.174894 -0.396227,-0.260793 -0.647485,-0.260793 z m 7.291899,0 c -0.251257,0 -0.468948,0.0859 -0.648768,0.260793 -0.179821,0.174894 -0.2685,0.389803 -0.2685,0.64106 v 3.649803 c 0,0.251261 0.08868,0.466167 0.2685,0.641061 0.179821,0.174895 0.397512,0.260792 0.648768,0.260792 h 3.64081 c 0.251261,0 0.464879,-0.0859 0.639777,-0.260792 0.174894,-0.174894 0.260792,-0.3898 0.260792,-0.641061 h -0.0025 v -3.649803 c 0,-0.251257 -0.08591,-0.466166 -0.260791,-0.64106 -0.174893,-0.174894 -0.388521,-0.260793 -0.639776,-0.260793 z" /></svg>
