<?xml version="1.0" encoding="UTF-8" standalone="no"?>
<!-- Generator: Gravit.io -->

<svg
   style="isolation:isolate"
   viewBox="0 0 48 48"
   width="48pt"
   height="48pt"
   version="1.1"
   id="svg10"
   sodipodi:docname="folder-pictures.svg"
   inkscape:version="1.2.1 (9c6d41e410, 2022-07-14)"
   xmlns:inkscape="http://www.inkscape.org/namespaces/inkscape"
   xmlns:sodipodi="http://sodipodi.sourceforge.net/DTD/sodipodi-0.dtd"
   xmlns="http://www.w3.org/2000/svg"
   xmlns:svg="http://www.w3.org/2000/svg">
  <defs
     id="defs14">
    <linearGradient
       id="linearGradient4227">
      <stop
         id="stop00"
         offset="0.0"
         style="stop-color:#f7aa94;stop-opacity:1.0" />
      <stop
         id="stop01"
         offset="0.5"
         style="stop-color:#f07cac;stop-opacity:1.0" />
      <stop
         id="stop02"
         offset="1.0"
         style="stop-color:#ed72c7;stop-opacity:1.0" />
    </linearGradient>
  </defs>
  <sodipodi:namedview
     id="namedview12"
     pagecolor="#ffffff"
     bordercolor="#666666"
     borderopacity="1.0"
     inkscape:pageshadow="2"
     inkscape:pageopacity="0.0"
     inkscape:pagecheckerboard="0"
     inkscape:document-units="pt"
     showgrid="false"
     inkscape:zoom="8.9375"
     inkscape:cx="30.713287"
     inkscape:cy="31.888112"
     inkscape:window-width="1920"
     inkscape:window-height="1046"
     inkscape:window-x="0"
     inkscape:window-y="34"
     inkscape:window-maximized="1"
     inkscape:current-layer="svg10"
     inkscape:showpageshadow="2"
     inkscape:deskcolor="#d1d1d1" />
  <path
     d="m 3.4961,14.791447 v 25.1172 c 0,1.4904 1.2096,2.7 2.7,2.7 h 35.0838 c 1.4904,0 2.7,-1.2096 2.7,-2.7 v -21.3687 c 0,-1.4904 -1.2096,-2.7009 -2.7,-2.7018 l -19.9017,-0.0153 c -0.4968,-9e-4 -1.1853,-0.2862 -1.5363,-0.6381 l -1.899,-1.9026 c -0.702,-0.7029 -2.0781,-1.2681 -3.0717,-1.2618 l -8.6751,0.054 c -1.4904,0.0099 -2.7,1.2267 -2.7,2.7171 z"
     id="path2"
     style="fill:#383d43;fill-opacity:1;stroke-width:0.9;opacity:0.51" />
  <path
     d="m 8.2238,17.221447 h 31.5 c 0.9936,0 1.8,0.8064 1.8,1.8 v 9 c 0,0.9936 -0.8064,1.8 -1.8,1.8 h -31.5 c -0.9936,0 -1.8,-0.8064 -1.8,-1.8 v -9 c 0,-0.9936 0.8064,-1.8 1.8,-1.8 z"
     id="path4"
     style="fill:#383d43;fill-opacity:1;stroke-width:0.9;opacity:0.65" />
  <path
     d="m 3.4961,18.989947 v 22.7187 c 0,1.4904 1.2096,2.7 2.7,2.7 h 35.0838 c 1.4904,0 2.7,-1.2096 2.7,-2.7 v -20.0187 c 0,-1.4904 -1.2096,-2.7009 -2.7,-2.7018 l -19.9017,-0.0153 c -0.4968,-9e-4 -1.3032,-9e-4 -1.8,0 z"
     id="path6"
     style="fill:#383d43;fill-opacity:1;stroke-width:0.9"
     sodipodi:nodetypes="cssssscccc" />
  <path
     d="m 16.7693,36.215047 c 0.0459,0.4527 0.4284,0.8064 0.8937,0.8064 h 12.15 c 0.4968,0 0.9,-0.4032 0.9,-0.9 v -4.0653 l -4.0878,2.799 c -0.6147,0.4203 -1.5417,0.3348 -2.0691,-0.1926 l -2.2995,-2.2995 c -0.1764,-0.1764 -0.4743,-0.1908 -0.6669,-0.0342 l -4.5747,3.7386 v 0 c -0.0711,0.0711 -0.1548,0.1233 -0.2457,0.1476 z m -0.0063,-1.6965 v -5.6781 c 0,-0.4968 0.4032,-0.9 0.9,-0.9 h 2.4975 v 0 c 0.4968,0 0.9,-0.4032 0.9,-0.9 v 0 c 0,-0.4968 -0.4032,-0.9 -0.9,-0.9 v 0 H 16.313 c -0.7452,0 -1.35,0.6048 -1.35,1.35 v 9.981 c 0,0.7452 0.6048,1.35 1.35,1.35 h 14.85 c 0.7452,0 1.35,-0.6048 1.35,-1.35 v -9.981 c 0,-0.7452 -0.6048,-1.35 -1.35,-1.35 h -7.2405 v 0 c -0.4968,0 -0.9,0.4032 -0.9,0.9 v 0 c 0,0.4968 0.4032,0.9 0.9,0.9 v 0 h 5.8905 c 0.4968,0 0.9,0.4032 0.9,0.9 v 1.6128 c -0.081,0.0288 -0.1575,0.0729 -0.225,0.1332 v 0 l -4.545,2.9331 c -0.2088,0.135 -0.5202,0.1017 -0.6966,-0.0747 l -2.3535,-2.3535 c -0.5274,-0.5274 -1.4166,-0.5643 -1.9854,-0.0828 z m 9.675,-4.4784 c 0,-0.621 0.504,-1.125 1.125,-1.125 0.621,0 1.125,0.504 1.125,1.125 0,0.621 -0.504,1.125 -1.125,1.125 -0.621,0 -1.125,-0.504 -1.125,-1.125 z"
     fill-rule="evenodd"
     id="path8"
     style="fill:#fafbfc;fill-opacity:1;stroke-width:0.9" />
</svg>
