<?xml version="1.0" encoding="UTF-8" standalone="no"?>
<!-- Generator: Gravit.io -->

<svg
   style="isolation:isolate"
   viewBox="0 0 48 48"
   width="48pt"
   height="48pt"
   version="1.1"
   id="svg10"
   sodipodi:docname="folder-publicshare.svg"
   inkscape:version="1.2.1 (9c6d41e410, 2022-07-14)"
   xmlns:inkscape="http://www.inkscape.org/namespaces/inkscape"
   xmlns:sodipodi="http://sodipodi.sourceforge.net/DTD/sodipodi-0.dtd"
   xmlns="http://www.w3.org/2000/svg"
   xmlns:svg="http://www.w3.org/2000/svg">
  <defs
     id="defs14">
    <linearGradient
       id="linearGradient4227">
      <stop
         id="stop00"
         offset="0.0"
         style="stop-color:#f7aa94;stop-opacity:1.0" />
      <stop
         id="stop01"
         offset="0.5"
         style="stop-color:#f07cac;stop-opacity:1.0" />
      <stop
         id="stop02"
         offset="1.0"
         style="stop-color:#ed72c7;stop-opacity:1.0" />
    </linearGradient>
  </defs>
  <sodipodi:namedview
     id="namedview12"
     pagecolor="#ffffff"
     bordercolor="#666666"
     borderopacity="1.0"
     inkscape:pageshadow="2"
     inkscape:pageopacity="0.0"
     inkscape:pagecheckerboard="0"
     inkscape:document-units="pt"
     showgrid="false"
     inkscape:zoom="8.9375001"
     inkscape:cx="23.776224"
     inkscape:cy="50.34965"
     inkscape:window-width="1920"
     inkscape:window-height="1046"
     inkscape:window-x="0"
     inkscape:window-y="34"
     inkscape:window-maximized="1"
     inkscape:current-layer="svg10"
     inkscape:showpageshadow="2"
     inkscape:deskcolor="#d1d1d1" />
  <path
     d="m 3.4961,14.791447 v 25.1172 c 0,1.4904 1.2096,2.7 2.7,2.7 h 35.0838 c 1.4904,0 2.7,-1.2096 2.7,-2.7 v -21.3687 c 0,-1.4904 -1.2096,-2.7009 -2.7,-2.7018 l -19.9017,-0.0153 c -0.4968,-9e-4 -1.1853,-0.2862 -1.5363,-0.6381 l -1.899,-1.9026 c -0.702,-0.7029 -2.0781,-1.2681 -3.0717,-1.2618 l -8.6751,0.054 c -1.4904,0.0099 -2.7,1.2267 -2.7,2.7171 z"
     id="path2"
     style="fill:#383d43;fill-opacity:1;stroke-width:0.9;opacity:0.51" />
  <path
     d="m 8.2238,17.221447 h 31.5 c 0.9936,0 1.8,0.8064 1.8,1.8 v 9 c 0,0.9936 -0.8064,1.8 -1.8,1.8 h -31.5 c -0.9936,0 -1.8,-0.8064 -1.8,-1.8 v -9 c 0,-0.9936 0.8064,-1.8 1.8,-1.8 z"
     id="path4"
     style="fill:#383d43;fill-opacity:1;stroke-width:0.9;opacity:0.65" />
  <path
     d="m 3.4961,18.989947 v 22.7187 c 0,1.4904 1.2096,2.7 2.7,2.7 h 35.0838 c 1.4904,0 2.7,-1.2096 2.7,-2.7 v -20.0187 c 0,-1.4904 -1.2096,-2.7009 -2.7,-2.7018 l -19.9017,-0.0153 c -0.4968,-9e-4 -1.3032,-9e-4 -1.8,0 z"
     id="path6"
     style="fill:#383d43;fill-opacity:1;stroke-width:0.9"
     sodipodi:nodetypes="cssssscccc" />
  <path
     d="m 21.8624,31.161547 -0.009,0.0135 0.567,0.3996 7.2927,5.1579 c 0.1566,0.1107 0.2844,0.3564 0.2844,0.5481 v 1.0296 c 0,0.1917 -0.1566,0.3474 -0.3483,0.3474 H 17.8268 c -0.1917,0 -0.3483,-0.1557 -0.3483,-0.3474 v -1.0053 c 0,-0.1917 0.1323,-0.4302 0.2943,-0.5328 l 3.8061,-2.3949 v 0 c 0.324,-0.2034 0.4221,-0.6327 0.2187,-0.9576 v 0 c -0.2034,-0.3258 -0.6336,-0.423 -0.9594,-0.2178 v 0 l -3.8664,2.4291 c -0.4878,0.306 -0.8838,1.0224 -0.8838,1.5975 v 1.7775 c 0,0.5751 0.4671,1.0431 1.0431,1.0431 h 13.2138 c 0.576,0 1.0431,-0.468 1.0431,-1.0431 v -1.7532 c 0,-0.5751 -0.3816,-1.3131 -0.8523,-1.6452 l -5.7654,-4.0734 c 0.5751,-0.1719 1.1043,-0.4833 1.5327,-0.9117 0.684,-0.684 1.062,-1.611 1.062,-2.574 0,-0.963 -0.378,-1.881 -1.062,-2.565 -0.675,-0.675 -1.602,-1.062 -2.565,-1.062 -0.963,0 -1.89,0.387 -2.565,1.062 -0.684,0.684 -1.062,1.602 -1.062,2.565 v 0 c 0,0.963 0.378,1.89 1.062,2.574 0.2079,0.2079 0.4401,0.3888 0.6894,0.5391 z m 0.7794,-1.1079 0.0117,-0.0162 0.1071,0.0765 c 0.3033,0.1431 0.6372,0.2205 0.9774,0.2205 0.603,0 1.188,-0.243 1.611,-0.666 0.432,-0.432 0.666,-1.008 0.666,-1.62 0,-0.603 -0.234,-1.179 -0.666,-1.611 -0.423,-0.423 -1.008,-0.666 -1.611,-0.666 -0.603,0 -1.188,0.243 -1.611,0.666 -0.432,0.432 -0.666,1.008 -0.666,1.611 v 0 c 0,0.612 0.234,1.188 0.666,1.62 0.153,0.153 0.3267,0.2817 0.5148,0.3852 z"
     fill-rule="evenodd"
     id="path8"
     style="fill:#fafbfc;fill-opacity:1;stroke-width:0.9" />
</svg>
