<?xml version="1.0" encoding="UTF-8" standalone="no"?>
<!-- Generator: Gravit.io -->

<svg
   style="isolation:isolate"
   viewBox="0 0 48 48"
   width="48pt"
   height="48pt"
   version="1.1"
   id="svg10"
   sodipodi:docname="folder-videos.svg"
   inkscape:version="1.2.1 (9c6d41e410, 2022-07-14)"
   xmlns:inkscape="http://www.inkscape.org/namespaces/inkscape"
   xmlns:sodipodi="http://sodipodi.sourceforge.net/DTD/sodipodi-0.dtd"
   xmlns="http://www.w3.org/2000/svg"
   xmlns:svg="http://www.w3.org/2000/svg">
  <defs
     id="defs14">
    <linearGradient
       id="linearGradient4227">
      <stop
         id="stop00"
         offset="0.0"
         style="stop-color:#f7aa94;stop-opacity:1.0" />
      <stop
         id="stop01"
         offset="0.5"
         style="stop-color:#f07cac;stop-opacity:1.0" />
      <stop
         id="stop02"
         offset="1.0"
         style="stop-color:#ed72c7;stop-opacity:1.0" />
    </linearGradient>
  </defs>
  <sodipodi:namedview
     id="namedview12"
     pagecolor="#ffffff"
     bordercolor="#666666"
     borderopacity="1.0"
     inkscape:pageshadow="2"
     inkscape:pageopacity="0.0"
     inkscape:pagecheckerboard="0"
     inkscape:document-units="pt"
     showgrid="false"
     inkscape:zoom="8.9375"
     inkscape:cx="30.713287"
     inkscape:cy="32.111888"
     inkscape:window-width="1920"
     inkscape:window-height="1046"
     inkscape:window-x="0"
     inkscape:window-y="34"
     inkscape:window-maximized="1"
     inkscape:current-layer="svg10"
     inkscape:showpageshadow="2"
     inkscape:deskcolor="#d1d1d1" />
  <path
     d="m 3.4961,14.691447 v 25.1172 c 0,1.4904 1.2096,2.7 2.7,2.7 h 35.0838 c 1.4904,0 2.7,-1.2096 2.7,-2.7 v -21.3687 c 0,-1.4904 -1.2096,-2.7009 -2.7,-2.7018 l -19.9017,-0.0153 c -0.4968,-9e-4 -1.1853,-0.2862 -1.5363,-0.6381 l -1.899,-1.9026 c -0.702,-0.7029 -2.0781,-1.2681 -3.0717,-1.2618 l -8.6751,0.054 c -1.4904,0.0099 -2.7,1.2267 -2.7,2.7171 z"
     id="path2"
     style="fill:#d8c4f1;fill-opacity:1;stroke-width:0.9;opacity:0.51" />
  <path
     d="m 8.25,16.7 h 31.5 c 0.9936,0 1.8,0.8064 1.8,1.8 v 9 c 0,0.9936 -0.8064,1.8 -1.8,1.8 H 8.25 c -0.9936,0 -1.8,-0.8064 -1.8,-1.8 v -9 c 0,-0.9936 0.8064,-1.8 1.8,-1.8 z"
     id="path4"
     style="fill:#d8c4f1;fill-opacity:1;stroke-width:0.9;opacity:0.65" />
  <path
     d="m 3.4961,19.376162 v 22.7187 c 0,1.4904 1.2096,2.7 2.7,2.7 h 35.0838 c 1.4904,0 2.7,-1.2096 2.7,-2.7 v -20.0187 c 0,-1.490399 -1.2096,-2.7009 -2.7,-2.7018 l -19.9017,-0.0153 c -0.4968,-9e-4 -1.3032,-9e-4 -1.8,0 z"
     id="path6"
     style="fill:#d8c4f1;fill-opacity:1;stroke-width:0.9"
     sodipodi:nodetypes="cssssscccc" />
  <path
     d="m 21.1919,37.09205 c 0.1728,0 0.3393,0.0603 0.4626,0.1692 0.1206,0.1062 0.189,0.252 0.189,0.4041 0,0.1521 -0.0684,0.2988 -0.189,0.405 -0.1233,0.1089 -0.2898,0.1692 -0.4626,0.1692 h -2.9646 c -1.1808,0 -2.1393,-0.9585 -2.1393,-2.1393 v -9.2115 c 0,-1.1808 0.9585,-2.1393 2.1393,-2.1393 h 11.0214 c 1.1808,0 2.1393,0.9585 2.1393,2.1393 v 9.2115 c 0,1.1808 -0.9585,2.1393 -2.1393,2.1393 h -2.9646 c -0.1728,0 -0.3393,-0.0603 -0.4626,-0.1692 -0.1206,-0.1062 -0.189,-0.2529 -0.189,-0.405 0,-0.1521 0.0684,-0.2979 0.189,-0.4041 0.1233,-0.1089 0.2898,-0.1692 0.4626,-0.1692 h 2.2734 c 0.8433,0 1.5282,-0.6849 1.5282,-1.5291 v -8.1369 c 0,-0.8433 -0.6849,-1.5282 -1.5282,-1.5282 h -9.639 c -0.8433,0 -1.5282,0.6849 -1.5282,1.5282 v 8.1369 c 0,0.8442 0.6849,1.5291 1.5282,1.5291 z m 3.1419,-4.8276 -0.6228,0.3294 c -0.8019,0.4248 -1.4535,0.0324 -1.4535,-0.8757 v -0.4473 c 0,-0.9081 0.6516,-1.3005 1.4535,-0.8757 l 0.6228,0.3294 c 0.8028,0.4248 0.8028,1.1151 0,1.5399 z m 2.2284,0.3078 -4.167,2.2059 c -0.8028,0.4248 -1.4544,0.0333 -1.4544,-0.8748 v -4.8177 c 0,-0.9072 0.6516,-1.2996 1.4544,-0.8748 l 4.167,2.2059 c 1.1232,0.5949 1.1232,1.5606 0,2.1555 z"
     fill-rule="evenodd"
     id="path8"
     style="fill:#1e1323;fill-opacity:1;stroke-width:0.9" />
</svg>
