<svg xmlns="http://www.w3.org/2000/svg" width="32" height="32" version="1.1">
 <g id="22-22-drive-harddisk" transform="translate(27,5)">
  <rect style="opacity:0.001" width="22" height="22" x="5" y="5"/>
  <path style="fill:#fefefe" d="M 9.6152344,8 7,17 H 25 L 22.384766,8 Z M 7,19 v 5 h 18 v -5 z m 15.5,1 c 0.397814,1e-6 0.779284,0.158123 1.060547,0.439453 C 23.84188,20.720713 24,21.10219 24,21.5 c 0,0.29666 -0.0871,0.587305 -0.251953,0.833984 -0.164852,0.24668 -0.399705,0.439195 -0.673828,0.552735 -0.274052,0.11354 -0.576195,0.141794 -0.867188,0.08398 -0.290923,-0.05789 -0.557856,-0.200368 -0.767578,-0.410156 -0.209793,-0.20979 -0.352266,-0.47659 -0.410156,-0.767578 -0.05789,-0.290921 -0.02949,-0.593069 0.08398,-0.867188 0.113541,-0.27405 0.306053,-0.509048 0.552735,-0.673828 C 21.912698,20.087104 22.203337,20 22.5,20 Z"/>
 </g>
 <g id="drive-harddisk">
  <rect style="opacity:0.001" width="32" height="32" x="0" y="0"/>
  <path style="fill:#fefefe" d="M 6.0664062 4 L 2 17 L 30 17 L 25.933594 4 L 6.0664062 4 z M 2 21 L 2 28 L 30 28 L 30 21 L 2 21 z M 26.5 23 C 26.897814 23 27.279284 23.158121 27.560547 23.439453 C 27.84188 23.720716 28 24.102186 28 24.5 C 28 24.796662 27.9129 25.087302 27.748047 25.333984 C 27.583197 25.580667 27.348341 25.773177 27.074219 25.886719 C 26.800166 26.000259 26.498023 26.028523 26.207031 25.970703 C 25.916108 25.912813 25.649176 25.77034 25.439453 25.560547 C 25.229662 25.350756 25.087187 25.083961 25.029297 24.792969 C 24.971406 24.502046 24.999811 24.199903 25.113281 23.925781 C 25.226823 23.651728 25.419334 23.416734 25.666016 23.251953 C 25.912698 23.0871 26.203338 23 26.5 23 z"/>
 </g>
</svg>
