<?xml version="1.0" encoding="UTF-8" standalone="no"?>
<!-- Generator: Adobe Illustrator 15.1.0, SVG Export Plug-In . SVG Version: 6.00 Build 0)  -->

<svg
   version="1.1"
   id="Layer_1"
   x="0px"
   y="0px"
   width="56.69px"
   height="56.69px"
   viewBox="0 0 56.69 56.69"
   enable-background="new 0 0 56.69 56.69"
   xml:space="preserve"
   sodipodi:docname="weather12.svg"
   inkscape:version="1.2.1 (9c6d41e410, 2022-07-14)"
   xmlns:inkscape="http://www.inkscape.org/namespaces/inkscape"
   xmlns:sodipodi="http://sodipodi.sourceforge.net/DTD/sodipodi-0.dtd"
   xmlns="http://www.w3.org/2000/svg"
   xmlns:svg="http://www.w3.org/2000/svg"><defs
   id="defs7" /><sodipodi:namedview
   id="namedview5"
   pagecolor="#ffffff"
   bordercolor="#000000"
   borderopacity="0.25"
   inkscape:showpageshadow="2"
   inkscape:pageopacity="0.0"
   inkscape:pagecheckerboard="0"
   inkscape:deskcolor="#d1d1d1"
   showgrid="false"
   inkscape:zoom="12.683013"
   inkscape:cx="28.305577"
   inkscape:cy="28.305577"
   inkscape:window-width="1920"
   inkscape:window-height="1046"
   inkscape:window-x="0"
   inkscape:window-y="34"
   inkscape:window-maximized="1"
   inkscape:current-layer="Layer_1" />
<path
   d="m 15.132504,33.716518 h 26.423 c 0.693,-1.68 1.08,-3.518 1.08,-5.448 0,-7.894 -6.396,-14.292 -14.291,-14.292 -7.894,0 -14.294,6.398 -14.294,14.292 10e-4,1.93 0.389,3.768 1.082,5.448 z"
   id="path862"
   style="fill:#ffd800;fill-opacity:1" /><path
   d="m 46.911504,50.633518 h -29.5 c -0.553,0 -1,0.447 -1,1 0,0.553 0.447,1 1,1 h 29.5 c 0.553,0 1,-0.447 1,-1 0,-0.553 -0.447,-1 -1,-1 z"
   id="path860"
   style="fill:#c1c1c1;fill-opacity:1" /><path
   d="m 49.286504,45.990518 h -29.25 c -0.553,0 -1,0.447 -1,1 0,0.553 0.447,1 1,1 h 29.25 c 0.553,0 1,-0.447 1,-1 0,-0.553 -0.447,-1 -1,-1 z"
   id="path858"
   style="fill:#c1c1c1;fill-opacity:1" /><path
   d="m 44.911504,42.347518 c 0,-0.553 -0.447,-1 -1,-1 H 6.4115036 c -0.553,0 -1,0.447 -1,1 0,0.553 0.447,1 1,1 H 43.911504 c 0.553,0 1,-0.448 1,-1 z"
   id="path856"
   style="fill:#c1c1c1;fill-opacity:1" /><path
   d="m 9.9125036,37.704518 c 0,0.553 0.4470004,1 1.0000004,1 h 36.25 c 0.553,0 1,-0.447 1,-1 0,-0.553 -0.447,-1 -1,-1 h -36.25 c -0.553,0 -1.0000004,0.447 -1.0000004,1 z"
   id="path854"
   style="fill:#c1c1c1;fill-opacity:1" /><path
   d="m 40.813504,15.799518 c 1.088,1.088 2.691,1.242 3.602,0.363 l 0.014,0.012 0.006,-0.025 c 0.004,-0.002 0.006,-0.004 0.008,-0.007 0.576,-0.577 1.52,-4.488 1.021,-4.997 -0.494,-0.508 -4.416,0.447 -4.994,1.025 -0.004,0.002 -0.004,0.004 -0.004,0.008 l -0.027,0.006 0.01,0.01 c -0.88,0.912 -0.723,2.517 0.364,3.605 z"
   id="path852"
   style="fill:#ffd800;fill-opacity:1" /><path
   d="m 12.253504,16.149518 0.007,0.025 0.01,-0.01 c 0.912,0.88 2.518,0.723 3.605,-0.364 1.088,-1.089 1.243,-2.692 0.363,-3.603 l 0.013,-0.014 -0.027,-0.006 c -0.001,-0.003 -0.004,-0.006 -0.005,-0.006 -0.579,-0.578 -4.488,-1.521 -4.997,-1.024 -0.51,0.496 0.446,4.418 1.024,4.997 0.004,0.003 0.004,0.003 0.007,0.005 z"
   id="path850"
   style="fill:#ffd800;fill-opacity:1" /><path
   d="m 8.3955036,31.078518 0.025,0.014 v -0.016 c 1.266,-0.023 2.2910004,-1.27 2.2910004,-2.806 0,-1.54 -1.0250004,-2.784 -2.2910004,-2.806 v -0.02 l -0.025,0.018 c -10e-4,0 -0.004,0 -0.006,0 -0.818,0 -4.25,2.097 -4.258,2.808 -0.011,0.71 3.439,2.81 4.258,2.81 0.002,0 0.005,-0.002 0.006,-0.002 z"
   id="path848"
   style="fill:#ffd800;fill-opacity:1" /><path
   d="m 48.302504,25.459518 c -0.004,0 -0.008,0.001 -0.008,0.001 l -0.025,-0.016 v 0.018 c -1.264,0.021 -2.289,1.268 -2.289,2.805 0,1.54 1.025,2.786 2.289,2.807 v 0.018 l 0.025,-0.016 c 0,0 0.004,0 0.008,0 0.818,0 4.248,-2.098 4.256,-2.809 0.009,-0.711 -3.438,-2.808 -4.256,-2.808 z"
   id="path846"
   style="fill:#ffd800;fill-opacity:1" /><path
   d="m 25.521504,8.3445176 0.015,-0.024 -0.001,-0.007 c 0,-0.818 2.099,-4.27 2.808,-4.257 0.711,0.008 2.809,3.438 2.809,4.257 v 0.007 l 0.018,0.024 h -0.02 c -0.021,1.266 -1.266,2.2910004 -2.807,2.2910004 -1.537,0 -2.781,-1.0250004 -2.805,-2.2910004 z"
   id="path2"
   style="fill:#ffd800;fill-opacity:1" />
</svg>
