<?xml version="1.0" encoding="UTF-8" standalone="no"?>
<!-- Generator: Adobe Illustrator 15.1.0, SVG Export Plug-In . SVG Version: 6.00 Build 0)  -->

<svg
   version="1.1"
   id="Layer_1"
   x="0px"
   y="0px"
   width="56.69px"
   height="56.69px"
   viewBox="0 0 56.69 56.69"
   enable-background="new 0 0 56.69 56.69"
   xml:space="preserve"
   sodipodi:docname="jdwi-snow-night.svg"
   inkscape:version="1.2.1 (9c6d41e410, 2022-07-14)"
   xmlns:inkscape="http://www.inkscape.org/namespaces/inkscape"
   xmlns:sodipodi="http://sodipodi.sourceforge.net/DTD/sodipodi-0.dtd"
   xmlns="http://www.w3.org/2000/svg"
   xmlns:svg="http://www.w3.org/2000/svg"><defs
   id="defs7" /><sodipodi:namedview
   id="namedview5"
   pagecolor="#c91d18"
   bordercolor="#000000"
   borderopacity="0.25"
   inkscape:showpageshadow="2"
   inkscape:pageopacity="0"
   inkscape:pagecheckerboard="0"
   inkscape:deskcolor="#d1d1d1"
   showgrid="false"
   inkscape:zoom="8.9682446"
   inkscape:cx="41.423937"
   inkscape:cy="43.988542"
   inkscape:window-width="1689"
   inkscape:window-height="917"
   inkscape:window-x="0"
   inkscape:window-y="49"
   inkscape:window-maximized="0"
   inkscape:current-layer="Layer_1" />
<path
   d="m 8.602162,35.968581 c 0,3.896665 3.159623,7.056288 7.056288,7.056288 h 22.905363 c 3.897425,0 7.057048,-3.159623 7.057048,-7.056288 0,-3.689776 -2.832556,-6.710205 -6.440184,-7.023582 0,-0.01065 0.0015,-0.02053 0.0015,-0.03119 0,-3.421278 -2.772466,-6.192223 -6.1907,-6.192223 -1.269478,0 -2.448441,0.383353 -3.431164,1.03901 -1.693906,-2.913181 -4.840598,-4.876347 -8.45355,-4.876347 -5.403457,0 -9.780835,4.376618 -9.780835,9.779314 0,0.558298 0.05629,1.101381 0.146799,1.633816 -1.73802,1.28545 -2.870586,3.342933 -2.870586,5.671197 z"
   id="path2"
   style="fill:#ffffff;fill-opacity:1;stroke-width:0.760621" />
<path
   d="m 33.119683,14.536609 c -1.282335,-4.7275459 0.103804,-9.5499473 3.238499,-12.8671939 -1.070253,0.045638 -2.153929,0.204923 -3.23134,0.4984371 -6.939641,1.880996 -11.361145,8.4152648 -10.834072,15.3298488 2.665788,0.598662 5.089965,2.035807 6.898477,4.097565 0.868909,-0.269353 1.778087,-0.408056 2.703372,-0.408056 4.278327,0 7.880139,2.955723 8.871644,6.932481 1.036248,0.32573 1.994643,0.811639 2.849235,1.428197 2.478762,-1.247435 4.499357,-3.141854 5.904287,-5.415693 -7.155302,1.805827 -14.46273,-2.446548 -16.400102,-9.595586 z"
   id="path846-3"
   style="fill:#f6ff24;fill-opacity:1;stroke-width:0.89486" /><path
   d="m 33.799696,43.557439 c -0.736,0 -1.334,0.595999 -1.334,1.332 0,0.736 0.598,1.334 1.334,1.334 0.736,0 1.332,-0.598 1.332,-1.334 0,-0.736 -0.595,-1.332 -1.332,-1.332 z"
   id="path854"
   style="fill:#44dbff;fill-opacity:1" /><path
   d="m 40.563696,50.383439 c -1.104,0 -1.996,0.893 -1.996,1.996 0,1.103 0.893,1.996 1.996,1.996 1.103,0 1.996,-0.893 1.996,-1.996 0,-1.103 -0.892,-1.996 -1.996,-1.996 z"
   id="path852"
   style="fill:#44dbff;fill-opacity:1" /><path
   d="m 27.085696,50.383439 c -1.103,0 -1.996,0.893 -1.996,1.996 0,1.103 0.893,1.996 1.996,1.996 1.104,0 1.996,-0.893 1.996,-1.996 0,-1.103 -0.893,-1.996 -1.996,-1.996 z"
   id="path850"
   style="fill:#44dbff;fill-opacity:1" /><path
   d="m 20.382696,43.557439 c -0.736,0 -1.333,0.595999 -1.333,1.332 0,0.736 0.597,1.334 1.333,1.334 0.736,0 1.333,-0.598 1.333,-1.334 0,-0.736 -0.597,-1.332 -1.333,-1.332 z"
   id="path848"
   style="fill:#44dbff;fill-opacity:1" /><path
   d="m 13.631696,50.799439 c -1.104,0 -1.996,0.893 -1.996,1.996 0,1.103 0.893,1.996 1.996,1.996 1.103,0 1.996,-0.893 1.996,-1.996 0,-1.103 -0.893,-1.996 -1.996,-1.996 z"
   id="path846"
   style="fill:#44dbff;fill-opacity:1" /></svg>
