<?xml version="1.0" encoding="utf-8"?>
<!-- Generator: Adobe Illustrator 15.1.0, SVG Export Plug-In . SVG Version: 6.00 Build 0)  -->
<!DOCTYPE svg PUBLIC "-//W3C//DTD SVG 1.1//EN" "http://www.w3.org/Graphics/SVG/1.1/DTD/svg11.dtd">
<svg version="1.1" id="Layer_1" xmlns="http://www.w3.org/2000/svg" xmlns:xlink="http://www.w3.org/1999/xlink" x="0px" y="0px"
	 width="56.69px" height="56.69px" viewBox="0 0 56.69 56.69" enable-background="new 0 0 56.69 56.69" xml:space="preserve">
<path d="M52.475,10.852v2h-7.75v-2H52.475z M49.225,15.211h-4.5v2h4.5V15.211z M44.725,21.57h7.75v-2h-7.75V21.57z M49.225,23.93
	h-4.5v2h4.5V23.93z M44.725,30.289h7.75v-2h-7.75V30.289z M35.164,36.675c-2.219,0.502-3.77,2.442-3.77,4.72
	c0,0.437,0.355,0.79,0.791,0.79s0.789-0.354,0.789-0.79c0-1.51,1.068-2.846,2.537-3.178c0.426-0.098,0.693-0.52,0.598-0.945
	C36.012,36.846,35.59,36.58,35.164,36.675z M45.934,41.685c0,5.04-4.084,9.125-9.125,9.125c-5.039,0-9.125-4.085-9.125-9.125
	c0-3.554,2.035-6.625,5-8.132V10.006c0-2.278,1.848-4.125,4.125-4.125c2.279,0,4.125,1.847,4.125,4.125v23.547
	C43.898,35.06,45.934,38.131,45.934,41.685z M43.768,41.685c0-3.222-2.193-5.925-5.168-6.717v-5.616h-3.582v5.616
	c-2.975,0.791-5.168,3.494-5.168,6.717c0,3.843,3.115,6.958,6.959,6.958S43.768,45.527,43.768,41.685z M22.047,42.191l6.855-11.876
	l1.078,1.867c0.139-0.109,0.266-0.229,0.408-0.333v-8.108l-1.486,2.573L21.985,14.33l2.002-7.475
	c0.143-0.533-0.174-1.082-0.707-1.225c-0.537-0.146-1.082,0.174-1.225,0.707l-1.484,5.543l-2.645-4.58
	c-0.277-0.479-0.889-0.643-1.365-0.365c-0.479,0.275-0.643,0.887-0.367,1.365l2.705,4.687l-5.709-1.53
	c-0.531-0.145-1.082,0.174-1.225,0.707c-0.145,0.533,0.172,1.082,0.707,1.225l7.641,2.049l6.857,11.877h-13.84l-5.469-5.471
	c-0.391-0.391-1.023-0.391-1.414,0s-0.391,1.023,0,1.414l4.055,4.057H5.215c-0.551,0-1,0.447-1,1c0,0.551,0.449,0.999,1,0.999h5.414
	l-4.182,4.183c-0.391,0.391-0.391,1.023,0,1.414c0.195,0.195,0.451,0.293,0.707,0.293s0.512-0.098,0.707-0.293l5.596-5.597h13.715
	L20.25,41.302l-7.471,2.002c-0.533,0.143-0.85,0.691-0.707,1.225c0.119,0.447,0.523,0.741,0.965,0.741
	c0.086,0,0.174-0.011,0.26-0.034l5.539-1.484l-2.643,4.578c-0.275,0.479-0.113,1.09,0.365,1.366c0.158,0.091,0.33,0.134,0.5,0.134
	c0.346,0,0.682-0.18,0.867-0.5l2.707-4.688l1.529,5.712c0.119,0.447,0.523,0.741,0.965,0.741c0.086,0,0.174-0.011,0.26-0.034
	c0.533-0.143,0.85-0.691,0.707-1.225L22.047,42.191z"/>
</svg>
