<?xml version="1.0" encoding="UTF-8" standalone="no"?>
<svg
   sodipodi:docname="panel-background.svg"
   inkscape:version="1.2.1 (9c6d41e410, 2022-07-14)"
   version="1.1"
   id="svg2"
   viewBox="0 0 173 56.000004"
   height="56.000004"
   width="173"
   xmlns:inkscape="http://www.inkscape.org/namespaces/inkscape"
   xmlns:sodipodi="http://sodipodi.sourceforge.net/DTD/sodipodi-0.dtd"
   xmlns:xlink="http://www.w3.org/1999/xlink"
   xmlns="http://www.w3.org/2000/svg"
   xmlns:svg="http://www.w3.org/2000/svg"
   xmlns:rdf="http://www.w3.org/1999/02/22-rdf-syntax-ns#"
   xmlns:cc="http://creativecommons.org/ns#"
   xmlns:dc="http://purl.org/dc/elements/1.1/">
  <defs
     id="defs4">
    <linearGradient
       id="linearGradient18808"
       inkscape:swatch="solid">
      <stop
         style="stop-color:#000000;stop-opacity:1;"
         offset="0"
         id="stop18806" />
    </linearGradient>
    <style
       id="current-color-scheme"
       type="text/css">
      .ColorScheme-Text {
        color:#31363b;
        stop-color:#31363b;
      }
      .ColorScheme-Background {
        color:#eff0f1;
        stop-color:#eff0f1;
      }
      .ColorScheme-Highlight {
        color:#ffffff;
        stop-color:#ffffff;
      }
      .ColorScheme-ViewText {
        color:#31363b;
        stop-color:#31363b;
      }
      .ColorScheme-ViewBackground {
        color:#fcfcfc;
        stop-color:#fcfcfc;
      }
      .ColorScheme-ViewHover {
        color:#93cee9;
        stop-color:#93cee9;
      }
      .ColorScheme-ViewFocus{
        color:#ffffff;
        stop-color:#ffffff;
      }
      .ColorScheme-ButtonText {
        color:#31363b;
        stop-color:#31363b;
      }
      .ColorScheme-ButtonBackground {
        color:#eff0f1;
        stop-color:#eff0f1;
      }
      .ColorScheme-ButtonHover {
        color:#ffffff;
        stop-color:#ffffff;
      }
      .ColorScheme-ButtonFocus{
        color:#ffffff;
        stop-color:#ffffff;
      }
      </style>
    <linearGradient
       id="linearGradient4948"
       x1="-20.500072"
       x2="-7.9999909"
       y1="932.3667"
       y2="932.37335"
       gradientTransform="matrix(0.85715937,0,0,1.0004181,-1.4279997,-0.38313249)"
       gradientUnits="userSpaceOnUse"
       xlink:href="#linearGradient4270" />
    <linearGradient
       id="linearGradient4270">
      <stop
         stop-opacity=".66663"
         offset="0"
         id="stop3" />
      <stop
         stop-opacity="0"
         offset="1"
         id="stop5" />
    </linearGradient>
    <radialGradient
       id="radialGradient994"
       cx="77"
       cy="12"
       r="6"
       gradientTransform="matrix(-7.6625328e-5,-3.7130035,3.7141193,-7.6651589e-5,-48.563415,1236.2806)"
       gradientUnits="userSpaceOnUse"
       xlink:href="#linearGradient4270"
       fx="77"
       fy="12" />
    <radialGradient
       id="radialGradient8187"
       cx="77"
       cy="12"
       r="6"
       gradientTransform="matrix(-7.6625328e-5,-3.7130035,3.7141193,-7.6651589e-5,-48.563415,1236.2806)"
       gradientUnits="userSpaceOnUse"
       xlink:href="#linearGradient4270"
       fx="77"
       fy="12" />
    <radialGradient
       id="radialGradient8195"
       cx="77"
       cy="12"
       r="6"
       gradientTransform="matrix(-7.6625328e-5,-3.7130035,3.7141193,-7.6651589e-5,-48.563415,1236.2806)"
       gradientUnits="userSpaceOnUse"
       xlink:href="#linearGradient4270"
       fx="77"
       fy="12" />
    <radialGradient
       id="radialGradient8203"
       cx="77"
       cy="12"
       r="6"
       gradientTransform="matrix(-7.6625328e-5,-3.7130035,3.7141193,-7.6651589e-5,-48.563415,1236.2806)"
       gradientUnits="userSpaceOnUse"
       xlink:href="#linearGradient4270"
       fx="77"
       fy="12" />
    <radialGradient
       id="radialGradient8211"
       cx="77"
       cy="12"
       r="6"
       gradientTransform="matrix(-7.6625328e-5,-3.7130035,3.7141193,-7.6651589e-5,-48.563415,1236.2806)"
       gradientUnits="userSpaceOnUse"
       xlink:href="#linearGradient4270"
       fx="77"
       fy="12" />
    <linearGradient
       inkscape:collect="always"
       xlink:href="#linearGradient4270"
       id="linearGradient30823"
       gradientUnits="userSpaceOnUse"
       gradientTransform="matrix(0.85715937,0,0,1.0004181,-1.4279997,-0.38313249)"
       x1="-20.500072"
       y1="932.3667"
       x2="-7.9999909"
       y2="932.37335" />
    <linearGradient
       inkscape:collect="always"
       xlink:href="#linearGradient4270"
       id="linearGradient30833"
       gradientUnits="userSpaceOnUse"
       gradientTransform="matrix(0.85715937,0,0,1.0004181,-1.4279997,-0.38313249)"
       x1="-20.500072"
       y1="932.3667"
       x2="-7.9999909"
       y2="932.37335" />
  </defs>
  <sodipodi:namedview
     inkscape:document-rotation="0"
     fit-margin-bottom="0"
     fit-margin-right="0"
     fit-margin-left="0"
     fit-margin-top="0"
     showguides="true"
     inkscape:window-maximized="1"
     inkscape:window-y="38"
     inkscape:window-x="0"
     inkscape:window-height="1042"
     inkscape:window-width="1920"
     units="px"
     borderlayer="true"
     inkscape:showpageshadow="false"
     showgrid="true"
     inkscape:current-layer="layer1"
     inkscape:document-units="px"
     inkscape:cy="0.30935922"
     inkscape:cx="41.100582"
     inkscape:zoom="11.313709"
     inkscape:pageshadow="2"
     inkscape:pageopacity="0"
     borderopacity="1"
     bordercolor="#cc0000"
     pagecolor="#b0dba0"
     id="base"
     inkscape:guide-bbox="true"
     inkscape:pagecheckerboard="0"
     inkscape:deskcolor="#b0dba0">
    <inkscape:grid
       originy="-91.999976"
       originx="0"
       empspacing="2"
       id="grid3336"
       type="xygrid" />
    <sodipodi:guide
       position="51.322725,21.442274"
       orientation="0,1"
       id="guide18812"
       inkscape:locked="false"
       inkscape:label=""
       inkscape:color="rgb(165,29,45)" />
    <sodipodi:guide
       position="56.140253,33.582444"
       orientation="0,1"
       id="guide20268"
       inkscape:locked="false"
       inkscape:label=""
       inkscape:color="rgb(165,29,45)" />
    <sodipodi:guide
       position="40.33876,20.928404"
       orientation="-1,0"
       id="guide24628"
       inkscape:locked="false"
       inkscape:label=""
       inkscape:color="rgb(165,29,45)" />
    <sodipodi:guide
       position="54.27747,17.20285"
       orientation="-1,0"
       id="guide24630"
       inkscape:locked="false"
       inkscape:label=""
       inkscape:color="rgb(165,29,45)" />
  </sodipodi:namedview>
  <metadata
     id="metadata7">
    <rdf:RDF>
      <cc:Work
         rdf:about="">
        <dc:format>image/svg+xml</dc:format>
        <dc:type
           rdf:resource="http://purl.org/dc/dcmitype/StillImage" />
      </cc:Work>
    </rdf:RDF>
  </metadata>
  <g
     transform="translate(0,-904.36218)"
     id="layer1"
     inkscape:groupmode="layer"
     inkscape:label="Layer 1">
    <rect
       y="904.36218"
       x="0"
       height="5"
       width="5"
       id="hint-tile-center"
       style="opacity:1;fill:#ff6600;fill-opacity:1;stroke:none" />
    <g
       transform="matrix(0.37500035,0,0,1.3333275,136.87498,-303.44862)"
       id="mask-top">
      <rect
         y="-51"
         x="-922.36218"
         height="32.000015"
         width="11.999931"
         id="rect4265"
         style="opacity:0.97;fill:#000000;fill-opacity:1;stroke:none;stroke-width:1.54919"
         transform="matrix(0,-1,-1,0,0,0)" />
    </g>
    <g
       transform="matrix(1.5999977,0,0,1.5999942,107.20003,-546.21192)"
       id="mask-topleft">
      <path
         inkscape:connector-curvature="0"
         id="path4277"
         d="m 23,910.36218 c -5.539984,0 -10,4.46002 -10,10 h 10 z"
         style="opacity:0.97;fill:#000000;fill-opacity:1;stroke-width:2" />
    </g>
    <g
       transform="matrix(2.0000036,0,0,2.0000159,57.999798,-910.37672)"
       id="mask-topright">
      <path
         inkscape:connector-curvature="0"
         id="path4287"
         d="m 49.000013,910.36218 v 7.99999 H 57 c 0,-4.43198 -3.568007,-7.99999 -7.999987,-7.99999 z"
         style="opacity:0.97;fill:#000000;fill-opacity:1;stroke-width:1.6" />
    </g>
    <g
       transform="matrix(0.37500035,0,0,1.600003,136.87498,-572.62032)"
       id="mask-bottom">
      <rect
         transform="rotate(90)"
         style="opacity:0.97;fill:#000000;fill-opacity:1;stroke:none;stroke-width:1.41421"
         id="rect4291"
         width="9.9999723"
         height="32.000015"
         x="944.36224"
         y="-51" />
    </g>
    <g
       transform="matrix(1.3333288,0,0,1.3333268,110.66673,-318.11452)"
       id="mask-bottomleft">
      <path
         inkscape:connector-curvature="0"
         id="path4303"
         d="m 13,942.36218 c 0,6.64797 5.35202,12 12,12 v -12 z"
         style="opacity:0.97;fill:#000000;fill-opacity:1;stroke-width:2.40001" />
    </g>
    <g
       transform="matrix(1.3333336,0,0,1.3333316,95.99999,-318.11912)"
       id="mask-bottomright">
      <path
         inkscape:connector-curvature="0"
         id="path4313"
         d="m 45,942.36218 v 12 c 6.64798,0 12,-5.35203 12,-12 z"
         style="opacity:0.97;fill:#000000;fill-opacity:1;stroke-width:2.40001" />
    </g>
    <g
       transform="matrix(1.3333341,0,0,0.60000604,110.66665,372.93927)"
       id="mask-left">
      <rect
         transform="scale(-1,1)"
         style="opacity:0.97;fill:#000000;fill-opacity:1;stroke:none;stroke-width:1.22475"
         id="rect4317"
         width="11.999996"
         height="20.000069"
         x="-25"
         y="922.36218" />
    </g>
    <g
       transform="matrix(1.6000014,0,0,0.37500479,80.799938,582.72193)"
       id="mask-right">
      <rect
         y="916.36218"
         x="47"
         height="32.000023"
         width="9.9999828"
         id="rect4323"
         style="opacity:0.97;fill:#000000;fill-opacity:1;stroke:none;stroke-width:1.41421" />
    </g>
    <rect
       y="926.36212"
       x="143.99997"
       height="12.000025"
       width="12.000025"
       id="mask-center"
       style="opacity:0.97;fill:#000000;fill-opacity:1;stroke:none;stroke-width:0.375001" />
    <g
       id="shadow-bottom"
       transform="matrix(0,-0.91322653,0.375,0,-305.37083,989.6032)">
      <rect
         transform="scale(-1,1)"
         x="-19.428577"
         y="916.37335"
         width="12"
         height="32"
         id="rect30815"
         style="fill:none" />
      <rect
         transform="scale(-1,1)"
         x="-12.142588"
         y="916.37335"
         width="4.7141819"
         height="32"
         id="rect30817"
         style="opacity:0.5;fill:url(#linearGradient30823)" />
      <rect
         transform="scale(-1,1)"
         x="-12.571337"
         y="916.37335"
         width="0.85715508"
         height="32"
         id="rect30819"
         fill="currentColor"
         class="ColorScheme-Highlight"
         style="color:#ffffff;stop-color:#ffffff" />
    </g>
    <g
       id="shadow-right"
       transform="matrix(-2.3333,0,0,-0.375,138.2835,1280.6601)">
      <rect
         transform="scale(-1,1)"
         x="-19.428577"
         y="916.37335"
         width="12"
         height="32"
         id="rect30825"
         style="fill:none" />
      <rect
         transform="scale(-1,1)"
         x="-12.142588"
         y="916.37335"
         width="4.7141819"
         height="32"
         id="rect30827"
         style="opacity:0.5;fill:url(#linearGradient30833)" />
      <rect
         transform="scale(-1,1)"
         x="-12.571337"
         y="916.37335"
         width="0.85715508"
         height="32"
         id="rect30829"
         fill="currentColor"
         class="ColorScheme-Highlight"
         style="color:#ffffff;stop-color:#ffffff" />
    </g>
    <g
       id="shadow-left"
       transform="matrix(2.3333,0,0,0.375,-42.240489,580.84028)">
      <rect
         transform="scale(-1,1)"
         x="-19.428577"
         y="916.37335"
         width="12"
         height="32"
         id="rect1393"
         style="fill:none" />
      <rect
         transform="scale(-1,1)"
         x="-12.142588"
         y="916.37335"
         width="4.7141819"
         height="32"
         id="rect76"
         style="opacity:0.5;fill:url(#linearGradient4948)" />
      <rect
         transform="scale(-1,1)"
         x="-12.571337"
         y="916.37335"
         width="0.85715508"
         height="32"
         id="rect1660"
         fill="currentColor"
         class="ColorScheme-Highlight"
         style="color:#ffffff;stop-color:#ffffff" />
    </g>
    <use
       x="0"
       y="0"
       xlink:href="#shadow-topleft"
       id="shadow-bottomleft"
       transform="rotate(-90,44.08339,936.65266)"
       width="100%"
       height="100%"
       style="stroke:none;stroke-opacity:1" />
    <use
       x="0"
       y="0"
       xlink:href="#shadow-topleft"
       id="shadow-bottomright"
       transform="rotate(180,50.331175,929.84197)"
       width="100%"
       height="100%" />
    <use
       x="0"
       y="0"
       xlink:href="#shadow-topleft"
       id="shadow-topright"
       transform="rotate(90,29.017498,905.14966)"
       width="100%"
       height="100%" />
    <g
       id="shadow-topleft"
       transform="matrix(1.1667,0,0,1.1667,26.729601,-210.63889)">
      <path
         d="m -27.999486,926.3797 v 23.99931 h 10.28542 c 0,-7.59749 6.116397,-13.71389 13.7138946,-13.71389 V 926.3797 Z"
         id="path18"
         style="opacity:0.5;fill:url(#radialGradient994);stroke-width:1" />
      <path
         id="path914"
         d="m -4.0001714,934.95085 c -8.5455026,0 -15.4254236,6.88051 -15.4281306,15.42813 h 1.714236 c 0,-7.60025 6.116117,-13.71386 13.7138946,-13.71386 z"
         class="ColorScheme-Highlight"
         fill="currentColor"
         sodipodi:nodetypes="ccccc"
         style="color:#ffffff;fill:#ffffff;fill-opacity:1;stop-color:#ffffff" />
    </g>
    <rect
       id="hint-top-margin"
       x="47.31461"
       y="910.89423"
       width="4"
       height="4"
       fill="#ff00ff" />
    <rect
       id="hint-bottom-margin"
       x="46.314606"
       y="950.89423"
       width="4"
       height="4"
       fill="#ff00ff" />
    <rect
       id="hint-right-margin"
       transform="rotate(90)"
       x="933.89423"
       y="-68.314598"
       width="4"
       height="4"
       fill="#ff00ff" />
    <rect
       id="hint-left-margin"
       transform="rotate(90)"
       x="933.89423"
       y="-28.314602"
       width="4"
       height="4"
       fill="#ff00ff" />
    <rect
       id="shadow-hint-top-margin"
       x="47.31461"
       y="898.89423"
       width="4"
       height="12"
       fill="#ff6600" />
    <rect
       id="shadow-hint-bottom-margin"
       x="46.314606"
       y="954.89423"
       width="4"
       height="12"
       fill="#ff6600" />
    <rect
       id="shadow-hint-right-margin"
       transform="rotate(90)"
       x="933.89423"
       y="-80.314598"
       width="4"
       height="12"
       fill="#ff6600" />
    <rect
       id="shadow-hint-left-margin"
       transform="rotate(90)"
       x="933.89423"
       y="-24.314602"
       width="4"
       height="12"
       fill="#ff6600" />
    <rect
       y="910.89423"
       x="42.314606"
       height="4"
       width="4"
       id="hint-top-inset"
       style="fill:#00ff00" />
    <rect
       style="fill:#ffcc00"
       id="shadow-hint-top-inset"
       width="4"
       height="12"
       x="42.314606"
       y="898.89423" />
    <rect
       transform="rotate(90)"
       style="fill:#00ff00"
       id="hint-right-inset"
       width="4"
       height="4"
       x="928.89423"
       y="-68.314598" />
    <rect
       y="-80.314598"
       x="928.89423"
       height="12"
       width="4"
       id="shadow-hint-right-inset"
       style="fill:#ffcc00"
       transform="rotate(90)" />
    <rect
       transform="rotate(90)"
       y="-28.314602"
       x="928.89423"
       height="4"
       width="4"
       id="hint-left-inset"
       style="fill:#00ff00" />
    <rect
       style="fill:#ffcc00"
       id="shadow-hint-left-inset"
       width="4"
       height="12"
       x="928.89423"
       y="-24.314602"
       transform="rotate(90)" />
    <rect
       style="fill:#00ff00"
       id="hint-bottom-inset"
       width="4"
       height="4"
       x="41.314606"
       y="950.89423" />
    <rect
       y="954.89423"
       x="41.314606"
       height="12"
       width="4"
       id="shadow-hint-bottom-inset"
       style="fill:#ffcc00" />
    <path
       id="rect18757"
       style="fill:none;fill-opacity:1;fill-rule:evenodd;stroke:#000000;stroke-width:0.979;stroke-dasharray:none;stroke-opacity:1"
       d="M 35.993844 880.82711 C 45.567476 881.3441 53.120432 889.22227 53.120432 898.92935 L 53.120432 910.7296 C 53.120432 920.77317 45.034762 928.85884 34.991194 928.85884 L 22.974772 928.85884 C 12.931204 928.85884 4.8455338 920.77317 4.8455338 910.7296 L 4.8455338 899.72228 " />
    <path
       id="shadow-top"
       style="fill:none;fill-opacity:1;fill-rule:evenodd;stroke:#ffffff;stroke-width:0.979;stroke-dasharray:none;stroke-opacity:1"
       d="M 23.208501,881.32115 H 34.531519"
       inkscape:label="shadow-top" />
    <path
       id="path30729"
       style="fill:none;fill-opacity:1;fill-rule:evenodd;stroke:#000000;stroke-width:0.979;stroke-dasharray:none;stroke-opacity:1"
       d="M 4.8612166 898.16466 C 5.2469095 888.78055 12.700276 881.28093 22.064764 880.82234 " />
    <path
       d="M 0,0 0,56.000004 M 10,0 10,56.000004 M 20,0 20,56.000004 M 30,0 30,56.000004 M 40,0 40,56.000004 M 50,0 50,56.000004 M 60,0 60,56.000004 M 70,0 70,56.000004 M 80,0 80,56.000004 M 90,0 90,56.000004 M 100,0 100,56.000004 M 110,0 110,56.000004 M 120,0 120,56.000004 M 130,0 130,56.000004 M 140,0 140,56.000004 M 150,0 150,56.000004 M 160,0 160,56.000004 M 170,0 170,56.000004 M 0,0 173,0 M 0,10 173,10 M 0,20 173,20 M 0,30 173,30 M 0,40 173,40 M 0,50 173,50"
       style="fill:none;stroke:#000000;stroke-width:1px"
       id="path27899" />
    <path
       d="M 0,0 0,56.000004 M 10,0 10,56.000004 M 20,0 20,56.000004 M 30,0 30,56.000004 M 40,0 40,56.000004 M 50,0 50,56.000004 M 60,0 60,56.000004 M 70,0 70,56.000004 M 80,0 80,56.000004 M 90,0 90,56.000004 M 100,0 100,56.000004 M 110,0 110,56.000004 M 120,0 120,56.000004 M 130,0 130,56.000004 M 140,0 140,56.000004 M 150,0 150,56.000004 M 160,0 160,56.000004 M 170,0 170,56.000004 M 0,0 173,0 M 0,10 173,10 M 0,20 173,20 M 0,30 173,30 M 0,40 173,40 M 0,50 173,50"
       style="fill:none;stroke:#000000;stroke-width:1px"
       id="path27901" />
    <path
       d="M 0,0 0,56.000004 M 10,0 10,56.000004 M 20,0 20,56.000004 M 30,0 30,56.000004 M 40,0 40,56.000004 M 50,0 50,56.000004 M 60,0 60,56.000004 M 70,0 70,56.000004 M 80,0 80,56.000004 M 90,0 90,56.000004 M 100,0 100,56.000004 M 110,0 110,56.000004 M 120,0 120,56.000004 M 130,0 130,56.000004 M 140,0 140,56.000004 M 150,0 150,56.000004 M 160,0 160,56.000004 M 170,0 170,56.000004 M 0,0 173,0 M 0,10 173,10 M 0,20 173,20 M 0,30 173,30 M 0,40 173,40 M 0,50 173,50"
       style="fill:none;stroke:#000000;stroke-width:1px"
       id="path27903" />
  </g>
</svg>
