<?xml version="1.0" encoding="UTF-8" standalone="no"?>
<!-- Generator: Adobe Illustrator 15.1.0, SVG Export Plug-In . SVG Version: 6.00 Build 0)  -->

<svg
   version="1.1"
   id="Layer_1"
   x="0px"
   y="0px"
   width="56.69px"
   height="56.69px"
   viewBox="0 0 56.69 56.69"
   enable-background="new 0 0 56.69 56.69"
   xml:space="preserve"
   sodipodi:docname="10n.svg"
   inkscape:version="1.2.1 (9c6d41e410, 2022-07-14)"
   xmlns:inkscape="http://www.inkscape.org/namespaces/inkscape"
   xmlns:sodipodi="http://sodipodi.sourceforge.net/DTD/sodipodi-0.dtd"
   xmlns="http://www.w3.org/2000/svg"
   xmlns:svg="http://www.w3.org/2000/svg"><defs
   id="defs7" /><sodipodi:namedview
   id="namedview5"
   pagecolor="#c91d18"
   bordercolor="#000000"
   borderopacity="0.25"
   inkscape:showpageshadow="2"
   inkscape:pageopacity="0"
   inkscape:pagecheckerboard="0"
   inkscape:deskcolor="#d1d1d1"
   showgrid="false"
   inkscape:zoom="12.683013"
   inkscape:cx="14.704708"
   inkscape:cy="40.723761"
   inkscape:window-width="1689"
   inkscape:window-height="917"
   inkscape:window-x="0"
   inkscape:window-y="49"
   inkscape:window-maximized="0"
   inkscape:current-layer="Layer_1" />
<path
   d="m 40.602147,43.998802 c -0.0014,0 -0.0014,0 -0.003,0 -0.404158,0 -0.732035,0.326408 -0.733503,0.732035 l -0.02274,7.575612 c -0.0014,0.405626 0.324943,0.734969 0.730569,0.736436 0.0014,0 0.0014,0 0.003,0 0.404161,0 0.732035,-0.326408 0.733502,-0.732034 l 0.02274,-7.575614 c 0.0014,-0.405626 -0.324941,-0.734969 -0.730568,-0.736435 z"
   id="path854"
   style="fill:#44dbff;fill-opacity:1;stroke-width:0.733502" /><path
   d="m 35.665675,44.003202 c -0.379954,-0.0014 -0.733502,0.324942 -0.734969,0.73057 l -0.01687,5.292219 c -0.0014,0.405626 0.326408,0.73497 0.732035,0.736436 h 0.0014 c 0.40416,0 0.732036,-0.326409 0.733502,-0.732036 l 0.01687,-5.29222 c 0.0014,-0.404159 -0.327143,-0.733502 -0.732036,-0.734969 z"
   id="path852"
   style="fill:#44dbff;fill-opacity:1;stroke-width:0.733502" /><path
   d="m 19.226803,43.995135 c -0.429099,-0.0073 -0.734235,0.326408 -0.735702,0.732035 l -0.01613,5.292219 c -0.0014,0.40416 0.325675,0.733503 0.731302,0.734969 7.33e-4,0 0.0014,0 0.0022,0 0.404159,0 0.732036,-0.326407 0.733503,-0.730568 l 0.01613,-5.292219 c 0.0014,-0.405627 -0.32641,-0.734969 -0.731303,-0.736436 z"
   id="path848"
   style="fill:#44dbff;fill-opacity:1;stroke-width:0.733502" /><path
   d="m 14.296201,43.999535 c -7.35e-4,0 -0.0014,0 -0.0022,0 -0.404158,0 -0.732035,0.326409 -0.733503,0.730569 l -0.02347,7.577079 c -0.0014,0.40416 0.326408,0.733503 0.731302,0.734969 7.34e-4,0 0.0014,0 0.0022,0 0.40416,0 0.732036,-0.326408 0.733503,-0.730568 l 0.02347,-7.577079 c 0.0014,-0.404161 -0.325674,-0.734237 -0.731302,-0.73497 z"
   id="path846"
   style="fill:#44dbff;fill-opacity:1;stroke-width:0.733502" /><path
   d="m 8.6021613,34.74567 c 0,3.757732 3.0469687,6.804701 6.8047017,6.804701 h 22.088689 c 3.758465,0 6.805434,-3.046969 6.805434,-6.804701 0,-3.55822 -2.731563,-6.470958 -6.210564,-6.773162 0,-0.01027 0.0014,-0.0198 0.0014,-0.03008 0,-3.299294 -2.673616,-5.971443 -5.969976,-5.971443 -1.224215,0 -2.361143,0.369684 -3.308828,1.001964 -1.633511,-2.809313 -4.66801,-4.702484 -8.152145,-4.702484 -5.210801,0 -9.432107,4.220573 -9.432107,9.43064 0,0.538392 0.05428,1.062112 0.141565,1.575563 -1.6760518,1.239619 -2.768237,3.223744 -2.768237,5.468995 z"
   id="path2"
   style="fill:#ffffff;fill-opacity:1;stroke-width:0.733502" />
<path
   d="M 32.245528,14.077839 C 31.008914,9.51885 32.345631,4.8683878 35.368561,1.6694151 34.336467,1.7134259 33.291429,1.8670317 32.252432,2.1500808 25.560219,3.9640113 21.29636,10.265306 21.804641,16.933355 c 2.570741,0.577317 4.908486,1.963222 6.652517,3.95147 0.837929,-0.25975 1.71469,-0.393507 2.606985,-0.393507 4.125787,0 7.599179,2.850339 8.555332,6.685308 0.999302,0.314117 1.923526,0.782701 2.747648,1.377276 2.390384,-1.202959 4.338936,-3.029834 5.693774,-5.222601 -6.900185,1.741442 -13.947072,-2.359318 -15.815369,-9.253462 z"
   id="path846-3"
   style="fill:#f6ff24;fill-opacity:1;stroke-width:0.862954" /><g
   id="g1343"
   transform="matrix(0.96434575,0,0,0.96434575,-0.44454527,6.4234766)"><path
     id="path2-3"
     d="m 25.646484,36.302734 -3.513672,6.955078 h 6.34961 L 24.310547,52.125 36.115234,41.058594 l -6.304687,0.0059 2.761719,-4.761719 z"
     style="fill:#ffd800;fill-opacity:1" /></g></svg>
