<?xml version="1.0" encoding="UTF-8" standalone="no"?>
<!-- Generator: Adobe Illustrator 15.1.0, SVG Export Plug-In . SVG Version: 6.00 Build 0)  -->

<svg
   version="1.1"
   id="Layer_1"
   x="0px"
   y="0px"
   width="56.69px"
   height="56.69px"
   viewBox="0 0 56.69 56.69"
   enable-background="new 0 0 56.69 56.69"
   xml:space="preserve"
   sodipodi:docname="weather4.svg"
   inkscape:version="1.2.1 (9c6d41e410, 2022-07-14)"
   xmlns:inkscape="http://www.inkscape.org/namespaces/inkscape"
   xmlns:sodipodi="http://sodipodi.sourceforge.net/DTD/sodipodi-0.dtd"
   xmlns="http://www.w3.org/2000/svg"
   xmlns:svg="http://www.w3.org/2000/svg"><defs
   id="defs1683" /><sodipodi:namedview
   id="namedview1681"
   pagecolor="#ffffff"
   bordercolor="#000000"
   borderopacity="0.25"
   inkscape:showpageshadow="2"
   inkscape:pageopacity="0.0"
   inkscape:pagecheckerboard="0"
   inkscape:deskcolor="#d1d1d1"
   showgrid="false"
   inkscape:zoom="12.683013"
   inkscape:cx="28.305577"
   inkscape:cy="28.305577"
   inkscape:window-width="1920"
   inkscape:window-height="1046"
   inkscape:window-x="0"
   inkscape:window-y="34"
   inkscape:window-maximized="1"
   inkscape:current-layer="Layer_1" />
<path
   d="m 19.299,21.234 h -0.856 -1.995 c -0.301,1.035 -0.471,2.127 -0.471,3.259 0,4.384 2.418,8.197 5.99,10.193 1.445,-2.942 4.471,-4.976 7.965,-4.976 0.775,0 1.54,0.101 2.278,0.296 1.841,-1.98 4.3,-3.298 6.969,-3.751 0.088,-0.576 0.147,-1.162 0.147,-1.763 0,-6.436 -5.204,-11.653 -11.636,-11.673 0,0.008 10e-4,0.016 10e-4,0.023 0,4.346 -3.26,7.936 -7.555,8.348 -0.267,0.031 -0.534,0.044 -0.837,0.044 z"
   id="path2179"
   style="fill:#ffd800;fill-opacity:1" /><path
   d="m 18.442,18.234 h 0.856 0.042 c 0.162,0 0.323,-0.01 0.48,-0.025 2.732,-0.263 4.87,-2.564 4.87,-5.365 0,-2.98 -2.414,-5.394 -5.393,-5.394 H 18.938 C 17.969,5.921 16.267,4.904 14.322,4.904 11.687,4.904 9.491,6.766 8.971,9.248 H 8.107 c -2.481,0 -4.493,2.012 -4.493,4.492 0,2.482 2.012,4.494 4.493,4.494 h 10.335 z"
   id="path2177"
   style="fill:#ffffff;fill-opacity:1" /><path
   d="m 50.351,39.898 c 0.085,-0.505 0.14,-1.021 0.14,-1.55 0,-5.127 -4.155,-9.279 -9.282,-9.279 -3.428,0 -6.414,1.862 -8.021,4.627 -0.932,-0.622 -2.051,-0.985 -3.255,-0.985 -3.243,0 -5.873,2.628 -5.873,5.875 0,0.01 0.001,0.02 0.001,0.029 -3.423,0.297 -6.112,3.164 -6.112,6.665 0,3.697 3,6.695 6.697,6.695 h 21.733 c 3.697,0 6.697,-2.998 6.697,-6.695 0,-2.21 -1.075,-4.162 -2.725,-5.382 z"
   id="path2175"
   style="fill:#ffffff;fill-opacity:1" /><path
   d="m 17.467,34.68 c -0.89,-0.89 -2.198,-1.016 -2.942,-0.297 l -0.012,-0.011 -0.004,0.022 c -0.002,0 -0.004,0.005 -0.004,0.005 -0.474,0.473 -1.245,3.666 -0.839,4.079 0.406,0.42 3.61,-0.362 4.082,-0.835 0.002,0 0.003,-0.004 0.003,-0.004 l 0.022,-0.009 -0.008,-0.006 c 0.719,-0.744 0.589,-2.057 -0.298,-2.944 z"
   id="path2173"
   style="fill:#ffd800;fill-opacity:1" /><path
   d="m 37.838,14.307 c 0.889,0.891 2.199,1.016 2.942,0.297 l 0.011,0.011 0.006,-0.021 c 0.002,-10e-4 0.004,-0.003 0.005,-0.005 0.471,-0.472 1.242,-3.666 0.835,-4.082 -0.404,-0.416 -3.607,0.365 -4.079,0.838 -0.004,0.002 -0.005,0.002 -0.005,0.006 l -0.022,0.005 0.009,0.008 c -0.719,0.743 -0.591,2.055 0.298,2.943 z"
   id="path2171"
   style="fill:#ffd800;fill-opacity:1" /><path
   d="M 11.377,22.203 V 22.187 L 11.356,22.2 c -10e-4,0 -0.004,0 -0.004,0 -0.67,0 -3.473,1.714 -3.479,2.294 -0.009,0.58 2.81,2.295 3.479,2.295 0,0 0.004,-0.001 0.005,-0.001 l 0.021,0.011 v -0.013 c 1.033,-0.019 1.871,-1.036 1.871,-2.292 -0.001,-1.258 -0.839,-2.273 -1.872,-2.291 z"
   id="path2169"
   style="fill:#ffd800;fill-opacity:1" /><path
   d="m 43.928,26.785 v 0.014 l 0.021,-0.013 c 0.001,0 0.004,0 0.006,0 0.668,0 3.472,-1.713 3.477,-2.294 0.008,-0.58 -2.809,-2.294 -3.477,-2.294 -0.002,0 -0.005,0.001 -0.006,0.001 L 43.928,22.187 V 22.2 c -1.033,0.019 -1.87,1.036 -1.87,2.292 0,1.258 0.837,2.276 1.87,2.293 z"
   id="path2167"
   style="fill:#ffd800;fill-opacity:1" /><path
   d="m 25.346,8.217 0.012,-0.019 c 0,-0.001 -0.001,-0.005 -0.001,-0.005 0,-0.67 1.715,-3.488 2.294,-3.479 0.581,0.006 2.295,2.809 2.295,3.479 0,0 0,0.004 0,0.005 l 0.015,0.019 h -0.017 c -0.018,1.034 -1.033,1.873 -2.293,1.873 -1.256,0 -2.271,-0.839 -2.292,-1.873 z"
   id="path1678"
   style="fill:#ffd800;fill-opacity:1" />
</svg>
