<?xml version="1.0" encoding="UTF-8" standalone="no"?>
<svg
   width="32"
   height="32"
   version="1"
   id="svg28702"
   sodipodi:docname="kate.svg"
   inkscape:version="1.2.1 (9c6d41e410, 2022-07-14)"
   xmlns:inkscape="http://www.inkscape.org/namespaces/inkscape"
   xmlns:sodipodi="http://sodipodi.sourceforge.net/DTD/sodipodi-0.dtd"
   xmlns="http://www.w3.org/2000/svg"
   xmlns:svg="http://www.w3.org/2000/svg">
  <defs
     id="defs28706" />
  <sodipodi:namedview
     id="namedview28704"
     pagecolor="#616161"
     bordercolor="#000000"
     borderopacity="0.25"
     inkscape:showpageshadow="2"
     inkscape:pageopacity="0"
     inkscape:pagecheckerboard="0"
     inkscape:deskcolor="#d1d1d1"
     showgrid="false"
     inkscape:zoom="35.487922"
     inkscape:cx="41.690241"
     inkscape:cy="17.851144"
     inkscape:window-width="1920"
     inkscape:window-height="1046"
     inkscape:window-x="0"
     inkscape:window-y="34"
     inkscape:window-maximized="1"
     inkscape:current-layer="22-22-kate"
     showguides="true">
    <sodipodi:guide
       position="42.239724,3.3705409"
       orientation="0,-1"
       id="guide32225"
       inkscape:locked="false" />
  </sodipodi:namedview>
  <g
     id="kate">
    <rect
       style="opacity:0.001"
       width="32"
       height="32"
       x="0"
       y="0"
       id="rect28692" />
    <path
       style="fill:#fefefe"
       d="M 16 2 A 14 14 0 0 0 2 16 A 14 14 0 0 0 16 30 A 14 14 0 0 0 30 16 A 14 14 0 0 0 16 2 z M 14.986328 6.0039062 C 16.183699 5.964683 17.242611 6.1978472 18.0625 6.53125 C 18.253151 6.602717 18.435849 6.6817972 18.603516 6.7734375 C 14.019183 6.9458731 14.771887 9.358639 15.453125 10.710938 C 18.913593 9.7007254 21.945911 8.923079 24.408203 8.0917969 C 22.719919 10.298337 19.911885 13.279177 16.839844 13.671875 C 13.767803 14.064572 10.750672 13.630702 10.072266 15.894531 C 9.4475176 17.97931 11.933916 19.924198 14.212891 19.455078 C 16.091487 19.068373 16.199728 17.357172 15.542969 15.740234 C 15.213048 15.322503 14.893975 14.866879 14.589844 14.365234 C 15.601367 14.307834 15.413583 14.321875 17.128906 14.236328 C 19.685686 16.392767 20.533147 16.840103 25 19.986328 C 22.186432 19.787175 19.802104 19.263596 17.792969 17.876953 L 17.835938 18.009766 C 18.47551 19.598254 20.03592 23.202639 20.332031 26 C 18.908074 23.975401 18.175548 23.232091 15.96875 21.771484 C 13.570772 20.18434 11.502451 19.88154 10.119141 18.148438 C 10.117519 18.146229 10.114899 18.144786 10.113281 18.142578 C 9.8680017 17.83423 9.6370631 17.495228 9.4375 17.080078 C 9.3052653 16.804992 9.2157047 16.540594 9.1484375 16.28125 C 9.1418355 16.257746 9.1350375 16.234367 9.1289062 16.210938 C 9.1079923 16.123431 9.0919558 16.036804 9.078125 15.951172 C 8.7297005 14.105656 9.8942406 12.517483 12.814453 11.513672 C 12.000753 9.053462 7.7203879 9.6520427 7 9.5976562 C 7.8144594 9.1976155 8.5514175 8.8695307 10.230469 7.6660156 C 11.847758 6.5067741 13.5115 6.0522186 14.986328 6.0039062 z"
       id="path28694" />
  </g>
  <g
     id="22-22-kate"
     transform="translate(27,5)">
    <rect
       style="opacity:0.001"
       width="22"
       height="22"
       x="5"
       y="5"
       id="rect28697" />
    <path
       style="fill:#fefefe;stroke:#ffffff;stroke-width:0.957351;stroke-opacity:1"
       d="m 15.242979,7.9819563 c -1.098164,0.037002 -2.336996,0.5768573 -3.541239,1.4646803 -1.250231,0.9217304 -1.7989745,1.1729994 -2.4054256,1.4793764 0.5364049,0.04166 3.7235886,-0.608508 4.3294746,1.275681 -2.174407,0.768786 -3.616115,1.985111 -3.356675,3.398528 0.0103,0.06558 0.02224,0.131927 0.03782,0.198945 0.0046,0.01794 0.0096,0.03585 0.01454,0.05385 0.05009,0.198624 0.116775,0.401116 0.215238,0.611795 0.148596,0.317949 0.320553,0.577578 0.50319,0.813733 0.0012,0.0017 0.0032,0.0028 0.0044,0.0045 1.030022,1.327324 2.762161,1.559228 4.547709,2.774766 1.643194,1.118628 2.188637,1.687904 3.248924,3.238473 -0.220486,-2.142401 -0.999848,-4.902875 -1.476077,-6.119443 l -0.03199,-0.101716 c 1.496013,1.061981 3.271397,1.271351 5.366396,1.423875 -3.326044,-2.409584 -3.957068,-2.560561 -5.860861,-4.212104 -1.27724,0.06552 -1.137415,0.05476 -1.8906,0.09872 0.226458,0.384191 0.464041,0.733138 0.709702,1.053064 0.489028,1.238356 0.40843,2.548906 -0.990383,2.845071 -1.696938,0.359282 -4.12291,-1.130239 -3.657718,-2.726899 0.505145,-1.733789 3.326303,-1.401503 5.613762,-1.702256 2.28746,-0.300754 3.861602,-2.271313 5.118708,-3.9612253 C 19.908433,10.530026 17.976107,10.813235 15.399423,11.586921 14.892169,10.551243 14.522881,8.7033898 17.936402,8.5713271 17.811557,8.5011438 17.675519,8.4405779 17.533558,8.3858443 16.923065,8.1305026 16.134593,7.9519299 15.243023,7.9819697 Z"
       id="path28699" />
  </g>
</svg>
