<?xml version="1.0" encoding="UTF-8" standalone="no"?>
<svg
   width="32"
   height="32"
   version="1.1"
   id="svg14025"
   sodipodi:docname="klipper.svg"
   inkscape:version="1.2.1 (9c6d41e410, 2022-07-14)"
   xml:space="preserve"
   xmlns:inkscape="http://www.inkscape.org/namespaces/inkscape"
   xmlns:sodipodi="http://sodipodi.sourceforge.net/DTD/sodipodi-0.dtd"
   xmlns="http://www.w3.org/2000/svg"
   xmlns:svg="http://www.w3.org/2000/svg"><defs
     id="defs14029" /><sodipodi:namedview
     id="namedview14027"
     pagecolor="#4c4c4c"
     bordercolor="#000000"
     borderopacity="0.25"
     inkscape:showpageshadow="2"
     inkscape:pageopacity="0"
     inkscape:pagecheckerboard="0"
     inkscape:deskcolor="#d1d1d1"
     showgrid="false"
     inkscape:zoom="22.627417"
     inkscape:cx="38.91297"
     inkscape:cy="14.252621"
     inkscape:window-width="1920"
     inkscape:window-height="1046"
     inkscape:window-x="0"
     inkscape:window-y="34"
     inkscape:window-maximized="1"
     inkscape:current-layer="svg14025" /><g
     id="klipper"><rect
       style="opacity:0.001"
       width="32"
       height="32"
       x="0"
       y="0"
       id="rect14015" /><path
       style="fill:#fefefe"
       d="M 24,7 V 3.9999999 H 21 V 7 H 11 V 3.9999999 H 8 V 7 H 5 v 21 h 17.285715 c 1.250307,0 2.449386,-0.50568 3.333472,-1.40592 C 26.50335,25.69392 27,24.47304 27,23.2 V 7 Z m -8,15 h -6 v -3 h 6 z m 6,-6 H 10 v -3 h 12 z"
       id="path14017" /></g><g
     id="22-22-klipper"
     transform="translate(27,5)"><rect
       style="opacity:0.00100002"
       width="22"
       height="22"
       x="4.9311895"
       y="5.00983"
       id="rect14020" /><g
       id="g14299"
       transform="matrix(0.02018389,0,0,0.02018389,7.9727344,5.3505783)"
       style="fill:#fefefe;fill-opacity:1"><path
         d="m 191.5,150.4 h 472 c 50,0 95.3,20.4 128.2,53.3 32.9,32.9 53.3,78.3 53.3,128.2 v 20.4 h -64.2 v -20.4 c 0,-32.2 -13.2,-61.6 -34.5,-82.8 -21.3,-21.3 -50.6,-34.5 -82.9,-34.5 h -472 c -31.5,0 -60.2,12.6 -81.4,32.9 -0.5,0.5 -1,1.1 -1.5,1.6 v 0 C 87.2,270.4 74,299.7 74,331.9 v 336.2 c 0,31.5 12.6,60.3 33,81.4 0.5,0.5 1,0.9 1.5,1.4 l -0.1,0.1 v 0 c 21.3,21.2 50.6,34.4 82.9,34.4 h 472 c 32.1,0 61.4,-13.1 82.7,-34.3 l 0.2,-0.2 v 0 0.1 c 21.2,-21.3 34.4,-50.6 34.4,-82.9 V 647.7 H 845 v 20.4 c 0,49.9 -20.4,95.2 -53.3,128.1 l -22.7,-22.6 22.7,22.7 -0.6,0.6 c -32.8,32.5 -78,52.7 -127.6,52.7 h -472 c -49.8,0 -95.2,-20.4 -128.1,-53.3 L 86,773.6 63.3,796.3 c -0.6,-0.6 -1.2,-1.3 -1.8,-2 C 29.7,761.6 10,717 10,668.1 V 331.9 C 10,282 30.4,236.6 63.3,203.7 v 0 c 0.7,-0.6 1.3,-1.3 2,-1.9 32.7,-31.7 77.3,-51.4 126.2,-51.4 z"
         id="path14285"
         style="fill:#fefefe;fill-opacity:1" /><path
         id="rect16224"
         style="fill:#fefefe;fill-opacity:1;fill-rule:evenodd;stroke-width:1.56013;stroke-linecap:round"
         d="m 23.523438,16.208984 v 2.638672 h 1.261718 v -3.544922 z"
         transform="matrix(51.011611,0,0,51.011611,-419.36151,-298.10068)" /><path
         id="path16412"
         style="fill:#fefefe;fill-opacity:1;fill-rule:evenodd;stroke-width:1.56013;stroke-linecap:round"
         d="m 24.546875,12.638672 h -1.023437 v 0.734375 z"
         transform="matrix(51.011611,0,0,51.011611,-419.36151,-298.10068)" /><path
         id="path16404"
         style="fill:#fefefe;fill-opacity:1;fill-rule:evenodd;stroke-width:1.59;stroke-linecap:round"
         d="m 12.191406,9.453125 c -1.692037,0 -3.0546873,1.360697 -3.0546873,3.052734 v 6.46875 c 0,1.692043 1.3626503,3.054688 3.0546873,3.054688 h 8.673828 c 1.692043,0 3.054688,-1.362645 3.054688,-3.054688 v -3.050781 l -1.820313,1.306641 -1.34375,-1.869141 3.164063,-2.271484 v -0.583985 c 0,-1.692037 -1.362645,-3.052734 -3.054688,-3.052734 z m 0.34961,2.933594 c 0.01075,-6.19e-4 0.02236,0 0.0332,0 H 20.0625 c 0.04337,0 0.08598,0.0052 0.126953,0.01367 0.04098,0.0085 0.07949,0.02104 0.117188,0.03711 0.0377,0.01607 0.07389,0.03586 0.107422,0.05859 0.03354,0.02274 0.06526,0.04769 0.09375,0.07617 0.02849,0.02849 0.05344,0.06021 0.07617,0.09375 0.02274,0.03353 0.04252,0.06973 0.05859,0.107421 0.01607,0.0377 0.02862,0.07621 0.03711,0.117188 0.0085,0.04098 0.01367,0.08358 0.01367,0.126953 0,0.04337 -0.0052,0.08616 -0.01367,0.126953 -0.0085,0.0408 -0.02104,0.07973 -0.03711,0.117188 -0.01607,0.03746 -0.03586,0.07212 -0.05859,0.105468 -0.02274,0.03335 -0.04769,0.06527 -0.07617,0.09375 -0.02849,0.02849 -0.06021,0.05344 -0.09375,0.07617 -0.03354,0.02274 -0.06972,0.04252 -0.107422,0.05859 -0.0377,0.01607 -0.07621,0.02862 -0.117188,0.03711 -0.04098,0.0085 -0.08358,0.01367 -0.126953,0.01367 h -7.488281 c -0.04337,0 -0.08616,-0.0052 -0.126953,-0.01367 -0.0408,-0.0085 -0.07973,-0.02104 -0.117188,-0.03711 -0.03745,-0.01607 -0.07212,-0.03586 -0.105469,-0.05859 -0.03335,-0.02274 -0.06526,-0.04768 -0.09375,-0.07617 -0.02849,-0.02848 -0.05344,-0.0604 -0.07617,-0.09375 -0.02274,-0.03335 -0.04252,-0.06801 -0.05859,-0.105468 -0.01607,-0.03745 -0.02862,-0.07639 -0.03711,-0.117188 -0.0085,-0.0408 -0.01367,-0.08358 -0.01367,-0.126953 0,-0.04337 0.0052,-0.08597 0.01367,-0.126953 0.0085,-0.04098 0.02104,-0.07949 0.03711,-0.117188 0.01607,-0.03769 0.03586,-0.07389 0.05859,-0.107421 0.02273,-0.03354 0.04768,-0.06526 0.07617,-0.09375 0.02849,-0.02849 0.0604,-0.05344 0.09375,-0.07617 0.03335,-0.02274 0.06801,-0.04252 0.105469,-0.05859 0.03745,-0.01607 0.07639,-0.02862 0.117188,-0.03711 0.0306,-0.0064 0.06151,-0.01182 0.09375,-0.01367 z m -0.03516,2.662109 h 5.326172 c 0.34698,0 0.628907,0.283884 0.628907,0.630859 0,0.34698 -0.281927,0.628907 -0.628907,0.628907 h -5.326172 c -0.346975,0 -0.628906,-0.281927 -0.628906,-0.628907 0,-0.346975 0.281931,-0.630859 0.628906,-0.630859 z m 7.882813,0.578125 1.335937,1.875 -2.701171,0.529297 z m -7.847656,2.117188 h 3.095703 c 0.346976,0 0.628906,0.28388 0.628906,0.630859 0,0.346979 -0.28193,0.628906 -0.628906,0.628906 h -3.095703 c -0.34698,0 -0.628907,-0.281927 -0.628907,-0.628906 0,-0.346979 0.281927,-0.630859 0.628907,-0.630859 z"
         transform="matrix(51.011611,0,0,51.011611,-419.36151,-298.10068)" /></g></g></svg>
