<?xml version="1.0" encoding="UTF-8" standalone="no"?>
<svg
   width="32"
   height="32"
   version="1.1"
   id="svg34028"
   sodipodi:docname="device.svg"
   inkscape:version="1.2.1 (9c6d41e410, 2022-07-14)"
   xmlns:inkscape="http://www.inkscape.org/namespaces/inkscape"
   xmlns:sodipodi="http://sodipodi.sourceforge.net/DTD/sodipodi-0.dtd"
   xmlns="http://www.w3.org/2000/svg"
   xmlns:svg="http://www.w3.org/2000/svg">
  <defs
     id="defs34032" />
  <sodipodi:namedview
     id="namedview34030"
     pagecolor="#ffffff"
     bordercolor="#000000"
     borderopacity="0.25"
     inkscape:showpageshadow="2"
     inkscape:pageopacity="0.0"
     inkscape:pagecheckerboard="0"
     inkscape:deskcolor="#d1d1d1"
     showgrid="false"
     inkscape:lockguides="true"
     inkscape:zoom="4.4359902"
     inkscape:cx="22.542881"
     inkscape:cy="32.010891"
     inkscape:window-width="1920"
     inkscape:window-height="1046"
     inkscape:window-x="0"
     inkscape:window-y="34"
     inkscape:window-maximized="1"
     inkscape:current-layer="svg34028" />
  <g
     id="22-22-device-notifier"
     style="fill:#383e43;fill-opacity:1">
    <rect
       style="opacity:0.001;fill:#383e43;fill-opacity:1"
       width="22"
       height="22"
       x="32"
       y="10"
       id="rect34018" />
    <path
       style="fill:#383e43;stroke-width:0.950393;fill-opacity:1"
       d="m 42.981438,12.779387 a 0.35665207,0.30012255 0 0 0 -0.29143,0.150355 l -0.772194,1.124879 -0.770339,1.124881 a 0.35665207,0.30012255 0 0 0 0.308136,0.451065 h 0.593995 v 5.70236 h -2.85118 v -1.033924 a 1.4255901,1.4255901 0 0 0 0.950393,-1.342059 1.4255901,1.4255901 0 0 0 -1.425589,-1.425591 1.4255901,1.4255901 0 0 0 -1.42559,1.425591 1.4255901,1.4255901 0 0 0 0.950393,1.342059 v 1.509121 a 0.47524422,0.47524422 0 0 0 0.475197,0.475197 h 3.326376 v 2.158803 A 1.9007868,1.9007868 0 0 0 41.099213,26.084894 1.9007868,1.9007868 0 0 0 43,27.985681 1.9007868,1.9007868 0 0 0 44.900787,26.084894 1.9007868,1.9007868 0 0 0 43.950394,24.440268 v -2.156947 h 3.326376 a 0.47524422,0.47524422 0 0 0 0.475197,-0.475197 V 19.43214 h 0.237598 c 0.394889,0 0.712795,-0.317906 0.712795,-0.712795 v -1.425589 c 0,-0.394889 -0.317906,-0.712795 -0.712795,-0.712795 h -1.42559 c -0.394888,0 -0.712794,0.317906 -0.712794,0.712795 v 1.425589 c 0,0.394889 0.317906,0.712795 0.712794,0.712795 h 0.237599 v 1.900787 h -2.85118 v -5.70236 h 0.593995 a 0.35665207,0.30012255 0 0 0 0.308136,-0.451065 l -0.770339,-1.124881 -0.772194,-1.124879 a 0.35665207,0.30012255 0 0 0 -0.328554,-0.150355 z"
       id="path34020" />
  </g>
  <g
     id="device-notifier"
     style="fill:#383e43;fill-opacity:1">
    <rect
       style="opacity:0.001;fill:#383e43;fill-opacity:1"
       width="32"
       height="32"
       x="0"
       y="0"
       id="rect34023" />
    <path
       style="fill:#383e43;fill-opacity:1"
       d="M 15.466797 2 C 15.244065 2.00947 15.042431 2.1104657 14.931641 2.265625 L 13.509766 4.2382812 L 12.089844 6.2089844 C 11.835632 6.5599288 12.151899 7.0002705 12.658203 7 L 14 7 L 14 18 L 9 18 L 9 15.826172 A 3 3 0 0 0 11 13 A 3 3 0 0 0 8 10 A 3 3 0 0 0 5 13 A 3 3 0 0 0 7 15.824219 L 7 19 A 1.0001 1.0001 0 0 0 8 20 L 14 20 L 14 23.341797 A 3.5 3.5 0 0 0 12 26.5 A 3.5 3.5 0 0 0 15.5 30 A 3.5 3.5 0 0 0 19 26.5 A 3.5 3.5 0 0 0 17 23.341797 L 17 20 L 23 20 A 1.0001 1.0001 0 0 0 24 19 L 24 15 L 25 15 C 25.554 15 26 14.554 26 14 L 26 10 C 26 9.446 25.554 9 25 9 L 21 9 C 20.446 9 20 9.446 20 10 L 20 14 C 20 14.554 20.446 15 21 15 L 22 15 L 22 18 L 17 18 L 17 7 L 18.34375 7 C 18.849183 6.9990659 19.163935 6.5593274 18.910156 6.2089844 L 17.492188 4.2382812 L 16.070312 2.265625 C 15.947044 2.0929641 15.71463 1.9892495 15.466797 2 z"
       id="path34025" />
  </g>
</svg>
