<?xml version="1.0" encoding="UTF-8" standalone="no"?>
<svg
   width="32"
   height="32"
   version="1.1"
   id="svg12"
   sodipodi:docname="kdeconnect.svg"
   inkscape:version="1.2.1 (9c6d41e410, 2022-07-14)"
   xmlns:inkscape="http://www.inkscape.org/namespaces/inkscape"
   xmlns:sodipodi="http://sodipodi.sourceforge.net/DTD/sodipodi-0.dtd"
   xmlns="http://www.w3.org/2000/svg"
   xmlns:svg="http://www.w3.org/2000/svg">
  <defs
     id="defs16" />
  <sodipodi:namedview
     id="namedview14"
     pagecolor="#ffffff"
     bordercolor="#000000"
     borderopacity="0.25"
     inkscape:showpageshadow="2"
     inkscape:pageopacity="0.0"
     inkscape:pagecheckerboard="0"
     inkscape:deskcolor="#d1d1d1"
     showgrid="false"
     inkscape:zoom="4.1376795"
     inkscape:cx="5.8003525"
     inkscape:cy="42.7776"
     inkscape:window-width="1920"
     inkscape:window-height="1046"
     inkscape:window-x="0"
     inkscape:window-y="34"
     inkscape:window-maximized="1"
     inkscape:current-layer="svg12" />
  <g
     id="22-22-kdeconnect"
     transform="translate(32.000001,10.000001)"
     style="fill:#383e43;fill-opacity:1">
    <rect
       style="opacity:0.001;fill:#383e43;fill-opacity:1"
       width="22"
       height="22"
       x="0"
       y="0"
       rx="0"
       ry="0"
       id="rect2" />
    <path
       style="fill:#383e43;fill-opacity:1"
       transform="translate(-32,-10)"
       d="m 39,13 c -1,0 -1,1 -1,1 v 14 c 0,0 0,1 1,1 h 8 c 1,0 1,-1 1,-1 V 14 c 0,0 0,-1 -1,-1 z m 7,3 v 9 h -6 v -8.998047 z m -3.5,10 h 0.5 0.5 c 0.277,0 0.5,0.223 0.5,0.5 V 27 27.5 C 44,27.777 43.777,28 43.5,28 H 43 42.5 C 42.223,28 42,27.777 42,27.5 V 27 26.5 C 42,26.223 42.223,26 42.5,26 Z"
       id="path4" />
  </g>
  <g
     id="kdeconnect"
     style="fill:#383e43;fill-opacity:1">
    <rect
       style="opacity:0.001;fill:#383e43;fill-opacity:1"
       width="32"
       height="32"
       x="0"
       y="0"
       rx="0"
       ry="0"
       id="rect7" />
    <path
       style="fill:#383e43;fill-opacity:1"
       d="M 9.5 4 C 8.000001 4 8 5.5 8 5.5 L 8 26.5 C 8 26.5 8.000001 28 9.5 28 L 21.5 28 C 23 28 23 26.5 23 26.5 L 23 5.5 C 23 5.5 23 4 21.5 4 L 9.5 4 z M 20 8 L 20 22 L 11 22 L 11 8.0039062 L 20 8 z M 14.75 23 L 15.5 23 L 16.25 23 C 16.665499 23 17 23.3345 17 23.75 L 17 24.5 L 17 25.25 C 17 25.6655 16.665499 26 16.25 26 L 15.5 26 L 14.75 26 C 14.3345 26 14 25.6655 14 25.25 L 14 24.5 L 14 23.75 C 14 23.3345 14.3345 23 14.75 23 z"
       id="path9" />
  </g>
</svg>
