<?xml version="1.0" encoding="UTF-8" standalone="no"?>
<svg
   width="32"
   height="32"
   version="1.1"
   id="svg12"
   sodipodi:docname="kdf.svg"
   inkscape:version="1.2.1 (9c6d41e410, 2022-07-14)"
   xmlns:inkscape="http://www.inkscape.org/namespaces/inkscape"
   xmlns:sodipodi="http://sodipodi.sourceforge.net/DTD/sodipodi-0.dtd"
   xmlns="http://www.w3.org/2000/svg"
   xmlns:svg="http://www.w3.org/2000/svg">
  <defs
     id="defs16" />
  <sodipodi:namedview
     id="namedview14"
     pagecolor="#ffffff"
     bordercolor="#000000"
     borderopacity="0.25"
     inkscape:showpageshadow="2"
     inkscape:pageopacity="0.0"
     inkscape:pagecheckerboard="0"
     inkscape:deskcolor="#d1d1d1"
     showgrid="false"
     inkscape:zoom="5.6171875"
     inkscape:cx="-21.095967"
     inkscape:cy="8.5452017"
     inkscape:window-width="1920"
     inkscape:window-height="1046"
     inkscape:window-x="0"
     inkscape:window-y="34"
     inkscape:window-maximized="1"
     inkscape:current-layer="svg12" />
  <g
     id="22-22-kdf"
     transform="matrix(-1,0,0,1,54,10)"
     style="fill:#383e43;fill-opacity:1">
    <rect
       style="opacity:0.001;fill:#383e43;fill-opacity:1"
       width="22"
       height="22"
       x="0"
       y="0"
       ry="1.375"
       id="rect2" />
    <path
       style="fill:#383e43;fill-opacity:1"
       d="M 5.166016,3 C 3.99935,3 4,4.142578 4,4.142578 V 17.857422 C 4,17.857422 3.99935,19 5.166016,19 H 16.833984 C 16.833984,19 18,19.000279 18,17.857422 V 4.142578 C 18,4.142578 18.00065,3 16.833984,3 Z M 11,5 c 2.761425,0 5,2.238575 5,5 0,2.761425 -2.238575,5 -5,5 H 6 V 10 C 6,7.238575 8.238573,5 11,5 Z m 0,3 c -1.10457,0 -2,0.89543 -2,2 0,1.10457 0.89543,2 2,2 1.10457,0 2,-0.89543 2,-2 0,-1.10457 -0.89543,-2 -2,-2 z"
       id="path4" />
  </g>
  <g
     id="kdf"
     style="fill:#383e43;fill-opacity:1">
    <rect
       style="opacity:0.001;fill:#383e43;fill-opacity:1"
       width="32"
       height="32"
       x="-32"
       y="0"
       ry="2"
       transform="scale(-1,1)"
       id="rect7" />
    <path
       style="fill:#383e43;fill-opacity:1"
       d="M 6.75 4 C 5.000001 4 5 5.7128906 5 5.7128906 L 5 26.287109 C 5 28.001395 6.75 28 6.75 28 L 24.25 28 C 25.999999 28 26 26.287109 26 26.287109 L 26 5.7128906 C 26 5.7128906 25.999999 4 24.25 4 L 6.75 4 z M 15.5 7 C 19.64214 7 23 10.357861 23 14.5 L 23 22 L 15.5 22 C 11.357861 22 8 18.642137 8 14.5 C 8 10.357861 11.357861 7 15.5 7 z M 15.5 11 C 13.567002 11 12 12.567001 12 14.5 C 12 16.432996 13.567002 18 15.5 18 C 17.432997 18 19 16.432996 19 14.5 C 19 12.567001 17.432997 11 15.5 11 z"
       id="path9" />
  </g>
</svg>
