<?xml version="1.0" encoding="UTF-8" standalone="no"?>
<svg
   width="32"
   height="32"
   version="1.1"
   id="svg12"
   sodipodi:docname="kgpg.svg"
   inkscape:version="1.2.1 (9c6d41e410, 2022-07-14)"
   xmlns:inkscape="http://www.inkscape.org/namespaces/inkscape"
   xmlns:sodipodi="http://sodipodi.sourceforge.net/DTD/sodipodi-0.dtd"
   xmlns="http://www.w3.org/2000/svg"
   xmlns:svg="http://www.w3.org/2000/svg">
  <defs
     id="defs16" />
  <sodipodi:namedview
     id="namedview14"
     pagecolor="#ffffff"
     bordercolor="#000000"
     borderopacity="0.25"
     inkscape:showpageshadow="2"
     inkscape:pageopacity="0.0"
     inkscape:pagecheckerboard="0"
     inkscape:deskcolor="#d1d1d1"
     showgrid="false"
     inkscape:zoom="7.9439028"
     inkscape:cx="5.853546"
     inkscape:cy="20.89653"
     inkscape:window-width="1920"
     inkscape:window-height="1046"
     inkscape:window-x="0"
     inkscape:window-y="34"
     inkscape:window-maximized="1"
     inkscape:current-layer="svg12" />
  <g
     id="22-22-kgpg"
     transform="translate(-315,267)"
     style="fill:#383e43;fill-opacity:1">
    <rect
       style="opacity:0.001;fill:#383e43;fill-opacity:1"
       width="22"
       height="22"
       x="347"
       y="-257"
       id="rect2" />
    <path
       style="fill:#383e43;fill-opacity:1"
       transform="translate(346.99759,-257.00336)"
       d="M 11,3 C 5.99738,2.997 6,7.6425781 6,7.6425781 V 10 H 5.1660156 C 4.5196856,10 4,10.36686 4,11 v 6.857422 C 4,18.490572 4.5196856,19 5.1660156,19 H 16.833984 C 17.480314,19 18,18.490572 18,17.857422 V 11 c 0,-0.63314 -0.528976,-0.89079 -1.166016,-1 H 16 V 7.6425781 C 16,7.6425781 16.003,3.00336 11,3 Z m 0,3 c 2.00262,-0.003 2,1.5722656 2,1.5722656 V 10 H 9 V 7.5722656 C 9,7.5722656 9.00301,6.00336 11,6 Z m -4,7 h 8 v 3 H 7 Z"
       id="path4" />
  </g>
  <g
     id="kgpg"
     style="fill:#383e43;fill-opacity:1">
    <rect
       style="opacity:0.001;fill:#383e43;fill-opacity:1"
       width="32"
       height="32"
       x="0"
       y="0"
       id="rect7" />
    <path
       style="fill:#383e43;fill-opacity:1"
       d="M 15.5 4 C 7.9960707 3.9955 8 10.964844 8 10.964844 L 8 15 L 6.7480469 15 C 5.778552 15 5 15.55029 5 16.5 L 5 26.287109 C 5 27.236834 5.778552 28 6.7480469 28 L 24.25 28 C 25.219495 28 26 27.236834 26 26.287109 L 26 16.5 C 26 15.55029 25.20556 15.163815 24.25 15 L 23 15 L 23 10.964844 C 23 10.964844 23.0045 4.00504 15.5 4 z M 15.5 8 C 19.004585 7.99475 19 10.751953 19 10.751953 L 19 15 L 12 15 L 12 10.751953 C 12 10.751953 12.0053 8.00588 15.5 8 z M 9 19 L 22 19 L 22 24 L 9 24 L 9 19 z"
       id="path9" />
  </g>
</svg>
