<?xml version="1.0" encoding="UTF-8" standalone="no"?>
<svg
   width="32"
   height="32"
   version="1.1"
   id="svg12"
   sodipodi:docname="kmail.svg"
   inkscape:version="1.2.1 (9c6d41e410, 2022-07-14)"
   xmlns:inkscape="http://www.inkscape.org/namespaces/inkscape"
   xmlns:sodipodi="http://sodipodi.sourceforge.net/DTD/sodipodi-0.dtd"
   xmlns="http://www.w3.org/2000/svg"
   xmlns:svg="http://www.w3.org/2000/svg">
  <defs
     id="defs16" />
  <sodipodi:namedview
     id="namedview14"
     pagecolor="#ffffff"
     bordercolor="#000000"
     borderopacity="0.25"
     inkscape:showpageshadow="2"
     inkscape:pageopacity="0.0"
     inkscape:pagecheckerboard="0"
     inkscape:deskcolor="#d1d1d1"
     showgrid="false"
     inkscape:zoom="11.234375"
     inkscape:cx="12.150209"
     inkscape:cy="24.300417"
     inkscape:window-width="1920"
     inkscape:window-height="1046"
     inkscape:window-x="0"
     inkscape:window-y="34"
     inkscape:window-maximized="1"
     inkscape:current-layer="svg12" />
  <g
     id="22-22-kmail"
     transform="translate(-435.0002,-125)"
     style="fill:#383e43;fill-opacity:1">
    <path
       style="fill:#383e43;fill-opacity:1"
       d="m 472.00009,140 c -1.108,0 -2,0.892 -2,2 v 8 c 0,1.108 0.892,2 2,2 h 12 c 1.108,0 2,-0.892 2,-2 v -8 c 0,-1.108 -0.892,-2 -2,-2 z m 0,2 6,3 6,-3 v 2 l -6,3 -6,-3 z"
       id="path2" />
    <path
       style="opacity:0.001;fill:#383e43;fill-opacity:1"
       d="m 467.0002,135 h 22 v 22 h -22 z"
       id="path4" />
  </g>
  <g
     id="kmail"
     style="fill:#383e43;fill-opacity:1">
    <path
       style="fill:#383e43;fill-opacity:1"
       d="M 7,7 C 5.338,7 4,8.3380001 4,10 v 12 c 0,1.662 1.338,3 3,3 h 18 c 1.661999,0 3,-1.338 3,-3 V 10 C 28,8.338 26.661999,7 25,7 Z m 0,3 9,4.5 9,-4.5 v 3 L 16,17.500001 7,13 Z"
       id="path7" />
    <path
       style="opacity:0.001;fill:#383e43;fill-opacity:1"
       d="M -5.9089996e-7,2.5e-6 H 32 V 32.000003 H -5.9089996e-7 Z"
       id="path9" />
  </g>
</svg>
