<?xml version="1.0" encoding="UTF-8" standalone="no"?>
<svg
   width="32"
   height="32"
   version="1.1"
   id="svg12"
   sodipodi:docname="knotes.svg"
   inkscape:version="1.2.1 (9c6d41e410, 2022-07-14)"
   xmlns:inkscape="http://www.inkscape.org/namespaces/inkscape"
   xmlns:sodipodi="http://sodipodi.sourceforge.net/DTD/sodipodi-0.dtd"
   xmlns="http://www.w3.org/2000/svg"
   xmlns:svg="http://www.w3.org/2000/svg">
  <defs
     id="defs16" />
  <sodipodi:namedview
     id="namedview14"
     pagecolor="#ffffff"
     bordercolor="#000000"
     borderopacity="0.25"
     inkscape:showpageshadow="2"
     inkscape:pageopacity="0.0"
     inkscape:pagecheckerboard="0"
     inkscape:deskcolor="#d1d1d1"
     showgrid="false"
     inkscape:zoom="15.887805"
     inkscape:cx="35.215688"
     inkscape:cy="15.735339"
     inkscape:window-width="1920"
     inkscape:window-height="1046"
     inkscape:window-x="0"
     inkscape:window-y="34"
     inkscape:window-maximized="1"
     inkscape:current-layer="svg12" />
  <g
     id="22-22-knotes"
     style="fill:#383e43;fill-opacity:1">
    <path
       style="opacity:0.001;fill:#383e43;fill-opacity:1"
       d="m 32,10 h 22 c 0,0 0,0 0,0 v 22 c 0,0 0,0 0,0 H 32 c 0,0 0,0 0,0 V 10 c 0,0 0,0 0,0 z"
       id="path2" />
    <path
       style="fill:#383e43;fill-opacity:1"
       d="M 36.933594,13 C 36.000254,13 36,14.230469 36,14.230469 V 27.769531 C 36,27.769531 36.000254,29 36.933594,29 H 44 l 6,-6 V 14.230469 C 50,12.999699 49.066406,13 49.066406,13 Z M 38,16 h 10 v 2 H 38 Z m 0,4 h 10 v 2 H 38 Z m 0,4 h 6 v 2 h -6 z"
       id="path4" />
  </g>
  <g
     id="knotes"
     style="fill:#383e43;fill-opacity:1">
    <path
       style="opacity:0.001;fill:#383e43;fill-opacity:1"
       d="m 0,-1e-6 h 32.000001 c 0,0 0,0 0,0 V 32 c 0,0 0,0 0,0 H 0 c 0,0 0,0 0,0 V -1e-6 c 0,0 0,0 0,0 z"
       id="path7" />
    <path
       style="fill:#383e43;fill-opacity:1"
       d="M 6.4003906 4 C 5.0003806 4 5 5.8457031 5 5.8457031 L 5 26.154297 C 5 26.154297 5.0003806 28 6.4003906 28 L 17 28 L 26 19 L 26 5.8457031 C 26 3.9995482 24.599609 4 24.599609 4 L 6.4003906 4 z M 8 8 L 23 8 L 23 11 L 8 11 L 8 8 z M 8 14 L 23 14 L 23 17 L 8 17 L 8 14 z M 8 20 L 17 20 L 17 23 L 8 23 L 8 20 z"
       id="path9" />
  </g>
</svg>
