<?xml version="1.0" encoding="UTF-8" standalone="no"?>
<svg
   version="1.1"
   viewBox="0 0 22 22"
   id="svg14710"
   sodipodi:docname="media.svg"
   inkscape:version="1.2.1 (9c6d41e410, 2022-07-14)"
   xmlns:inkscape="http://www.inkscape.org/namespaces/inkscape"
   xmlns:sodipodi="http://sodipodi.sourceforge.net/DTD/sodipodi-0.dtd"
   xmlns="http://www.w3.org/2000/svg"
   xmlns:svg="http://www.w3.org/2000/svg">
  <defs
     id="defs14714" />
  <sodipodi:namedview
     id="namedview14712"
     pagecolor="#747474"
     bordercolor="#000000"
     borderopacity="0.25"
     inkscape:showpageshadow="2"
     inkscape:pageopacity="0.49803922"
     inkscape:pagecheckerboard="0"
     inkscape:deskcolor="#d1d1d1"
     showgrid="false"
     inkscape:zoom="1.6130874"
     inkscape:cx="291.05677"
     inkscape:cy="-61.992922"
     inkscape:window-width="1920"
     inkscape:window-height="1046"
     inkscape:window-x="0"
     inkscape:window-y="34"
     inkscape:window-maximized="1"
     inkscape:current-layer="svg14710" />
  <g
     id="16-16-media-playback-pause"
     transform="translate(223 -26)"
     style="fill:#383e43;fill-opacity:1">
    <path
       style="opacity:0.001;fill:#383e43;fill-opacity:1"
       d="m-117 48h16v16h-16z"
       id="path14546" />
    <path
       style="fill:#383e43;fill-opacity:1"
       d="m-115 50v12h4v-12zm8 0v12h4v-12z"
       id="path14548" />
  </g>
  <g
     id="22-22-media-playback-pause"
     transform="translate(207 -43)"
     style="fill:#383e43;fill-opacity:1">
    <path
       style="opacity:0.001;fill:#383e43;fill-opacity:1"
       d="m-101 43h22v22h-22z"
       id="path14551" />
    <path
       style="fill:#383e43;fill-opacity:1"
       d="m-98 46v16h6v-16zm10 0v16h6v-16z"
       id="path14553" />
  </g>
  <g
     id="media-playback-pause"
     transform="translate(178 -66)"
     style="fill:#383e43;fill-opacity:1">
    <path
       style="opacity:0.001;fill:#383e43;fill-opacity:1"
       d="m-72 34h32v32h-32z"
       id="path14556" />
    <path
       style="fill:#383e43;fill-opacity:1"
       d="m-68 38v24h9v-24zm15 0v24h9v-24z"
       id="path14558" />
  </g>
  <g
     id="media-playback-start"
     transform="translate(24 -68)"
     style="fill:#383e43;fill-opacity:1">
    <path
       style="opacity:0.001;fill:#383e43;fill-opacity:1"
       d="m48 36h32v32h-32z"
       id="path14561" />
    <path
       style="fill:#383e43;fill-opacity:1"
       d="m52 40v24l24-12z"
       id="path14563" />
  </g>
  <g
     id="22-22-media-playback-start"
     transform="translate(48 -46)"
     style="fill:#383e43;fill-opacity:1">
    <path
       style="opacity:0.001;fill:#383e43;fill-opacity:1"
       d="m24 46h22v22h-22z"
       id="path14566" />
    <path
       style="fill:#383e43;fill-opacity:1"
       d="m27 49v16l16-8z"
       id="path14568" />
  </g>
  <g
     id="16-16-media-playback-start"
     transform="translate(66 -30)"
     style="fill:#383e43;fill-opacity:1">
    <path
       style="opacity:0.001;fill:#383e43;fill-opacity:1"
       d="m6 52h16v16h-16z"
       id="path14571" />
    <path
       style="fill:#383e43;fill-opacity:1"
       d="m8 54v12l12-6z"
       id="path14573" />
  </g>
  <g
     id="16-16-media-playback-stop"
     transform="translate(254 -86)"
     style="fill:#383e43;fill-opacity:1">
    <path
       style="opacity:0.001;fill:#383e43;fill-opacity:1"
       d="m-114 108h16v16h-16z"
       id="path14576" />
    <path
       style="fill:#383e43;fill-opacity:1"
       d="m-112 110h12v12h-12z"
       id="path14578" />
  </g>
  <g
     id="22-22-media-playback-stop"
     transform="translate(236 -102)"
     style="fill:#383e43;fill-opacity:1">
    <path
       style="opacity:0.001;fill:#383e43;fill-opacity:1"
       d="m-96 102h22v22h-22z"
       id="path14581" />
    <path
       style="fill:#383e43;fill-opacity:1"
       d="m-93 105h16v16h-16z"
       id="path14583" />
  </g>
  <g
     id="media-playback-stop"
     transform="translate(212 -124)"
     style="fill:#383e43;fill-opacity:1">
    <path
       style="opacity:0.001;fill:#383e43;fill-opacity:1"
       d="m-72 92h32v32h-32z"
       id="path14586" />
    <path
       style="fill:#383e43;fill-opacity:1"
       d="m-68 96h24v24h-24z"
       id="path14588" />
  </g>
  <g
     id="media-record"
     transform="translate(184 -160)"
     style="fill:#383e43;fill-opacity:1">
    <path
       style="opacity:0.001;fill:#383e43;fill-opacity:1"
       d="m-10 128h32v32h-32z"
       id="path14591" />
    <path
       style="fill:#383e43;fill-opacity:1"
       d="m18 144a12 12 0 0 1 -12 12 12 12 0 0 1 -12-12 12 12 0 0 1 12-12 12 12 0 0 1 12 12z"
       id="path14593" />
  </g>
  <g
     id="16-16-media-record"
     transform="translate(226 -122)">
    <path
       style="opacity:0.001"
       d="m-52 144h16v16h-16z"
       id="path14596" />
    <path
       style="fill:#d94126"
       d="m-38 152a6 6 0 0 1 -6 6 6 6 0 0 1 -6-6 6 6 0 0 1 6-6 6 6 0 0 1 6 6z"
       id="path14598" />
  </g>
  <g
     id="22-22-media-record"
     transform="translate(208 -138)">
    <path
       style="opacity:0.001"
       d="m-34 138h22v22h-22z"
       id="path14601" />
    <path
       style="fill:#d94126"
       d="m-15 149a8 8 0 0 1 -8 8 8 8 0 0 1 -8-8 8 8 0 0 1 8-8 8 8 0 0 1 8 8z"
       id="path14603" />
  </g>
  <g
     id="16-16-media-eject"
     transform="translate(286 -224)"
     style="fill:#383e43;fill-opacity:1">
    <path
       style="opacity:0.001;fill:#383e43;fill-opacity:1"
       d="m58 246h16v16h-16z"
       id="path14606" />
    <path
       style="fill:#383e43;fill-opacity:1"
       d="m66 248-6 8h12zm-6 10v2h12v-2z"
       id="path14608" />
  </g>
  <g
     id="22-22-media-eject"
     transform="translate(268 -240)"
     style="fill:#383e43;fill-opacity:1">
    <path
       style="opacity:0.001;fill:#383e43;fill-opacity:1"
       d="m76 240h22v22h-22z"
       id="path14611" />
    <path
       style="fill:#383e43;fill-opacity:1"
       transform="translate(-268,240)"
       d="M 355 3 L 347 14 L 363 14 L 355 3 z M 347 16 L 347 19 L 363 19 L 363 16 L 347 16 z"
       id="path14613" />
  </g>
  <g
     id="media-eject"
     transform="translate(244 -262)"
     style="fill:#383e43;fill-opacity:1">
    <path
       style="opacity:0.001;fill:#383e43;fill-opacity:1"
       d="m100 230h32v32h-32z"
       id="path14616" />
    <path
       style="fill:#383e43;fill-opacity:1"
       transform="translate(-244,262)"
       d="M 360 -28 L 348 -11 L 372 -11 L 360 -28 z M 348 -8 L 348 -4 L 372 -4 L 372 -8 L 348 -8 z"
       id="path14618" />
  </g>
  <g
     id="16-16-media-skip-forward"
     transform="translate(60 -104)"
     style="fill:#383e43;fill-opacity:1">
    <path
       style="opacity:0.001;fill:#383e43;fill-opacity:1"
       d="m250 126h16v16h-16z"
       id="path14621" />
    <path
       style="fill:#383e43;fill-opacity:1"
       d="m 257,128 v 12 l 6,-6 z m 6,6 v 6 h 3 v -12 h -3 z m -12,-6 v 12 l 6,-6 z"
       id="path14623" />
  </g>
  <g
     id="22-22-media-skip-forward"
     transform="translate(310)"
     style="fill:#383e43;fill-opacity:1">
    <path
       style="opacity:0.001;fill:#383e43;fill-opacity:1"
       d="m0 0h22v22h-22z"
       id="path14626" />
    <path
       style="fill:#383e43;fill-opacity:1"
       d="m 1,3 v 16 l 9,-8 z m 9,8 v 8 l 9,-8 -9,-8 z m 9,0 v 8 h 3 V 3 h -3 z"
       id="path14628" />
  </g>
  <g
     id="media-skip-forward"
     transform="translate(18 -142)"
     style="fill:#383e43;fill-opacity:1">
    <path
       style="opacity:0.001;fill:#383e43;fill-opacity:1"
       d="m292 110h32v32h-32z"
       id="path14631" />
    <path
       style="fill:#383e43;fill-opacity:1"
       d="m324 114v24h-4v-24zm-18 12-14 12v-24zm14 0-14 12v-24z"
       id="path14633" />
  </g>
  <g
     id="16-16-media-skip-backward"
     transform="translate(26 -40)"
     style="fill:#383e43;fill-opacity:1">
    <path
       style="opacity:0.001;fill:#383e43;fill-opacity:1"
       d="m250 62h16v16h-16z"
       id="path14636" />
    <path
       style="fill:#383e43;fill-opacity:1"
       d="m 259,64 v 12 l -6,-6 z m -6,6 v 6 h -3 V 64 h 3 z m 12,-6 v 12 l -6,-6 z"
       id="path14638" />
  </g>
  <g
     id="22-22-media-skip-backward"
     transform="translate(276 -1)"
     style="fill:#383e43;fill-opacity:1">
    <path
       style="opacity:0.001;fill:#383e43;fill-opacity:1"
       d="m0 1h22v22h-22z"
       id="path14641" />
    <path
       style="fill:#383e43;fill-opacity:1"
       d="M 0,4 V 20 H 3 V 4 Z m 3,8 9,8 V 4 Z m 9,0 9,8 V 4 Z"
       id="path14643" />
  </g>
  <g
     id="media-skip-backward"
     transform="translate(-16 -78)"
     style="fill:#383e43;fill-opacity:1">
    <path
       style="opacity:0.001;fill:#383e43;fill-opacity:1"
       d="m292 46h32v32h-32z"
       id="path14646" />
    <path
       style="fill:#383e43;fill-opacity:1"
       d="m292 50v24h4v-24zm18 12 14 12v-24zm-14 0 14 12v-24z"
       id="path14648" />
  </g>
  <g
     id="16-16-media-seek-forward"
     transform="translate(448 -168)"
     style="fill:#383e43;fill-opacity:1">
    <path
       style="opacity:0.001;fill:#383e43;fill-opacity:1"
       d="m-206 190h16v16h-16z"
       id="path14651" />
    <path
       style="fill:#383e43;fill-opacity:1"
       d="m-198 192v12l7-6zm-7 0v12l7-6z"
       id="path14653" />
  </g>
  <g
     id="22-22-media-seek-forward"
     transform="translate(430 -184)"
     style="fill:#383e43;fill-opacity:1">
    <path
       style="opacity:0.001;fill:#383e43;fill-opacity:1"
       d="m-188 184h22v22h-22z"
       id="path14656" />
    <g
       transform="translate(-188 184)"
       id="g14660"
       style="fill:#383e43;fill-opacity:1">
      <path
         style="fill:#383e43;fill-opacity:1"
         d="m1 3v16l10-8zm10 8v8l10-8-10-8z"
         id="path14658" />
    </g>
  </g>
  <g
     id="media-seek-forward"
     transform="translate(406 -206)"
     style="fill:#383e43;fill-opacity:1">
    <path
       style="opacity:0.001;fill:#383e43;fill-opacity:1"
       d="m-164 174h32v32h-32z"
       id="path14663" />
    <path
       style="fill:#383e43;fill-opacity:1"
       d="m-148 190-14 12v-24zm14 0-14 12v-24z"
       id="path14665" />
  </g>
  <g
     id="16-16-media-seek-backward"
     transform="translate(414 -232)"
     style="fill:#383e43;fill-opacity:1">
    <path
       style="opacity:0.001;fill:#383e43;fill-opacity:1"
       d="m-206 254h16v16h-16z"
       id="path14668" />
    <path
       style="fill:#383e43;fill-opacity:1"
       d="m-198 256v12l-7-6zm7 0v12l-7-6z"
       id="path14670" />
  </g>
  <g
     id="22-22-media-seek-backward"
     transform="translate(396 -248)"
     style="fill:#383e43;fill-opacity:1">
    <path
       style="opacity:0.001;fill:#383e43;fill-opacity:1"
       d="m-188 248h22v22h-22z"
       id="path14673" />
    <g
       transform="translate(-188 248)"
       id="g14677"
       style="fill:#383e43;fill-opacity:1">
      <path
         style="fill:#383e43;fill-opacity:1"
         d="m11 3-10 8 10 8v-8zm0 8 10 8v-16z"
         id="path14675" />
    </g>
  </g>
  <g
     id="media-seek-backward"
     transform="translate(372 -270)"
     style="fill:#383e43;fill-opacity:1">
    <path
       style="opacity:0.001;fill:#383e43;fill-opacity:1"
       d="m-164 238h32v32h-32z"
       id="path14680" />
    <path
       style="fill:#383e43;fill-opacity:1"
       d="m-148 254 14 12v-24zm-14 0 14 12v-24z"
       id="path14682" />
  </g>
  <g
     id="media-playlist-repeat"
     transform="translate(413,-27)"
     style="fill:#383e43;fill-opacity:1">
    <path
       style="opacity:0.001;fill:#383e43;fill-opacity:1"
       d="M -5,-5 H 27 V 27 H -5 Z"
       id="path14685" />
    <path
       style="fill:#383e43;fill-opacity:1"
       d="M 5,-2 V 2 H 1 c -4,0 -4,4 -4,4 v 12 c 0,0 0,4 4,4 h 20 c 4,0 4,-4 4,-4 V 6 c 0,0 0,-4 -4,-4 h -4 v 4 h 4 V 18 H 1 V 6 h 4 v 4 l 8,-6 z"
       id="path14687" />
  </g>
  <g
     id="media-playlist-shuffle"
     transform="translate(381,-27)"
     style="fill:#383e43;fill-opacity:1">
    <path
       style="opacity:0.001;fill:#383e43;fill-opacity:1"
       d="M -5,-5 H 27 V 27 H -5 Z"
       id="path14690" />
    <path
       style="fill:#383e43;fill-opacity:1"
       d="m -3,0.9999991 v 4.000001 h 9 l 2,4 2,-4 -2,-4.000001 z M 17,13 v 4 h -1 l -2,-4 -2,4 2,4 h 3 v 4 l 8,-6 z m 0,-15.9999999 v 3.999999 H 14 L 6,17 h -9 v 4 H 8 L 16,5.0000001 h 1 v 4 l 8,-6.000001 z"
       id="path14692" />
  </g>
  <g
     id="media-playback-paused"
     transform="translate(125,-43)"
     style="fill:#383e43;fill-opacity:1">
    <path
       style="opacity:0.001;fill:#383e43;fill-opacity:1"
       d="m -101,43 h 22 v 22 h -22 z"
       id="path14695" />
    <path
       style="fill:#383e43;stroke-width:0.881931;fill-opacity:1"
       d="m -88.252477,46 v 15.596036 h 4.787699 V 46 Z"
       id="path15744" />
    <path
       style="fill:#383e43;stroke-width:0.889823;fill-opacity:1"
       d="m -98,46 v 15.596036 h 4.873761 V 46 Z"
       id="path14697" />
  </g>
  <g
     id="media-playback-playing"
     transform="translate(-24,-46)"
     style="fill:#383e43;fill-opacity:1">
    <path
       style="opacity:0.001;fill:#383e43;fill-opacity:1"
       d="M 24,46 H 46 V 68 H 24 Z"
       id="path14700" />
    <path
       style="fill:#383e43;stroke-width:0.882669;fill-opacity:1"
       d="M 29.299073,49 V 64.596036 L 42.087627,56.798018 Z"
       id="path14702" />
  </g>
  <g
     id="media-playback-stopped"
     transform="translate(144,-102)"
     style="fill:#383e43;fill-opacity:1">
    <path
       style="opacity:0.001;fill:#383e43;fill-opacity:1"
       d="m -96,102 h 22 v 22 h -22 z"
       id="path14705" />
    <path
       style="fill:#383e43;fill-opacity:1"
       d="m -93,105 h 16 v 16 h -16 z"
       id="path14707" />
  </g>
</svg>
