<?xml version="1.0" encoding="UTF-8" standalone="no"?>
<svg
   width="32"
   height="32"
   version="1.1"
   id="svg12"
   sodipodi:docname="nepomuk.svg"
   inkscape:version="1.2.1 (9c6d41e410, 2022-07-14)"
   xmlns:inkscape="http://www.inkscape.org/namespaces/inkscape"
   xmlns:sodipodi="http://sodipodi.sourceforge.net/DTD/sodipodi-0.dtd"
   xmlns="http://www.w3.org/2000/svg"
   xmlns:svg="http://www.w3.org/2000/svg">
  <defs
     id="defs16" />
  <sodipodi:namedview
     id="namedview14"
     pagecolor="#ffffff"
     bordercolor="#000000"
     borderopacity="0.25"
     inkscape:showpageshadow="2"
     inkscape:pageopacity="0.0"
     inkscape:pagecheckerboard="0"
     inkscape:deskcolor="#d1d1d1"
     showgrid="false"
     inkscape:zoom="7.9439028"
     inkscape:cx="4.091188"
     inkscape:cy="20.141233"
     inkscape:window-width="1920"
     inkscape:window-height="1046"
     inkscape:window-x="0"
     inkscape:window-y="34"
     inkscape:window-maximized="1"
     inkscape:current-layer="svg12" />
  <g
     id="nepomuk"
     style="fill:#383e43;fill-opacity:1">
    <rect
       style="opacity:0.001;fill:#383e43;fill-opacity:1"
       width="32"
       height="32"
       x="0"
       y="0"
       id="rect2" />
    <path
       style="fill:#383e43;fill-opacity:1"
       d="M 13.5,4 A 10.5,10.5 0 0 0 3,14.5 10.5,10.5 0 0 0 13.5,25 10.5,10.5 0 0 0 19.945312,22.773438 l 4.640626,4.640624 a 2.0002,2.0002 0 1 0 2.828124,-2.828124 L 22.578125,19.75 A 10.5,10.5 0 0 0 24,14.5 10.5,10.5 0 0 0 13.5,4 Z m 0,4 A 6.5,6.5 0 0 1 20,14.5 6.5,6.5 0 0 1 18.544922,18.589844 2.0002,2.0002 0 0 0 18.380859,18.783203 6.5,6.5 0 0 1 13.5,21 6.5,6.5 0 0 1 7,14.5 6.5,6.5 0 0 1 13.5,8 Z"
       id="path4" />
  </g>
  <g
     id="22-22-nepomuk"
     transform="translate(32.000001,10.000001)"
     style="fill:#383e43;fill-opacity:1">
    <rect
       style="opacity:0.001;fill:#383e43;fill-opacity:1"
       width="22"
       height="22"
       x="0"
       y="0"
       id="rect7" />
    <path
       style="fill:#383e43;fill-opacity:1"
       d="m 10,3.000702 a 7,7 0 0 0 -7,7 7,7 0 0 0 7,7 7,7 0 0 0 4.08984,-1.328125 l 2.88672,2.886719 c 0.58761,0.587605 1.53349,0.587605 2.1211,0 0.5876,-0.587606 0.5876,-1.533488 0,-2.121094 L 16.0918,13.432343 A 7,7 0 0 0 17,10.000702 a 7,7 0 0 0 -7,-7 z m 0,3 a 4,4 0 0 1 4,4 4,4 0 0 1 -4,4 4,4 0 0 1 -4,-4 4,4 0 0 1 4,-4 z"
       id="path9" />
  </g>
</svg>
