<?xml version="1.0" encoding="UTF-8" standalone="no"?>
<svg
   width="22"
   height="22"
   version="1.1"
   id="svg9"
   sodipodi:docname="notifications.svg"
   inkscape:version="1.2.1 (9c6d41e410, 2022-07-14)"
   xmlns:inkscape="http://www.inkscape.org/namespaces/inkscape"
   xmlns:sodipodi="http://sodipodi.sourceforge.net/DTD/sodipodi-0.dtd"
   xmlns="http://www.w3.org/2000/svg"
   xmlns:svg="http://www.w3.org/2000/svg">
  <defs
     id="defs13" />
  <sodipodi:namedview
     id="namedview11"
     pagecolor="#ffffff"
     bordercolor="#000000"
     borderopacity="0.25"
     inkscape:showpageshadow="2"
     inkscape:pageopacity="0.0"
     inkscape:pagecheckerboard="0"
     inkscape:deskcolor="#d1d1d1"
     showgrid="false"
     inkscape:zoom="5.7773838"
     inkscape:cx="4.9330287"
     inkscape:cy="-46.041601"
     inkscape:window-width="1920"
     inkscape:window-height="1046"
     inkscape:window-x="0"
     inkscape:window-y="34"
     inkscape:window-maximized="1"
     inkscape:current-layer="svg9" />
  <g
     id="notifications-disabled">
    <rect
       style="opacity:0.001"
       width="22"
       height="22"
       x="0"
       y="0"
       id="rect2" />
    <path
       style="opacity:0.3;fill:#383e43;fill-opacity:1"
       d="m 11,3 c -0.55,0 -1,0.45 -1,1 0,0.03 -2.344e-4,0.069609 0.0098,0.099609 C 7.7197656,4.5596094 6,6.57 6,9 v 4.5 l -2,2 V 16 h 2 8.189453 C 14.066246,15.829475 13.999951,15.62444 14,15.414062 V 14 c 5.5e-5,-0.552262 0.447738,-0.999945 1,-1 h 1 V 11 9 C 16,6.57 14.280234,4.5596094 11.990234,4.0996094 12.000234,4.0696094 12,4.03 12,4 12,3.45 11.55,3 11,3 Z M 9.2695312,17 C 9.6295313,17.62 10.29,18 11,18 c 0.71,0 1.370469,-0.38 1.730469,-1 z"
       id="path4" />
    <path
       style="fill:#d94126"
       d="m 15,14 v 1.414062 L 16.085938,16.5 15,17.585938 V 19 h 1.414062 L 17.5,17.914062 18.585938,19 H 20 V 17.585938 L 18.914062,16.5 20,15.414062 V 14 H 18.585938 L 17.5,15.085938 16.414062,14 Z"
       id="path6" />
  </g>
</svg>
