<?xml version="1.0" encoding="UTF-8" standalone="no"?>
<svg
   width="32"
   height="32"
   version="1.1"
   id="svg33248"
   sodipodi:docname="preferences.svg"
   inkscape:version="1.2.1 (9c6d41e410, 2022-07-14)"
   xmlns:inkscape="http://www.inkscape.org/namespaces/inkscape"
   xmlns:sodipodi="http://sodipodi.sourceforge.net/DTD/sodipodi-0.dtd"
   xmlns="http://www.w3.org/2000/svg"
   xmlns:svg="http://www.w3.org/2000/svg">
  <defs
     id="defs33252" />
  <sodipodi:namedview
     id="namedview33250"
     pagecolor="#ffffff"
     bordercolor="#000000"
     borderopacity="0.25"
     inkscape:showpageshadow="2"
     inkscape:pageopacity="0.0"
     inkscape:pagecheckerboard="0"
     inkscape:deskcolor="#d1d1d1"
     showgrid="false"
     inkscape:lockguides="true"
     inkscape:zoom="4.4359902"
     inkscape:cx="86.902807"
     inkscape:cy="4.2831474"
     inkscape:window-width="1920"
     inkscape:window-height="1046"
     inkscape:window-x="0"
     inkscape:window-y="34"
     inkscape:window-maximized="1"
     inkscape:current-layer="svg33248"
     showguides="true">
    <sodipodi:guide
       position="12.393524,35.990765"
       orientation="0,-1"
       id="guide33970"
       inkscape:locked="true" />
  </sodipodi:namedview>
  <g
     id="22-22-preferences-desktop-notification"
     transform="translate(32,-62)">
    <rect
       style="opacity:0.001"
       width="22"
       height="22"
       x="0"
       y="40"
       id="rect33177" />
    <path
       style="fill:#1a9fff;stroke-width:0.938077"
       d="m 11,43 c -4.1446858,0 -7.5046175,3.359932 -7.5046175,7.504617 0,4.144686 3.3599317,7.504618 7.5046175,7.504618 4.144686,0 7.504617,-3.359932 7.504617,-7.504618 C 18.504617,46.359932 15.144686,43 11,43 Z"
       id="path33179" />
    <path
       style="fill:#ffffff;stroke-width:0.938077"
       d="m 10.061923,46.752309 v 5.628463 h 1.876154 V 46.752309 Z M 11,53.318849 c -0.425092,0 -0.938077,0.486325 -0.938077,0.919756 0,0.433432 0.512985,0.956398 0.938077,0.956398 0.425092,0 0.938077,-0.522966 0.938077,-0.956398 0,-0.433431 -0.512985,-0.919756 -0.938077,-0.919756 z"
       id="path33181" />
  </g>
  <g
     id="22-22-preferences-desktop-display-randr"
     transform="translate(0,-22)"
     style="fill:#383e43;fill-opacity:1">
    <rect
       style="opacity:0.001;fill:#383e43;fill-opacity:1"
       width="22"
       height="22"
       x="0"
       y="0"
       id="rect33184" />
    <path
       style="fill:#383e43;stroke-width:0.938077;fill-opacity:1"
       d="m 3.612642,2.9999998 c -1.0553369,0 -1.0553369,1.0723874 -1.0553369,1.0723874 V 15.077286 c 0,1.072388 1.0553369,1.072388 1.0553369,1.072388 h 4.7255639 c 0,0 -1.1258114,-0.280443 -1.0905147,0.791363 v 1.068198 h 7.5046178 v -1.068198 c 0,-1.072388 -0.985371,-0.791363 -0.985371,-0.791363 h 4.62042 c 1.055337,0 1.055337,-1.072388 1.055337,-1.072388 V 4.0723872 c 0,0 0,-1.0723874 -1.055337,-1.0723874 z M 4.4334595,4.8761544 H 17.56654 v 9.3671606 l -13.1330805,0.02722 z"
       id="path33186" />
  </g>
  <g
     id="22-22-preferences-system-windows"
     transform="translate(59,-27)"
     inkscape:label="22-22-preferences-system-windows"
     style="fill:#383e43;fill-opacity:1">
    <rect
       style="opacity:0.001;fill:#383e43;fill-opacity:1"
       width="22"
       height="22"
       x="5"
       y="5"
       id="rect33189" />
    <path
       style="fill:#383e43;fill-opacity:1"
       d="M 13.5,9 C 13,9 13,9.5 13,9.5 v 8 c 0,0.5 0.5,0.5 0.5,0.5 h 10 c 0,0 0.5,0 0.5,-0.5 v -8 C 24,9 23.5,9 23.5,9 Z m 1.5,3 h 7 v 4 H 15 Z M 7.519531,14 C 7.519531,14 7,14 7,14.5 v 8 C 7,23 7.5,23 7.5,23 h 10 c 0,0 0.5,-0.02 0.5,-0.5 V 19 h -2 v 2 H 9 v -4 h 3 v -3 z"
       id="path33191" />
  </g>
  <g
     id="preferences-desktop-display-randr"
     transform="translate(0,34)"
     style="fill:#383e43;fill-opacity:1">
    <rect
       style="opacity:0.001;fill:#383e43;fill-opacity:1"
       width="32"
       height="32"
       x="0"
       y="-34"
       id="rect33194" />
    <g
       transform="translate(2e-4,-35)"
       id="g33198"
       style="fill:#383e43;fill-opacity:1">
      <path
         style="fill:#383e43;fill-opacity:1"
         transform="translate(0,1)"
         d="M 4.3007812,4 C 3.5805813,4 3,4.5575 3,5.25 v 17.5 C 3,23.4425 3.5805813,24 4.3007812,24 H 8 v 1.6875 C 8,26.414902 8.5935493,27 9.3320312,27 H 22.667969 C 23.406451,27 24,26.414902 24,25.6875 V 24 h 3.699219 C 28.419419,24 29,23.4425 29,22.75 V 5.25 C 29,4.5575 28.419419,4 27.699219,4 Z M 6,7 H 26 V 21 H 24 8 6 Z"
         id="path33196" />
    </g>
  </g>
  <g
     id="preferences-desktop-notification"
     transform="translate(32)">
    <rect
       style="opacity:0.001"
       width="32"
       height="32"
       x="0"
       y="0"
       id="rect33201" />
    <path
       style="fill:#1a9fff"
       d="M 15.5,4 A 11.5,11.5 0 0 0 4,15.5 11.5,11.5 0 0 0 15.5,27 11.5,11.5 0 0 0 27,15.5 11.5,11.5 0 0 0 15.5,4 Z"
       id="path33203" />
    <path
       style="fill:#ffffff"
       transform="translate(-160)"
       d="m 174,9 v 8 h 3 V 9 Z m 1.5,10 C 174.82027,19 174,19.77764 174,20.470703 174,21.163769 174.82027,22 175.5,22 176.17973,22 177,21.163769 177,20.470703 177,19.77764 176.17973,19 175.5,19 Z"
       id="path33205" />
  </g>
  <g
     id="preferences-system-windows"
     transform="translate(64)"
     style="fill:#383e43;fill-opacity:1">
    <rect
       style="opacity:0.001;fill:#383e43;fill-opacity:1"
       width="32"
       height="32"
       x="0"
       y="0"
       id="rect33208" />
    <path
       style="fill:#383e43;fill-opacity:1"
       d="M 12.726562,6 C 11.999289,6 12,6.7226564 12,6.7226562 V 18.277344 C 12,18.999566 12.726563,19 12.726562,19 H 27.273438 C 27.273438,19 28,18.999566 28,18.277344 V 6.7226562 C 28,6.0004339 27.273438,6 27.273438,6 Z M 15,10 h 10 v 6 H 15 Z M 3.7265625,13 C 2.9992895,13 3,13.722656 3,13.722656 V 25.277344 C 3,25.999566 3.7265625,26 3.7265625,26 H 18.273438 C 18.273438,26 19,25.999566 19,25.277344 V 21 h -3 v 2 H 6 v -6 h 4 v -4 z"
       id="path33210" />
  </g>
  <g
     id="preferences-desktop-notification-bell"
     transform="translate(-22,32)"
     style="fill:#383e43;fill-opacity:1">
    <rect
       style="opacity:0.001;fill:#383e43;fill-opacity:1"
       width="22"
       height="22"
       x="0"
       y="0"
       id="rect33213" />
    <path
       style="fill:#383e43;fill-opacity:1"
       d="M 11,3.0000001 C 11.55,3.0000001 12,3.4500001 12,4.0000001 12,4.0300001 12,4.0700001 11.99,4.1000001 14.28,4.5600001 16,6.5700001 16,9.0000001 V 11 13.5 L 18,15.5 V 16 H 16 6 4 V 15.5 L 6,13.5 V 9.0000001 C 6,6.5700001 7.72,4.5600001 10.01,4.1000001 10,4.0700001 10,4.0300001 10,4.0000001 10,3.4500001 10.45,3.0000001 11,3.0000001 Z M 12.73,17 C 12.37,17.62 11.71,18 11,18 10.29,18 9.63,17.62 9.27,17 Z"
       id="path33215" />
  </g>
  <g
     id="22-22-preferences-system-bluetooth"
     transform="translate(-64)"
     style="fill:#383e43;fill-opacity:1">
    <rect
       style="opacity:0.001;fill:#383e43;fill-opacity:1"
       width="22"
       height="22"
       x="192"
       y="-22"
       id="rect33218" />
    <path
       style="fill:#383e43;stroke-width:0.93807;fill-opacity:1"
       d="m 201.62336,-18.906929 a 0.9381637,0.9381637 0 0 0 -0.53132,0.84463 v 3.814573 l -2.23891,-1.740559 a 0.9380699,0.9380699 0 0 0 -1.31551,0.164895 0.9380699,0.9380699 0 0 0 0.16491,1.315497 l 3.38951,2.636489 v 0.751189 l -3.38951,2.63649 a 0.9380699,0.9380699 0 0 0 -0.16491,1.3154957 0.9380699,0.9380699 0 0 0 1.31551,0.1648958 l 2.23891,-1.7405596 V -4.92932 a 0.9381637,0.9381637 0 0 0 1.52436,0.7328671 l 4.69035,-3.7522796 a 0.9381637,0.9381637 0 0 0 -0.011,-1.4730624 l -2.66581,-2.0740151 2.66581,-2.074013 a 0.9381637,0.9381637 0 0 0 0.011,-1.473063 l -4.69035,-3.75228 a 0.9381637,0.9381637 0 0 0 -0.99304,-0.111763 z m 1.34482,2.797721 2.23707,1.790027 -2.10333,1.636127 -0.13374,-0.104434 z m 0.13374,5.800643 2.10333,1.6361266 -2.23707,1.7900277 v -3.3217203 z"
       id="path33220" />
  </g>
  <g
     id="22-22-preferences-system-bluetooth-activated"
     transform="translate(-128)"
     style="fill:#383e43;fill-opacity:1">
    <rect
       style="opacity:0.001;fill:#383e43;fill-opacity:1"
       width="22"
       height="22"
       x="224"
       y="-22"
       id="rect33223" />
    <path
       style="fill:#383e43;stroke-width:0.93805;fill-opacity:1"
       d="m 233.99233,-18.998217 a 0.93814372,0.93814372 0 0 0 -0.33711,0.09161 0.93814372,0.93814372 0 0 0 -0.53132,0.844608 v 3.814492 l -2.23886,-1.740522 a 0.93804991,0.93804991 0 0 0 -1.31547,0.164892 0.93804991,0.93804991 0 0 0 0.16489,1.315467 l 3.38944,2.636434 v 0.751173 l -3.38944,2.6364332 a 0.93804991,0.93804991 0 0 0 -0.16489,1.3154684 0.93804991,0.93804991 0 0 0 1.31547,0.1648916 l 2.23886,-1.7405222 v 3.8144919 a 0.93814372,0.93814372 0 0 0 1.52433,0.7328515 l 4.69025,-3.7521996 a 0.93814372,0.93814372 0 0 0 -0.011,-1.4730315 l -2.66577,-2.0739693 2.66575,-2.073971 a 0.93814372,0.93814372 0 0 0 0.011,-1.473031 l -4.69025,-3.752199 a 0.93814372,0.93814372 0 0 0 -0.6559,-0.203367 z M 235,-16.10895 l 2.23703,1.78999 -2.10328,1.636091 L 235,-12.7873 Z m -5.6283,3.675251 a 0.93804991,0.93804991 0 0 0 -0.93805,0.93805 0.93804991,0.93804991 0 0 0 0.93805,0.938049 0.93804991,0.93804991 0 0 0 0.93805,-0.938049 0.93804991,0.93804991 0 0 0 -0.93805,-0.93805 z m 11.2566,0 a 0.93804991,0.93804991 0 0 0 -0.93805,0.93805 0.93804991,0.93804991 0 0 0 0.93805,0.938049 0.93804991,0.93804991 0 0 0 0.93805,-0.938049 0.93804991,0.93804991 0 0 0 -0.93805,-0.93805 z m -5.49455,2.125269 2.10328,1.6360909 L 235,-6.8823492 v -3.3216498 z"
       id="path33225" />
  </g>
  <g
     id="preferences-system-bluetooth"
     transform="translate(-64)"
     style="fill:#383e43;fill-opacity:1">
    <rect
       style="opacity:0.001;fill:#383e43;fill-opacity:1"
       width="32"
       height="32"
       x="192"
       y="0"
       id="rect33228" />
    <path
       style="fill:#383e43;fill-opacity:1"
       d="m 205.83008,4.1578176 a 1.5002601,1.5002143 0 0 0 -0.83014,1.341854 V 11.87104 l -3.62917,-2.5919094 a 1.5001101,1.5000643 0 0 0 -2.09195,0.349624 1.5001101,1.5000643 0 0 0 0.34963,2.0918874 l 5.37149,3.836102 V 16.4435 l -5.37149,3.836102 a 1.5001101,1.5000643 0 0 0 -0.34963,2.091887 1.5001101,1.5000643 0 0 0 2.09195,0.349624 l 3.62917,-2.591908 v 6.371367 a 1.5002601,1.5002143 0 0 0 2.40057,1.19927 l 8.00058,-6.000256 a 1.5002601,1.5002143 0 0 0 -0.0293,-2.420027 l -4.59213,-3.279437 4.59214,-3.279438 a 1.5002601,1.5002143 0 0 0 0.0293,-2.420025 l -8.00059,-6.0002574 a 1.5002601,1.5002143 0 0 0 -1.57043,-0.142584 z m 2.17008,4.341983 3.96123,2.9708304 -3.762,2.685662 -0.19923,-0.142584 z m 0.19923,9.3441504 3.762,2.685663 -3.96123,2.97083 v -5.513909 z"
       id="path33230" />
  </g>
  <g
     id="preferences-system-bluetooth-activated"
     transform="translate(-128)"
     style="fill:#383e43;fill-opacity:1">
    <rect
       style="opacity:0.001;fill:#383e43;fill-opacity:1"
       width="32"
       height="32"
       x="224"
       y="0"
       id="rect33233" />
    <path
       style="fill:#383e43;fill-opacity:1"
       d="M 238.35938,4.0058594 A 1.5002601,1.5002143 0 0 0 237.83008,4.1582031 1.5002601,1.5002143 0 0 0 237,5.5 v 6.371094 l -3.62891,-2.5917971 a 1.5001101,1.5000643 0 0 0 -2.09179,0.3496093 1.5001101,1.5000643 0 0 0 0.34961,2.0917968 L 237,15.556641 v 0.886718 l -5.37109,3.835938 a 1.5001101,1.5000643 0 0 0 -0.34961,2.091797 1.5001101,1.5000643 0 0 0 2.09179,0.349609 L 237,20.128906 V 26.5 a 1.5002601,1.5002143 0 0 0 2.40039,1.199219 l 8,-6 a 1.5002601,1.5002143 0 0 0 -0.0293,-2.419922 L 242.7793,16 l 4.59179,-3.279297 a 1.5002601,1.5002143 0 0 0 0.0293,-2.419922 l -8,-5.9999998 A 1.5002601,1.5002143 0 0 0 238.35938,4.0058594 Z M 240,8.5 243.96094,11.470703 240.19922,14.15625 240,14.013672 Z M 230,14 a 2,2 0 0 0 -2,2 2,2 0 0 0 2,2 2,2 0 0 0 2,-2 2,2 0 0 0 -2,-2 z m 20,0 a 2,2 0 0 0 -2,2 2,2 0 0 0 2,2 2,2 0 0 0 2,-2 2,2 0 0 0 -2,-2 z m -9.80078,3.84375 3.76172,2.685547 L 240,23.5 v -5.513672 z"
       id="path33235" />
  </g>
  <g
     id="22-22-preferences-system-bluetooth-inactive"
     style="fill:#383e43;fill-opacity:1">
    <rect
       style="opacity:0.001;fill:#383e43;fill-opacity:1"
       width="22"
       height="22"
       x="160"
       y="-22"
       id="rect33238" />
    <path
       style="opacity:0.3;fill:#383e43;stroke-width:0.938068;fill-opacity:1"
       d="m 169.99231,-18.99741 c -0.11701,0.0086 -0.23135,0.03801 -0.33712,0.08875 -0.32457,0.1562 -0.53105,0.484432 -0.53133,0.844628 v 1.903619 L 171,-14.698346 v -1.412599 l 2.23707,1.790024 -0.87761,0.683397 1.5262,1.189075 1.44191,-1.123117 c 0.47891,-0.372053 0.4843,-1.0939 0.011,-1.473059 l -4.69034,-3.752272 c -0.18536,-0.147595 -0.41968,-0.218568 -0.65592,-0.200513 z m -4.40269,1.986872 -1.1561,1.478556 4.69034,3.658831 v 0.751188 l -3.38951,2.6364833 c -0.40848,0.3179046 -0.48228,0.9066014 -0.16489,1.315493 0.31791,0.4084892 0.9066,0.4822813 1.3155,0.1648945 l 2.2389,-1.740555 v 3.814565 c -3.2e-4,0.7869161 0.90997,1.2245604 1.52436,0.7328656 l 4.10954,-3.2869018 1.65261,1.2880113 1.15611,-1.4785564 z m 5.54412,6.700223 2.1015,1.6379543 L 171,-6.8841687 v -3.3217133 z"
       id="path33240" />
  </g>
  <g
     id="preferences-system-bluetooth-inactive"
     transform="translate(-32)"
     style="fill:#383e43;fill-opacity:1">
    <rect
       style="opacity:0.001;fill:#383e43;fill-opacity:1"
       width="32"
       height="32"
       x="192"
       y="0"
       id="rect33243" />
    <path
       style="opacity:0.3;fill:#383e43;fill-opacity:1"
       d="m 206.35938,4.0058594 c -0.18432,0.017683 -0.36378,0.069334 -0.5293,0.1523437 C 205.32153,4.4121104 205.00016,4.9316051 205,5.5 v 3.2890625 l 3,2.1308595 V 8.5 l 3.96094,2.970703 -1.58985,1.134766 2.58789,1.83789 2.41211,-1.722656 c 0.8251,-0.589451 0.83989,-1.810668 0.0293,-2.419922 l -8,-5.9999998 c -0.29824,-0.2243658 -0.6694,-0.3295173 -1.04101,-0.2949218 z m -6.10743,5.015625 c -0.39187,0.065675 -0.74167,0.2841291 -0.97265,0.6074218 -0.48086,0.6742298 -0.32437,1.6105678 0.34961,2.0917968 L 205,15.556641 v 0.886718 l -5.37109,3.835938 c -0.67398,0.481229 -0.83047,1.417567 -0.34961,2.091797 0.48124,0.673916 1.41755,0.830406 2.09179,0.349609 L 205,20.128906 V 26.5 c 8e-4,1.235782 1.41172,1.940667 2.40039,1.199219 l 8,-6 c 0.81059,-0.609254 0.7958,-1.830471 -0.0293,-2.419922 l -14,-10.0000001 c -0.32408,-0.2309825 -0.72666,-0.3237246 -1.11914,-0.2578125 z m 7.94727,8.8222656 3.76172,2.685547 L 208,23.5 v -5.513672 z"
       id="path33245" />
  </g>
</svg>
