<?xml version="1.0" encoding="UTF-8" standalone="no"?>
<svg
   width="32"
   height="32"
   version="1.1"
   id="svg12"
   sodipodi:docname="TeamViewer.svg"
   inkscape:version="1.2.1 (9c6d41e410, 2022-07-14)"
   xmlns:inkscape="http://www.inkscape.org/namespaces/inkscape"
   xmlns:sodipodi="http://sodipodi.sourceforge.net/DTD/sodipodi-0.dtd"
   xmlns="http://www.w3.org/2000/svg"
   xmlns:svg="http://www.w3.org/2000/svg">
  <defs
     id="defs16" />
  <sodipodi:namedview
     id="namedview14"
     pagecolor="#ffffff"
     bordercolor="#000000"
     borderopacity="0.25"
     inkscape:showpageshadow="2"
     inkscape:pageopacity="0.0"
     inkscape:pagecheckerboard="0"
     inkscape:deskcolor="#d1d1d1"
     showgrid="false"
     inkscape:zoom="11.234375"
     inkscape:cx="14.019471"
     inkscape:cy="29.374131"
     inkscape:window-width="1920"
     inkscape:window-height="1046"
     inkscape:window-x="0"
     inkscape:window-y="34"
     inkscape:window-maximized="1"
     inkscape:current-layer="svg12" />
  <g
     id="22-22-TeamViewer"
     transform="translate(32.000001,10.000001)"
     style="fill:#383e43;fill-opacity:1">
    <rect
       style="opacity:0.001;fill:#383e43;fill-opacity:1"
       width="22"
       height="22"
       x="0"
       y="0"
       id="rect2" />
    <path
       style="fill:#383e43;fill-opacity:1"
       d="m 11,3 c -4.4179185,-10e-8 -8.0000001,3.5820815 -8,8 -10e-8,4.417918 3.5820815,8 8,8 4.417918,0 8,-3.582082 8,-8 C 19,6.5820815 15.417918,2.9999999 11,3 Z M 9,8 v 2 h 4 V 8 l 3,3 -3,3 V 12 H 9 v 2 L 6,11 Z"
       id="path4" />
  </g>
  <g
     id="TeamViewer"
     style="fill:#383e43;fill-opacity:1">
    <rect
       style="opacity:0.001;fill:#383e43;fill-opacity:1"
       width="32"
       height="32"
       x="0"
       y="0"
       id="rect7" />
    <path
       style="fill:#383e43;fill-opacity:1"
       d="M 16 4 C 9.3731226 3.9999999 3.9999998 9.3731223 4 16 C 3.9999999 22.626877 9.3731226 28 16 28 C 22.626878 28 28 22.626877 28 16 C 28 9.3731223 22.626878 3.9999999 16 4 z M 13 11 L 13 14 L 19 14 L 19 11 L 24 16 L 19 21 L 19 18 L 13 18 L 13 21 L 8 16 L 13 11 z"
       id="path9" />
  </g>
</svg>
