<?xml version="1.0" encoding="UTF-8" standalone="no"?>
<svg
   width="32"
   height="32"
   version="1.1"
   id="svg16"
   sodipodi:docname="yakuake.svg"
   inkscape:version="1.2.1 (9c6d41e410, 2022-07-14)"
   xmlns:inkscape="http://www.inkscape.org/namespaces/inkscape"
   xmlns:sodipodi="http://sodipodi.sourceforge.net/DTD/sodipodi-0.dtd"
   xmlns="http://www.w3.org/2000/svg"
   xmlns:svg="http://www.w3.org/2000/svg">
  <defs
     id="defs20" />
  <sodipodi:namedview
     id="namedview18"
     pagecolor="#ffffff"
     bordercolor="#000000"
     borderopacity="0.25"
     inkscape:showpageshadow="2"
     inkscape:pageopacity="0.0"
     inkscape:pagecheckerboard="0"
     inkscape:deskcolor="#d1d1d1"
     showgrid="false"
     inkscape:zoom="5.6171875"
     inkscape:cx="-18.781641"
     inkscape:cy="5.162726"
     inkscape:window-width="1920"
     inkscape:window-height="1046"
     inkscape:window-x="0"
     inkscape:window-y="34"
     inkscape:window-maximized="1"
     inkscape:current-layer="svg16" />
  <g
     id="yakuake"
     style="fill:#383e43;fill-opacity:1">
    <rect
       style="opacity:0.001;fill:#383e43;fill-opacity:1"
       width="32"
       height="32"
       x="0"
       y="0"
       id="rect2" />
    <path
       style="opacity:0.3;fill:#383e43;fill-opacity:1"
       d="M 18.046875,4.1269534 10.023438,12.148438 12.851562,14.978516 20.875,6.9550784 Z"
       id="path4" />
    <path
       style="fill:#383e43;fill-opacity:1"
       d="M 4.8300781 4.1269531 L 2 6.9550781 L 8.6074219 13.5625 L 2 20.171875 L 4.8300781 23 L 14.265625 13.5625 L 4.8300781 4.1269531 z M 15 24 L 15 28 L 30 28 L 30 24 L 15 24 z"
       id="path6" />
  </g>
  <g
     id="22-22-yakuake"
     transform="translate(27,5)"
     style="fill:#383e43;fill-opacity:1">
    <rect
       style="opacity:0.001;fill:#383e43;fill-opacity:1"
       width="22"
       height="22"
       x="5"
       y="5"
       id="rect9" />
    <path
       style="opacity:0.3;fill:#383e43;fill-opacity:1"
       d="m 18.595703,7.9902344 -5.298828,5.2988276 1.414063,1.414063 5.298828,-5.2988281 z"
       id="path11" />
    <path
       style="fill:#383e43;fill-opacity:1"
       d="M 9.4140625,7.9902344 8,9.4042969 12.589844,13.996094 8,18.585938 9.4140625,20 15.419922,13.996094 Z M 14.287109,22 v 2 H 24 v -2 z"
       id="path13" />
  </g>
</svg>
