<?xml version="1.0" encoding="UTF-8" standalone="no"?>
<svg
   width="32"
   height="32"
   version="1.1"
   id="svg32"
   sodipodi:docname="zoom.svg"
   inkscape:version="1.2.1 (9c6d41e410, 2022-07-14)"
   xmlns:inkscape="http://www.inkscape.org/namespaces/inkscape"
   xmlns:sodipodi="http://sodipodi.sourceforge.net/DTD/sodipodi-0.dtd"
   xmlns="http://www.w3.org/2000/svg"
   xmlns:svg="http://www.w3.org/2000/svg">
  <defs
     id="defs36" />
  <sodipodi:namedview
     id="namedview34"
     pagecolor="#ffffff"
     bordercolor="#000000"
     borderopacity="0.25"
     inkscape:showpageshadow="2"
     inkscape:pageopacity="0.0"
     inkscape:pagecheckerboard="0"
     inkscape:deskcolor="#d1d1d1"
     showgrid="false"
     inkscape:zoom="1.9859757"
     inkscape:cx="-85.852008"
     inkscape:cy="-27.694196"
     inkscape:window-width="1920"
     inkscape:window-height="1046"
     inkscape:window-x="0"
     inkscape:window-y="34"
     inkscape:window-maximized="1"
     inkscape:current-layer="svg32" />
  <g
     id="22-22-zoom-fit-width"
     transform="translate(-433,42.999998)"
     style="fill:#383e43;fill-opacity:1">
    <rect
       style="opacity:0.001;fill:#383e43;fill-opacity:1"
       width="22"
       height="22"
       x="465"
       y="-65"
       id="rect2" />
    <path
       style="fill:#383e43;fill-opacity:1"
       d="m 472.0002,-58.00334 -5,4 5,4 v -3 h 8 v 3 l 5,-4 -5,-4 v 3 h -8 z"
       id="path4" />
  </g>
  <g
     id="22-22-zoom-fit-height"
     transform="rotate(90,222,-265)"
     style="fill:#383e43;fill-opacity:1">
    <rect
       style="opacity:0.001;fill:#383e43;fill-opacity:1"
       width="22"
       height="22"
       x="465"
       y="-65"
       id="rect7" />
    <path
       style="fill:#383e43;fill-opacity:1"
       d="m 472.0002,-58.00334 -5,4 5,4 v -3 h 8 v 3 l 5,-4 -5,-4 v 3 h -8 z"
       id="path9" />
  </g>
  <g
     id="zoom-fit-height"
     style="fill:#383e43;fill-opacity:1">
    <rect
       style="opacity:0.001;fill:#383e43;fill-opacity:1"
       width="32"
       height="32"
       x="0"
       y="-32"
       transform="rotate(90)"
       id="rect12" />
    <path
       style="fill:#383e43;fill-opacity:1"
       d="M 21,10 15.5,3 10,10 h 4 v 12 h -4 l 5.5,7 5.5,-7 H 17 V 10 Z"
       id="path14" />
  </g>
  <g
     id="zoom-fit-width"
     transform="rotate(90,32,31.999998)"
     style="fill:#383e43;fill-opacity:1">
    <rect
       style="opacity:0.001;fill:#383e43;fill-opacity:1"
       width="32"
       height="32"
       x="0"
       y="-32"
       transform="rotate(90)"
       id="rect17" />
    <path
       style="fill:#383e43;fill-opacity:1"
       d="M 21,10 15.5,3 10,10 h 4 v 12 h -4 l 5.5,7 5.5,-7 H 17 V 10 Z"
       id="path19" />
  </g>
  <g
     id="16-16-zoom-fit-height"
     transform="translate(-8,-46)"
     style="fill:#383e43;fill-opacity:1">
    <rect
       style="opacity:0.001;fill:#383e43;fill-opacity:1"
       width="16"
       height="16"
       x="8"
       y="-24"
       transform="rotate(90)"
       id="rect22" />
    <path
       style="fill:#383e43;fill-opacity:1"
       d="m 19,13 -3,-4 -3,4 h 2 v 6 h -2 l 3,4 3,-4 h -2 v -6 z"
       id="path24" />
  </g>
  <g
     id="16-16-zoom-fit-width"
     transform="rotate(90,51.000001,4.999999)"
     style="fill:#383e43;fill-opacity:1">
    <rect
       style="opacity:0.001;fill:#383e43;fill-opacity:1"
       width="16"
       height="16"
       x="8"
       y="-24"
       transform="rotate(90)"
       id="rect27" />
    <path
       style="fill:#383e43;fill-opacity:1"
       d="m 19,13 -3,-4 -3,4 h 2 v 6 h -2 l 3,4 3,-4 h -2 v -6 z"
       id="path29" />
  </g>
</svg>
