<?xml version="1.0" encoding="UTF-8" standalone="no"?>
<svg
   viewBox="0 0 256 256"
   fill="currentColor"
   version="1.1"
   id="svg4"
   sodipodi:docname="ic_fluent_lyrics_24_filled.svg"
   inkscape:version="1.2.1 (9c6d41e410, 2022-07-14)"
   xmlns:inkscape="http://www.inkscape.org/namespaces/inkscape"
   xmlns:sodipodi="http://sodipodi.sourceforge.net/DTD/sodipodi-0.dtd"
   xmlns="http://www.w3.org/2000/svg"
   xmlns:svg="http://www.w3.org/2000/svg">
  <defs
     id="defs8" />
  <sodipodi:namedview
     id="namedview6"
     pagecolor="#ffffff"
     bordercolor="#000000"
     borderopacity="0.25"
     inkscape:showpageshadow="2"
     inkscape:pageopacity="0.0"
     inkscape:pagecheckerboard="0"
     inkscape:deskcolor="#d1d1d1"
     showgrid="false"
     inkscape:zoom="1.9859757"
     inkscape:cx="78.299044"
     inkscape:cy="122.86152"
     inkscape:window-width="1920"
     inkscape:window-height="1046"
     inkscape:window-x="0"
     inkscape:window-y="34"
     inkscape:window-maximized="1"
     inkscape:current-layer="svg4" />
  <path
     d="m 220.44269,76.172292 q 0,16.787199 -7.81048,31.425648 -7.81048,14.63845 -21.32599,23.97212 -13.51552,9.33368 -30.08731,11.61674 l -83.67396,96.82858 q -4.618371,5.3719 -11.817588,5.3719 -4.210869,0 -7.878396,-2.01446 l -14.534272,-8.32645 q -5.161702,-2.95454 -6.99547,-8.59504 -1.833769,-5.6405 0.475422,-11.01241 L 88.411704,101.01737 q -4.890036,-12.086791 -4.890036,-24.845068 0,-27.933906 20.103482,-47.80995 20.10349,-19.8760442 48.35704,-19.8760442 28.25355,0 48.35703,19.8760442 20.10349,19.876044 20.10349,47.80995 z M 71.024892,234.50917 149.53715,143.72399 Q 131.87868,143.0525 117.00483,134.256 102.13097,125.4595 93.301731,110.82108 L 44.673032,218.93065 q -1.086673,2.41735 -0.271666,4.90186 0.815006,2.48451 3.124187,3.82749 l 14.670109,8.46074 q 2.173353,1.20868 4.68629,0.80579 2.512937,-0.40289 4.142949,-2.41736 z m 80.957278,-99.11164 q 24.72186,0 42.31241,-17.39153 17.59055,-17.39154 17.59055,-41.833708 0,-24.442167 -17.59055,-41.833703 -17.59055,-17.391537 -42.31241,-17.391537 -24.72186,0 -42.31241,17.391537 -17.590547,17.391536 -17.590547,41.833703 0,24.442168 17.590547,41.833708 17.59055,17.39153 42.31241,17.39153 z"
     id="path2"
     style="stroke:#000000;stroke-width:13;stroke-dasharray:none;stroke-opacity:1" />
  <ellipse
     style="fill:#000000;fill-opacity:1;fill-rule:evenodd;stroke:none;stroke-width:13;stroke-linecap:round"
     id="path1030"
     cx="151.98216"
     cy="74.5364"
     rx="56.593239"
     ry="57.589352" />
</svg>
