<?xml version="1.0" encoding="UTF-8" standalone="no"?>
<svg
   viewBox="0 0 24 24"
   fill="currentColor"
   version="1.1"
   id="svg4"
   sodipodi:docname="market.svg"
   inkscape:version="1.2.1 (9c6d41e410, 2022-07-14)"
   xml:space="preserve"
   width="24"
   height="24"
   xmlns:inkscape="http://www.inkscape.org/namespaces/inkscape"
   xmlns:sodipodi="http://sodipodi.sourceforge.net/DTD/sodipodi-0.dtd"
   xmlns="http://www.w3.org/2000/svg"
   xmlns:svg="http://www.w3.org/2000/svg"><defs
     id="defs8" /><sodipodi:namedview
     id="namedview6"
     pagecolor="#ffffff"
     bordercolor="#000000"
     borderopacity="0.25"
     inkscape:showpageshadow="2"
     inkscape:pageopacity="0.0"
     inkscape:pagecheckerboard="0"
     inkscape:deskcolor="#d1d1d1"
     showgrid="false"
     inkscape:zoom="15.887806"
     inkscape:cx="17.151519"
     inkscape:cy="18.945347"
     inkscape:window-width="1920"
     inkscape:window-height="1046"
     inkscape:window-x="0"
     inkscape:window-y="34"
     inkscape:window-maximized="1"
     inkscape:current-layer="g2493" /><style
     type="text/css"
     id="style2231"><![CDATA[
	.st0{fill-rule:evenodd;clip-rule:evenodd;}
]]></style><g
     id="g2493"
     transform="matrix(1.1173608,0,0,1.1173608,20.547865,1.3119254)"><path
       id="path2233"
       style="stroke-width:0.590413"
       class="st0"
       d="m -9.4566589,15.634823 c -0.9682761,0 -1.7475581,0.779282 -1.7475581,1.747559 0,0.968277 0.779282,1.747742 1.7475581,1.747742 0.9682772,-10e-7 1.7475591,-0.779465 1.7475591,-1.747742 0,-0.968277 -0.7851863,-1.747559 -1.7475591,-1.747559 z m 7.6576538,0 c -0.9623728,0 -1.7475581,0.779282 -1.7475581,1.747559 0,0.968277 0.7851853,1.747742 1.7475581,1.747742 0.96827719,-10e-7 1.74755907,-0.779465 1.74755907,-1.747742 0,-0.968277 -0.78518626,-1.747559 -1.74755907,-1.747559 z" /><path
       id="path2481"
       style="stroke-width:0.590413"
       class="st0"
       d="m -17.681218,8.04384e-4 c -0.383767,0 -0.708424,0.324656176 -0.708424,0.708423766 0,0.40147975 0.324657,0.72612215 0.708424,0.72612215 l 0.991924,-0.011963 h 0.05326 c 0.395577,0 0.743782,0.07099 0.99766,0.2363051 0.253877,0.147603 0.436965,0.419197 0.543239,0.8206769 0.01771,0.017712 0.0177,0.017848 0.0177,0.03556 l 2.438433,8.8029387 c 0.401479,1.582304 0.80303,2.456219 1.564661,2.963975 0.743918,0.490041 1.6708003,0.525391 3.1822532,0.507679 h 8.22446752 c 0.38376563,0 0.70858778,-0.306943 0.70858778,-0.708424 0,-0.383766 -0.30710996,-0.708588 -0.70858778,-0.708588 h -8.22446752 -0.017698 c -1.2221529,0.01771 -1.9482825,5.3e-5 -2.3674762,-0.271537 -0.348342,-0.242067 -0.60236,-0.749791 -0.856237,-1.694449 H 0.50952397 c 0.32472751,0 0.61987593,-0.218677 0.69072563,-0.543403 L 3.0541474,3.814625 c 0.017713,-0.070849 0.035396,-0.1475936 0.035396,-0.218443 0,-0.3837675 -0.3069431,-0.7084237 -0.7084238,-0.7084237 H 2.2098724 -13.536374 l -0.18321,-0.7261221 c -0.01771,-0.017712 -0.01753,-0.035546 -0.01753,-0.053259 -0.218454,-0.7793434 -0.619831,-1.30480971 -1.163008,-1.65315268 -0.490043,-0.30701397 -1.074652,-0.43670798 -1.73001,-0.454420336 h -0.07096 z M -7.2402027,3.6379697 h 2.9236623 v 2.9236615 h 1.9491075 l -3.4108566,3.41102 -3.4110204,-3.41102 h 1.9491072 z" /></g></svg>
