<?xml version="1.0" encoding="UTF-8" standalone="no"?>
<svg
   viewBox="0 0 256 256"
   fill="currentColor"
   version="1.1"
   id="svg4"
   sodipodi:docname="reddit_regular.svg"
   inkscape:version="1.2.1 (9c6d41e410, 2022-07-14)"
   xml:space="preserve"
   xmlns:inkscape="http://www.inkscape.org/namespaces/inkscape"
   xmlns:sodipodi="http://sodipodi.sourceforge.net/DTD/sodipodi-0.dtd"
   xmlns="http://www.w3.org/2000/svg"
   xmlns:svg="http://www.w3.org/2000/svg"><defs
     id="defs8" /><sodipodi:namedview
     id="namedview6"
     pagecolor="#ffffff"
     bordercolor="#000000"
     borderopacity="0.25"
     inkscape:showpageshadow="2"
     inkscape:pageopacity="0.0"
     inkscape:pagecheckerboard="0"
     inkscape:deskcolor="#d1d1d1"
     showgrid="false"
     inkscape:zoom="2.8085938"
     inkscape:cx="152.56745"
     inkscape:cy="151.32128"
     inkscape:window-width="1920"
     inkscape:window-height="1046"
     inkscape:window-x="0"
     inkscape:window-y="34"
     inkscape:window-maximized="1"
     inkscape:current-layer="svg4" /><path
     style="stroke-width:0.261225"
     d="m 229.95593,126.83755 c -5.12001,-8.0196 -12.04246,-15.33387 -20.42777,-21.68163 2.56,-5.407353 8.07183,-9.168983 14.47185,-9.168983 8.82937,0 15.98692,7.183663 15.98692,15.986923 0.0262,6.7396 -4.15345,12.48653 -10.031,14.86369 z"
     id="path1268" /><path
     style="stroke-width:0.261225"
     d="m 16.013061,111.97386 c 0,-8.82937 7.183675,-15.986923 15.986937,-15.986923 6.373881,0 11.88571,3.76163 14.471837,9.168983 -8.35919,6.34776 -15.28163,13.66203 -20.42776,21.68163 -5.877538,-2.37716 -10.031014,-8.12409 -10.031014,-14.86369 z"
     id="path1264" /><path
     style="stroke-width:0.261225"
     d="m 216.00654,30.994286 c 4.96326,0 9.01225,4.022856 9.01225,9.012241 0,4.989388 -4.02287,9.012251 -9.01225,9.012251 -4.9894,0 -9.01225,-4.022863 -9.01225,-9.012251 0,-4.989385 4.04898,-9.012241 9.01225,-9.012241 z"
     id="path1262" /><path
     id="path1260"
     style="stroke-width:0.261225"
     d="M 215.98047 16 C 206.83765 16 198.89661 21.119342 194.84766 28.642578 L 154.12305 16.861328 C 149.57774 15.555205 144.74358 17.803085 142.81055 22.113281 L 116.87109 80.365234 C 95.581348 81.854206 76.067948 87.628397 59.976562 96.431641 C 54.51699 86.609626 44.04241 79.974609 32 79.974609 C 14.315157 80.000711 0 94.315163 0 112 C 0 125.08733 7.8369711 136.31996 19.095703 141.2832 C 17.084277 147.29137 16.013672 153.56145 16.013672 160.01367 C 16.013672 204.18661 66.16836 240 128 240 C 189.85781 240 239.98633 204.18661 239.98633 160.01367 C 239.98633 153.56145 238.9157 147.29137 236.9043 141.2832 C 248.13694 136.29384 256 125.06194 256 111.97461 C 256 94.289783 241.68483 79.974609 224 79.974609 C 211.98371 79.974609 201.50913 86.609626 196.02344 96.431641 C 179.56634 87.419421 159.52969 81.619353 137.69141 80.287109 L 156.78711 37.419922 L 193.33203 47.974609 C 196.62346 57.300297 205.50539 64.013672 215.98047 64.013672 C 229.22453 64.013672 239.98633 53.276026 239.98633 40.005859 C 239.98633 26.735697 229.25064 16 215.98047 16 z M 79.986328 127.98633 C 88.815717 127.98633 95.974609 135.14523 95.974609 143.97461 C 95.974609 152.804 88.815717 159.96094 79.986328 159.96094 C 71.156951 159.96094 64 152.8301 64 143.97461 C 64 135.14523 71.156951 127.98633 79.986328 127.98633 z M 175.98633 127.98633 C 184.81569 127.98633 191.97461 135.14524 191.97461 143.97461 C 191.97461 152.80399 184.81569 159.96094 175.98633 159.96094 C 167.15696 159.98714 160 152.83009 160 143.97461 C 160 135.14524 167.15696 127.98633 175.98633 127.98633 z M 89.119141 176.13867 C 91.249846 176.08956 93.411087 176.75083 95.216797 178.16797 C 101.82576 183.36632 114.88657 188.98242 128 188.98242 C 141.11346 188.98242 154.17425 183.39243 160.7832 178.16797 C 164.91055 174.92879 170.86754 175.63437 174.13281 179.76172 C 177.372 183.88903 176.66641 189.84408 172.53906 193.10938 C 161.07134 202.14772 143.59505 208 128 208 C 112.43109 208 94.928651 202.14772 83.460938 193.10938 C 79.333599 189.87021 78.628024 183.88903 81.867188 179.76172 C 83.689223 177.44009 86.379658 176.20181 89.119141 176.13867 z " /></svg>
