<?xml version="1.0" encoding="UTF-8" standalone="no"?>
<svg
   viewBox="0 0 256 256"
   fill="currentColor"
   version="1.1"
   id="svg4"
   sodipodi:docname="reddit_filled.svg"
   inkscape:version="1.2.1 (9c6d41e410, 2022-07-14)"
   xml:space="preserve"
   xmlns:inkscape="http://www.inkscape.org/namespaces/inkscape"
   xmlns:sodipodi="http://sodipodi.sourceforge.net/DTD/sodipodi-0.dtd"
   xmlns="http://www.w3.org/2000/svg"
   xmlns:svg="http://www.w3.org/2000/svg"><defs
     id="defs8" /><sodipodi:namedview
     id="namedview6"
     pagecolor="#ffffff"
     bordercolor="#000000"
     borderopacity="0.25"
     inkscape:showpageshadow="2"
     inkscape:pageopacity="0.0"
     inkscape:pagecheckerboard="0"
     inkscape:deskcolor="#d1d1d1"
     showgrid="false"
     inkscape:zoom="1.4042969"
     inkscape:cx="-56.61196"
     inkscape:cy="36.317106"
     inkscape:window-width="1920"
     inkscape:window-height="1046"
     inkscape:window-x="0"
     inkscape:window-y="34"
     inkscape:window-maximized="1"
     inkscape:current-layer="svg4" /><path
     d="m 64.000007,143.97387 c 0,-8.82939 7.157539,-15.98694 15.986925,-15.98694 8.829398,0 15.986949,7.15755 15.986949,15.98694 0,8.8294 -7.157551,15.98695 -15.986949,15.98695 -8.829386,0 -15.986925,-7.13145 -15.986925,-15.98695 z m 96.000003,0 c 0,-8.82939 7.15755,-15.98694 15.98694,-15.98694 8.82938,0 15.98693,7.15755 15.98693,15.98694 0,8.8294 -7.15755,15.98695 -15.98693,15.98695 -8.82939,0.0262 -15.98694,-7.13145 -15.98694,-15.98695 z m 0.78366,34.19428 c 4.12735,-3.23918 10.08328,-2.53387 13.34858,1.59348 3.23919,4.12734 2.53387,10.08326 -1.59348,13.34856 -11.46775,9.03837 -28.94367,14.88979 -44.53878,14.88979 -15.56897,0 -33.071015,-5.85142 -44.538764,-14.88979 -4.127351,-3.23917 -4.832646,-9.22122 -1.593473,-13.34856 3.239185,-4.12735 9.221221,-4.83266 13.34857,-1.59348 6.608987,5.19838 19.670207,10.8147 32.783667,10.8147 13.11349,0 26.1747,-5.59021 32.78368,-10.8147 z M 256,111.97386 c 0,-17.684878 -14.3151,-31.999982 -31.99999,-31.999982 -12.01632,0 -22.49143,6.635098 -27.97715,16.45714 C 179.56573,87.418771 159.5298,81.61959 137.69143,80.287343 l 19.09552,-42.866938 36.5453,10.553467 c 3.29143,9.325715 12.17305,16.039185 22.64816,16.039185 13.24409,0 24.00652,-10.736324 24.00652,-24.00653 0,-13.270204 -10.73632,-24.006526 -24.00652,-24.006526 -9.14285,0 -17.08408,5.120005 -21.13306,12.643265 l -40.7249,-11.781222 c -4.54531,-1.306126 -9.37796,0.940405 -11.31102,5.250616 L 116.87185,80.365715 C 95.582033,81.85469 76.068577,87.62775 59.977143,96.431018 54.517553,86.608976 44.042444,79.973878 31.999998,79.973878 14.315101,79.99998 0,94.315099 0,111.99999 c 0,13.08736 7.8367439,24.32 19.09551,29.28327 -2.011432,6.00817 -3.082449,12.27754 -3.082449,18.72979 0,44.17306 50.155103,79.98695 111.986929,79.98695 61.85799,0 111.98694,-35.81389 111.98694,-79.98695 0,-6.45225 -1.07101,-12.72162 -3.08244,-18.72979 C 248.13716,136.29387 256,125.06122 256,111.97386 Z M 216.00654,30.994286 c 4.96326,0 9.01225,4.022856 9.01225,9.012241 0,4.989388 -4.02287,9.012251 -9.01225,9.012251 -4.9894,0 -9.01225,-4.022863 -9.01225,-9.012251 0,-4.989385 4.04898,-9.012241 9.01225,-9.012241 z M 16.013061,111.97386 c 0,-8.82937 7.183675,-15.986923 15.986937,-15.986923 6.373881,0 11.88571,3.76163 14.471837,9.168983 -8.35919,6.34776 -15.28163,13.66203 -20.42776,21.68163 -5.877538,-2.37716 -10.031014,-8.12409 -10.031014,-14.86369 z M 127.99999,220.98285 c -51.356718,0 -92.995906,-27.29797 -92.995906,-60.99593 0,-33.69795 41.639188,-60.995901 92.995906,-60.995901 51.35675,0 92.99592,27.297951 92.99592,60.995901 0,33.69796 -41.63917,60.99593 -92.99592,60.99593 z m 101.95594,-94.1453 c -5.12001,-8.0196 -12.04246,-15.33387 -20.42777,-21.68163 2.56,-5.407353 8.07183,-9.168983 14.47185,-9.168983 8.82937,0 15.98692,7.183663 15.98692,15.986923 0.0262,6.7396 -4.15345,12.48653 -10.031,14.86369 z"
     id="path235"
     style="stroke-width:0.261225" /><ellipse
     style="fill:#000000;fill-rule:evenodd;stroke-width:13;stroke-linecap:round"
     id="path373"
     cx="218.53101"
     cy="37.926643"
     rx="15.034064"
     ry="18.422119" /><ellipse
     style="fill:#000000;fill-rule:evenodd;stroke-width:13;stroke-linecap:round"
     id="path375"
     cx="225.30956"
     cy="110.85038"
     rx="20.826168"
     ry="24.229389" /><path
     style="fill:#000000;fill-rule:evenodd;stroke-width:12.5016;stroke-linecap:round"
     id="path383"
     sodipodi:type="arc"
     sodipodi:cx="31.574713"
     sodipodi:cy="111.08459"
     sodipodi:rx="19.393354"
     sodipodi:ry="21.105516"
     sodipodi:start="0"
     sodipodi:end="6.2480798"
     sodipodi:open="true"
     sodipodi:arc-type="arc"
     d="M 50.968067,111.08459 A 19.393354,21.105516 0 0 1 31.744914,132.18929 19.393354,21.105516 0 0 1 12.184346,111.45503 19.393354,21.105516 0 0 1 31.064162,89.986386 19.393354,21.105516 0 0 1 50.956118,110.34382" /></svg>
