<?xml version="1.0" encoding="UTF-8" standalone="no"?>
<svg
   viewBox="0 0 256 256"
   fill="currentColor"
   version="1.1"
   id="svg4"
   sodipodi:docname="search.svg"
   inkscape:version="1.2.1 (9c6d41e410, 2022-07-14)"
   xml:space="preserve"
   xmlns:inkscape="http://www.inkscape.org/namespaces/inkscape"
   xmlns:sodipodi="http://sodipodi.sourceforge.net/DTD/sodipodi-0.dtd"
   xmlns="http://www.w3.org/2000/svg"
   xmlns:svg="http://www.w3.org/2000/svg"><defs
     id="defs8" /><sodipodi:namedview
     id="namedview6"
     pagecolor="#ffffff"
     bordercolor="#000000"
     borderopacity="0.25"
     inkscape:showpageshadow="2"
     inkscape:pageopacity="0.0"
     inkscape:pagecheckerboard="0"
     inkscape:deskcolor="#d1d1d1"
     showgrid="false"
     inkscape:zoom="1.4042969"
     inkscape:cx="54.47566"
     inkscape:cy="27.059805"
     inkscape:window-width="1920"
     inkscape:window-height="1046"
     inkscape:window-x="0"
     inkscape:window-y="34"
     inkscape:window-maximized="1"
     inkscape:current-layer="svg4" /><path
     style="fill:#000000;stroke-width:0.585768"
     d="m 21.901895,250.0033 c -4.114487,-1.0636 -6.497927,-2.43267 -9.997831,-5.74275 -4.4784234,-4.23547 -6.3678841,-8.728 -6.3678841,-15.14065 0,-4.22502 0.2568323,-5.55566 1.6959813,-8.78656 1.5765701,-3.53949 3.9930568,-6.11656 34.3291778,-36.61067 L 74.19462,150.91951 73.058827,149.1622 c -4.080214,-6.31301 -8.69316,-17.95396 -10.791871,-27.23387 -4.85818,-21.48135 -2.329058,-43.002343 7.400609,-62.974813 11.214331,-23.020012 30.929995,-40.355499 54.971305,-48.334825 20.4947,-6.8022045 39.92051,-6.8568898 60.65485,-0.170761 13.55089,4.369708 26.67732,12.494363 37.22109,23.038117 28.91518,28.915187 36.14901,72.429772 18.1588,109.232672 -19.39954,39.68597 -63.45843,60.77077 -106.6011,51.01497 -9.27935,-2.09832 -20.92057,-6.71126 -27.23385,-10.79166 l -1.75736,-1.13579 -32.803114,32.63324 c -29.723219,29.56923 -33.133588,32.77751 -36.32228,34.16983 -4.299656,1.87743 -9.99761,2.44259 -14.054011,1.39399 z M 166.92336,167.83784 c 27.9623,-4.79923 50.41767,-27.20868 55.32975,-55.21659 1.1028,-6.28791 1.10294,-17.273692 3.1e-4,-23.596647 -4.50702,-25.844952 -24.35037,-47.409876 -49.80846,-54.129642 -7.7447,-2.044249 -20.79519,-2.598167 -28.71189,-1.218659 -14.04769,2.447864 -26.46888,8.919513 -36.63877,19.089385 -13.02036,13.020352 -19.878965,29.605552 -19.878965,48.070443 0,33.04404 23.475395,61.13515 55.997975,67.00826 6.34082,1.14509 17.01736,1.14213 23.71005,-0.006 z m 26.41991,-64.78755 c -3.90501,-0.83697 -6.51656,-3.836512 -8.45026,-9.705707 -3.71663,-11.280783 -12.11074,-19.39579 -23.39228,-22.614525 -5.8323,-1.664013 -8.84644,-5.27732 -8.84644,-10.604999 0,-3.524379 1.12504,-5.912896 3.95566,-8.398259 2.62279,-2.302813 4.06511,-2.662679 9.19957,-2.29531 10.27781,0.735375 25.56732,12.052514 34.19175,25.30841 4.44268,6.828451 6.25222,11.445853 6.55399,16.723892 0.2303,4.027632 0.11743,4.595986 -1.35607,6.828842 -2.66937,4.044946 -7.02543,5.792996 -11.85592,4.757656 z"
     id="path397" /></svg>
