<?xml version="1.0" encoding="UTF-8" standalone="no"?>
<svg
   width="16"
   height="16"
   version="1.1"
   id="svg7538"
   sodipodi:docname="vcs-update-required.svg"
   inkscape:version="1.2.1 (9c6d41e410, 2022-07-14)"
   xmlns:inkscape="http://www.inkscape.org/namespaces/inkscape"
   xmlns:sodipodi="http://sodipodi.sourceforge.net/DTD/sodipodi-0.dtd"
   xmlns="http://www.w3.org/2000/svg"
   xmlns:svg="http://www.w3.org/2000/svg">
  <defs
     id="defs7542" />
  <sodipodi:namedview
     id="namedview7540"
     pagecolor="#ffffff"
     bordercolor="#000000"
     borderopacity="0.25"
     inkscape:showpageshadow="2"
     inkscape:pageopacity="0.0"
     inkscape:pagecheckerboard="0"
     inkscape:deskcolor="#d1d1d1"
     showgrid="false"
     inkscape:zoom="50.1875"
     inkscape:cx="7.6014944"
     inkscape:cy="8.0199253"
     inkscape:window-width="1920"
     inkscape:window-height="1046"
     inkscape:window-x="0"
     inkscape:window-y="34"
     inkscape:window-maximized="1"
     inkscape:current-layer="svg7538" />
  <circle
     style="fill:#d49424;fill-opacity:1;fill-rule:evenodd;stroke:none;stroke-width:0.700001;stroke-linecap:round;stroke-dasharray:none;stroke-opacity:1"
     id="path3075"
     cx="6.2470341"
     cy="9.4162979"
     r="6.0615225" />
  <g
     color="#f1f2f2"
     font-family="Sans"
     font-weight="400"
     id="g7663"
     transform="matrix(0.57865602,0,0,0.57865602,1.6177859,4.7870373)"
     style="fill:#ffffff;fill-opacity:1">
    <path
       d="M 13.906,0.969 A 1.048,1.048 0 0 0 13.781,1 C 13.334,1.1 12.989,1.542 13,2 V 3.688 C 13,3.792 12.993,3.841 12.992,3.93 A 7.416,7.416 0 0 0 8,2 C 4.7,2 1.909,4.126 1,7 H 3.191 C 4.001,5.235 5.848,4 8,4 9.176,4 10.253,4.378 11.127,5 H 10 C 9.476,5 9,5.476 9,6 A 1,1 0 0 0 9,6.219 V 7 h 6 V 2 A 0.979,0.979 0 0 0 15,1.812 V 1 H 14.187 A 1.002,1.002 0 0 0 13.907,0.969 Z M 1,9 v 5 a 0.979,0.979 0 0 0 0,0.188 V 15 h 0.813 c 0.091,0.024 0.186,0.034 0.28,0.031 C 2.136,15.023 2.178,15.013 2.219,15 2.666,14.9 3.011,14.458 3,14 V 12.312 C 3,12.208 3.007,12.159 3.008,12.07 A 7.416,7.416 0 0 0 8,14 c 3.3,0 6.091,-2.126 7,-5 H 12.809 C 11.999,10.765 10.152,12 8,12 A 5.374,5.374 0 0 1 4.873,11 H 6 c 0.524,0 1,-0.476 1,-1 A 1,1 0 0 0 7,9.781 V 9 Z"
       fill="#f1f2f2"
       overflow="visible"
       style="text-indent:0;text-decoration-line:none;text-transform:none;fill:#ffffff;fill-opacity:1"
       id="path7661" />
  </g>
</svg>
