<?xml version="1.0" encoding="UTF-8" standalone="no"?>
<svg
   width="33"
   height="103"
   version="1.1"
   viewBox="0 0 33 103"
   id="svg4922"
   sodipodi:docname="frame.svg"
   inkscape:version="1.2.1 (9c6d41e410, 2022-07-14)"
   xmlns:inkscape="http://www.inkscape.org/namespaces/inkscape"
   xmlns:sodipodi="http://sodipodi.sourceforge.net/DTD/sodipodi-0.dtd"
   xmlns="http://www.w3.org/2000/svg"
   xmlns:svg="http://www.w3.org/2000/svg">
  <defs
     id="defs4926" />
  <sodipodi:namedview
     id="namedview4924"
     pagecolor="#ffffff"
     bordercolor="#000000"
     borderopacity="0.25"
     inkscape:showpageshadow="2"
     inkscape:pageopacity="0.0"
     inkscape:pagecheckerboard="0"
     inkscape:deskcolor="#d1d1d1"
     showgrid="false"
     inkscape:zoom="9.8720345"
     inkscape:cx="8.9140694"
     inkscape:cy="47.913123"
     inkscape:window-width="1920"
     inkscape:window-height="1046"
     inkscape:window-x="0"
     inkscape:window-y="34"
     inkscape:window-maximized="1"
     inkscape:current-layer="svg4922" />
  <g
     transform="translate(-5 -5)"
     id="g4905">
    <g
       id="raised-topleft">
      <path
         transform="translate(5 5)"
         d="m9 77c-1.108 0-2 0.892-2 2v1h1v-1c0-0.554 0.446-1 1-1h1v-1z"
         fill="#fff"
         opacity=".12"
         id="path4782" />
      <path
         d="m14 83c-0.554 0-1 0.446-1 1v1h2v-2z"
         fill="#28282a"
         opacity=".8"
         id="path4784" />
    </g>
    <g
       id="raised-top">
      <rect
         x="15"
         y="83"
         width="20"
         height="2"
         fill="#28282a"
         opacity=".8"
         id="rect4787" />
      <rect
         x="15"
         y="82"
         width="20"
         height="1"
         fill="#fff"
         opacity=".12"
         id="rect4789" />
    </g>
    <g
       id="raised-topright">
      <path
         transform="translate(5 5)"
         d="m30 77v1h1c0.554 0 1 0.446 1 1v1h1v-1c0-1.108-0.892-2-2-2z"
         fill="#fff"
         opacity=".12"
         id="path4792" />
      <path
         d="m37 84c0-0.554-0.446-1-1-1h-1v2h2z"
         fill="#28282a"
         opacity=".8"
         id="path4794" />
    </g>
    <g
       id="raised-right">
      <rect
         transform="rotate(90)"
         x="85"
         y="-37"
         width="20"
         height="2"
         fill="#28282a"
         opacity=".8"
         id="rect4797" />
      <rect
         transform="rotate(90)"
         x="85"
         y="-38"
         width="20"
         height="1"
         fill="#fff"
         opacity=".12"
         id="rect4799" />
    </g>
    <g
       id="raised-bottomright">
      <path
         transform="translate(5 5)"
         d="m32 100v1c0 0.554-0.446 1-1 1h-1v1h1c1.108 0 2-0.892 2-2v-1z"
         fill="#fff"
         opacity=".12"
         id="path4802" />
      <path
         d="m36 107c0.554 0 1-0.446 1-1v-1h-2v2z"
         fill="#28282a"
         opacity=".8"
         id="path4804" />
    </g>
    <g
       id="raised-bottom">
      <rect
         transform="scale(-1)"
         x="-35"
         y="-107"
         width="20"
         height="2"
         fill="#28282a"
         opacity=".8"
         id="rect4807" />
      <rect
         transform="scale(-1)"
         x="-35"
         y="-108"
         width="20"
         height="1"
         fill="#fff"
         opacity=".12"
         id="rect4809" />
    </g>
    <g
       id="raised-bottomleft">
      <path
         transform="translate(5 5)"
         d="m7 100v1c0 1.108 0.892 2 2 2h1v-1h-1c-0.554 0-1-0.446-1-1v-1z"
         fill="#fff"
         opacity=".12"
         id="path4812" />
      <path
         d="m13 106c0 0.554 0.446 1 1 1h1v-2h-2z"
         fill="#28282a"
         opacity=".8"
         id="path4814" />
    </g>
    <g
       id="raised-left">
      <rect
         transform="rotate(-90)"
         x="-105"
         y="13"
         width="20"
         height="2"
         fill="#28282a"
         opacity=".8"
         id="rect4817" />
      <rect
         transform="rotate(-90)"
         x="-105"
         y="12"
         width="20"
         height="1"
         fill="#fff"
         opacity=".12"
         id="rect4819" />
    </g>
    <rect
       id="raised-center"
       transform="rotate(-90)"
       x="-105"
       y="15"
       width="20"
       height="20"
       fill="#28282a"
       opacity=".8" />
    <g
       id="sunken-topleft">
      <path
         transform="translate(5 5)"
         d="m9 42c-1.108 0-2 0.892-2 2v1h1v-1c0-0.554 0.446-1 1-1h1v-1z"
         fill="#fff"
         opacity=".12"
         id="path4823" />
      <path
         d="m14 48c-0.554 0-1 0.446-1 1v1h2v-2z"
         fill="#19191b"
         opacity=".8"
         id="path4825" />
    </g>
    <g
       id="sunken-top">
      <rect
         x="15"
         y="48"
         width="20"
         height="2"
         fill="#19191b"
         opacity=".8"
         id="rect4828" />
      <rect
         x="15"
         y="47"
         width="20"
         height="1"
         fill="#fff"
         opacity=".12"
         id="rect4830" />
    </g>
    <g
       id="sunken-topright">
      <path
         transform="translate(5 5)"
         d="m30 42v1h1c0.554 0 1 0.446 1 1v1h1v-1c0-1.108-0.892-2-2-2z"
         fill="#fff"
         opacity=".12"
         id="path4833" />
      <path
         d="m37 49c0-0.554-0.446-1-1-1h-1v2h2z"
         fill="#19191b"
         opacity=".8"
         id="path4835" />
    </g>
    <g
       id="sunken-right">
      <rect
         transform="rotate(90)"
         x="50"
         y="-37"
         width="20"
         height="2"
         fill="#19191b"
         opacity=".8"
         id="rect4838" />
      <rect
         transform="rotate(90)"
         x="50"
         y="-38"
         width="20"
         height="1"
         fill="#fff"
         opacity=".12"
         id="rect4840" />
    </g>
    <g
       id="sunken-bottomright">
      <path
         transform="translate(5 5)"
         d="m32 65v1c0 0.554-0.446 1-1 1h-1v1h1c1.108 0 2-0.892 2-2v-1z"
         fill="#fff"
         opacity=".12"
         id="path4843" />
      <path
         d="m36 72c0.554 0 1-0.446 1-1v-1h-2v2z"
         fill="#19191b"
         opacity=".8"
         id="path4845" />
    </g>
    <g
       id="sunken-bottom">
      <rect
         transform="scale(-1)"
         x="-35"
         y="-72"
         width="20"
         height="2"
         fill="#19191b"
         opacity=".8"
         id="rect4848" />
      <rect
         transform="scale(-1)"
         x="-35"
         y="-73"
         width="20"
         height="1"
         fill="#fff"
         opacity=".12"
         id="rect4850" />
    </g>
    <g
       id="sunken-bottomleft">
      <path
         transform="translate(5 5)"
         d="m7 65v1c0 1.108 0.892 2 2 2h1v-1h-1c-0.554 0-1-0.446-1-1v-1z"
         fill="#fff"
         opacity=".12"
         id="path4853" />
      <path
         d="m13 71c0 0.554 0.446 1 1 1h1v-2h-2z"
         fill="#19191b"
         opacity=".8"
         id="path4855" />
    </g>
    <g
       id="sunken-left">
      <rect
         transform="rotate(-90)"
         x="-70"
         y="13"
         width="20"
         height="2"
         fill="#19191b"
         opacity=".8"
         id="rect4858" />
      <rect
         transform="rotate(-90)"
         x="-70"
         y="12"
         width="20"
         height="1"
         fill="#fff"
         opacity=".12"
         id="rect4860" />
    </g>
    <rect
       id="sunken-center"
       transform="rotate(-90)"
       x="-70"
       y="15"
       width="20"
       height="20"
       fill="#19191b"
       opacity=".8" />
    <g
       id="plain-topleft"
       transform="translate(2,2)">
      <path
         transform="translate(3 3)"
         d="m9 7c-1.108 0-2 0.892-2 2v1h1v-1c0-0.554 0.446-1 1-1h1v-1z"
         fill="#fff"
         opacity=".12"
         id="path4864" />
      <path
         d="m12 11c-0.554 0-1 0.446-1 1v1h2v-2z"
         fill="#1e1e20"
         opacity=".6"
         id="path4866" />
    </g>
    <g
       id="plain-top"
       transform="translate(2,2)">
      <rect
         x="13"
         y="11"
         width="20"
         height="2"
         fill="#1e1e20"
         opacity=".6"
         id="rect4869" />
      <rect
         x="13"
         y="10"
         width="20"
         height="1"
         fill="#fff"
         opacity=".12"
         id="rect4871" />
    </g>
    <g
       id="plain-topright"
       transform="translate(2,2)">
      <path
         transform="translate(3 3)"
         d="m30 7v1h1c0.554 0 1 0.446 1 1v1h1v-1c0-1.108-0.892-2-2-2z"
         fill="#fff"
         opacity=".12"
         id="path4874" />
      <path
         d="m35 12c0-0.554-0.446-1-1-1h-1v2h2z"
         fill="#1e1e20"
         opacity=".6"
         id="path4876" />
    </g>
    <g
       id="plain-right"
       transform="translate(2,2)">
      <rect
         transform="rotate(90)"
         x="13"
         y="-35"
         width="20"
         height="2"
         fill="#1e1e20"
         opacity=".6"
         id="rect4879" />
      <rect
         transform="rotate(90)"
         x="13"
         y="-36"
         width="20"
         height="1"
         fill="#fff"
         opacity=".12"
         id="rect4881" />
    </g>
    <g
       id="plain-bottomright"
       transform="translate(2,2)">
      <path
         transform="translate(3 3)"
         d="m32 30v1c0 0.554-0.446 1-1 1h-1v1h1c1.108 0 2-0.892 2-2v-1z"
         fill="#fff"
         opacity=".12"
         id="path4884" />
      <path
         d="m34 35c0.554 0 1-0.446 1-1v-1h-2v2z"
         fill="#1e1e20"
         opacity=".6"
         id="path4886" />
    </g>
    <g
       id="plain-bottom"
       transform="translate(2,2)">
      <rect
         transform="scale(-1)"
         x="-33"
         y="-35"
         width="20"
         height="2"
         fill="#1e1e20"
         opacity=".6"
         id="rect4889" />
      <rect
         transform="scale(-1)"
         x="-33"
         y="-36"
         width="20"
         height="1"
         fill="#fff"
         opacity=".12"
         id="rect4891" />
    </g>
    <g
       id="plain-bottomleft"
       transform="translate(2,2)">
      <path
         transform="translate(3 3)"
         d="m7 30v1c0 1.108 0.892 2 2 2h1v-1h-1c-0.554 0-1-0.446-1-1v-1z"
         fill="#fff"
         opacity=".12"
         id="path4894" />
      <path
         d="m11 34c0 0.554 0.446 1 1 1h1v-2h-2z"
         fill="#1e1e20"
         opacity=".6"
         id="path4896" />
    </g>
    <g
       id="plain-left"
       transform="translate(2,2)">
      <rect
         transform="rotate(-90)"
         x="-33"
         y="11"
         width="20"
         height="2"
         fill="#1e1e20"
         opacity=".6"
         id="rect4899" />
      <rect
         transform="rotate(-90)"
         x="-33"
         y="10"
         width="20"
         height="1"
         fill="#fff"
         opacity=".12"
         id="rect4901" />
    </g>
    <rect
       id="plain-center"
       transform="rotate(-90)"
       x="-35"
       y="15"
       width="20"
       height="20"
       fill="#1e1e20"
       opacity=".6" />
  </g>
  <g
     transform="translate(-5 -827.52)"
     fill="#f0f"
     id="g4920">
    <rect
       id="plain-hint-left-margin"
       x="12"
       y="846.52"
       width="3"
       height="2" />
    <rect
       id="plain-hint-top-margin"
       x="24"
       y="834.52"
       width="2"
       height="3" />
    <rect
       id="plain-hint-right-margin"
       x="35"
       y="846.52"
       width="3"
       height="2" />
    <rect
       id="plain-hint-bottom-margin"
       x="24"
       y="857.52"
       width="2"
       height="3" />
    <rect
       id="hint-tile-center"
       x="5"
       y="827.52"
       width="5"
       height="5" />
    <rect
       id="sunken-hint-left-margin"
       x="12"
       y="881.52"
       width="3"
       height="2" />
    <rect
       id="sunken-hint-top-margin"
       x="24"
       y="869.52"
       width="2"
       height="3" />
    <rect
       id="sunken-hint-right-margin"
       x="35"
       y="881.52"
       width="3"
       height="2" />
    <rect
       id="sunken-hint-bottom-margin"
       x="24"
       y="892.52"
       width="2"
       height="3" />
    <rect
       id="raised-hint-left-margin"
       x="12"
       y="916.52"
       width="3"
       height="2" />
    <rect
       id="raised-hint-top-margin"
       x="24"
       y="904.52"
       width="2"
       height="3" />
    <rect
       id="raised-hint-right-margin"
       x="35"
       y="916.52"
       width="3"
       height="2" />
    <rect
       id="raised-hint-bottom-margin"
       x="24"
       y="927.52"
       width="2"
       height="3" />
  </g>
</svg>
