<?xml version="1.0" encoding="UTF-8" standalone="no"?>
<!-- Generator: Adobe Illustrator 15.1.0, SVG Export Plug-In . SVG Version: 6.00 Build 0)  -->

<svg
   version="1.1"
   id="Layer_1"
   x="0px"
   y="0px"
   width="56.69px"
   height="56.69px"
   viewBox="0 0 56.69 56.69"
   enable-background="new 0 0 56.69 56.69"
   xml:space="preserve"
   sodipodi:docname="weather11.svg"
   inkscape:version="1.2.1 (9c6d41e410, 2022-07-14)"
   xmlns:inkscape="http://www.inkscape.org/namespaces/inkscape"
   xmlns:sodipodi="http://sodipodi.sourceforge.net/DTD/sodipodi-0.dtd"
   xmlns="http://www.w3.org/2000/svg"
   xmlns:svg="http://www.w3.org/2000/svg"><defs
   id="defs7" /><sodipodi:namedview
   id="namedview5"
   pagecolor="#ffffff"
   bordercolor="#000000"
   borderopacity="0.25"
   inkscape:showpageshadow="2"
   inkscape:pageopacity="0.0"
   inkscape:pagecheckerboard="0"
   inkscape:deskcolor="#d1d1d1"
   showgrid="false"
   inkscape:zoom="12.683013"
   inkscape:cx="28.305577"
   inkscape:cy="28.305577"
   inkscape:window-width="1920"
   inkscape:window-height="1046"
   inkscape:window-x="0"
   inkscape:window-y="34"
   inkscape:window-maximized="1"
   inkscape:current-layer="Layer_1" />
<path
   d="M 34.083,18.485 C 32.65,13.202 34.199,7.813 37.702,4.106 36.506,4.157 35.295,4.335 34.091,4.663 26.336,6.765 21.395,14.067 21.984,21.794 c 2.979,0.669 5.688,2.275 7.709,4.579 0.971,-0.301 1.987,-0.456 3.021,-0.456 4.781,0 8.806,3.303 9.914,7.747 1.158,0.364 2.229,0.907 3.184,1.596 2.77,-1.394 5.028,-3.511 6.598,-6.052 -7.996,2.018 -16.162,-2.734 -18.327,-10.723 z"
   id="path846"
   style="fill:#f6ff24;fill-opacity:1" /><path
   d="m 47.434,44.358 c 0,4.542 -3.684,8.226 -8.227,8.226 H 12.509 c -4.542,0 -8.227,-3.684 -8.227,-8.226 0,-2.715 1.32,-5.113 3.348,-6.61 -0.104,-0.62 -0.172,-1.254 -0.172,-1.904 0,-6.298 5.104,-11.399 11.402,-11.399 4.211,0 7.879,2.288 9.854,5.684 1.146,-0.764 2.52,-1.211 3.999,-1.211 3.984,0 7.216,3.229 7.216,7.218 0,0.013 -0.002,0.024 -0.002,0.036 4.205,0.364 7.507,3.886 7.507,8.186 z"
   id="path2"
   style="fill:#ffffff;fill-opacity:1" />
</svg>
