<?xml version="1.0" encoding="UTF-8" standalone="no"?>
<!-- Generator: Adobe Illustrator 15.1.0, SVG Export Plug-In . SVG Version: 6.00 Build 0)  -->

<svg
   version="1.1"
   id="Layer_1"
   x="0px"
   y="0px"
   width="56.69px"
   height="56.69px"
   viewBox="0 0 56.69 56.69"
   enable-background="new 0 0 56.69 56.69"
   xml:space="preserve"
   sodipodi:docname="weather15.svg"
   inkscape:version="1.2.1 (9c6d41e410, 2022-07-14)"
   xmlns:inkscape="http://www.inkscape.org/namespaces/inkscape"
   xmlns:sodipodi="http://sodipodi.sourceforge.net/DTD/sodipodi-0.dtd"
   xmlns="http://www.w3.org/2000/svg"
   xmlns:svg="http://www.w3.org/2000/svg"><defs
   id="defs7" /><sodipodi:namedview
   id="namedview5"
   pagecolor="#ffffff"
   bordercolor="#000000"
   borderopacity="0.25"
   inkscape:showpageshadow="2"
   inkscape:pageopacity="0.0"
   inkscape:pagecheckerboard="0"
   inkscape:deskcolor="#d1d1d1"
   showgrid="false"
   inkscape:zoom="12.683013"
   inkscape:cx="18.055646"
   inkscape:cy="30.434408"
   inkscape:window-width="1920"
   inkscape:window-height="1046"
   inkscape:window-x="0"
   inkscape:window-y="34"
   inkscape:window-maximized="1"
   inkscape:current-layer="Layer_1" />
<path
   d="m 42.535,39.656 c 0,0 0,0 -0.002,0 -0.551,0 -0.998,0.445 -1,0.998 l -0.01,3 c -0.002,0.551 0.445,1 0.998,1.002 h 0.002 c 0.551,0 0.998,-0.445 1,-0.996 l 0.01,-3 c 0.002,-0.553 -0.443,-1.002 -0.998,-1.004 z"
   id="path856"
   style="fill:#44dbff;fill-opacity:1" /><path
   d="m 42.518,45.656 h -0.002 c -0.551,0 -0.998,0.445 -1,0.998 l -0.008,2.461 c -0.002,0.551 0.443,1 0.996,1.002 0.002,0 0.002,0 0.004,0 0.551,0 0.998,-0.445 1,-0.996 l 0.008,-2.461 c 0.002,-0.553 -0.446,-1.002 -0.998,-1.004 z"
   id="path854"
   style="fill:#44dbff;fill-opacity:1" /><path
   d="m 15.615,45.656 c -10e-4,0 -0.002,0 -0.003,0 -0.551,0 -0.998,0.445 -1,0.998 l -0.008,2.461 c -0.002,0.551 0.444,1 0.997,1.002 10e-4,0 0.002,0 0.003,0 0.551,0 0.998,-0.445 1,-0.996 l 0.008,-2.461 c 0.002,-0.553 -0.445,-1.002 -0.997,-1.004 z"
   id="path852"
   style="fill:#44dbff;fill-opacity:1" /><path
   d="m 15.633,39.656 c -10e-4,0 -0.002,0 -0.003,0 -0.551,0 -0.998,0.445 -1,0.998 l -0.01,3 c -0.002,0.551 0.444,1 0.997,1.002 10e-4,0 0.003,0 0.003,0 0.551,0 0.998,-0.445 1,-0.996 l 0.01,-3 c 0.002,-0.553 -0.444,-1.002 -0.997,-1.004 z"
   id="path850"
   style="fill:#44dbff;fill-opacity:1" /><path
   d="m 35.799,45.67 h -0.002 c -0.551,0 -0.998,0.447 -1,0.998 l -0.004,1 c -0.002,0.553 0.445,1 0.998,1.002 h 0.002 c 0.551,0 0.998,-0.445 1,-0.996 l 0.004,-1 c 0.002,-0.553 -0.445,-1.002 -0.998,-1.004 z"
   id="path848"
   style="fill:#44dbff;fill-opacity:1" /><path
   d="m 22.347,45.67 c -0.001,0 -0.002,0 -0.003,0 -0.551,0 -0.998,0.447 -1,0.998 l -0.003,1 c -0.002,0.553 0.444,1 0.997,1.002 10e-4,0 0.002,0 0.003,0 0.551,0 0.998,-0.445 1,-0.996 l 0.003,-1 C 23.346,46.121 22.9,45.672 22.347,45.67 Z"
   id="path846"
   style="fill:#44dbff;fill-opacity:1" /><path
   id="path2"
   style="display:inline;fill:#ffd800;fill-opacity:1"
   d="M 25.597656 36.302734 L 22.082031 43.257812 L 28.433594 43.257812 L 24.261719 52.125 L 36.066406 41.058594 L 29.761719 41.064453 L 32.523438 36.302734 L 25.597656 36.302734 z " /><path
   id="path915"
   style="display:inline;fill:#ffffff;fill-opacity:1"
   d="M 36.238281 4.5664062 C 31.488286 4.5664063 27.351998 7.1465663 25.125 10.976562 C 23.833001 10.114563 22.28228 9.6113281 20.613281 9.6113281 C 16.119286 9.6113281 12.474609 13.253958 12.474609 17.751953 C 12.474609 17.765953 12.476562 17.778969 12.476562 17.792969 C 7.7335672 18.203968 4.0097656 22.175395 4.0097656 27.025391 C 4.0097656 32.148386 8.1631145 36.302734 13.287109 36.302734 L 25.597656 36.302734 L 32.523438 36.302734 L 36.400391 36.302734 L 43.402344 36.302734 C 48.525339 36.302734 52.679688 32.148386 52.679688 27.025391 C 52.679688 23.964394 51.190295 21.260311 48.904297 19.570312 C 49.023297 18.871313 49.097656 18.156827 49.097656 17.423828 C 49.097656 10.320835 43.342274 4.5664062 36.238281 4.5664062 z " />
</svg>
