<?xml version="1.0" encoding="UTF-8" standalone="no"?>
<!-- Generator: Adobe Illustrator 15.1.0, SVG Export Plug-In . SVG Version: 6.00 Build 0)  -->

<svg
   version="1.1"
   id="Layer_1"
   x="0px"
   y="0px"
   width="56.69px"
   height="56.69px"
   viewBox="0 0 56.69 56.69"
   enable-background="new 0 0 56.69 56.69"
   xml:space="preserve"
   sodipodi:docname="weather17.svg"
   inkscape:version="1.2.1 (9c6d41e410, 2022-07-14)"
   xmlns:inkscape="http://www.inkscape.org/namespaces/inkscape"
   xmlns:sodipodi="http://sodipodi.sourceforge.net/DTD/sodipodi-0.dtd"
   xmlns="http://www.w3.org/2000/svg"
   xmlns:svg="http://www.w3.org/2000/svg"><defs
   id="defs7" /><sodipodi:namedview
   id="namedview5"
   pagecolor="#ffffff"
   bordercolor="#000000"
   borderopacity="0.25"
   inkscape:showpageshadow="2"
   inkscape:pageopacity="0.0"
   inkscape:pagecheckerboard="0"
   inkscape:deskcolor="#d1d1d1"
   showgrid="false"
   inkscape:zoom="12.683013"
   inkscape:cx="28.305577"
   inkscape:cy="28.305577"
   inkscape:window-width="1920"
   inkscape:window-height="1046"
   inkscape:window-x="0"
   inkscape:window-y="34"
   inkscape:window-maximized="1"
   inkscape:current-layer="Layer_1" />
<path
   d="m 35.775,40.1 c -0.736,0 -1.334,0.596 -1.334,1.332 0,0.736 0.598,1.334 1.334,1.334 0.736,0 1.332,-0.598 1.332,-1.334 0,-0.736 -0.595,-1.332 -1.332,-1.332 z"
   id="path854"
   style="fill:#44dbff;fill-opacity:1" /><path
   d="m 42.539,46.926 c -1.104,0 -1.996,0.893 -1.996,1.996 0,1.103 0.893,1.996 1.996,1.996 1.103,0 1.996,-0.893 1.996,-1.996 0,-1.103 -0.892,-1.996 -1.996,-1.996 z"
   id="path852"
   style="fill:#44dbff;fill-opacity:1" /><path
   d="m 29.061,46.926 c -1.103,0 -1.996,0.893 -1.996,1.996 0,1.103 0.893,1.996 1.996,1.996 1.104,0 1.996,-0.893 1.996,-1.996 0,-1.103 -0.893,-1.996 -1.996,-1.996 z"
   id="path850"
   style="fill:#44dbff;fill-opacity:1" /><path
   d="m 22.358,40.1 c -0.736,0 -1.333,0.596 -1.333,1.332 0,0.736 0.597,1.334 1.333,1.334 0.736,0 1.333,-0.598 1.333,-1.334 0,-0.736 -0.597,-1.332 -1.333,-1.332 z"
   id="path848"
   style="fill:#44dbff;fill-opacity:1" /><path
   d="m 15.607,47.342 c -1.104,0 -1.996,0.893 -1.996,1.996 0,1.103 0.893,1.996 1.996,1.996 1.103,0 1.996,-0.893 1.996,-1.996 0,-1.103 -0.893,-1.996 -1.996,-1.996 z"
   id="path846"
   style="fill:#44dbff;fill-opacity:1" /><path
   d="m 52.68,27.817 c 0,5.123 -4.154,9.277 -9.277,9.277 H 13.289 c -5.124,0 -9.278,-4.154 -9.278,-9.277 0,-4.851 3.724,-8.822 8.467,-9.234 0,-0.014 -0.002,-0.027 -0.002,-0.041 0,-4.498 3.645,-8.141 8.139,-8.141 1.669,0 3.219,0.504 4.511,1.366 2.227,-3.83 6.364,-6.411 11.114,-6.411 7.104,0 12.859,5.754 12.859,12.857 0,0.734 -0.074,1.448 -0.193,2.148 2.285,1.689 3.774,4.394 3.774,7.456 z"
   id="path2"
   style="fill:#ffffff;fill-opacity:1" />
</svg>
