<?xml version="1.0" encoding="UTF-8" standalone="no"?>
<svg
   width="200"
   height="200"
   version="1.1"
   viewBox="0 0 200 200"
   id="svg149"
   sodipodi:docname="viewitem.svg"
   inkscape:version="1.2.1 (9c6d41e410, 2022-07-14)"
   xmlns:inkscape="http://www.inkscape.org/namespaces/inkscape"
   xmlns:sodipodi="http://sodipodi.sourceforge.net/DTD/sodipodi-0.dtd"
   xmlns="http://www.w3.org/2000/svg"
   xmlns:svg="http://www.w3.org/2000/svg">
  <defs
     id="defs153" />
  <sodipodi:namedview
     id="namedview151"
     pagecolor="#ffffff"
     bordercolor="#000000"
     borderopacity="0.25"
     inkscape:showpageshadow="2"
     inkscape:pageopacity="0.0"
     inkscape:pagecheckerboard="0"
     inkscape:deskcolor="#d1d1d1"
     showgrid="false"
     inkscape:zoom="5.0840978"
     inkscape:cx="90.478197"
     inkscape:cy="94.805416"
     inkscape:window-width="1920"
     inkscape:window-height="1046"
     inkscape:window-x="0"
     inkscape:window-y="34"
     inkscape:window-maximized="1"
     inkscape:current-layer="svg149" />
  <g
     id="g43"
     style="fill:#c91d18;fill-opacity:1">
    <rect
       id="selected-center"
       x="86"
       y="21"
       width="48"
       height="48"
       style="fill:#c91d18;fill-opacity:1" />
    <g
       id="selected-topleft"
       style="fill:#c91d18;fill-opacity:1">
      <path
         d="m85 17c-1.662 0-3 1.338-3 3v1h1v-1c0-1.108 0.892-2 2-2h1v-1z"
         id="path3"
         style="fill:#c91d18;fill-opacity:1" />
      <path
         d="m85 18c-1.108 0-2 0.892-2 2v1h3v-3z"
         id="path5"
         style="fill:#c91d18;fill-opacity:1" />
    </g>
    <g
       id="selected-top"
       style="fill:#c91d18;fill-opacity:1">
      <rect
         x="86"
         y="17"
         width="48"
         height="1"
         id="rect8"
         style="fill:#c91d18;fill-opacity:1" />
      <rect
         x="86"
         y="18"
         width="48"
         height="3"
         id="rect10"
         style="fill:#c91d18;fill-opacity:1" />
    </g>
    <g
       id="selected-topright"
       style="fill:#c91d18;fill-opacity:1">
      <path
         d="m138 20c0-1.662-1.338-3-3-3h-1v1h1c1.108 0 2 0.892 2 2v1h1z"
         id="path13"
         style="fill:#c91d18;fill-opacity:1" />
      <path
         d="m137 20c0-1.108-0.892-2-2-2h-1v3h3z"
         id="path15"
         style="fill:#c91d18;fill-opacity:1" />
    </g>
    <g
       id="selected-right"
       style="fill:#c91d18;fill-opacity:1">
      <rect
         transform="rotate(90)"
         x="21"
         y="-138"
         width="48"
         height="1"
         id="rect18"
         style="fill:#c91d18;fill-opacity:1" />
      <rect
         transform="rotate(90)"
         x="21"
         y="-137"
         width="48"
         height="3"
         id="rect20"
         style="fill:#c91d18;fill-opacity:1" />
    </g>
    <g
       id="selected-bottomright"
       style="fill:#c91d18;fill-opacity:1">
      <path
         d="m135 73c1.662 0 3-1.338 3-3v-1h-1v1c0 1.108-0.892 2-2 2h-1v1z"
         id="path23"
         style="fill:#c91d18;fill-opacity:1" />
      <path
         d="m135 72c1.108 0 2-0.892 2-2v-1h-3v3z"
         id="path25"
         style="fill:#c91d18;fill-opacity:1" />
    </g>
    <g
       id="selected-bottom"
       style="fill:#c91d18;fill-opacity:1">
      <rect
         transform="scale(-1)"
         x="-134"
         y="-72"
         width="48"
         height="3"
         id="rect28"
         style="fill:#c91d18;fill-opacity:1" />
      <rect
         transform="scale(-1)"
         x="-134"
         y="-73"
         width="48"
         height="1"
         id="rect30"
         style="fill:#c91d18;fill-opacity:1" />
    </g>
    <g
       id="selected-bottomleft"
       style="fill:#c91d18;fill-opacity:1">
      <path
         d="m82 70c0 1.662 1.338 3 3 3h1v-1h-1c-1.108 0-2-0.892-2-2v-1h-1z"
         id="path33"
         style="fill:#c91d18;fill-opacity:1" />
      <path
         d="m83 70c0 1.108 0.892 2 2 2h1v-3h-3z"
         id="path35"
         style="fill:#c91d18;fill-opacity:1" />
    </g>
    <g
       id="selected-left"
       style="fill:#c91d18;fill-opacity:1">
      <rect
         transform="rotate(-90)"
         x="-69"
         y="83"
         width="48"
         height="3"
         id="rect38"
         style="fill:#c91d18;fill-opacity:1" />
      <rect
         transform="rotate(-90)"
         x="-69"
         y="82"
         width="48"
         height="1"
         id="rect40"
         style="fill:#c91d18;fill-opacity:1" />
    </g>
  </g>
  <g
     id="g86"
     style="fill:#c91d18;fill-opacity:1">
    <rect
       id="selected+hover-center"
       x="86"
       y="86"
       width="48"
       height="48"
       opacity=".28"
       style="fill:#c91d18;fill-opacity:1;opacity:1" />
    <g
       id="selected+hover-topleft"
       transform="translate(-65,65)"
       style="fill:#c91d18;fill-opacity:1">
      <path
         d="m150 17c-1.662 0-3 1.338-3 3v1h1v-1c0-1.108 0.892-2 2-2h1v-1z"
         id="path46"
         style="fill:#c91d18;fill-opacity:1" />
      <path
         d="m150 18c-1.108 0-2 0.892-2 2v1h3v-3z"
         opacity=".28"
         id="path48"
         style="fill:#c91d18;fill-opacity:1" />
    </g>
    <g
       id="selected+hover-top"
       transform="translate(-65,65)"
       style="fill:#c91d18;fill-opacity:1">
      <rect
         x="151"
         y="17"
         width="48"
         height="1"
         id="rect51"
         style="fill:#c91d18;fill-opacity:1" />
      <rect
         x="151"
         y="18"
         width="48"
         height="3"
         opacity=".28"
         id="rect53"
         style="fill:#c91d18;fill-opacity:1" />
    </g>
    <g
       id="selected+hover-topright"
       transform="translate(-65,65)"
       style="fill:#c91d18;fill-opacity:1">
      <path
         d="m203 20c0-1.662-1.338-3-3-3h-1v1h1c1.108 0 2 0.892 2 2v1h1z"
         id="path56"
         style="fill:#c91d18;fill-opacity:1" />
      <path
         d="m202 20c0-1.108-0.892-2-2-2h-1v3h3z"
         opacity=".28"
         id="path58"
         style="fill:#c91d18;fill-opacity:1" />
    </g>
    <g
       id="selected+hover-right"
       transform="translate(-65,65)"
       style="fill:#c91d18;fill-opacity:1">
      <rect
         transform="rotate(90)"
         x="21"
         y="-203"
         width="48"
         height="1"
         id="rect61"
         style="fill:#c91d18;fill-opacity:1" />
      <rect
         transform="rotate(90)"
         x="21"
         y="-202"
         width="48"
         height="3"
         id="rect63"
         style="fill:#c91d18;fill-opacity:1" />
    </g>
    <g
       id="selected+hover-bottomright"
       transform="translate(-65,65)"
       style="fill:#c91d18;fill-opacity:1">
      <path
         d="m200 73c1.662 0 3-1.338 3-3v-1h-1v1c0 1.108-0.892 2-2 2h-1v1z"
         id="path66"
         style="fill:#c91d18;fill-opacity:1" />
      <path
         d="m200 72c1.108 0 2-0.892 2-2v-1h-3v3z"
         id="path68"
         style="fill:#c91d18;fill-opacity:1" />
    </g>
    <g
       id="selected+hover-bottom"
       transform="translate(-65,65)"
       style="fill:#c91d18;fill-opacity:1">
      <rect
         transform="scale(-1)"
         x="-199"
         y="-72"
         width="48"
         height="3"
         id="rect71"
         style="fill:#c91d18;fill-opacity:1" />
      <rect
         transform="scale(-1)"
         x="-199"
         y="-73"
         width="48"
         height="1"
         id="rect73"
         style="fill:#c91d18;fill-opacity:1" />
    </g>
    <g
       id="selected+hover-bottomleft"
       transform="translate(-65,65)"
       style="fill:#c91d18;fill-opacity:1">
      <path
         d="m147 70c0 1.662 1.338 3 3 3h1v-1h-1c-1.108 0-2-0.892-2-2v-1h-1z"
         id="path76"
         style="fill:#c91d18;fill-opacity:1" />
      <path
         d="m148 70c0 1.108 0.892 2 2 2h1v-3h-3z"
         id="path78"
         style="fill:#c91d18;fill-opacity:1" />
    </g>
    <g
       id="selected+hover-left"
       transform="translate(-65,65)"
       style="fill:#c91d18;fill-opacity:1">
      <rect
         transform="rotate(-90)"
         x="-69"
         y="148"
         width="48"
         height="3"
         id="rect81"
         style="fill:#c91d18;fill-opacity:1" />
      <rect
         transform="rotate(-90)"
         x="-69"
         y="147"
         width="48"
         height="1"
         id="rect83"
         style="fill:#c91d18;fill-opacity:1" />
    </g>
  </g>
  <g
     id="g129"
     style="fill:#c91d18;fill-opacity:1;opacity:1;stroke:none;stroke-opacity:1">
    <rect
       id="hover-center"
       x="21"
       y="86"
       width="48"
       height="48"
       style="fill:#c91d18;fill-opacity:1;stroke:none;stroke-opacity:1;opacity:1" />
    <g
       id="hover-topleft"
       transform="translate(-65,65)"
       style="fill:#c91d18;fill-opacity:1;stroke:none;stroke-opacity:1">
      <path
         d="m85 17c-1.662 0-3 1.338-3 3v1h1v-1c0-1.108 0.892-2 2-2h1v-1z"
         id="path89"
         style="fill:#c91d18;fill-opacity:1;stroke:none;stroke-opacity:1" />
      <path
         d="m85 18c-1.108 0-2 0.892-2 2v1h3v-3z"
         id="path91"
         style="fill:#c91d18;fill-opacity:1;stroke:none;stroke-opacity:1" />
    </g>
    <g
       id="hover-top"
       transform="translate(-65,65)"
       style="fill:#c91d18;fill-opacity:1;stroke:none;stroke-opacity:1">
      <rect
         x="86"
         y="17"
         width="48"
         height="1"
         id="rect94"
         style="fill:#c91d18;fill-opacity:1;stroke:none;stroke-opacity:1" />
      <rect
         x="86"
         y="18"
         width="48"
         height="3"
         id="rect96"
         style="fill:#c91d18;fill-opacity:1;stroke:none;stroke-opacity:1" />
    </g>
    <g
       id="hover-topright"
       transform="translate(-65,65)"
       style="fill:#c91d18;fill-opacity:1;stroke:none;stroke-opacity:1">
      <path
         d="m138 20c0-1.662-1.338-3-3-3h-1v1h1c1.108 0 2 0.892 2 2v1h1z"
         id="path99"
         style="fill:#c91d18;fill-opacity:1;stroke:none;stroke-opacity:1" />
      <path
         d="m137 20c0-1.108-0.892-2-2-2h-1v3h3z"
         id="path101"
         style="fill:#c91d18;fill-opacity:1;stroke:none;stroke-opacity:1" />
    </g>
    <g
       id="hover-right"
       transform="translate(-65,65)"
       style="fill:#c91d18;fill-opacity:1;stroke:none;stroke-opacity:1">
      <rect
         transform="rotate(90)"
         x="21"
         y="-138"
         width="48"
         height="1"
         id="rect104"
         style="fill:#c91d18;fill-opacity:1;stroke:none;stroke-opacity:1" />
      <rect
         transform="rotate(90)"
         x="21"
         y="-137"
         width="48"
         height="3"
         id="rect106"
         style="fill:#c91d18;fill-opacity:1;stroke:none;stroke-opacity:1" />
    </g>
    <g
       id="hover-bottomright"
       transform="translate(-65,65)"
       style="fill:#c91d18;fill-opacity:1;stroke:none;stroke-opacity:1">
      <path
         d="m135 73c1.662 0 3-1.338 3-3v-1h-1v1c0 1.108-0.892 2-2 2h-1v1z"
         id="path109"
         style="fill:#c91d18;fill-opacity:1;stroke:none;stroke-opacity:1" />
      <path
         d="m135 72c1.108 0 2-0.892 2-2v-1h-3v3z"
         id="path111"
         style="fill:#c91d18;fill-opacity:1;stroke:none;stroke-opacity:1" />
    </g>
    <g
       id="hover-bottom"
       transform="translate(-65,65)"
       style="fill:#c91d18;fill-opacity:1;stroke:none;stroke-opacity:1">
      <rect
         transform="scale(-1)"
         x="-134"
         y="-72"
         width="48"
         height="3"
         id="rect114"
         style="fill:#c91d18;fill-opacity:1;stroke:none;stroke-opacity:1" />
      <rect
         transform="scale(-1)"
         x="-134"
         y="-73"
         width="48"
         height="1"
         id="rect116"
         style="fill:#c91d18;fill-opacity:1;stroke:none;stroke-opacity:1" />
    </g>
    <g
       id="hover-bottomleft"
       transform="translate(-65,65)"
       style="fill:#c91d18;fill-opacity:1;stroke:none;stroke-opacity:1">
      <path
         d="m82 70c0 1.662 1.338 3 3 3h1v-1h-1c-1.108 0-2-0.892-2-2v-1h-1z"
         id="path119"
         style="fill:#c91d18;fill-opacity:1;stroke:none;stroke-opacity:1" />
      <path
         d="m83 70c0 1.108 0.892 2 2 2h1v-3h-3z"
         id="path121"
         style="fill:#c91d18;fill-opacity:1;stroke:none;stroke-opacity:1" />
    </g>
    <g
       id="hover-left"
       transform="translate(-65,65)"
       style="fill:#c91d18;fill-opacity:1;stroke:none;stroke-opacity:1">
      <rect
         transform="rotate(-90)"
         x="-69"
         y="83"
         width="48"
         height="3"
         id="rect124"
         style="fill:#c91d18;fill-opacity:1;stroke:none;stroke-opacity:1" />
      <rect
         transform="rotate(-90)"
         x="-69"
         y="82"
         width="48"
         height="1"
         id="rect126"
         style="fill:#c91d18;fill-opacity:1;stroke:none;stroke-opacity:1" />
    </g>
  </g>
  <rect
     id="normal-center"
     x="21"
     y="21"
     width="48"
     height="48"
     opacity="0"
     stroke-width="5.0596" />
  <rect
     id="normal-topleft"
     x="17"
     y="17"
     width="4"
     height="4"
     opacity="0"
     stroke-width=".8" />
  <rect
     id="normal-topright"
     x="69"
     y="17"
     width="4"
     height="4"
     opacity="0"
     stroke-width=".8" />
  <rect
     id="normal-bottomright"
     x="69"
     y="69"
     width="4"
     height="4"
     opacity="0"
     stroke-width=".8" />
  <rect
     id="normal-bottomleft"
     x="17"
     y="69"
     width="4"
     height="4"
     opacity="0"
     stroke-width=".8" />
  <rect
     id="normal-top"
     x="21"
     y="17"
     width="48"
     height="4"
     opacity="0" />
  <rect
     id="normal-right"
     x="69"
     y="21"
     width="4"
     height="48"
     opacity="0" />
  <rect
     id="normal-bottom"
     x="21"
     y="69"
     width="48"
     height="4"
     opacity="0" />
  <rect
     id="normal-left"
     x="17"
     y="21"
     width="4"
     height="48"
     opacity="0" />
  <g
     transform="translate(0 -922.52)"
     id="g141">
    <rect
       id="hint-tile-center"
       y="922.52"
       width="10"
       height="10"
       ry="0"
       fill="#f0f" />
  </g>
  <g
     id="g147">
    <path
       d="m-6-4c-1.662 0-3 1.338-3 3v1h4v-4z"
       fill="#00f"
       id="path143" />
    <path
       d="m-6-3c-1.108 0-2 0.892-2 2v1h3v-3z"
       fill="#f0f"
       id="path145" />
  </g>
</svg>
