<?xml version="1.0" encoding="UTF-8" standalone="no"?>
<svg
   width="32"
   height="32"
   version="1.1"
   id="svg60"
   sodipodi:docname="audio.svg"
   inkscape:version="1.2.1 (9c6d41e410, 2022-07-14)"
   xmlns:inkscape="http://www.inkscape.org/namespaces/inkscape"
   xmlns:sodipodi="http://sodipodi.sourceforge.net/DTD/sodipodi-0.dtd"
   xmlns="http://www.w3.org/2000/svg"
   xmlns:svg="http://www.w3.org/2000/svg">
  <defs
     id="defs64" />
  <sodipodi:namedview
     id="namedview62"
     pagecolor="#ffffff"
     bordercolor="#000000"
     borderopacity="0.25"
     inkscape:showpageshadow="2"
     inkscape:pageopacity="0.0"
     inkscape:pagecheckerboard="0"
     inkscape:deskcolor="#d1d1d1"
     showgrid="false"
     inkscape:zoom="4.1376795"
     inkscape:cx="-32.385302"
     inkscape:cy="41.810875"
     inkscape:window-width="1920"
     inkscape:window-height="1046"
     inkscape:window-x="0"
     inkscape:window-y="34"
     inkscape:window-maximized="1"
     inkscape:current-layer="svg60" />
  <g
     id="22-22-audio-radio-symbolic"
     transform="translate(-5.0000007,58.999996)"
     style="fill:#383e43;fill-opacity:1">
    <rect
       style="opacity:0.001;fill:#383e43;fill-opacity:1"
       width="22"
       height="22"
       x="5"
       y="5"
       id="rect2" />
    <path
       style="fill:#383e43;fill-opacity:1"
       d="M 11.984375,6.9921855 C 11.432083,7.0007855 10.991355,7.4555205 11,8.0078105 v 3.0000005 h -1 c -1.108,0 -2,0.892 -2,2 V 22 c 0,1.108 0.892,2 2,2 h 12 c 1.108,0 2,-0.892 2,-2 v -8.992189 c 0,-1.108 -0.898672,-2.121413 -2,-2 H 13 V 8.0078105 c 0.0088,-0.56453 -0.45109,-1.024455 -1.015625,-1.015625 z M 10,13.007811 H 22 V 22 H 10 Z m 3.5,1.992188 A 2.5,2.5 0 0 0 11,17.5 2.5,2.5 0 0 0 13.5,20 2.5,2.5 0 0 0 16,17.5 2.5,2.5 0 0 0 13.5,14.999999 Z m 4,0 a 0.50005,0.50005 0 1 0 0,1 h 3 a 0.50005,0.50005 0 1 0 0,-1 z M 17.5,17 a 0.50005,0.50005 0 1 0 0,1 h 3 a 0.50005,0.50005 0 1 0 0,-1 z m 0,2 a 0.50005,0.50005 0 1 0 0,1 h 3 a 0.50005,0.50005 0 1 0 0,-1 z"
       id="path4" />
  </g>
  <g
     id="audio-radio-symbolic"
     transform="translate(-1.8179997e-7,31.999996)"
     style="fill:#383e43;fill-opacity:1">
    <rect
       style="opacity:0.001;fill:#383e43;fill-opacity:1"
       width="32"
       height="32"
       x="0"
       y="0"
       id="rect7" />
    <path
       style="fill:#383e43;fill-opacity:1"
       d="M 9.4765625,2.9785156 A 1.50015,1.50015 0 0 0 8,4.5 V 10 H 7 c -1.662,0 -3,1.338 -3,3 v 12 c 0,1.662 1.338,3 3,3 h 18 c 1.662,0 3,-1.338 3,-3 V 13 c 0,-1.662 -1.338,-3 -3,-3 H 11 V 4.5 A 1.50015,1.50015 0 0 0 9.4765625,2.9785156 Z M 7,13 H 25 V 25 H 7 Z m 5,2 a 4,4 0 0 0 -4,4 4,4 0 0 0 4,4 4,4 0 0 0 4,-4 4,4 0 0 0 -4,-4 z m 6,0 a 1.0001,1.0001 0 1 0 0,2 h 4 a 1.0001,1.0001 0 1 0 0,-2 z m 0,3 a 1.0001,1.0001 0 1 0 0,2 h 4 a 1.0001,1.0001 0 1 0 0,-2 z m 0,3 a 1.0001,1.0001 0 1 0 0,2 h 4 a 1.0001,1.0001 0 1 0 0,-2 z"
       id="path9" />
  </g>
  <g
     id="audio-volume-low"
     transform="translate(64)"
     style="fill:#383e43;fill-opacity:1">
    <rect
       style="opacity:0.001;fill:#383e43;fill-opacity:1"
       width="32"
       height="32"
       x="0"
       y="0"
       id="rect12" />
    <path
       style="fill:#383e43;fill-opacity:1"
       d="M 9.8183594,8 6.6445312,12 H 4 v 8 h 2.6445312 l 3.1738282,4 H 12 V 8 Z M 16.230469,10.544922 14,12.726562 c 1.847388,1.80744 1.847388,4.739436 0,6.546876 l 2.230469,2.18164 c 3.078952,-3.012502 3.078952,-7.897654 0,-10.910156 z"
       id="path14" />
    <path
       style="opacity:0.3;fill:#383e43;fill-opacity:1"
       d="m 22.919922,4 -2.230469,2.1816406 c 5.542005,5.4224034 5.542005,14.2143224 0,19.6367184 L 22.919922,28 c 6.773649,-6.627459 6.773649,-17.372588 0,-24 z m -3.345703,3.2734375 -2.228516,2.1816406 c 3.694696,3.6149489 3.694696,9.4748879 0,13.0898439 l 2.228516,2.18164 c 4.926262,-4.819942 4.926262,-12.633167 0,-17.4531245 z"
       id="path16" />
  </g>
  <g
     id="22-22-audio-volume-medium"
     transform="translate(17,-27)"
     style="fill:#383e43;fill-opacity:1">
    <rect
       style="opacity:0.001;fill:#383e43;fill-opacity:1"
       width="22"
       height="22"
       x="5"
       y="5"
       id="rect19" />
    <path
       style="fill:#383e43;fill-opacity:1"
       transform="translate(-25,31)"
       d="m 37.363281,-21 -2.378906,3 H 33 v 6 h 1.984375 l 2.378906,3 H 39 v -12 z m 6.220703,0.181641 -1.433593,1.455078 c 2.375162,2.409965 2.375162,6.316591 0,8.726562 l 1.433593,1.4550784 c 3.166883,-3.2132944 3.166883,-8.4234134 0,-11.6367184 z m -2.15039,2.18164 L 40,-17.181641 c 1.187606,1.20496 1.187606,3.158322 0,4.363282 l 1.433594,1.455078 c 1.979327,-2.008335 1.979327,-5.265103 0,-7.273438 z"
       id="path21" />
    <path
       style="opacity:0.3;fill:#383e43;fill-opacity:1"
       d="m 19.300613,22.545419 c 3.562717,-3.614931 3.562717,-9.475938 0,-13.090874 L 20.734133,8 c 4.354489,4.418275 4.354489,11.581694 0,16 z"
       id="path23" />
  </g>
  <g
     id="22-22-audio-volume-low"
     transform="translate(39,-27)"
     style="fill:#383e43;fill-opacity:1">
    <rect
       style="opacity:0.001;fill:#383e43;fill-opacity:1"
       width="22"
       height="22"
       x="5"
       y="5"
       id="rect26" />
    <path
       style="fill:#383e43;fill-opacity:1"
       transform="translate(-3,31)"
       d="m 15.363281,-21 -2.378906,3 H 11 v 6 h 1.984375 l 2.378906,3 H 17 v -12 z m 4.070313,2.363281 L 18,-17.181641 c 1.187606,1.20496 1.187606,3.158322 0,4.363282 l 1.433594,1.455078 c 1.979327,-2.008335 1.979327,-5.265103 0,-7.273438 z"
       id="path28" />
    <path
       style="opacity:0.3;fill:#383e43;fill-opacity:1"
       transform="translate(-3,31)"
       d="m 23.734375,-23 -1.433594,1.455078 c 3.562717,3.614936 3.562717,9.474913 0,13.0898439 L 23.734375,-7 c 4.354489,-4.418306 4.354489,-11.581725 0,-16 z m -2.150391,2.181641 -1.433593,1.455078 c 2.375162,2.409965 2.375162,6.316591 0,8.726562 l 1.433593,1.4550784 c 3.166883,-3.2132944 3.166883,-8.4234134 0,-11.6367184 z"
       id="path30" />
  </g>
  <g
     id="22-22-audio-volume-high"
     transform="translate(-5,-27)"
     style="fill:#383e43;fill-opacity:1">
    <rect
       style="opacity:0.001;fill:#383e43;fill-opacity:1"
       width="22"
       height="22"
       x="5"
       y="5"
       id="rect33" />
    <path
       style="fill:#383e43;fill-opacity:1"
       transform="translate(-47,31)"
       d="m 67.734375,-23 -1.433594,1.455078 c 3.562717,3.614936 3.562717,9.474913 0,13.0898439 L 67.734375,-7 c 4.354489,-4.418306 4.354489,-11.581725 0,-16 z m -8.371094,2 -2.378906,3 H 55 v 6 h 1.984375 l 2.378906,3 H 61 v -12 z m 6.220703,0.181641 -1.433593,1.455078 c 2.375162,2.409965 2.375162,6.316591 0,8.726562 l 1.433593,1.4550784 c 3.166883,-3.2132944 3.166883,-8.4234134 0,-11.6367184 z m -2.15039,2.18164 L 62,-17.181641 c 1.187606,1.20496 1.187606,3.158322 0,4.363282 l 1.433594,1.455078 c 1.979327,-2.008335 1.979327,-5.265103 0,-7.273438 z"
       id="path35" />
  </g>
  <g
     id="22-22-audio-volume-muted"
     transform="translate(61,-27)"
     style="fill:#383e43;fill-opacity:1">
    <rect
       style="opacity:0.001;fill:#383e43;fill-opacity:1"
       width="22"
       height="22"
       x="5"
       y="5"
       id="rect38" />
    <path
       style="opacity:0.3;fill:#383e43;fill-opacity:1"
       d="M 12.363281,10 9.984375,13 H 8 v 6 h 1.984375 l 2.378906,3 H 14 V 10 Z M 17.011719,11.5 15.5,13.011719 18.488281,16 15.5,18.988281 17.011719,20.5 20,17.513672 22.988281,20.5 24.5,18.988281 21.511719,16 24.5,13.011719 22.988281,11.5 20,14.488281 Z"
       id="path40" />
  </g>
  <g
     id="audio-volume-medium"
     transform="translate(32)"
     style="fill:#383e43;fill-opacity:1">
    <rect
       style="opacity:0.001;fill:#383e43;fill-opacity:1"
       width="32"
       height="32"
       x="0"
       y="0"
       id="rect43" />
    <path
       style="fill:#383e43;fill-opacity:1"
       transform="translate(-32)"
       d="m 51.574219,7.2734375 -2.228516,2.1816406 c 3.694696,3.6149489 3.694696,9.4748879 0,13.0898439 l 2.228516,2.18164 c 4.926262,-4.819942 4.926262,-12.633167 0,-17.4531245 z M 41.818359,8 38.644531,12 H 36 v 8 h 2.644531 l 3.173828,4 H 44 V 8 Z m 6.41211,2.544922 L 46,12.726562 c 1.847388,1.80744 1.847388,4.739436 0,6.546876 l 2.230469,2.18164 c 3.078952,-3.012502 3.078952,-7.897654 0,-10.910156 z"
       id="path45" />
    <path
       style="opacity:0.3;fill:#383e43;fill-opacity:1"
       d="m 20.689842,25.818128 c 5.542005,-5.422396 5.542005,-14.213907 0,-19.6363105 L 22.919763,4 c 6.773649,6.627412 6.773649,17.372541 0,24 z"
       id="path47" />
  </g>
  <g
     id="audio-volume-high"
     style="fill:#383e43;fill-opacity:1">
    <rect
       style="opacity:0.001;fill:#383e43;fill-opacity:1"
       width="32"
       height="32"
       x="0"
       y="0"
       id="rect50" />
    <path
       style="fill:#383e43;fill-opacity:1"
       transform="translate(-64)"
       d="m 86.919922,4 -2.230469,2.1816406 c 5.542005,5.4224034 5.542005,14.2143224 0,19.6367184 L 86.919922,28 c 6.773649,-6.627459 6.773649,-17.372588 0,-24 z m -3.345703,3.2734375 -2.228516,2.1816406 c 3.694696,3.6149489 3.694696,9.4748879 0,13.0898439 l 2.228516,2.18164 c 4.926262,-4.819942 4.926262,-12.633167 0,-17.4531245 z M 73.818359,8 70.644531,12 H 68 v 8 h 2.644531 l 3.173828,4 H 76 V 8 Z m 6.41211,2.544922 L 78,12.726562 c 1.847388,1.80744 1.847388,4.739436 0,6.546876 l 2.230469,2.18164 c 3.078952,-3.012502 3.078952,-7.897654 0,-10.910156 z"
       id="path52" />
  </g>
  <g
     id="audio-volume-muted"
     transform="translate(96)"
     style="fill:#383e43;fill-opacity:1">
    <rect
       style="opacity:0.001;fill:#383e43;fill-opacity:1"
       width="32"
       height="32"
       x="0"
       y="0"
       id="rect55" />
    <path
       style="opacity:0.3;fill:#383e43;fill-opacity:1"
       d="M 9.8183594,8 6.6445312,12 H 4 v 8 h 2.6445312 l 3.1738282,4 H 12 V 8 Z M 17.017578,10 15,12.017578 18.982422,16 15,19.982422 17.017578,22 21,18.017578 24.982422,22 27,19.982422 23.017578,16 27,12.017578 24.982422,10 21,13.982422 Z"
       id="path57" />
  </g>
</svg>
