<?xml version="1.0" encoding="UTF-8" standalone="no"?>
<svg
   width="32"
   height="32"
   version="1.1"
   id="svg12"
   sodipodi:docname="configure.svg"
   inkscape:version="1.2.1 (9c6d41e410, 2022-07-14)"
   xmlns:inkscape="http://www.inkscape.org/namespaces/inkscape"
   xmlns:sodipodi="http://sodipodi.sourceforge.net/DTD/sodipodi-0.dtd"
   xmlns="http://www.w3.org/2000/svg"
   xmlns:svg="http://www.w3.org/2000/svg">
  <defs
     id="defs16" />
  <sodipodi:namedview
     id="namedview14"
     pagecolor="#ffffff"
     bordercolor="#000000"
     borderopacity="0.25"
     inkscape:showpageshadow="2"
     inkscape:pageopacity="0.0"
     inkscape:pagecheckerboard="0"
     inkscape:deskcolor="#d1d1d1"
     showgrid="false"
     inkscape:zoom="3.9719514"
     inkscape:cx="8.9376723"
     inkscape:cy="27.190665"
     inkscape:window-width="1920"
     inkscape:window-height="1046"
     inkscape:window-x="0"
     inkscape:window-y="34"
     inkscape:window-maximized="1"
     inkscape:current-layer="svg12" />
  <g
     id="22-22-configure"
     transform="translate(32,10)"
     style="fill:#383e43;fill-opacity:1">
    <rect
       style="opacity:0.001;fill:#383e43;fill-opacity:1"
       width="22"
       height="22"
       x="0"
       y="0"
       id="rect2" />
    <path
       style="fill:#383e43;fill-opacity:1"
       d="M 8.9824219,3 8.8046875,5.1074219 a 6.3423397,6.2857118 0 0 0 -1.8535156,1.0625 L 5.0175781,5.2675781 3,8.7324219 4.7539062,9.9394531 A 6.3423397,6.2857118 0 0 0 4.6582031,11 6.3423397,6.2857118 0 0 0 4.75,12.064453 L 3,13.267578 5.0175781,16.732422 6.9453125,15.832031 a 6.3423397,6.2857118 0 0 0 1.859375,1.056641 L 8.9824219,19 h 4.0351561 l 0.177734,-2.107422 a 6.3423397,6.2857118 0 0 0 1.853516,-1.0625 L 16.982422,16.732422 19,13.267578 17.246094,12.060547 A 6.3423397,6.2857118 0 0 0 17.341797,11 6.3423397,6.2857118 0 0 0 17.25,9.9355469 L 19,8.7324219 16.982422,5.2675781 15.054688,6.1679688 A 6.3423397,6.2857118 0 0 0 13.195312,5.1113281 L 13.017578,3 Z M 11,8 a 3.0000004,2.9999999 0 0 1 3,3 3.0000004,2.9999999 0 0 1 -3,3 3.0000004,2.9999999 0 0 1 -3,-3 3.0000004,2.9999999 0 0 1 3,-3 z"
       id="path4" />
  </g>
  <g
     id="configure"
     style="fill:#383e43;fill-opacity:1">
    <rect
       style="opacity:0.001;fill:#383e43;fill-opacity:1"
       width="32"
       height="32"
       x="0"
       y="0"
       id="rect7" />
    <path
       style="fill:#383e43;fill-opacity:1"
       d="M 12.974609 4 L 12.707031 7.1621094 A 9.5135098 9.4285679 0 0 0 9.9277344 8.7558594 L 7.0273438 7.4023438 L 4 12.599609 L 6.6308594 14.410156 A 9.5135098 9.4285679 0 0 0 6.4882812 16 A 9.5135098 9.4285679 0 0 0 6.625 17.597656 L 4 19.400391 L 7.0273438 24.599609 L 9.9179688 23.248047 A 9.5135098 9.4285679 0 0 0 12.707031 24.833984 L 12.974609 28 L 19.027344 28 L 19.292969 24.837891 A 9.5135098 9.4285679 0 0 0 22.074219 23.246094 L 24.974609 24.599609 L 28 19.400391 L 25.369141 17.589844 A 9.5135098 9.4285679 0 0 0 25.513672 16 A 9.5135098 9.4285679 0 0 0 25.375 14.404297 L 28 12.599609 L 24.974609 7.4023438 L 22.082031 8.7519531 A 9.5135098 9.4285679 0 0 0 19.292969 7.1679688 L 19.027344 4 L 12.974609 4 z M 16 11 A 5.0000008 5 0 0 1 21 16 A 5.0000008 5 0 0 1 16 21 A 5.0000008 5 0 0 1 11 16 A 5.0000008 5 0 0 1 16 11 z"
       id="path9" />
  </g>
</svg>
