<?xml version="1.0" encoding="UTF-8" standalone="no"?>
<svg
   width="32"
   height="32"
   version="1.1"
   id="svg24509"
   sodipodi:docname="disk.svg"
   inkscape:version="1.2.1 (9c6d41e410, 2022-07-14)"
   xmlns:inkscape="http://www.inkscape.org/namespaces/inkscape"
   xmlns:sodipodi="http://sodipodi.sourceforge.net/DTD/sodipodi-0.dtd"
   xmlns="http://www.w3.org/2000/svg"
   xmlns:svg="http://www.w3.org/2000/svg">
  <defs
     id="defs24513" />
  <sodipodi:namedview
     id="namedview24511"
     pagecolor="#ffffff"
     bordercolor="#000000"
     borderopacity="0.25"
     inkscape:showpageshadow="2"
     inkscape:pageopacity="0.0"
     inkscape:pagecheckerboard="0"
     inkscape:deskcolor="#d1d1d1"
     showgrid="false"
     showguides="true"
     inkscape:zoom="4.4359902"
     inkscape:cx="75.856795"
     inkscape:cy="-28.854888"
     inkscape:window-width="1920"
     inkscape:window-height="1046"
     inkscape:window-x="0"
     inkscape:window-y="34"
     inkscape:window-maximized="1"
     inkscape:current-layer="22-22-disk-quota-critical">
    <sodipodi:guide
       position="11,51"
       orientation="0,-1"
       id="guide26010"
       inkscape:locked="false" />
    <sodipodi:guide
       position="1.3169695,35.872074"
       orientation="0,-1"
       id="guide26012"
       inkscape:locked="false" />
  </sodipodi:namedview>
  <g
     id="disk-quota"
     transform="translate(-87,93)"
     style="fill:#383e43;fill-opacity:1">
    <rect
       style="opacity:0.001;fill:#383e43;fill-opacity:1"
       width="32"
       height="32"
       x="87"
       y="-93"
       id="rect24455" />
    <path
       style="fill:#383e43;fill-opacity:1"
       d="M 93.066406,-89 89,-76 h 28 l -4.06641,-13 z M 113,-74 c -2.20822,0 -3.99871,0.639083 -4,1.427734 v 7.144532 c 0.001,0.788651 1.79178,1.427734 4,1.427734 2.20822,0 3.99871,-0.639083 4,-1.427734 v -7.144532 C 116.99871,-73.360917 115.20822,-74 113,-74 Z m -0.13672,1.029297 c 0.0456,-2.2e-4 0.0911,-2.2e-4 0.13672,0 1.10832,9.37e-4 2.17656,0.131685 3,0.367187 v 0.695313 c -0.82435,0.234793 -1.8925,0.364833 -3,0.365234 -1.10913,-0.0015 -2.17747,-0.132929 -3,-0.36914 v -0.69336 c 0.789,-0.225072 1.80309,-0.354426 2.86328,-0.365234 z M 89,-72 v 7 h 18 v -7 z m 21,2.005859 c 0.82435,0.234793 1.8925,0.364834 3,0.365235 1.1075,-4.01e-4 2.17565,-0.130442 3,-0.365235 v 1.427735 c -0.82344,0.235502 -1.89168,0.36625 -3,0.367187 -1.10913,-0.0015 -2.17747,-0.132929 -3,-0.36914 z m 0,3.199219 c 0.82344,0.235502 1.89168,0.366251 3,0.367188 1.10832,-9.37e-4 2.17656,-0.131686 3,-0.367188 v 1.429688 c -0.82435,0.234793 -1.8925,0.364833 -3,0.365234 -1.10913,-0.0015 -2.17747,-0.13293 -3,-0.369141 z"
       id="path24457" />
  </g>
  <g
     id="22-22-disk-quota"
     transform="translate(1,31)"
     style="fill:#383e43;fill-opacity:1">
    <rect
       style="opacity:0.001;fill:#383e43;fill-opacity:1"
       width="22"
       height="22"
       x="-1"
       y="-53"
       id="rect24460" />
    <path
       id="path25997"
       style="fill:#383e43;stroke-width:2.15771;fill-opacity:1"
       d="m 11.628394,-49.993757 c -3.5750057,0 -6.4731447,0.966047 -6.4731447,2.157714 v 10.788575 c 0,1.191667 2.898139,2.157715 6.4731447,2.157715 3.575006,0 6.473145,-0.966048 6.473145,-2.157715 v -10.788575 c 0,-1.191667 -2.898139,-2.157714 -6.473145,-2.157714 z m -0.198072,2.157714 c 0.06603,-3.36e-4 0.132045,-3.36e-4 0.198072,0 1.594948,0.0018 3.131684,0.199976 4.315431,0.556285 v 1.04936 c -1.185624,0.35478 -2.72215,0.551349 -4.315431,0.552071 -1.594948,-0.0018 -3.1316816,-0.199976 -4.3154298,-0.556284 v -1.04936 c 1.1344013,-0.339997 2.5926235,-0.535522 4.1173578,-0.552072 z m -4.1173578,3.76336 c 1.1856212,0.354779 2.7221528,0.55135 4.3154298,0.552071 1.593277,-7.21e-4 3.129809,-0.197281 4.315431,-0.552071 v 2.157716 c -1.185622,0.354776 -2.722154,0.551349 -4.315431,0.552069 -1.594946,-0.0018 -3.1316836,-0.199977 -4.3154298,-0.556286 z m 0,4.315429 c 1.1856255,0.354784 2.7221458,0.551352 4.3154298,0.552071 1.593284,-7.19e-4 3.129805,-0.19728 4.315431,-0.552071 v 2.157714 c -1.185626,0.354783 -2.722147,0.551352 -4.315431,0.552072 -1.59495,-0.0018 -3.1316793,-0.199977 -4.3154298,-0.556285 z" />
  </g>
  <g
     id="22-22-disk-quota-low"
     transform="translate(33,31)"
     style="fill:#383e43;fill-opacity:1">
    <rect
       style="opacity:0.001;fill:#383e43;fill-opacity:1"
       width="22"
       height="22"
       x="-1"
       y="-53"
       id="rect24465" />
    <path
       id="path25997-6"
       style="fill:#383e43;stroke-width:2.15771;fill-opacity:1"
       d="m 8.0239629,-50 c -3.5750057,0 -6.473145,0.966047 -6.473145,2.157714 v 10.788575 c 0,1.191667 2.8981393,2.157715 6.473145,2.157715 3.5750061,0 6.4731451,-0.966048 6.4731451,-2.157715 V -47.842286 C 14.497108,-49.033953 11.598969,-50 8.0239629,-50 Z m -0.198072,2.157714 c 0.06603,-3.36e-4 0.132045,-3.36e-4 0.198072,0 1.594948,0.0018 3.1316841,0.199976 4.3154311,0.556285 v 1.04936 c -1.185624,0.35478 -2.7221501,0.551349 -4.3154311,0.552071 -1.594948,-0.0018 -3.1316816,-0.199976 -4.3154298,-0.556284 v -1.04936 c 1.1344013,-0.339997 2.5926235,-0.535522 4.1173578,-0.552072 z m -4.1173578,3.76336 c 1.1856212,0.354779 2.7221528,0.55135 4.3154298,0.552071 1.593277,-7.21e-4 3.1298091,-0.197281 4.3154311,-0.552071 v 2.157716 c -1.185622,0.354776 -2.7221541,0.551349 -4.3154311,0.552069 -1.594946,-0.0018 -3.1316836,-0.199977 -4.3154298,-0.556286 z m 0,4.315429 c 1.1856255,0.354784 2.7221458,0.551352 4.3154298,0.552071 1.593284,-7.19e-4 3.1298051,-0.19728 4.3154311,-0.552071 v 2.157714 c -1.185626,0.354783 -2.7221471,0.551352 -4.3154311,0.552072 -1.59495,-0.0018 -3.1316793,-0.199977 -4.3154298,-0.556285 z" />
    <rect
       style="fill:#383e43;fill-rule:evenodd;stroke-width:1.59;stroke-linecap:round;fill-opacity:1"
       id="rect26306"
       width="9.7023802"
       height="4.8270311"
       x="36.172771"
       y="-10.369141"
       transform="translate(-33,-31)" />
  </g>
  <g
     id="22-22-disk-quota-high"
     transform="translate(65,31)">
    <rect
       style="opacity:0.001"
       width="22"
       height="22"
       x="-1"
       y="-53"
       id="rect24470" />
    <path
       id="path25997-6-2"
       style="fill:#ffa332;stroke-width:2.15771;fill-opacity:1"
       d="m 6.2932655,-50 c -3.575006,0 -6.47314495,0.966047 -6.47314495,2.157714 v 10.788575 c 0,1.191667 2.89813895,2.157715 6.47314495,2.157715 3.575006,0 6.4731455,-0.966048 6.4731455,-2.157715 V -47.842286 C 12.766411,-49.033953 9.8682715,-50 6.2932655,-50 Z m -0.198072,2.157714 c 0.06603,-3.36e-4 0.132045,-3.36e-4 0.198072,0 1.594948,0.0018 3.131684,0.199976 4.3154315,0.556285 v 1.04936 c -1.1856245,0.35478 -2.7221505,0.551349 -4.3154315,0.552071 -1.594948,-0.0018 -3.131682,-0.199976 -4.31543,-0.556284 v -1.04936 c 1.134401,-0.339997 2.592624,-0.535522 4.117358,-0.552072 z m -4.117358,3.76336 c 1.185621,0.354779 2.722153,0.55135 4.31543,0.552071 1.593277,-7.21e-4 3.129809,-0.197281 4.3154315,-0.552071 v 2.157716 c -1.1856225,0.354776 -2.7221545,0.551349 -4.3154315,0.552069 -1.594946,-0.0018 -3.131684,-0.199977 -4.31543,-0.556286 z m 0,4.315429 c 1.185626,0.354784 2.722146,0.551352 4.31543,0.552071 1.593284,-7.19e-4 3.129805,-0.19728 4.3154315,-0.552071 v 2.157714 c -1.1856265,0.354783 -2.7221475,0.551352 -4.3154315,0.552072 -1.59495,-0.0018 -3.131679,-0.199977 -4.31543,-0.556285 z" />
    <rect
       style="fill:#ffa332;fill-rule:evenodd;stroke-width:1.59;stroke-linecap:round;fill-opacity:1"
       id="rect26340"
       width="10.103236"
       height="8.4943523"
       x="66.633507"
       y="-14.39547"
       transform="translate(-65,-31)" />
  </g>
  <g
     id="22-22-disk-quota-critical"
     transform="translate(97,31)">
    <rect
       style="opacity:0.001"
       width="22"
       height="22"
       x="-1"
       y="-53"
       id="rect24477" />
    <path
       id="path25997-6-2-9"
       style="fill:#ff3333;fill-opacity:1;stroke-width:2.15771"
       d="m 8.9176802,-50 c -3.575007,0 -6.473145,0.966047 -6.473145,2.157714 v 10.788575 c 0,1.191667 2.898138,2.157715 6.473145,2.157715 3.5750038,0 6.4731438,-0.966048 6.4731438,-2.157715 V -47.842286 C 15.390824,-49.033953 12.492684,-50 8.9176802,-50 Z m -0.198072,2.157714 c 0.06603,-3.36e-4 0.132044,-3.36e-4 0.198072,0 1.5949478,0.0018 3.1316838,0.199976 4.3154338,0.556285 v 1.04936 c -1.18563,0.35478 -2.722154,0.551349 -4.3154338,0.552071 -1.594949,-0.0018 -3.131682,-0.199976 -4.315431,-0.556284 v -1.04936 c 1.134401,-0.339997 2.592624,-0.535522 4.117359,-0.552072 z m -4.117359,3.76336 c 1.185621,0.354779 2.722154,0.55135 4.315431,0.552071 1.5932768,-7.21e-4 3.1298038,-0.197281 4.3154338,-0.552071 v 2.157716 c -1.18563,0.354776 -2.722157,0.551349 -4.3154338,0.552069 -1.594947,-0.0018 -3.131685,-0.199977 -4.315431,-0.556286 z m 0,4.315429 c 1.185626,0.354784 2.722146,0.551352 4.315431,0.552071 1.5932828,-7.19e-4 3.1298038,-0.19728 4.3154338,-0.552071 v 2.157714 c -1.18563,0.354783 -2.722151,0.551352 -4.3154338,0.552072 -1.594951,-0.0018 -3.13168,-0.199977 -4.315431,-0.556285 z" />
    <rect
       style="fill:#ff3333;fill-opacity:1;fill-rule:evenodd;stroke-width:1.42868;stroke-linecap:round"
       id="rect27483"
       width="9.1836615"
       height="8.5657082"
       x="4.3258495"
       y="-45.466824" />
  </g>
  <g
     id="22-22-disk-quota-missing"
     transform="translate(129,31)"
     style="fill:#383e43;fill-opacity:1">
    <rect
       style="opacity:0.001;fill:#383e43;fill-opacity:1"
       width="22"
       height="22"
       x="-1"
       y="-53"
       id="rect24482" />
    <path
       style="opacity:0.3;fill:#383e43;fill-opacity:1"
       d="M 3.6152344,-50 1,-41 h 18 l -2.615234,-9 z M 16,-40 c -1.656854,0 -3,0.447715 -3,1 v 5 c 0,0.552285 1.343146,1 3,1 1.656854,0 3,-0.447715 3,-1 v -5 c 0,-0.552285 -1.343146,-1 -3,-1 z m -15,1 v 5 h 11 v -5 z m 14.908203,0 c 0.0306,-1.56e-4 0.0612,-1.56e-4 0.0918,0 0.739186,8.71e-4 1.451387,0.09268 2,0.257812 v 0.486329 c -0.549483,0.164426 -1.261587,0.255525 -2,0.255859 -0.739186,-8.7e-4 -1.451386,-0.09268 -2,-0.257812 v -0.486329 C 14.525747,-38.901715 15.201558,-38.99233 15.908203,-39 Z M 14,-37.255859 c 0.549483,0.164426 1.261587,0.255525 2,0.255859 0.738413,-3.34e-4 1.450517,-0.09143 2,-0.255859 v 1 c -0.549483,0.164426 -1.261587,0.255525 -2,0.255859 -0.739186,-8.7e-4 -1.451386,-0.09268 -2,-0.257812 z m 0,2 c 0.549483,0.164426 1.261587,0.255525 2,0.255859 0.738413,-3.34e-4 1.450517,-0.09143 2,-0.255859 v 1 c -0.549483,0.164426 -1.261587,0.255525 -2,0.255859 -0.739186,-8.7e-4 -1.451386,-0.09268 -2,-0.257812 z"
       id="path24484" />
  </g>
  <g
     id="disk-quota-low"
     transform="translate(-55,93)"
     style="fill:#383e43;fill-opacity:1">
    <rect
       style="opacity:0.001;fill:#383e43;fill-opacity:1"
       width="32"
       height="32"
       x="87"
       y="-93"
       id="rect24487" />
    <path
       style="fill:#383e43;fill-opacity:1"
       d="M 93.066406,-89 89,-76 h 28 l -4.06641,-13 z M 113,-74 c -2.20822,0 -3.99871,0.639083 -4,1.427734 v 7.144532 c 0.001,0.788651 1.79178,1.427734 4,1.427734 2.20822,0 3.99871,-0.639083 4,-1.427734 v -7.144532 C 116.99871,-73.360917 115.20822,-74 113,-74 Z m -0.13672,1.029297 c 0.0456,-2.2e-4 0.0911,-2.2e-4 0.13672,0 1.10832,9.37e-4 2.17656,0.131685 3,0.367187 v 0.695313 c -0.82435,0.234793 -1.8925,0.364833 -3,0.365234 -1.10913,-0.0015 -2.17747,-0.132929 -3,-0.36914 v -0.69336 c 0.789,-0.225072 1.80309,-0.354426 2.86328,-0.365234 z M 89,-72 v 7 h 18 v -7 z m 21,2.005859 c 0.82435,0.234793 1.8925,0.364834 3,0.365235 1.1075,-4.01e-4 2.17565,-0.130442 3,-0.365235 v 1.427735 c -0.82344,0.235502 -1.89168,0.36625 -3,0.367187 -1.10913,-0.0015 -2.17747,-0.132929 -3,-0.36914 z"
       id="path24489" />
  </g>
  <g
     id="disk-quota-high"
     transform="translate(-23,93)"
     style="fill:#383e43;fill-opacity:1">
    <rect
       style="opacity:0.001;fill:#383e43;fill-opacity:1"
       width="32"
       height="32"
       x="87"
       y="-93"
       id="rect24492" />
    <path
       style="fill:#383e43;fill-opacity:1"
       transform="translate(-64)"
       d="m 177,-74 c -2.20822,0 -3.99871,0.639083 -4,1.427734 v 7.144532 c 0.001,0.788651 1.79178,1.427734 4,1.427734 2.20822,0 3.99871,-0.639083 4,-1.427734 v -7.144532 C 180.99871,-73.360917 179.20822,-74 177,-74 Z m -0.13672,1.029297 c 0.0456,-2.2e-4 0.0911,-2.2e-4 0.13672,0 1.10832,9.37e-4 2.17656,0.131685 3,0.367187 v 0.695313 c -0.82435,0.234793 -1.8925,0.364833 -3,0.365234 -1.10913,-0.0015 -2.17747,-0.132929 -3,-0.36914 v -0.69336 c 0.789,-0.225072 1.80309,-0.354426 2.86328,-0.365234 z"
       id="path24494" />
    <path
       style="fill:#383e43;fill-opacity:1"
       transform="translate(-64)"
       d="M 157.06641,-89 153,-76 h 28 l -4.06641,-13 z M 153,-72 v 7 h 18 v -7 z"
       id="path24496" />
  </g>
  <g
     id="disk-quota-critical"
     transform="translate(9,93)">
    <rect
       style="opacity:0.001"
       width="32"
       height="32"
       x="87"
       y="-93"
       id="rect24499" />
    <path
       style="fill:#d94126"
       d="M 93.066406,-89 89,-76 h 28 l -4.06641,-13 z M 113,-74 c -2.20822,0 -3.99871,0.639083 -4,1.427734 v 7.144532 c 0.001,0.788651 1.79178,1.427734 4,1.427734 2.20822,0 3.99871,-0.639083 4,-1.427734 v -7.144532 C 116.99871,-73.360917 115.20822,-74 113,-74 Z m -0.13672,1.029297 c 0.0456,-2.2e-4 0.0911,-2.2e-4 0.13672,0 1.10832,9.37e-4 2.17656,0.131685 3,0.367187 v 0.695313 c -0.82435,0.234793 -1.8925,0.364833 -3,0.365234 -1.10913,-0.0015 -2.17747,-0.132929 -3,-0.36914 v -0.69336 c 0.789,-0.225072 1.80309,-0.354426 2.86328,-0.365234 z M 89,-72 v 7 h 18 v -7 z"
       id="path24501" />
  </g>
  <g
     id="disk-quota-missing"
     transform="translate(41,93)"
     style="fill:#383e43;fill-opacity:1">
    <rect
       style="opacity:0.001;fill:#383e43;fill-opacity:1"
       width="32"
       height="32"
       x="87"
       y="-93"
       id="rect24504" />
    <path
       style="opacity:0.3;fill:#383e43;fill-opacity:1"
       d="M 93.066406,-89 89,-76 h 28 l -4.06641,-13 z M 113,-74 c -2.20822,0 -3.99871,0.639083 -4,1.427734 v 7.144532 c 0.001,0.788651 1.79178,1.427734 4,1.427734 2.20822,0 3.99871,-0.639083 4,-1.427734 v -7.144532 C 116.99871,-73.360917 115.20822,-74 113,-74 Z m -0.13672,1.029297 c 0.0456,-2.2e-4 0.0911,-2.2e-4 0.13672,0 1.10832,9.37e-4 2.17656,0.131685 3,0.367187 v 0.695313 c -0.82435,0.234793 -1.8925,0.364833 -3,0.365234 -1.10913,-0.0015 -2.17747,-0.132929 -3,-0.36914 v -0.69336 c 0.789,-0.225072 1.80309,-0.354426 2.86328,-0.365234 z M 89,-72 v 7 h 18 v -7 z m 21,2.005859 c 0.82435,0.234793 1.8925,0.364834 3,0.365235 1.1075,-4.01e-4 2.17565,-0.130442 3,-0.365235 v 1.427735 c -0.82344,0.235502 -1.89168,0.36625 -3,0.367187 -1.10913,-0.0015 -2.17747,-0.132929 -3,-0.36914 z m 0,3.199219 c 0.82344,0.235502 1.89168,0.366251 3,0.367188 1.10832,-9.37e-4 2.17656,-0.131686 3,-0.367188 v 1.429688 c -0.82435,0.234793 -1.8925,0.364833 -3,0.365234 -1.10913,-0.0015 -2.17747,-0.13293 -3,-0.369141 z"
       id="path24506" />
  </g>
</svg>
