<?xml version="1.0" encoding="UTF-8" standalone="no"?>
<svg
   width="32"
   height="32"
   version="1.1"
   id="svg52"
   sodipodi:docname="go.svg"
   inkscape:version="1.2.1 (9c6d41e410, 2022-07-14)"
   xmlns:inkscape="http://www.inkscape.org/namespaces/inkscape"
   xmlns:sodipodi="http://sodipodi.sourceforge.net/DTD/sodipodi-0.dtd"
   xmlns="http://www.w3.org/2000/svg"
   xmlns:svg="http://www.w3.org/2000/svg">
  <defs
     id="defs56" />
  <sodipodi:namedview
     id="namedview54"
     pagecolor="#ffffff"
     bordercolor="#000000"
     borderopacity="0.25"
     inkscape:showpageshadow="2"
     inkscape:pageopacity="0.0"
     inkscape:pagecheckerboard="0"
     inkscape:deskcolor="#d1d1d1"
     showgrid="false"
     inkscape:zoom="2.8085938"
     inkscape:cx="1.2461752"
     inkscape:cy="10.681502"
     inkscape:window-width="1920"
     inkscape:window-height="1046"
     inkscape:window-x="0"
     inkscape:window-y="34"
     inkscape:window-maximized="1"
     inkscape:current-layer="svg52" />
  <g
     id="22-22-go-home"
     transform="translate(-465.0004,83.003354)"
     style="fill:#383e43;fill-opacity:1">
    <path
       style="opacity:0.001;fill:#383e43;fill-opacity:1"
       d="m 465.0004,-105.00336 h 22 v 22.000003 h -22 z"
       id="path2" />
    <path
       style="fill:#383e43;fill-opacity:1"
       d="m 468.0004,-94.00336 h 2 v 8 h 5 v -4 h 2 v 4 h 5 v -8 h 2 l -8,-8 z"
       id="path4" />
  </g>
  <g
     id="22-22-go-up"
     transform="translate(-457.0004,83.003357)"
     style="fill:#383e43;fill-opacity:1">
    <path
       style="opacity:0.001;fill:#383e43;fill-opacity:1"
       d="m 489.0004,-105.00336 v 22 h 22 v -22 z"
       id="path7" />
    <path
       style="fill:#383e43;fill-opacity:1"
       d="m 491.5004,-93.976987 2.11644,2.123305 4.36736,-4.379438 v 10.229758 h 2.99342 v -10.264919 l 4.40439,4.414599 2.11839,-2.123305 -8,-8.026373 z"
       id="path9" />
  </g>
  <g
     id="22-22-go-down"
     transform="matrix(1,0,0,-1,-425.0004,-105.00336)"
     style="fill:#383e43;fill-opacity:1">
    <path
       style="opacity:0.001;fill:#383e43;fill-opacity:1"
       d="m 489.0004,-105.00336 v 22 h 22 v -22 z"
       id="path12" />
    <path
       style="fill:#383e43;fill-opacity:1"
       d="m 491.5004,-93.976987 2.11644,2.123305 4.36736,-4.379438 v 10.229758 h 2.99342 v -10.264919 l 4.40439,4.414599 2.11839,-2.123305 -8,-8.026373 z"
       id="path14" />
  </g>
  <g
     id="22-22-go-previous"
     transform="translate(-441.0004,83.003357)"
     style="fill:#383e43;fill-opacity:1">
    <path
       style="opacity:0.001;fill:#383e43;fill-opacity:1"
       d="m 537.0004,-105.00336 h 22 v 22 h -22 z"
       id="path17" />
    <path
       style="fill:#383e43;fill-opacity:1"
       d="m 548.02677,-102.50336 2.12331,2.11644 -4.37944,4.36736 h 10.22976 v 2.99342 h -10.26492 l 4.4146,4.40439 -2.12331,2.11839 -8.02637,-8 z"
       id="path19" />
  </g>
  <g
     id="22-22-go-next"
     transform="matrix(-1,0,0,1,687.0004,83.003357)"
     style="fill:#383e43;fill-opacity:1">
    <path
       style="opacity:0.001;fill:#383e43;fill-opacity:1"
       d="m 537.0004,-105.00336 h 22 v 22 h -22 z"
       id="path22" />
    <path
       style="fill:#383e43;fill-opacity:1"
       d="m 548.02677,-102.50336 2.12331,2.11644 -4.37944,4.36736 h 10.22976 v 2.99342 h -10.26492 l 4.4146,4.40439 -2.12331,2.11839 -8.02637,-8 z"
       id="path24" />
  </g>
  <g
     id="go-home"
     transform="translate(3.4089999e-7,1.88644e-6)"
     style="fill:#383e43;fill-opacity:1">
    <path
       style="opacity:0.001;fill:#383e43;fill-opacity:1"
       d="M -6.8179997e-7,-4.77288e-6 H 32 V 32.000001 H -6.8179997e-7 Z"
       id="path27" />
    <path
       style="fill:#383e43;fill-opacity:1"
       d="m 3.9999999,16 h 3 V 28 H 14 v -6 h 4 v 6 h 7 V 16 h 3 L 16,4 Z"
       id="path29" />
  </g>
  <g
     id="go-up"
     transform="translate(31.999999,1.88644e-6)"
     style="fill:#383e43;fill-opacity:1">
    <path
       style="opacity:0.001;fill:#383e43;fill-opacity:1"
       d="M 1.3182e-6,-4.77288e-6 V 31.999996 H 32.000002 V -4.77288e-6 Z"
       id="path32" />
    <path
       style="fill:#383e43;fill-opacity:1"
       d="M 14.658203,6.5175781 4.1582031,16.017578 6.8417969,18.982422 14,12.505859 V 28 h 4 V 12.505859 l 7.158203,6.476563 2.683594,-2.964844 -10.5,-9.4999999 L 16,5.3 Z"
       id="path34" />
  </g>
  <g
     id="go-down"
     transform="matrix(1,0,0,-1,64,31.999993)"
     style="fill:#383e43;fill-opacity:1">
    <path
       style="opacity:0.001;fill:#383e43;fill-opacity:1"
       d="M 1.3182e-6,-4.77288e-6 V 31.999996 H 32.000002 V -4.77288e-6 Z"
       id="path37" />
    <path
       style="fill:#383e43;fill-opacity:1"
       d="M 14.658203,6.5175781 4.1582031,16.017578 6.8417969,18.982422 14,12.505859 V 28 h 4 V 12.505859 l 7.158203,6.476563 2.683594,-2.964844 -10.5,-9.4999999 L 16,5.3 Z"
       id="path39" />
  </g>
  <g
     id="go-previous"
     transform="matrix(0,1,1,0,96.000007,-4.22712e-6)"
     style="fill:#383e43;fill-opacity:1">
    <path
       style="opacity:0.001;fill:#383e43;fill-opacity:1"
       d="M 1.3182e-6,-4.77288e-6 V 31.999996 H 32.000002 V -4.77288e-6 Z"
       id="path42" />
    <path
       style="fill:#383e43;fill-opacity:1"
       d="M 14.658203,6.5175781 4.1582031,16.017578 6.8417969,18.982422 14,12.505859 V 28 h 4 V 12.505859 l 7.158203,6.476563 2.683594,-2.964844 -10.5,-9.4999999 L 16,5.3 Z"
       id="path44" />
  </g>
  <g
     id="go-next"
     transform="rotate(90,80.000003,79.999999)"
     style="fill:#383e43;fill-opacity:1">
    <path
       style="opacity:0.001;fill:#383e43;fill-opacity:1"
       d="M 1.3182e-6,-4.77288e-6 V 31.999996 H 32.000002 V -4.77288e-6 Z"
       id="path47" />
    <path
       style="fill:#383e43;fill-opacity:1"
       d="M 14.658203,6.5175781 4.1582031,16.017578 6.8417969,18.982422 14,12.505859 V 28 h 4 V 12.505859 l 7.158203,6.476563 2.683594,-2.964844 -10.5,-9.4999999 L 16,5.3 Z"
       id="path49" />
  </g>
</svg>
