<?xml version="1.0" encoding="UTF-8" standalone="no"?>
<svg
   width="32"
   height="32"
   version="1.1"
   id="svg20"
   sodipodi:docname="krfb.svg"
   inkscape:version="1.2.1 (9c6d41e410, 2022-07-14)"
   xmlns:inkscape="http://www.inkscape.org/namespaces/inkscape"
   xmlns:sodipodi="http://sodipodi.sourceforge.net/DTD/sodipodi-0.dtd"
   xmlns="http://www.w3.org/2000/svg"
   xmlns:svg="http://www.w3.org/2000/svg">
  <defs
     id="defs24" />
  <sodipodi:namedview
     id="namedview22"
     pagecolor="#ffffff"
     bordercolor="#000000"
     borderopacity="0.25"
     inkscape:showpageshadow="2"
     inkscape:pageopacity="0.0"
     inkscape:pagecheckerboard="0"
     inkscape:deskcolor="#d1d1d1"
     showgrid="false"
     inkscape:zoom="7.9439028"
     inkscape:cx="24.106539"
     inkscape:cy="26.057721"
     inkscape:window-width="1920"
     inkscape:window-height="1046"
     inkscape:window-x="0"
     inkscape:window-y="34"
     inkscape:window-maximized="1"
     inkscape:current-layer="svg20" />
  <g
     id="22-22-krfb"
     transform="translate(27,5.0000005)"
     style="fill:#383e43;fill-opacity:1">
    <rect
       style="opacity:0.001;fill:#383e43;fill-opacity:1"
       width="22"
       height="22"
       x="5"
       y="5"
       id="rect2" />
    <path
       style="opacity:0.3;fill:#383e43;fill-opacity:1"
       d="M 19.470703,10.152344 10.113281,16 19.470703,21.847656 20.529297,20.152344 13.884766,16 20.529297,11.847656 Z"
       id="path4" />
    <path
       style="fill:#383e43;fill-opacity:1"
       d="m 20,8 a 3,3 0 0 0 -3,3 3,3 0 0 0 3,3 3,3 0 0 0 3,-3 3,3 0 0 0 -3,-3 z m -8,5 a 3,3 0 0 0 -3,3 3,3 0 0 0 3,3 3,3 0 0 0 3,-3 3,3 0 0 0 -3,-3 z m 8,5 a 3,3 0 0 0 -3,3 3,3 0 0 0 3,3 3,3 0 0 0 3,-3 3,3 0 0 0 -3,-3 z"
       id="path6" />
  </g>
  <g
     id="krfb"
     style="fill:#383e43;fill-opacity:1">
    <rect
       style="opacity:0.001;fill:#383e43;fill-opacity:1"
       width="32"
       height="32"
       x="0"
       y="0"
       id="rect9" />
    <path
       style="opacity:0.3;fill:#383e43;fill-opacity:1"
       d="M 20.744141,7.2050781 6.5234375,15.5 20.744141,23.794922 22.255859,21.205078 12.476562,15.5 22.255859,9.7949219 Z"
       id="path11" />
    <path
       style="fill:#383e43;fill-opacity:1"
       d="m 21.500001,3.9999996 a 4.5000001,4.5000001 0 0 0 -4.5,4.5000002 A 4.5000001,4.5000001 0 0 0 21.500001,13 4.5000001,4.5000001 0 0 0 26,8.4999998 4.5000001,4.5000001 0 0 0 21.500001,3.9999996 Z"
       id="path13" />
    <path
       style="fill:#383e43;fill-opacity:1"
       d="M 9.5000001,11 A 4.5000001,4.5000001 0 0 0 5,15.5 4.5000001,4.5000001 0 0 0 9.5000001,20 4.5000001,4.5000001 0 0 0 14,15.5 4.5000001,4.5000001 0 0 0 9.5000001,11 Z"
       id="path15" />
    <path
       style="fill:#383e43;fill-opacity:1"
       d="m 21.500001,18 a 4.5000001,4.5000001 0 0 0 -4.5,4.500001 A 4.5000001,4.5000001 0 0 0 21.500001,27 4.5000001,4.5000001 0 0 0 26,22.500001 4.5000001,4.5000001 0 0 0 21.500001,18 Z"
       id="path17" />
  </g>
</svg>
