<?xml version="1.0" encoding="UTF-8" standalone="no"?>
<svg
   width="32"
   height="32"
   version="1.1"
   id="svg12"
   sodipodi:docname="kruler.svg"
   inkscape:version="1.2.1 (9c6d41e410, 2022-07-14)"
   xmlns:inkscape="http://www.inkscape.org/namespaces/inkscape"
   xmlns:sodipodi="http://sodipodi.sourceforge.net/DTD/sodipodi-0.dtd"
   xmlns="http://www.w3.org/2000/svg"
   xmlns:svg="http://www.w3.org/2000/svg">
  <defs
     id="defs16" />
  <sodipodi:namedview
     id="namedview14"
     pagecolor="#ffffff"
     bordercolor="#000000"
     borderopacity="0.25"
     inkscape:showpageshadow="2"
     inkscape:pageopacity="0.0"
     inkscape:pagecheckerboard="0"
     inkscape:deskcolor="#d1d1d1"
     showgrid="false"
     inkscape:zoom="2.8085938"
     inkscape:cx="-7.2990264"
     inkscape:cy="32.044506"
     inkscape:window-width="1920"
     inkscape:window-height="1046"
     inkscape:window-x="0"
     inkscape:window-y="34"
     inkscape:window-maximized="1"
     inkscape:current-layer="svg12" />
  <g
     id="22-22-kruler"
     transform="translate(-294,-524.35998)"
     style="fill:#383e43;fill-opacity:1">
    <rect
       style="opacity:0.001;fill:#383e43;fill-opacity:1"
       width="22"
       height="22"
       x="326"
       y="534.36"
       id="rect2" />
    <path
       style="fill:#383e43;fill-opacity:1"
       d="m 328,539.32965 v 2.03255 10 c 0,1 1,1 1,1 h 1 16 v -2 h -16 v -9 h 16 v -3 h -17 c 0,0 -1,-0.0235 -1,0.96745 z m 3,3.03255 v 3 h 1 v -3 z m 2,0 v 3 h 1 v -3 z m 2,0 v 6 h 1 v -6 z m 2,0 v 3 h 1 v -3 z m 2,0 v 3 h 1 v -3 z m 2,0 v 6 h 1 v -6 z m 2,0 v 3 h 1 v -3 z"
       id="path4" />
  </g>
  <g
     id="kruler"
     style="fill:#383e43;fill-opacity:1">
    <rect
       style="opacity:0.001;fill:#383e43;fill-opacity:1"
       width="32"
       height="32"
       x="0"
       y="0"
       id="rect7" />
    <path
       style="fill:#383e43;fill-opacity:1"
       d="M 4.4453125 6 C 4.4453125 6 3 5.9671738 3 7.3828125 L 3 10.285156 L 3 24.572266 C 3 26.000832 4.4453125 26 4.4453125 26 L 5.8886719 26 L 29 26 L 29 23 L 6 23 L 6 10 L 29 10 L 29 6 L 4.4453125 6 z M 7 12 L 7 16 L 8 16 L 8 12 L 7 12 z M 10 12 L 10 16 L 11 16 L 11 12 L 10 12 z M 13 12 L 13 20 L 14 20 L 14 12 L 13 12 z M 16 12 L 16 16 L 17 16 L 17 12 L 16 12 z M 19 12 L 19 16 L 20 16 L 20 12 L 19 12 z M 22 12 L 22 20 L 23 20 L 23 12 L 22 12 z M 25 12 L 25 16 L 26 16 L 26 12 L 25 12 z"
       id="path9" />
  </g>
</svg>
