<?xml version="1.0" encoding="UTF-8" standalone="no"?>
<svg
   width="32"
   height="32"
   version="1.1"
   id="svg32"
   sodipodi:docname="list.svg"
   inkscape:version="1.2.1 (9c6d41e410, 2022-07-14)"
   xmlns:inkscape="http://www.inkscape.org/namespaces/inkscape"
   xmlns:sodipodi="http://sodipodi.sourceforge.net/DTD/sodipodi-0.dtd"
   xmlns="http://www.w3.org/2000/svg"
   xmlns:svg="http://www.w3.org/2000/svg">
  <defs
     id="defs36" />
  <sodipodi:namedview
     id="namedview34"
     pagecolor="#ffffff"
     bordercolor="#000000"
     borderopacity="0.25"
     inkscape:showpageshadow="2"
     inkscape:pageopacity="0.0"
     inkscape:pagecheckerboard="0"
     inkscape:deskcolor="#d1d1d1"
     showgrid="false"
     inkscape:zoom="2.8085938"
     inkscape:cx="-0.89012517"
     inkscape:cy="11.037552"
     inkscape:window-width="1920"
     inkscape:window-height="1046"
     inkscape:window-x="0"
     inkscape:window-y="34"
     inkscape:window-maximized="1"
     inkscape:current-layer="svg32" />
  <g
     id="22-22-list-add"
     transform="translate(-285.00081,-16.99666)"
     style="fill:#383e43;fill-opacity:1">
    <path
       style="opacity:0.001;fill:#383e43;fill-opacity:1"
       d="m 285.00081,-5.00334 h 22 v 22 h -22 z"
       id="path2" />
    <path
       style="fill:#383e43;fill-opacity:1"
       transform="translate(285.00081,-5.00334)"
       d="M 9,3 V 9 H 3 v 4 h 6 v 6 h 4 v -6 h 6 V 9 H 13 V 3 Z"
       id="path4" />
  </g>
  <g
     id="list-add"
     style="fill:#383e43;fill-opacity:1">
    <path
       style="opacity:0.001;fill:#383e43;fill-opacity:1"
       d="M -4.318145e-6,-4.8197e-7 H 31.999997 V 32.000001 H -4.318145e-6 Z"
       id="path7" />
    <path
       style="fill:#383e43;fill-opacity:1"
       d="m 13,4 v 9 H 4.0000001 v 6 H 13 v 9 h 6 v -9 h 9 V 13 H 19 V 4 Z"
       id="path9" />
  </g>
  <g
     id="22-22-list-remove"
     transform="translate(-253.00081,-16.99666)"
     style="fill:#383e43;fill-opacity:1">
    <path
       style="opacity:0.001;fill:#383e43;fill-opacity:1"
       d="m 285.00081,-5.00334 h 22 v 22 h -22 z"
       id="path12" />
    <path
       style="fill:#383e43;fill-opacity:1"
       transform="translate(285.00081,-5.00334)"
       d="m 3,9 v 4 H 19 V 9 Z"
       id="path14" />
  </g>
  <g
     id="list-remove"
     transform="translate(32.000005)"
     style="fill:#383e43;fill-opacity:1">
    <path
       style="opacity:0.001;fill:#383e43;fill-opacity:1"
       d="M -4.318145e-6,-4.8197e-7 H 31.999997 V 32.000001 H -4.318145e-6 Z"
       id="path17" />
    <path
       style="fill:#383e43;fill-opacity:1"
       d="m 4.0000001,13 v 6 H 28 v -6 z"
       id="path19" />
  </g>
  <g
     id="16-16-list-add"
     transform="matrix(0.49999998,0,0,0.49999998,2.1590724e-6,-38)"
     style="fill:#383e43;fill-opacity:1">
    <path
       style="opacity:0.001;fill:#383e43;fill-opacity:1"
       d="M -4.318145e-6,-4.8197e-7 H 31.999997 V 32.000001 H -4.318145e-6 Z"
       id="path22" />
    <path
       style="fill:#383e43;fill-opacity:1"
       d="m 13.999996,4.0000002 -3e-6,10.0000008 -9.9999961,0 v 4 l 9.9999961,0 3e-6,9.999999 h 4 l -3e-6,-9.999999 10.000004,0 v -4 l -10.000004,0 3e-6,-10.0000008 z"
       id="path24" />
  </g>
  <g
     id="16-16-list-remove"
     transform="matrix(0.49999998,0,0,0.49999998,32.000002,-38)"
     style="fill:#383e43;fill-opacity:1">
    <path
       style="opacity:0.001;fill:#383e43;fill-opacity:1"
       d="M -4.318145e-6,-4.8197e-7 H 31.999997 V 32.000001 H -4.318145e-6 Z"
       id="path27" />
    <path
       style="fill:#383e43;fill-opacity:1"
       d="m 3.9999972,14.000001 v 4 H 27.999997 v -4 z"
       id="path29" />
  </g>
</svg>
