<?xml version="1.0" encoding="UTF-8" standalone="no"?>
<svg
   width="32"
   height="32"
   version="1.1"
   id="svg4979"
   sodipodi:docname="start.svg"
   inkscape:version="1.2.1 (9c6d41e410, 2022-07-14)"
   xmlns:inkscape="http://www.inkscape.org/namespaces/inkscape"
   xmlns:sodipodi="http://sodipodi.sourceforge.net/DTD/sodipodi-0.dtd"
   xmlns="http://www.w3.org/2000/svg"
   xmlns:svg="http://www.w3.org/2000/svg">
  <defs
     id="defs4983" />
  <sodipodi:namedview
     id="namedview4981"
     pagecolor="#ffffff"
     bordercolor="#000000"
     borderopacity="0.25"
     inkscape:showpageshadow="2"
     inkscape:pageopacity="0.0"
     inkscape:pagecheckerboard="0"
     inkscape:deskcolor="#d1d1d1"
     showgrid="false"
     inkscape:zoom="4.4359903"
     inkscape:cx="1.4652873"
     inkscape:cy="48.241765"
     inkscape:window-width="1920"
     inkscape:window-height="1046"
     inkscape:window-x="0"
     inkscape:window-y="34"
     inkscape:window-maximized="1"
     inkscape:current-layer="start-here-kde" />
  <g
     id="22-22-start-here-kde"
     transform="translate(27,5.0000005)"
     style="fill:#383e43;fill-opacity:1">
    <rect
       style="opacity:0.001;fill:#383e43;fill-opacity:1"
       width="22"
       height="22"
       x="5"
       y="5"
       id="rect4969" />
    <path
       style="fill:#383e43;fill-opacity:1"
       d="m 17.007931,8.000006 -3.01305,0.5245581 V 18.894826 l 2.997438,-0.386106 -0.01562,-4.674223 3.536041,5.173431 3.473594,-0.499208 -3.996585,-5.354784 4.010245,-4.4928697 -3.516526,-0.6474102 -3.506769,4.4928699 z m -6.336382,2.648141 c -0.02894,0.0024 -0.05625,0.01509 -0.07806,0.03705 l -1.0342725,1.045216 c -0.044912,0.04523 -0.052405,0.115739 -0.017565,0.169653 l 1.2489325,1.91688 c -0.235608,0.417818 -0.41363,0.875932 -0.528845,1.355271 L 8.1053789,15.700675 C 8.0455199,15.715355 8,15.769425 8,15.831327 v 0.680561 0.680561 c 0,0.0619 0.045521,0.115975 0.1053789,0.130651 l 2.1563601,0.528459 c 0.115215,0.47934 0.293237,0.937455 0.528845,1.355272 l -1.2489325,1.91688 c -0.03484,0.05391 -0.027347,0.124425 0.017565,0.169652 l 1.0342725,1.045217 c 0.0436,0.04393 0.111261,0.04755 0.163922,0.01559 l 1.957312,-1.199264 c 0.384,0.223545 0.984668,0.403397 1.422612,0.522608 l 0.458593,2.213284 C 14.608668,23.954698 14.659458,24 14.722773,24 h 0.770825 0.770825 c 0.06333,0 0.114105,-0.0453 0.126846,-0.109202 l 0.458592,-2.213284 c 0.437944,-0.119211 1.038614,-0.299063 1.422612,-0.522608 l 1.957311,1.199268 c 0.05266,0.03195 0.120319,0.02834 0.163923,-0.0156 l 1.034272,-1.045217 c 0.04491,-0.04523 0.05241,-0.115738 0.01757,-0.169652 l -1.040126,-1.597076 -0.128797,0.0195 -0.729844,-1.068616 c -0.745428,1.561485 -2.321859,2.556557 -4.053177,2.55844 -2.483159,0 -4.496158,-2.011527 -4.496158,-4.492871 0.0014,-1.705422 0.969019,-3.263001 2.497864,-4.020965 v -0.980866 c -0.284995,0.09495 -0.565029,0.202121 -0.780583,0.327606 l -1.957312,-1.199269 c -0.02633,-0.01598 -0.05692,-0.02385 -0.08587,-0.02145 z"
       id="path4971" />
  </g>
  <g
     id="start-here-kde">
    <rect
       style="opacity:0.001;fill:#383e43;fill-opacity:1"
       width="32"
       height="32"
       x="0"
       y="0"
       id="rect4974" />
    <path
       style="fill:#383e43;fill-opacity:1;stroke-width:0.930048"
       d="M 16.717769,4.6335155 12.977583,5.3419531 V 19.361752 l 3.720205,-0.523154 -0.01998,-6.31781 4.782862,6.99355 4.519465,-0.67574 L 20.779477,11.601635 25.9983,5.5272368 21.422519,4.6516805 16.677804,10.726079 Z m -8.495801,4.259708 c -0.03915,0.00324 -0.077669,0.019338 -0.1071739,0.049046 L 6.716084,10.357328 c -0.060757,0.06119 -0.070746,0.155945 -0.023615,0.22888 l 1.6893513,2.592155 C 8.0630895,13.743587 7.8219801,14.364584 7.666117,15.013034 l -2.9173096,0.713888 c -0.080978,0.01986 -0.1416876,0.09428 -0.1416876,0.178017 v 0.919153 0.920968 c 0,0.08374 0.060711,0.158164 0.1416876,0.178018 l 2.9173096,0.713887 c 0.1558631,0.648453 0.3969727,1.267632 0.7157037,1.832856 l -1.6893513,2.593971 c -0.047131,0.07292 -0.037142,0.167697 0.023614,0.22888 L 8.114794,24.70773 c 0.058982,0.05943 0.1521903,0.06321 0.2234304,0.01998 l 2.6466506,-1.62214 c 0.519476,0.302412 1.333045,0.545352 1.925496,0.70662 l 0.619429,2.99542 c 0.01724,0.08645 0.08692,0.147137 0.172568,0.147137 h 1.042676 1.042674 c 0.08568,0 0.153515,-0.06069 0.170752,-0.147137 l 0.621245,-2.99542 c 0.592452,-0.161268 1.404207,-0.404208 1.92368,-0.70662 l 2.648467,1.62214 c 0.07124,0.04322 0.162627,0.03945 0.221614,-0.01998 l 1.39871,-1.415058 c 0.06075,-0.06119 0.07074,-0.155945 0.02361,-0.22888 l -1.405976,-2.159826 -0.174385,0.02543 -1.827406,-2.733842 A 5.1152828,5.1152828 0 0 1 14.372655,22.30449 5.1152828,5.1152828 0 0 1 9.2573716,17.189208 5.1152828,5.1152828 0 0 1 12.042077,12.635227 v -2.534029 c -0.385544,0.12845 -0.765605,0.273473 -1.057207,0.443228 L 8.3382245,8.9204712 C 8.3026052,8.8988531 8.2611314,8.8899767 8.221968,8.8932235 Z"
       id="path4976" />
  </g>
</svg>
