<?xml version="1.0" encoding="UTF-8" standalone="no"?>
<svg
   width="32"
   height="32"
   version="1.1"
   id="svg16"
   sodipodi:docname="view.svg"
   inkscape:version="1.2.1 (9c6d41e410, 2022-07-14)"
   xmlns:inkscape="http://www.inkscape.org/namespaces/inkscape"
   xmlns:sodipodi="http://sodipodi.sourceforge.net/DTD/sodipodi-0.dtd"
   xmlns="http://www.w3.org/2000/svg"
   xmlns:svg="http://www.w3.org/2000/svg">
  <defs
     id="defs20" />
  <sodipodi:namedview
     id="namedview18"
     pagecolor="#ffffff"
     bordercolor="#000000"
     borderopacity="0.25"
     inkscape:showpageshadow="2"
     inkscape:pageopacity="0.0"
     inkscape:pagecheckerboard="0"
     inkscape:deskcolor="#d1d1d1"
     showgrid="false"
     inkscape:zoom="7.9439028"
     inkscape:cx="0.94412032"
     inkscape:cy="15.231808"
     inkscape:window-width="1920"
     inkscape:window-height="1046"
     inkscape:window-x="0"
     inkscape:window-y="34"
     inkscape:window-maximized="1"
     inkscape:current-layer="svg16" />
  <g
     id="view-refresh"
     transform="translate(-250.00021,54.000004)"
     style="fill:#383e43;fill-opacity:1">
    <path
       style="opacity:0.001;fill:#383e43;fill-opacity:1"
       d="m 282.00021,-38.000004 16,0 0,16 -16,0 z"
       id="path2" />
    <g
       transform="translate(281.97246,-37.000109)"
       id="g8"
       style="fill:#383e43;fill-opacity:1">
      <g
         transform="translate(-485.03396,-41.017475)"
         id="g6"
         style="fill:#383e43;fill-opacity:1">
        <path
           style="fill:#383e43;fill-opacity:1"
           d="m 499.06185,49.01758 c 0,3.31371 -2.68629,6 -6,6 -3.28006,0 -5.94034,-2.63316 -5.99414,-5.90039 a 1,1 0 0 1 -0.006,-0.09961 1,1 0 0 1 1,-1 1,1 0 0 1 1,1 c 0,2.20914 1.79086,4 4,4 2.20914,0 4,-1.79086 4,-4 0,-2.20914 -1.79086,-4 -4,-4 l 0,2 -4,-3 4,-3 0,2 c 3.31371,0 6,2.68629 6,6 z"
           id="path4" />
      </g>
    </g>
  </g>
  <g
     id="view-history"
     style="fill:#383e43;fill-opacity:1">
    <rect
       style="opacity:0.001;fill:#383e43;fill-opacity:1"
       width="32"
       height="32"
       x="0"
       y="0"
       id="rect11" />
    <path
       style="fill:#383e43;fill-opacity:1"
       d="M 16 2 A 14 14 0 0 0 2 16 A 14 14 0 0 0 16 30 A 14 14 0 0 0 30 16 A 14 14 0 0 0 16 2 z M 16 5 A 11 11 0 0 1 27 16 A 11 11 0 0 1 16 27 A 11 11 0 0 1 5 16 A 11 11 0 0 1 16 5 z M 21.441406 9 A 1.5 1.5 0 0 0 20.439453 9.4394531 L 17.560547 12.318359 A 4 4 0 0 1 19.681641 14.439453 L 22.560547 11.560547 A 1.5 1.5 0 0 0 22.560547 9.4394531 A 1.5 1.5 0 0 0 21.544922 9 A 1.5 1.5 0 0 0 21.441406 9 z M 9.4804688 10 A 1.5 1.5 0 0 0 8.2675781 10.646484 A 1.5 1.5 0 0 0 8.6464844 12.732422 L 12.097656 15.121094 A 4 4 0 0 1 13.804688 12.65625 L 10.353516 10.267578 A 1.5 1.5 0 0 0 9.4804688 10 z M 15.949219 13 A 3 3 0 0 0 13 16 A 3 3 0 0 0 16 19 A 3 3 0 0 0 19 16 A 3 3 0 0 0 16 13 A 3 3 0 0 0 15.949219 13 z"
       id="path13" />
  </g>
</svg>
