<?xml version="1.0" encoding="UTF-8" standalone="no"?>
<svg
   width="32"
   height="32"
   version="1.1"
   id="svg26"
   sodipodi:docname="wallet.svg"
   inkscape:version="1.2.1 (9c6d41e410, 2022-07-14)"
   xmlns:inkscape="http://www.inkscape.org/namespaces/inkscape"
   xmlns:sodipodi="http://sodipodi.sourceforge.net/DTD/sodipodi-0.dtd"
   xmlns="http://www.w3.org/2000/svg"
   xmlns:svg="http://www.w3.org/2000/svg">
  <defs
     id="defs30" />
  <sodipodi:namedview
     id="namedview28"
     pagecolor="#ffffff"
     bordercolor="#000000"
     borderopacity="0.25"
     inkscape:showpageshadow="2"
     inkscape:pageopacity="0.0"
     inkscape:pagecheckerboard="0"
     inkscape:deskcolor="#d1d1d1"
     showgrid="false"
     inkscape:zoom="5.6171875"
     inkscape:cx="-4.1835883"
     inkscape:cy="-9.6133519"
     inkscape:window-width="1920"
     inkscape:window-height="1046"
     inkscape:window-x="0"
     inkscape:window-y="34"
     inkscape:window-maximized="1"
     inkscape:current-layer="svg26" />
  <g
     id="22-22-wallet-closed"
     transform="translate(29.66,8.0899998)"
     style="fill:#383e43;fill-opacity:1">
    <rect
       style="opacity:0.001;fill:#383e43;fill-opacity:1"
       width="22"
       height="22"
       x="-29.66"
       y="-30.09"
       id="rect2" />
    <path
       style="fill:#383e43;fill-opacity:1"
       d="m -25.159091,-27.085227 c -0.831,0 -1.5,0.669 -1.5,1.5 v 13 c 0,0.831 0.669,1.5 1.5,1.5 h 11 c 0.831,0 1.5,-0.669 1.5,-1.5 v -1.5 H -14.2587 c -1.287169,0 -2.400391,-1.030346 -2.400391,-2.332031 v -5.333985 c 0,-1.301922 1.113222,-2.333984 2.400391,-2.333984 h 1 0.599609 v -1.5 c 0,-0.831 -0.669,-1.5 -1.5,-1.5 z m 10.900391,4 c -0.776,0 -1.400391,0.594984 -1.400391,1.333984 v 5.333985 c 0,0.738 0.624391,1.332031 1.400391,1.332031 h 3.599609 v -8 z m 0.599609,3 a 1,1 0 0 1 1,1 1,1 0 0 1 -1,1 1,1 0 0 1 -1,-1 1,1 0 0 1 1,-1 z"
       id="path4" />
  </g>
  <g
     id="22-22-wallet-open"
     transform="translate(27,-27)">
    <rect
       style="opacity:0.001"
       width="22"
       height="22"
       x="5"
       y="5"
       id="rect7" />
    <path
       style="fill:#383e43;fill-opacity:1"
       d="M 9.5,8 C 8.669,8 8,8.669 8,9.5 v 13 C 8,23.331 8.669,24 9.5,24 h 11 C 21.331,24 22,23.331 22,22.5 V 9.5 C 22,8.669 21.331,8 20.5,8 Z M 26,13 v 6 h 0.142578 C 26.617435,19 27,18.749125 27,18.4375 v -4.875 C 27,13.250875 26.617435,13 26.142578,13 Z"
       id="path9" />
    <path
       style="fill:#1a9fff"
       d="M 22.908203,9 C 22.963861,9.1572213 23,9.3232402 23,9.5 v 13 c 0,0.17676 -0.03614,0.342779 -0.0918,0.5 h 0.806641 C 24.427129,23 25,22.414625 25,21.6875 V 10.3125 C 25,9.585375 24.427129,9 23.714844,9 Z"
       id="path11" />
  </g>
  <g
     id="wallet-closed"
     style="fill:#383e43;fill-opacity:1">
    <rect
       style="opacity:0.001;fill:#383e43;fill-opacity:1"
       width="32"
       height="32"
       x="0"
       y="0"
       id="rect14" />
    <path
       style="fill:#383e43;fill-opacity:1"
       d="M 6.25,4 C 5.0035001,4 4,5.0035001 4,6.25 v 19.5 C 4,26.9965 5.0035001,28 6.25,28 h 16.5 C 23.9965,28 25,26.9965 25,25.75 V 23 H 22.601562 C 20.670808,23 19,21.454481 19,19.501953 V 12.5 C 19,10.547117 20.675084,9.1284318 22.601562,9 h 1.5 H 25 V 6.25 C 25,5.0035001 23.9965,4 22.75,4 Z m 16.429688,7 C 21.748487,11 21,11.744219 21,12.667969 v 6.667969 C 21,20.258439 21.748487,21 22.679688,21 H 27 V 11 Z M 23,15 a 1,1 0 0 1 1,1 1,1 0 0 1 -1,1 1,1 0 0 1 -1,-1 1,1 0 0 1 1,-1 z"
       id="path16" />
  </g>
  <g
     id="wallet-open"
     transform="translate(32)">
    <rect
       style="opacity:0.001"
       width="32"
       height="32"
       x="0"
       y="0"
       id="rect19" />
    <path
       style="fill:#383e43;fill-opacity:1"
       d="M 5.25,4 C 4.0035,4 3,5.0034999 3,6.25 v 19.5 C 3,26.9965 4.0035,28 5.25,28 h 16.5 C 22.9965,28 24,26.9965 24,25.75 V 6.25 C 24,5.0034999 22.9965,4 21.75,4 Z M 29,11 v 10 h 0.285156 C 30.23487,21 31,20.581875 31,20.0625 v -8.125 C 31,11.418125 30.23487,11 29.285156,11 Z"
       id="path21" />
    <path
       style="fill:#1a9fff"
       d="m 24.000006,6 c 0.07982,0.2246018 0.131651,0.4617717 0.131651,0.7142857 V 25.285715 C 24.131657,25.53823 24.079827,25.775399 24,26 h 1.156862 C 26.178405,26 27,25.163751 27,24.125001 V 7.8750001 C 27,6.8362501 26.178405,6 25.156867,6 Z"
       id="path23" />
  </g>
</svg>
