<svg xmlns="http://www.w3.org/2000/svg" width="32" height="32" version="1">
 <g id="antimicro">
  <rect style="opacity:0.001" width="32" height="32" x="0" y="0"/>
  <path style="fill:#fefefe" d="M 16 4 C 6.666667 4 3.0039062 7.8222656 3.0039062 7.8222656 C 3.0039062 7.8222656 0 18.363407 0 22.646484 C 0 25.858792 4.4453125 28 4.4453125 28 L 9.7773438 22 L 22.222656 22 L 27.554688 28 C 27.554687 28 32 25.858792 32 22.646484 C 32 18.363407 28.996094 7.8222656 28.996094 7.8222656 C 28.996094 7.8222656 25.333333 4 16 4 z M 8 9 L 11 9 L 11 12 L 14 12 L 14 15 L 11 15 L 11 18 L 8 18 L 8 15 L 5 15 L 5 12 L 8 12 L 8 9 z M 24.5625 9 C 24.868308 9.0075959 25.171531 9.0712041 25.457031 9.1894531 C 25.91383 9.3786532 26.303425 9.7002276 26.578125 10.111328 C 26.852825 10.522429 27 11.005499 27 11.5 C 27 12.163001 26.736377 12.798677 26.267578 13.267578 C 25.798677 13.736379 25.163001 14 24.5 14 C 24.0055 14 23.522428 13.852825 23.111328 13.578125 C 22.700228 13.303425 22.378654 12.913831 22.189453 12.457031 C 22.000253 12.00023 21.952428 11.49662 22.048828 11.011719 C 22.145328 10.526719 22.382821 10.082123 22.732422 9.7324219 C 23.082121 9.3828223 23.526718 9.1453283 24.011719 9.0488281 C 24.193556 9.01268 24.379015 8.9954425 24.5625 9 z M 19.5625 13 C 19.868308 13.007596 20.171531 13.071203 20.457031 13.189453 C 20.913831 13.378653 21.303424 13.700228 21.578125 14.111328 C 21.852824 14.522428 22 15.005499 22 15.5 C 22 15.8283 21.936146 16.153731 21.810547 16.457031 C 21.684946 16.760331 21.499678 17.035377 21.267578 17.267578 C 21.035378 17.499678 20.76033 17.684948 20.457031 17.810547 C 20.15373 17.936148 19.8283 18 19.5 18 C 19.005499 18 18.522428 17.852825 18.111328 17.578125 C 17.700228 17.303424 17.378654 16.913832 17.189453 16.457031 C 17.000254 16.000232 16.952429 15.496619 17.048828 15.011719 C 17.145328 14.526719 17.382822 14.082123 17.732422 13.732422 C 18.082121 13.382822 18.526719 13.145328 19.011719 13.048828 C 19.193556 13.012674 19.379015 12.995442 19.5625 13 z"/>
 </g>
 <g id="22-22-antimicro" transform="translate(27,5)">
  <rect style="opacity:0.001" width="22" height="22" x="5" y="5"/>
  <path style="fill:#fefefe" d="M 16,8 C 9.583334,8 7.0664062,10.546875 7.0664062,10.546875 7.0664062,10.546875 5,17.576257 5,20.431641 5,22.57318 8.0546875,24 8.0546875,24 l 3.6679685,-4 h 8.554688 l 3.667968,4 C 23.945313,24 27,22.57318 27,20.431641 27,17.576257 24.933594,10.546875 24.933594,10.546875 24.933594,10.546875 22.416667,8 16,8 Z m -6,3 h 2 v 2 h 2 v 2 h -2 v 2 H 10 V 15 H 8 v -2 h 2 z m 11.537109,0 c 0.183485,0.0046 0.36581,0.04233 0.53711,0.113281 0.274081,0.11352 0.509008,0.306076 0.673828,0.552735 C 22.912868,11.912677 23,12.2033 23,12.5 23,12.897801 22.841828,13.279207 22.560547,13.560547 22.279207,13.841827 21.8978,14 21.5,14 c -0.296701,0 -0.587324,-0.08712 -0.833984,-0.251953 -0.24666,-0.16482 -0.439215,-0.399748 -0.552735,-0.673828 -0.11352,-0.27408 -0.141824,-0.576248 -0.08398,-0.867188 0.0579,-0.291 0.200396,-0.557757 0.410156,-0.767578 0.20982,-0.209759 0.476578,-0.352255 0.767578,-0.410156 0.109103,-0.02169 0.219988,-0.03203 0.330078,-0.0293 z m -3,3 c 0.183485,0.0046 0.365809,0.04233 0.53711,0.113281 0.274079,0.11352 0.509009,0.306074 0.673828,0.552735 C 19.912868,14.912676 20,15.203301 20,15.5 c 0,0.196981 -0.03792,0.392239 -0.113281,0.574219 -0.07535,0.18198 -0.186912,0.347008 -0.326172,0.486328 -0.13932,0.13926 -0.304348,0.250812 -0.486328,0.326172 C 18.892239,16.962079 18.69698,17 18.5,17 c -0.2967,0 -0.587325,-0.08712 -0.833984,-0.251953 -0.246661,-0.164821 -0.439215,-0.399748 -0.552735,-0.673828 -0.113519,-0.274081 -0.141824,-0.576248 -0.08398,-0.867188 0.0579,-0.291001 0.200396,-0.557758 0.410156,-0.767578 0.20982,-0.209761 0.476578,-0.352256 0.767578,-0.410156 0.109103,-0.02169 0.219988,-0.03203 0.330078,-0.0293 z"/>
 </g>
</svg>
