<?xml version="1.0" encoding="UTF-8" standalone="no"?>
<svg
   width="64"
   height="64"
   version="1"
   id="svg16"
   sodipodi:docname="qbittorrent-tray.svg"
   inkscape:version="1.2.1 (9c6d41e410, 2022-07-14)"
   xmlns:inkscape="http://www.inkscape.org/namespaces/inkscape"
   xmlns:sodipodi="http://sodipodi.sourceforge.net/DTD/sodipodi-0.dtd"
   xmlns="http://www.w3.org/2000/svg"
   xmlns:svg="http://www.w3.org/2000/svg">
  <defs
     id="defs20" />
  <sodipodi:namedview
     id="namedview18"
     pagecolor="#ffffff"
     bordercolor="#000000"
     borderopacity="0.25"
     inkscape:showpageshadow="2"
     inkscape:pageopacity="0.0"
     inkscape:pagecheckerboard="0"
     inkscape:deskcolor="#d1d1d1"
     showgrid="false"
     inkscape:zoom="12.546875"
     inkscape:cx="14.505604"
     inkscape:cy="32"
     inkscape:window-width="1920"
     inkscape:window-height="1042"
     inkscape:window-x="0"
     inkscape:window-y="38"
     inkscape:window-maximized="1"
     inkscape:current-layer="svg16" />
  <path
     style="fill:#ffffff;fill-opacity:1"
     d="M 19 22 C 12.924868 22 8 26.924868 8 33 C 8 39.075132 12.924868 44 19 44 C 20.739203 43.9963 22.452742 43.579407 24 42.785156 L 24 51 A 3 3 0 0 0 27 54 A 3 3 0 0 0 30 51 L 30 33 L 30 22 L 24 22 L 24 23.203125 C 22.451885 22.412341 20.73839 22.000607 19 22 z M 19 28 C 21.761424 28 24 30.238576 24 33 C 24 35.761424 21.761424 38 19 38 C 16.238576 38 14 35.761424 14 33 C 14 30.238576 16.238576 28 19 28 z"
     id="path8" />
  <path
     style="fill:#ffffff"
     d="M 37 12 A 3 3 0 0 0 34 15 L 34 33 L 34 44 L 40 44 L 40 42.796875 C 41.548115 43.587637 43.26161 43.999393 45 44 C 51.075132 44 55.999999 39.074965 56 33 C 56 26.925035 51.075132 22 45 22 C 43.260797 22.0037 41.547258 22.418662 40 23.212891 L 40 15 A 3 3 0 0 0 37 12 z M 45 28 C 47.761424 28 50 30.238652 50 33 C 50 35.761348 47.761424 38 45 38 C 42.238576 38 40 35.761348 40 33 C 40 30.238652 42.238576 28 45 28 z"
     id="path12" />
  <path
     style="opacity:0.1;fill:#ffffff"
     d="M 32,4 A 28.0005,28.007677 0 0 0 4,32.007677 28.0005,28.007677 0 0 0 4.0175781,32.5 28.0005,28.007677 0 0 1 32,5.0002742 28.0005,28.007677 0 0 1 59.974609,32.5 28.0005,28.007677 0 0 0 60,32.007677 28.0005,28.007677 0 0 0 32,4 Z"
     id="path14" />
</svg>
