<?xml version="1.0" encoding="UTF-8" standalone="no"?>
<svg
   width="32"
   height="32"
   version="1.1"
   id="svg22173"
   sodipodi:docname="quota.svg"
   xml:space="preserve"
   inkscape:version="1.2.1 (9c6d41e410, 2022-07-14)"
   xmlns:inkscape="http://www.inkscape.org/namespaces/inkscape"
   xmlns:sodipodi="http://sodipodi.sourceforge.net/DTD/sodipodi-0.dtd"
   xmlns="http://www.w3.org/2000/svg"
   xmlns:svg="http://www.w3.org/2000/svg"><defs
     id="defs22177" /><sodipodi:namedview
     id="namedview22175"
     pagecolor="#7c7c7c"
     bordercolor="#000000"
     borderopacity="0.25"
     inkscape:showpageshadow="2"
     inkscape:pageopacity="0"
     inkscape:pagecheckerboard="0"
     inkscape:deskcolor="#d1d1d1"
     showgrid="false"
     showguides="true"
     inkscape:zoom="11.313709"
     inkscape:cx="33.101436"
     inkscape:cy="-6.1429901"
     inkscape:window-width="1920"
     inkscape:window-height="1046"
     inkscape:window-x="0"
     inkscape:window-y="34"
     inkscape:window-maximized="1"
     inkscape:current-layer="quota"><sodipodi:guide
       position="17.384766,51"
       orientation="0,-1"
       id="guide22687"
       inkscape:locked="false" /><sodipodi:guide
       position="1.7607565,34.99891"
       orientation="0,-1"
       id="guide22937"
       inkscape:locked="false" /><sodipodi:guide
       position="20,4"
       orientation="0,-1"
       id="guide24105"
       inkscape:locked="false" /><sodipodi:guide
       position="21.733843,28.226882"
       orientation="0,-1"
       id="guide24107"
       inkscape:locked="false" /></sodipodi:namedview><g
     id="quota"
     transform="translate(-87,93)"><rect
       style="opacity:0.001"
       width="32"
       height="32"
       x="87"
       y="-93"
       id="rect22119" /><path
       id="path22296-3"
       style="fill:#feffff;fill-opacity:1;stroke-width:1.8636"
       d="m 94.61378,-89.113431 c -2.575313,-0.0051 -4.664232,2.0837 -4.659015,4.659015 v 10.271668 c 0.03634,-0.0042 0.06809,-0.02183 0.105547,-0.02183 h 25.984918 v -10.249831 c 0,-2.581092 -2.07792,-4.659015 -4.65902,-4.659015 z m 8.46266,1.266668 c 3.0877,0 5.59081,0.834371 5.59081,1.863604 v 9.31803 c 0,1.029235 -2.50311,1.863607 -5.59081,1.863607 -3.087705,0 -5.590815,-0.834372 -5.590815,-1.863607 v -9.31803 c 0,-1.029233 2.50311,-1.863604 5.590815,-1.863604 z m -0.17108,1.863604 c -1.3169,0.01438 -2.57636,0.183169 -3.556125,0.476824 v 0.906322 c 1.022385,0.307741 2.349655,0.47884 3.727205,0.480462 1.3761,-6.24e-4 2.70319,-0.170399 3.72721,-0.476821 v -0.906323 c -1.0224,-0.307741 -2.34967,-0.478838 -3.72721,-0.480464 -0.057,-2.89e-4 -0.11404,-2.89e-4 -0.17108,0 z m -3.556125,3.250393 v 1.859964 c 1.022385,0.30774 2.349655,0.47884 3.727205,0.480462 1.3761,-6.22e-4 2.70319,-0.170402 3.72721,-0.476821 v -1.863605 c -1.02402,0.306428 -2.35111,0.476197 -3.72721,0.476821 -1.37611,-6.24e-4 -2.7032,-0.170402 -3.727205,-0.476821 z m 0,3.72721 v 1.859965 c 1.022385,0.307741 2.349655,0.478841 3.727205,0.480462 1.3761,-6.22e-4 2.7032,-0.170403 3.72721,-0.47682 v -1.863607 c -1.02401,0.30643 -2.35111,0.4762 -3.72721,0.476823 -1.37611,-6.23e-4 -2.7032,-0.170404 -3.727205,-0.476823 z m -9.39447,6.642736 v 2.817246 c 0,2.581091 2.077924,4.659015 4.659015,4.659015 h 16.77244 c 2.5811,0 4.65902,-2.077924 4.65902,-4.659015 v -2.795407 H 90.060321 c -0.0382,0 -0.06922,-0.01755 -0.105547,-0.02183 z" /></g><g
     id="22-22-quota"
     transform="translate(1,31)"><rect
       style="opacity:0.00100002"
       width="22"
       height="22"
       x="-1.0177565"
       y="-52.931526"
       id="rect22124" /><path
       id="path22296"
       style="fill:#feffff;fill-opacity:1;stroke-width:1.23085"
       d="m 6.5790387,-49.999993 c -1.7009131,-0.0034 -3.080578,1.376218 -3.0771317,3.077132 v 6.784112 c 0.024004,-0.0028 0.044972,-0.01442 0.069715,-0.01442 h 17.162219 v -6.769689 c 0,-1.70473 -1.372402,-3.077132 -3.077131,-3.077132 z m 5.5893223,0.836594 c 2.039332,0 3.692557,0.551076 3.692557,1.230852 v 6.154264 c 0,0.679777 -1.653225,1.230853 -3.692557,1.230853 -2.039334,0 -3.6925594,-0.551076 -3.6925594,-1.230853 v -6.154264 c 0,-0.679776 1.6532254,-1.230852 3.6925594,-1.230852 z m -0.11299,1.230852 c -0.869773,0.0095 -1.701606,0.120977 -2.3487163,0.314927 v 0.598597 c 0.6752613,0.203253 1.5518793,0.316259 2.4617063,0.31733 0.908874,-4.12e-4 1.785374,-0.112543 2.461704,-0.314925 v -0.598598 c -0.675259,-0.203253 -1.551879,-0.316257 -2.461704,-0.317331 -0.03766,-1.91e-4 -0.07532,-1.91e-4 -0.11299,0 z m -2.3487163,2.146782 v 1.228447 c 0.6752603,0.203253 1.5518803,0.316259 2.4617063,0.31733 0.908873,-4.11e-4 1.785375,-0.112545 2.461704,-0.314925 v -1.230852 c -0.676329,0.202386 -1.552831,0.314513 -2.461704,0.314925 -0.908875,-4.12e-4 -1.785377,-0.112545 -2.4617063,-0.314925 z m 0,2.461704 v 1.228448 c 0.6752593,0.203253 1.5518813,0.316259 2.4617063,0.31733 0.908872,-4.11e-4 1.785376,-0.112546 2.461704,-0.314925 v -1.230853 c -0.676328,0.202387 -1.552832,0.314515 -2.461704,0.314926 -0.908874,-4.11e-4 -1.785378,-0.112546 -2.4617063,-0.314926 z m -6.2047477,4.387317 v 1.860702 c 0,1.704729 1.3724026,3.077132 3.0771317,3.077132 H 17.656712 c 1.704729,0 3.077131,-1.372403 3.077131,-3.077132 V -38.92232 H 3.571623 c -0.025226,0 -0.045721,-0.01159 -0.069715,-0.01442 z" /></g><g
     id="22-22-quota-low"
     transform="translate(33,31)"><rect
       style="opacity:0.001"
       width="22"
       height="22"
       x="-1"
       y="-53"
       id="rect22129" /><path
       id="path22296-5"
       style="fill:#feffff;fill-opacity:1;stroke-width:1.23085"
       d="m 37.452289,-19.000538 c -1.700913,-0.0034 -3.080578,1.376218 -3.077132,3.077132 v 6.7841116 c 0.024,-0.0028 0.04497,-0.01442 0.06971,-0.01442 h 17.162219 v -6.7696886 c 0,-1.70473 -1.372402,-3.077132 -3.077131,-3.077132 z m 5.589322,0.836594 c 2.039332,0 3.692557,0.551076 3.692557,1.230852 v 6.154264 c 0,0.679777 -1.653225,1.2308526 -3.692557,1.2308526 -2.039334,0 -3.692559,-0.5510756 -3.692559,-1.2308526 v -6.154264 c 0,-0.679776 1.653225,-1.230852 3.692559,-1.230852 z m -0.11299,1.230852 c -0.869773,0.0095 -1.701606,0.120977 -2.348716,0.314927 v 0.598597 c 0.675261,0.203253 1.551879,0.316259 2.461706,0.31733 0.908874,-4.12e-4 1.785374,-0.112543 2.461704,-0.314925 v -0.598598 c -0.675259,-0.203253 -1.551879,-0.316257 -2.461704,-0.317331 -0.03766,-1.91e-4 -0.07532,-1.91e-4 -0.11299,0 z m -2.348716,2.146782 v 1.228447 c 0.67526,0.203253 1.55188,0.316259 2.461706,0.31733 0.908873,-4.11e-4 1.785375,-0.112545 2.461704,-0.314925 v -1.230852 c -0.676329,0.202386 -1.552831,0.314513 -2.461704,0.314925 -0.908875,-4.12e-4 -1.785377,-0.112545 -2.461706,-0.314925 z m 0,2.461704 v 1.228448 c 0.675259,0.203253 1.551881,0.316259 2.461706,0.31733 0.908872,-4.11e-4 1.785376,-0.112546 2.461704,-0.314925 v -1.230853 c -0.676328,0.202387 -1.552832,0.314515 -2.461704,0.314926 -0.908874,-4.11e-4 -1.785378,-0.112546 -2.461706,-0.314926 z m -6.204748,4.3873166 v 1.860702 c 0,1.704729 1.372403,3.077132 3.077132,3.077132 h 11.077673 c 1.704729,0 3.077131,-1.372403 3.077131,-3.077132 v -1.846278 h -17.16222 c -0.02523,0 -0.04572,-0.01159 -0.06971,-0.01442 z"
       transform="translate(-33,-31)" /><rect
       style="fill:#ffffff;fill-opacity:1;fill-rule:evenodd;stroke:none;stroke-width:1.59;stroke-linecap:round;stroke-opacity:1"
       id="rect23061"
       width="4.9234099"
       height="1.8486835"
       x="7.5799065"
       y="-44.557861"
       ry="0" /></g><g
     id="22-22-quota-high"
     transform="translate(65,31)"><rect
       style="opacity:0.001"
       width="22"
       height="22"
       x="-1"
       y="-53"
       id="rect22134" /><path
       style="fill:#fec440"
       transform="translate(-65,-9)"
       d="m 81,-31 c -1.656854,0 -3,0.447715 -3,1 v 5 c 0,0.552285 1.343146,1 3,1 1.656854,0 3,-0.447715 3,-1 v -5 c 0,-0.552285 -1.343146,-1 -3,-1 z m -0.0918,1 c 0.0306,-1.56e-4 0.0612,-1.56e-4 0.0918,0 0.739186,8.71e-4 1.451387,0.09268 2,0.257812 v 0.486329 c -0.549483,0.164426 -1.261587,0.255525 -2,0.255859 -0.739186,-8.7e-4 -1.451386,-0.09268 -2,-0.257812 v -0.486329 C 79.525744,-29.901715 80.201558,-29.99233 80.908203,-30 Z"
       id="path22136" /><path
       style="fill:#fefefe"
       transform="translate(-65,-9)"
       d="M 68.615234,-41 66,-32 h 18 l -2.615234,-9 z M 66,-30 v 5 h 11 v -5 z"
       id="path22138" /></g><g
     id="22-22-quota-critical"
     transform="translate(97,31)"><rect
       style="opacity:0.001"
       width="22"
       height="22"
       x="-1"
       y="-53"
       id="rect22141" /><path
       style="fill:#d94126"
       transform="translate(-97,-9)"
       d="M 100.61523,-41 98,-32 h 18 l -2.61523,-9 z M 113,-31 c -1.65685,0 -3,0.447715 -3,1 v 5 c 0,0.552285 1.34315,1 3,1 1.65685,0 3,-0.447715 3,-1 v -5 c 0,-0.552285 -1.34315,-1 -3,-1 z m -15,1 v 5 h 11 v -5 z m 14.9082,0 c 0.0306,-1.56e-4 0.0612,-1.56e-4 0.0918,0 0.73919,8.71e-4 1.45139,0.09268 2,0.257812 v 0.486329 c -0.54948,0.164426 -1.26159,0.255525 -2,0.255859 -0.73919,-8.7e-4 -1.45139,-0.09268 -2,-0.257812 v -0.486329 c 0.52574,-0.157574 1.20156,-0.248189 1.9082,-0.255859 z"
       id="path22143" /></g><g
     id="22-22-quota-missing"
     transform="translate(129,31)"><rect
       style="opacity:0.001"
       width="22"
       height="22"
       x="-1"
       y="-53"
       id="rect22146" /><path
       style="opacity:0.3;fill:#fefefe"
       d="M 3.6152344,-50 1,-41 h 18 l -2.615234,-9 z M 16,-40 c -1.656854,0 -3,0.447715 -3,1 v 5 c 0,0.552285 1.343146,1 3,1 1.656854,0 3,-0.447715 3,-1 v -5 c 0,-0.552285 -1.343146,-1 -3,-1 z m -15,1 v 5 h 11 v -5 z m 14.908203,0 c 0.0306,-1.56e-4 0.0612,-1.56e-4 0.0918,0 0.739186,8.71e-4 1.451387,0.09268 2,0.257812 v 0.486329 c -0.549483,0.164426 -1.261587,0.255525 -2,0.255859 -0.739186,-8.7e-4 -1.451386,-0.09268 -2,-0.257812 v -0.486329 C 14.525747,-38.901715 15.201558,-38.99233 15.908203,-39 Z M 14,-37.255859 c 0.549483,0.164426 1.261587,0.255525 2,0.255859 0.738413,-3.34e-4 1.450517,-0.09143 2,-0.255859 v 1 c -0.549483,0.164426 -1.261587,0.255525 -2,0.255859 -0.739186,-8.7e-4 -1.451386,-0.09268 -2,-0.257812 z m 0,2 c 0.549483,0.164426 1.261587,0.255525 2,0.255859 0.738413,-3.34e-4 1.450517,-0.09143 2,-0.255859 v 1 c -0.549483,0.164426 -1.261587,0.255525 -2,0.255859 -0.739186,-8.7e-4 -1.451386,-0.09268 -2,-0.257812 z"
       id="path22148" /></g><g
     id="quota-low"
     transform="translate(-55,93)"><rect
       style="opacity:0.001"
       width="32"
       height="32"
       x="87"
       y="-93"
       id="rect22151" /><path
       style="fill:#fefefe"
       d="M 93.066406,-89 89,-76 h 28 l -4.06641,-13 z M 113,-74 c -2.20822,0 -3.99871,0.639083 -4,1.427734 v 7.144532 c 0.001,0.788651 1.79178,1.427734 4,1.427734 2.20822,0 3.99871,-0.639083 4,-1.427734 v -7.144532 C 116.99871,-73.360917 115.20822,-74 113,-74 Z m -0.13672,1.029297 c 0.0456,-2.2e-4 0.0911,-2.2e-4 0.13672,0 1.10832,9.37e-4 2.17656,0.131685 3,0.367187 v 0.695313 c -0.82435,0.234793 -1.8925,0.364833 -3,0.365234 -1.10913,-0.0015 -2.17747,-0.132929 -3,-0.36914 v -0.69336 c 0.789,-0.225072 1.80309,-0.354426 2.86328,-0.365234 z M 89,-72 v 7 h 18 v -7 z m 21,2.005859 c 0.82435,0.234793 1.8925,0.364834 3,0.365235 1.1075,-4.01e-4 2.17565,-0.130442 3,-0.365235 v 1.427735 c -0.82344,0.235502 -1.89168,0.36625 -3,0.367187 -1.10913,-0.0015 -2.17747,-0.132929 -3,-0.36914 z"
       id="path22153" /></g><g
     id="quota-high"
     transform="translate(-23,93)"><rect
       style="opacity:0.001"
       width="32"
       height="32"
       x="87"
       y="-93"
       id="rect22156" /><path
       style="fill:#fec440"
       transform="translate(-64)"
       d="m 177,-74 c -2.20822,0 -3.99871,0.639083 -4,1.427734 v 7.144532 c 0.001,0.788651 1.79178,1.427734 4,1.427734 2.20822,0 3.99871,-0.639083 4,-1.427734 v -7.144532 C 180.99871,-73.360917 179.20822,-74 177,-74 Z m -0.13672,1.029297 c 0.0456,-2.2e-4 0.0911,-2.2e-4 0.13672,0 1.10832,9.37e-4 2.17656,0.131685 3,0.367187 v 0.695313 c -0.82435,0.234793 -1.8925,0.364833 -3,0.365234 -1.10913,-0.0015 -2.17747,-0.132929 -3,-0.36914 v -0.69336 c 0.789,-0.225072 1.80309,-0.354426 2.86328,-0.365234 z"
       id="path22158" /><path
       style="fill:#fefefe"
       transform="translate(-64)"
       d="M 157.06641,-89 153,-76 h 28 l -4.06641,-13 z M 153,-72 v 7 h 18 v -7 z"
       id="path22160" /></g><g
     id="quota-critical"
     transform="translate(9,93)"><rect
       style="opacity:0.001"
       width="32"
       height="32"
       x="87"
       y="-93"
       id="rect22163" /><path
       style="fill:#d94126"
       d="M 93.066406,-89 89,-76 h 28 l -4.06641,-13 z M 113,-74 c -2.20822,0 -3.99871,0.639083 -4,1.427734 v 7.144532 c 0.001,0.788651 1.79178,1.427734 4,1.427734 2.20822,0 3.99871,-0.639083 4,-1.427734 v -7.144532 C 116.99871,-73.360917 115.20822,-74 113,-74 Z m -0.13672,1.029297 c 0.0456,-2.2e-4 0.0911,-2.2e-4 0.13672,0 1.10832,9.37e-4 2.17656,0.131685 3,0.367187 v 0.695313 c -0.82435,0.234793 -1.8925,0.364833 -3,0.365234 -1.10913,-0.0015 -2.17747,-0.132929 -3,-0.36914 v -0.69336 c 0.789,-0.225072 1.80309,-0.354426 2.86328,-0.365234 z M 89,-72 v 7 h 18 v -7 z"
       id="path22165" /></g><g
     id="quota-missing"
     transform="translate(41,93)"><rect
       style="opacity:0.001"
       width="32"
       height="32"
       x="87"
       y="-93"
       id="rect22168" /><path
       style="opacity:0.3;fill:#fefefe"
       d="M 93.066406,-89 89,-76 h 28 l -4.06641,-13 z M 113,-74 c -2.20822,0 -3.99871,0.639083 -4,1.427734 v 7.144532 c 0.001,0.788651 1.79178,1.427734 4,1.427734 2.20822,0 3.99871,-0.639083 4,-1.427734 v -7.144532 C 116.99871,-73.360917 115.20822,-74 113,-74 Z m -0.13672,1.029297 c 0.0456,-2.2e-4 0.0911,-2.2e-4 0.13672,0 1.10832,9.37e-4 2.17656,0.131685 3,0.367187 v 0.695313 c -0.82435,0.234793 -1.8925,0.364833 -3,0.365234 -1.10913,-0.0015 -2.17747,-0.132929 -3,-0.36914 v -0.69336 c 0.789,-0.225072 1.80309,-0.354426 2.86328,-0.365234 z M 89,-72 v 7 h 18 v -7 z m 21,2.005859 c 0.82435,0.234793 1.8925,0.364834 3,0.365235 1.1075,-4.01e-4 2.17565,-0.130442 3,-0.365235 v 1.427735 c -0.82344,0.235502 -1.89168,0.36625 -3,0.367187 -1.10913,-0.0015 -2.17747,-0.132929 -3,-0.36914 z m 0,3.199219 c 0.82344,0.235502 1.89168,0.366251 3,0.367188 1.10832,-9.37e-4 2.17656,-0.131686 3,-0.367188 v 1.429688 c -0.82435,0.234793 -1.8925,0.364833 -3,0.365234 -1.10913,-0.0015 -2.17747,-0.13293 -3,-0.369141 z"
       id="path22170" /></g></svg>
