<?xml version="1.0" encoding="UTF-8" standalone="no"?>
<svg
   width="16"
   height="16"
   version="1.1"
   id="svg8909"
   sodipodi:docname="folder-apps.svg"
   inkscape:version="1.2.1 (9c6d41e410, 2022-07-14, custom)"
   xmlns:inkscape="http://www.inkscape.org/namespaces/inkscape"
   xmlns:sodipodi="http://sodipodi.sourceforge.net/DTD/sodipodi-0.dtd"
   xmlns="http://www.w3.org/2000/svg"
   xmlns:svg="http://www.w3.org/2000/svg">
  <sodipodi:namedview
     id="namedview8911"
     pagecolor="#ffffff"
     bordercolor="#000000"
     borderopacity="0.25"
     inkscape:showpageshadow="2"
     inkscape:pageopacity="0.0"
     inkscape:pagecheckerboard="0"
     inkscape:deskcolor="#d1d1d1"
     showgrid="false"
     inkscape:zoom="25.09375"
     inkscape:cx="1.633873"
     inkscape:cy="7.392279"
     inkscape:window-width="1920"
     inkscape:window-height="1057"
     inkscape:window-x="0"
     inkscape:window-y="0"
     inkscape:window-maximized="1"
     inkscape:current-layer="svg8909" />
  <defs
     id="defs8905">
    <style
       id="current-color-scheme"
       type="text/css">.ColorScheme-Text { color:#d2cfca; } .ColorScheme-Highlight { color:#5294e2; }</style>
  </defs>
  <path
     id="path1258"
     style="isolation:isolate;fill:none;fill-opacity:1;fill-rule:evenodd;stroke:#d2cfca;stroke-width:1.07623;stroke-linecap:round;stroke-dasharray:none;stroke-opacity:1"
     d="m 11.800859,0.53811502 c -0.25763,0 -0.48053,0.0911 -0.674366,0.2751207 L 8.43031,3.509419 C 8.24629,3.703255 8.155189,3.93138 8.155189,4.191463 c 0,0.262536 0.0911,0.483947 0.275121,0.667968 l 2.696183,2.6936234 c 0.193836,0.193835 0.419188,0.289198 0.674366,0.289198 0.257626,0 0.481811,-0.09536 0.675646,-0.289198 L 15.172688,4.859431 c 0.19138,-0.184021 0.289197,-0.407887 0.289197,-0.667968 0,-0.262534 -0.09536,-0.488208 -0.289197,-0.682044 L 12.476506,0.81323572 c -0.193835,-0.184021 -0.420472,-0.2751207 -0.675647,-0.2751207 z M 2.268886,1.917557 c -0.250269,0 -0.463052,0.08557 -0.637257,0.259766 -0.174206,0.174205 -0.261045,0.38827 -0.261045,0.638536 v 3.6239164 c 0,0.250268 0.08684,0.465822 0.261045,0.644935 0.174205,0.179112 0.386988,0.267443 0.637257,0.267443 H 5.89536 c 0.250268,0 0.465823,-0.08833 0.644935,-0.267443 0.179113,-0.179113 0.267444,-0.394667 0.267444,-0.644935 L 6.805239,2.815859 c 0,-0.250266 -0.08833,-0.464331 -0.267444,-0.638536 C 6.358668,2.003117 6.143114,1.917557 5.892847,1.917557 Z m 0,7.2478334 c -0.250269,0 -0.463052,0.08556 -0.637257,0.259766 -0.174206,0.174206 -0.261045,0.388268 -0.261045,0.6385356 v 3.635432 c 0,0.25027 0.08684,0.464331 0.261045,0.638537 0.174205,0.174205 0.386988,0.259764 0.637257,0.259764 H 5.89536 c 0.250268,0 0.465823,-0.08557 0.644935,-0.259764 0.179113,-0.174206 0.267444,-0.388267 0.267444,-0.638537 l -0.0025,-3.635432 c 0,-0.2502676 -0.08833,-0.4643296 -0.267444,-0.6385356 -0.1791,-0.174206 -0.394654,-0.259766 -0.644922,-0.259766 z m 7.263187,0 c -0.250267,0 -0.467101,0.08556 -0.646213,0.259766 -0.179113,0.174206 -0.267443,0.388268 -0.267443,0.6385356 v 3.635432 c 0,0.25027 0.08833,0.464331 0.267443,0.638537 0.179113,0.174205 0.395947,0.259764 0.646213,0.259764 h 3.626475 c 0.250272,0 0.463048,-0.08557 0.637257,-0.259764 0.174206,-0.174206 0.259766,-0.388267 0.259766,-0.638537 h -0.0025 v -3.635432 c 0,-0.2502676 -0.08557,-0.4643296 -0.259764,-0.6385356 -0.174194,-0.174206 -0.386979,-0.259766 -0.637245,-0.259766 z" />
</svg>
