<?xml version="1.0" encoding="UTF-8" standalone="no"?>
<svg
   width="16"
   height="16"
   version="1.1"
   viewBox="0 0 16 16"
   id="svg11"
   sodipodi:docname="folder-visiting.svg"
   inkscape:version="1.2.1 (9c6d41e410, 2022-07-14, custom)"
   xmlns:inkscape="http://www.inkscape.org/namespaces/inkscape"
   xmlns:sodipodi="http://sodipodi.sourceforge.net/DTD/sodipodi-0.dtd"
   xmlns="http://www.w3.org/2000/svg"
   xmlns:svg="http://www.w3.org/2000/svg">
  <sodipodi:namedview
     id="namedview13"
     pagecolor="#ffffff"
     bordercolor="#000000"
     borderopacity="0.25"
     inkscape:showpageshadow="2"
     inkscape:pageopacity="0.0"
     inkscape:pagecheckerboard="0"
     inkscape:deskcolor="#d1d1d1"
     showgrid="false"
     inkscape:zoom="44.9375"
     inkscape:cx="7.6439499"
     inkscape:cy="8"
     inkscape:window-width="1920"
     inkscape:window-height="1057"
     inkscape:window-x="0"
     inkscape:window-y="0"
     inkscape:window-maximized="1"
     inkscape:current-layer="svg11" />
  <defs
     id="defs3">
    <style
       id="current-color-scheme"
       type="text/css">.ColorScheme-Text { color:#727272; } .ColorScheme-Highlight { color:#66bb6a; }</style>
  </defs>
  <rect
     class="ColorScheme-Highlight"
     fill="currentColor"
     x=".9998"
     y="1"
     width="14"
     height="5"
     rx="1"
     ry="1"
     enable-background="new"
     opacity=".5"
     style="paint-order:stroke markers fill;fill:#d8c4f1;fill-opacity:1"
     id="rect5" />
  <path
     class="ColorScheme-Highlight"
     fill="currentColor"
     d="M 8,3 7,5 H 1 C 0.446,5 0,5.446 0,6 v 8 c 0,0.554 0.446,1 1,1 h 14 c 0.554,0 1,-0.446 1,-1 V 4 C 16,3.5 15.5,3 15,3 Z"
     enable-background="new"
     id="path7"
     style="display:inline;fill:#d8c4f1;fill-opacity:1" />
  <path
     d="M 8.918,3 7.8594,3.2832 H 7.85745 L 7.0000269,5 h -5.5469 l -1.1738,0.31445 C 0.1090969,5.4936 2.69e-5,5.73221 2.69e-5,6 V 7.459 L 15.629027,3.2715 c -0.0054,-0.00476 -0.01213,-0.00705 -0.01758,-0.011719 -0.08432,-0.072276 -0.17537,-0.13507 -0.27344,-0.17969 -0.109,-0.046894 -0.22279,-0.080078 -0.33789,-0.080078 H 8.9181189 Z M 16,4.2285 0,8.5176 v 2.0703 L 16,6.2988 Z m 0,3.125 -16,4.2891 v 2.0703 L 16,9.4258 Z m 0,3.127 -15.717,4.2129 c 0.18159,0.18781 0.43371,0.30664 0.7168,0.30664 h 5.8633 l 9.1367,-2.4492 v -2.0703 z m 0,3.127 -5.1934,1.3926 H 15 c 0.554,0 1,-0.446 1,-1 v -0.39258 z"
     enable-background="new"
     fill="#ffffff"
     opacity="0.25"
     id="path9"
     style="display:inline" />
</svg>
