<?xml version="1.0" encoding="UTF-8" standalone="no"?>
<!-- Generator: Adobe Illustrator 15.1.0, SVG Export Plug-In . SVG Version: 6.00 Build 0)  -->

<svg
   version="1.1"
   id="Layer_1"
   x="0px"
   y="0px"
   width="56.69px"
   height="56.69px"
   viewBox="0 0 56.69 56.69"
   enable-background="new 0 0 56.69 56.69"
   xml:space="preserve"
   sodipodi:docname="weather90.svg"
   inkscape:version="1.2.1 (9c6d41e410, 2022-07-14)"
   xmlns:inkscape="http://www.inkscape.org/namespaces/inkscape"
   xmlns:sodipodi="http://sodipodi.sourceforge.net/DTD/sodipodi-0.dtd"
   xmlns="http://www.w3.org/2000/svg"
   xmlns:svg="http://www.w3.org/2000/svg"><defs
   id="defs7" /><sodipodi:namedview
   id="namedview5"
   pagecolor="#c91d18"
   bordercolor="#000000"
   borderopacity="0.25"
   inkscape:showpageshadow="2"
   inkscape:pageopacity="0"
   inkscape:pagecheckerboard="0"
   inkscape:deskcolor="#d1d1d1"
   showgrid="false"
   inkscape:zoom="6.3415066"
   inkscape:cx="13.955674"
   inkscape:cy="36.032447"
   inkscape:window-width="1689"
   inkscape:window-height="917"
   inkscape:window-x="0"
   inkscape:window-y="49"
   inkscape:window-maximized="0"
   inkscape:current-layer="Layer_1" />
<path
   d="m 41.601684,42.761656 c -0.0017,0 -0.0017,0 -0.0035,0 -0.468343,0 -0.848289,0.378246 -0.84999,0.84829 l -0.02635,8.778691 c -0.0017,0.470043 0.376547,0.851689 0.846591,0.853389 0.0017,0 0.0017,0 0.0035,0 0.468345,0 0.848289,-0.378245 0.84999,-0.848289 l 0.02635,-8.778693 c 0.0017,-0.470043 -0.376544,-0.851689 -0.846591,-0.853388 z"
   id="path854"
   style="fill:#44dbff;fill-opacity:1;stroke-width:0.849989" /><path
   d="m 35.881254,42.766755 c -0.440294,-0.0017 -0.849988,0.376546 -0.851689,0.846591 l -0.01954,6.132674 c -0.0017,0.470044 0.378245,0.85169 0.848289,0.853389 h 0.0017 c 0.468345,0 0.84829,-0.378246 0.84999,-0.84829 l 0.01955,-6.132674 c 0.0017,-0.468344 -0.379095,-0.84999 -0.848289,-0.85169 z"
   id="path852"
   style="fill:#44dbff;fill-opacity:1;stroke-width:0.849989" /><path
   d="m 30.168476,42.770156 c -0.0017,0 -0.0035,0 -0.0035,0 -0.467494,0 -0.848289,0.378245 -0.84999,0.846588 l -0.02805,8.780394 c -0.0017,0.468344 0.377395,0.849989 0.848289,0.851689 h 0.0017 c 0.468343,0 0.848289,-0.378246 0.849989,-0.846591 l 0.02805,-8.780391 c 0.0017,-0.468345 -0.376547,-0.849989 -0.84659,-0.851689 z"
   id="path850"
   style="fill:#44dbff;fill-opacity:1;stroke-width:0.849989" /><path
   d="m 24.447196,42.773556 c -0.497244,-0.0085 -0.850839,0.378245 -0.852539,0.848289 l -0.0187,6.132674 c -0.0017,0.468344 0.377395,0.84999 0.84744,0.851689 8.49e-4,0 0.0017,0 0.0026,0 0.468343,0 0.84829,-0.378244 0.84999,-0.846589 l 0.0187,-6.132674 c 0.0017,-0.470044 -0.378246,-0.851689 -0.84744,-0.853389 z"
   id="path848"
   style="fill:#44dbff;fill-opacity:1;stroke-width:0.849989" /><path
   d="m 18.733567,42.778655 c -8.51e-4,0 -0.0017,0 -0.0026,0 -0.468343,0 -0.848289,0.378246 -0.84999,0.84659 l -0.0272,8.780391 c -0.0017,0.468345 0.378245,0.84999 0.84744,0.85169 8.5e-4,0 0.0017,0 0.0026,0 0.468345,0 0.84829,-0.378245 0.84999,-0.846589 l 0.0272,-8.780392 c 0.0017,-0.468345 -0.377394,-0.85084 -0.84744,-0.85169 z"
   id="path846"
   style="fill:#44dbff;fill-opacity:1;stroke-width:0.849989" /><path
   d="m 50.218028,32.039038 c 0,4.354497 -3.530857,7.885353 -7.885353,7.885353 H 16.73609 c -4.355345,0 -7.8862018,-3.530856 -7.8862018,-7.885353 0,-4.123299 3.1653618,-7.498607 7.1968608,-7.848804 0,-0.0119 -0.0017,-0.02294 -0.0017,-0.03485 0,-3.823254 3.098211,-6.919766 6.918064,-6.919766 1.418633,0 2.736116,0.428395 3.834302,1.161087 1.892928,-3.25546 5.409334,-5.449284 9.446783,-5.449284 6.038326,0 10.930015,4.89084 10.930015,10.928315 0,0.623894 -0.0629,1.230786 -0.164047,1.825778 1.942226,1.436482 3.20786,3.735704 3.20786,6.337523 z"
   id="path2"
   style="fill:#ffffff;fill-opacity:1;stroke-width:0.849989" />
<path
   style="fill:#ffd800;fill-opacity:1;stroke-width:0.849989"
   d="m 17.88357,17.489577 c 1.547831,-1.104987 3.438208,-1.759478 5.479883,-1.759478 1.029338,0 2.040824,0.164898 3.001313,0.487044 2.187873,-2.576318 5.285235,-4.251649 8.645242,-4.666442 -1.717827,-2.3876204 -4.514293,-3.9465014 -7.679653,-3.9465014 -5.229137,0 -9.469735,4.2388974 -9.469735,9.4688834 8.51e-4,0.140248 0.01615,0.277946 0.02294,0.416494 z"
   id="path900" /><path
   style="fill:#ffd800;fill-opacity:1;stroke-width:0.849989"
   d="m 35.591401,8.8120346 c 0.720792,0.7216411 1.783279,0.8236403 2.385922,0.2405474 l 0.01023,0.00847 0.0035,-0.017846 c 0.0017,-8.505e-4 0.0035,-0.00258 0.0052,-0.00424 0.381646,-0.3824954 1.008087,-2.9732633 0.677441,-3.3107091 -0.328946,-0.3365959 -2.926514,0.2957963 -3.309009,0.6791416 -0.0035,0.00171 -0.0035,0.00254 -0.0035,0.00509 l -0.01785,0.00425 0.0067,0.0068 C 34.766091,7.028731 34.87064,8.0920679 35.591431,8.8120092 Z"
   id="path898" /><path
   style="fill:#ffd800;fill-opacity:1;stroke-width:0.849989"
   d="m 16.670635,9.0440815 0.0042,0.017846 0.0067,-0.00682 c 0.604342,0.583093 1.667679,0.4785445 2.38932,-0.2413968 0.720791,-0.721641 0.82364,-1.784128 0.240548,-2.3867706 l 0.0085,-0.00935 -0.01785,-0.00425 c -8.5e-4,-0.00171 -0.0026,-0.0034 -0.0026,-0.0034 -0.384195,-0.3833452 -2.974113,-1.0080874 -3.311558,-0.6791416 -0.337447,0.328946 0.295797,2.9265145 0.67914,3.3107098 8.52e-4,0.00165 8.52e-4,0.00165 0.0035,0.00258 z"
   id="path896" /><path
   style="fill:#ffd800;fill-opacity:1;stroke-width:0.849989"
   d="m 14.110467,18.93541 c 8.51e-4,0 0.0035,-8.52e-4 0.0042,-8.52e-4 l 0.017,0.0093 v -0.0111 c 0.83809,-0.01529 1.517231,-0.839788 1.517231,-1.858926 0,-1.019987 -0.679141,-1.844477 -1.517231,-1.858928 v -0.01275 l -0.017,0.0111 c -8.5e-4,0 -0.0035,0 -0.0042,0 -0.542292,0 -2.816014,1.389733 -2.820264,1.859777 -0.0076,0.471744 2.277972,1.862327 2.820264,1.862327 z"
   id="path894" /><path
   style="fill:#ffd800;fill-opacity:1;stroke-width:0.849989"
   d="m 25.470576,3.8735957 c 0.01615,0.8380896 0.839791,1.5180812 1.858929,1.5180812 1.020837,0 1.845325,-0.6799916 1.859776,-1.5180812 h 0.01361 l -0.0119,-0.016149 c 0,-8.5e-4 0,-0.00425 0,-0.00425 0,-0.5431432 -1.389732,-2.8160152 -1.860627,-2.8202651 -0.470044,-0.00849 -1.859777,2.2779719 -1.859777,2.8202651 0,0 8.5e-4,0.0034 8.5e-4,0.00425 l -0.01023,0.016149 z"
   id="path892" /></svg>
