<?xml version="1.0" encoding="UTF-8" standalone="no"?>
<!-- Generator: Adobe Illustrator 15.1.0, SVG Export Plug-In . SVG Version: 6.00 Build 0)  -->

<svg
   version="1.1"
   id="Layer_1"
   x="0px"
   y="0px"
   width="56.69px"
   height="56.69px"
   viewBox="0 0 56.69 56.69"
   enable-background="new 0 0 56.69 56.69"
   xml:space="preserve"
   sodipodi:docname="weather2.svg"
   inkscape:version="1.2.1 (9c6d41e410, 2022-07-14)"
   xmlns:inkscape="http://www.inkscape.org/namespaces/inkscape"
   xmlns:sodipodi="http://sodipodi.sourceforge.net/DTD/sodipodi-0.dtd"
   xmlns="http://www.w3.org/2000/svg"
   xmlns:svg="http://www.w3.org/2000/svg"><defs
   id="defs7" /><sodipodi:namedview
   id="namedview5"
   pagecolor="#ffffff"
   bordercolor="#000000"
   borderopacity="0.25"
   inkscape:showpageshadow="2"
   inkscape:pageopacity="0.0"
   inkscape:pagecheckerboard="0"
   inkscape:deskcolor="#d1d1d1"
   showgrid="false"
   inkscape:zoom="12.683013"
   inkscape:cx="28.305577"
   inkscape:cy="28.305577"
   inkscape:window-width="1920"
   inkscape:window-height="1046"
   inkscape:window-x="0"
   inkscape:window-y="34"
   inkscape:window-maximized="1"
   inkscape:current-layer="Layer_1" />
<path
   d="M52.68,34.938c0,5.123-4.154,9.277-9.277,9.277H13.289c-5.124,0-9.278-4.154-9.278-9.277c0-4.852,3.724-8.824,8.467-9.235  c0-0.014-0.002-0.027-0.002-0.041c0-4.498,3.645-8.141,8.139-8.141c1.668,0,3.219,0.504,4.511,1.365  c2.227-3.83,6.363-6.41,11.113-6.41c7.104,0,12.859,5.754,12.859,12.857c0,0.733-0.074,1.447-0.193,2.147  C51.191,29.17,52.68,31.875,52.68,34.938z"
   id="path2"
   style="fill:#ffffff;fill-opacity:1" />
</svg>
