<?xml version="1.0" encoding="UTF-8" standalone="no"?>
<!-- Generator: Adobe Illustrator 15.1.0, SVG Export Plug-In . SVG Version: 6.00 Build 0)  -->

<svg
   version="1.1"
   id="Layer_1"
   x="0px"
   y="0px"
   width="56.69px"
   height="56.69px"
   viewBox="0 0 56.69 56.69"
   enable-background="new 0 0 56.69 56.69"
   xml:space="preserve"
   sodipodi:docname="jdwi-sleet-night.svg"
   inkscape:version="1.2.1 (9c6d41e410, 2022-07-14)"
   xmlns:inkscape="http://www.inkscape.org/namespaces/inkscape"
   xmlns:sodipodi="http://sodipodi.sourceforge.net/DTD/sodipodi-0.dtd"
   xmlns="http://www.w3.org/2000/svg"
   xmlns:svg="http://www.w3.org/2000/svg"><defs
   id="defs7" /><sodipodi:namedview
   id="namedview5"
   pagecolor="#c91d18"
   bordercolor="#000000"
   borderopacity="0.25"
   inkscape:showpageshadow="2"
   inkscape:pageopacity="0"
   inkscape:pagecheckerboard="0"
   inkscape:deskcolor="#d1d1d1"
   showgrid="false"
   inkscape:zoom="4.4841223"
   inkscape:cx="75.265565"
   inkscape:cy="52.072621"
   inkscape:window-width="1689"
   inkscape:window-height="917"
   inkscape:window-x="0"
   inkscape:window-y="49"
   inkscape:window-maximized="0"
   inkscape:current-layer="Layer_1" />
<path
   d="m 8.602162,35.968581 c 0,3.896665 3.159623,7.056288 7.056288,7.056288 h 22.905363 c 3.897425,0 7.057048,-3.159623 7.057048,-7.056288 0,-3.689776 -2.832556,-6.710205 -6.440184,-7.023582 0,-0.01065 0.0015,-0.02053 0.0015,-0.03119 0,-3.421278 -2.772466,-6.192223 -6.1907,-6.192223 -1.269478,0 -2.448441,0.383353 -3.431164,1.03901 -1.693906,-2.913181 -4.840598,-4.876347 -8.45355,-4.876347 -5.403457,0 -9.780835,4.376618 -9.780835,9.779314 0,0.558298 0.05629,1.101381 0.146799,1.633816 -1.73802,1.28545 -2.870586,3.342933 -2.870586,5.671197 z"
   id="path2"
   style="fill:#ffffff;fill-opacity:1;stroke-width:0.760621" />
<path
   d="m 33.119683,14.536609 c -1.282335,-4.7275459 0.103804,-9.5499473 3.238499,-12.8671939 -1.070253,0.045638 -2.153929,0.204923 -3.23134,0.4984371 -6.939641,1.880996 -11.361145,8.4152648 -10.834072,15.3298488 2.665788,0.598662 5.089965,2.035807 6.898477,4.097565 0.868909,-0.269353 1.778087,-0.408056 2.703372,-0.408056 4.278327,0 7.880139,2.955723 8.871644,6.932481 1.036248,0.32573 1.994643,0.811639 2.849235,1.428197 2.478762,-1.247435 4.499357,-3.141854 5.904287,-5.415693 -7.155302,1.805827 -14.46273,-2.446548 -16.400102,-9.595586 z"
   id="path846-3"
   style="fill:#f6ff24;fill-opacity:1;stroke-width:0.89486" /><path
   d="m 40.559249,44.197227 c -0.002,0 -0.002,0 -0.004,0 -0.551,0 -0.998,0.445 -1,0.997 l -0.008,3 c -0.002,0.553 0.443,1.001 0.996,1.003 0.002,0 0.002,0 0.004,0 0.551,0 0.998,-0.446 1,-0.997 l 0.008,-3 c 0.002,-0.552 -0.443,-1.001 -0.996,-1.003 z"
   id="path864"
   style="fill:#44dbff;fill-opacity:1" /><path
   d="m 40.541249,50.197227 c -0.002,0 -0.002,0 -0.004,0 -0.551,0 -0.998,0.445 -1,0.997 l -0.008,2.461 c -0.002,0.552 0.445,1.001 0.998,1.003 h 0.002 c 0.551,0 0.998,-0.445 1,-0.997 l 0.008,-2.461 c 0.002,-0.551 -0.443,-1.001 -0.996,-1.003 z"
   id="path862"
   style="fill:#44dbff;fill-opacity:1" /><path
   d="m 33.815249,49.108227 h -0.004 c -0.551,0 -0.998,0.445 -1,0.996 l -0.004,1 c -0.002,0.553 0.443,1.002 0.998,1.004 h 0.002 c 0.551,0 0.998,-0.445 1,-0.996 l 0.004,-1 c 0.002,-0.553 -0.443,-1.003 -0.996,-1.004 z"
   id="path860"
   style="fill:#44dbff;fill-opacity:1" /><path
   d="m 33.830249,44.197227 c 0,0 -0.002,0 -0.004,0 -0.551,0 -0.998,0.445 -1,0.996 l -0.004,1 c -0.002,0.553 0.443,1.002 0.996,1.004 0.002,0 0.004,0 0.004,0 0.551,0 0.998,-0.445 1,-0.996 l 0.004,-1 c 0.003,-0.552 -0.443,-1.002 -0.996,-1.004 z"
   id="path858"
   style="fill:#44dbff;fill-opacity:1" /><path
   d="m 27.108249,44.197227 c -0.002,0 -0.004,0 -0.004,0 -0.551,0 -0.998,0.445 -1,0.997 l -0.01,3 c -0.002,0.552 0.445,1.001 0.998,1.003 h 0.002 c 0.551,0 0.998,-0.445 1,-0.997 l 0.01,-3 c 0.002,-0.551 -0.443,-1.001 -0.996,-1.003 z"
   id="path856"
   style="fill:#44dbff;fill-opacity:1" /><path
   d="m 27.088249,50.197227 c -0.002,0 -0.002,0 -0.004,0 -0.551,0 -0.998,0.445 -1,0.997 l -0.008,2.461 c -0.002,0.552 0.445,1.001 0.998,1.003 h 0.002 c 0.551,0 0.998,-0.445 1,-0.997 l 0.008,-2.461 c 0.002,-0.551 -0.443,-1.001 -0.996,-1.003 z"
   id="path854-2"
   style="fill:#44dbff;fill-opacity:1" /><path
   d="m 20.362249,49.108227 c -0.002,0 -0.002,0 -0.004,0 -0.551,0 -0.998,0.446 -1,0.997 l -0.002,1 c -0.002,0.553 0.445,1.001 0.996,1.003 0.002,0 0.002,0 0.004,0 0.551,0 0.998,-0.446 1,-0.997 l 0.002,-1 c 0.002,-0.553 -0.444,-1.002 -0.996,-1.003 z"
   id="path852-9"
   style="fill:#44dbff;fill-opacity:1" /><path
   d="m 20.377249,44.197227 c -0.002,0 -0.002,0 -0.004,0 -0.551,0 -0.998,0.446 -1,0.997 l -0.002,1 c -0.002,0.553 0.445,1.001 0.996,1.003 0.002,0 0.002,0 0.004,0 0.551,0 0.998,-0.446 1,-0.997 l 0.002,-1 c 0.002,-0.552 -0.443,-1.001 -0.996,-1.003 z"
   id="path850-1"
   style="fill:#44dbff;fill-opacity:1" /><path
   d="m 13.638249,50.197227 c -0.002,0 -0.002,0 -0.004,0 -0.551,0 -0.998,0.445 -1,0.997 l -0.008,2.461 c -0.002,0.552 0.445,1.001 0.997,1.003 0.001,0 0.003,0 0.003,0 0.55,0 0.998,-0.445 1,-0.997 l 0.008,-2.461 c 10e-4,-0.551 -0.444,-1.001 -0.996,-1.003 z"
   id="path848-2"
   style="fill:#44dbff;fill-opacity:1" /><path
   d="m 13.655249,44.197227 h -0.002 c -0.551,0 -0.998,0.445 -1,0.997 l -0.01,3 c -0.002,0.552 0.445,1.001 0.997,1.003 10e-4,0 0.002,0 0.003,0 0.55,0 0.998,-0.445 1,-0.997 l 0.01,-3 c 0.002,-0.551 -0.446,-1.001 -0.998,-1.003 z"
   id="path846-7"
   style="fill:#44dbff;fill-opacity:1" /></svg>
