<?xml version="1.0" encoding="utf-8"?>
<!-- Generator: Adobe Illustrator 15.1.0, SVG Export Plug-In . SVG Version: 6.00 Build 0)  -->
<!DOCTYPE svg PUBLIC "-//W3C//DTD SVG 1.1//EN" "http://www.w3.org/Graphics/SVG/1.1/DTD/svg11.dtd">
<svg version="1.1" id="Layer_1" xmlns="http://www.w3.org/2000/svg" xmlns:xlink="http://www.w3.org/1999/xlink" x="0px" y="0px"
	 width="56.69px" height="56.69px" viewBox="0 0 56.69 56.69" enable-background="new 0 0 56.69 56.69" xml:space="preserve">
<path d="M40.741,10.852v2h-7.75v-2H40.741z M37.491,15.211h-4.5v2h4.5V15.211z M32.991,21.571h7.75v-2h-7.75V21.571z M37.491,23.93
	h-4.5v2h4.5V23.93z M32.991,30.289h7.75v-2h-7.75V30.289z M34.199,41.686c0,5.039-4.084,9.125-9.125,9.125
	c-5.039,0-9.125-4.086-9.125-9.125c0-3.555,2.036-6.625,5-8.133V10.005c0-2.277,1.848-4.125,4.125-4.125
	c2.279,0,4.125,1.848,4.125,4.125v23.547C32.164,35.061,34.199,38.131,34.199,41.686z M32.033,41.686
	c0-3.223-2.193-5.926-5.167-6.717V12.623h-3.583v22.346c-2.974,0.791-5.167,3.494-5.167,6.717c0,3.842,3.115,6.957,6.958,6.957
	C28.918,48.643,32.033,45.527,32.033,41.686z M23.43,36.676c-2.219,0.502-3.769,2.441-3.769,4.719c0,0.438,0.354,0.791,0.79,0.791
	s0.79-0.354,0.79-0.791c0-1.51,1.067-2.846,2.536-3.178c0.426-0.098,0.693-0.52,0.598-0.945
	C24.278,36.846,23.855,36.58,23.43,36.676z"/>
</svg>
