<?xml version="1.0" encoding="UTF-8" standalone="no"?>
<!-- Generator: Adobe Illustrator 15.1.0, SVG Export Plug-In . SVG Version: 6.00 Build 0)  -->

<svg
   version="1.1"
   id="Layer_1"
   x="0px"
   y="0px"
   width="56.69px"
   height="56.69px"
   viewBox="0 0 56.69 56.69"
   enable-background="new 0 0 56.69 56.69"
   xml:space="preserve"
   sodipodi:docname="weather6.svg"
   inkscape:version="1.2.1 (9c6d41e410, 2022-07-14)"
   xmlns:inkscape="http://www.inkscape.org/namespaces/inkscape"
   xmlns:sodipodi="http://sodipodi.sourceforge.net/DTD/sodipodi-0.dtd"
   xmlns="http://www.w3.org/2000/svg"
   xmlns:svg="http://www.w3.org/2000/svg"><defs
   id="defs7" /><sodipodi:namedview
   id="namedview5"
   pagecolor="#ffffff"
   bordercolor="#000000"
   borderopacity="0.25"
   inkscape:showpageshadow="2"
   inkscape:pageopacity="0.0"
   inkscape:pagecheckerboard="0"
   inkscape:deskcolor="#d1d1d1"
   showgrid="false"
   inkscape:zoom="8.9682446"
   inkscape:cx="15.387627"
   inkscape:cy="52.741648"
   inkscape:window-width="1920"
   inkscape:window-height="1046"
   inkscape:window-x="0"
   inkscape:window-y="34"
   inkscape:window-maximized="1"
   inkscape:current-layer="Layer_1" />
<path
   id="path2"
   d="M 25.646484 36.302734 L 22.132812 43.257812 L 28.482422 43.257812 L 24.310547 52.125 L 36.115234 41.058594 L 29.810547 41.064453 L 32.572266 36.302734 L 25.646484 36.302734 z "
   style="fill:#ffd800;fill-opacity:1" /><path
   id="path902"
   d="M 36.240234 4.5664062 C 31.490239 4.5664062 27.353951 7.1465663 25.126953 10.976562 C 23.834954 10.115563 22.284233 9.6113281 20.615234 9.6113281 C 16.121239 9.6113281 12.476562 13.253958 12.476562 17.751953 C 12.476562 17.765953 12.478516 17.778969 12.478516 17.792969 C 7.7355204 18.204968 4.0117188 22.175349 4.0117188 27.027344 C 4.0117187 32.149339 8.1650676 36.302734 13.289062 36.302734 L 25.646484 36.302734 L 32.572266 36.302734 L 35.742188 36.302734 L 43.402344 36.302734 C 48.525339 36.302734 52.679688 32.149339 52.679688 27.027344 C 52.679687 23.964347 51.191248 21.258358 48.90625 19.568359 C 49.02525 18.86936 49.099609 18.155827 49.099609 17.423828 C 49.099609 10.320835 43.344227 4.5664062 36.240234 4.5664062 z "
   style="fill:#ffffff;fill-opacity:1" />
</svg>
