<?xml version="1.0" encoding="UTF-8" standalone="no"?>
<!-- Generator: Adobe Illustrator 15.1.0, SVG Export Plug-In . SVG Version: 6.00 Build 0)  -->

<svg
   version="1.1"
   id="Layer_1"
   x="0px"
   y="0px"
   width="56.69px"
   height="56.69px"
   viewBox="0 0 56.69 56.69"
   enable-background="new 0 0 56.69 56.69"
   xml:space="preserve"
   sodipodi:docname="weather5.svg"
   inkscape:version="1.2.1 (9c6d41e410, 2022-07-14)"
   xmlns:inkscape="http://www.inkscape.org/namespaces/inkscape"
   xmlns:sodipodi="http://sodipodi.sourceforge.net/DTD/sodipodi-0.dtd"
   xmlns="http://www.w3.org/2000/svg"
   xmlns:svg="http://www.w3.org/2000/svg"><defs
   id="defs7" /><sodipodi:namedview
   id="namedview5"
   pagecolor="#c91d18"
   bordercolor="#000000"
   borderopacity="0.25"
   inkscape:showpageshadow="2"
   inkscape:pageopacity="0"
   inkscape:pagecheckerboard="0"
   inkscape:deskcolor="#d1d1d1"
   showgrid="false"
   inkscape:zoom="8.9682446"
   inkscape:cx="100.74435"
   inkscape:cy="42.873496"
   inkscape:window-width="1689"
   inkscape:window-height="917"
   inkscape:window-x="-34"
   inkscape:window-y="49"
   inkscape:window-maximized="0"
   inkscape:current-layer="Layer_1" />
<path
   d="m 42.543,39.709 c -0.002,0 -0.002,0 -0.004,0 -0.551,0 -0.998,0.445 -1,0.998 l -0.031,10.328 c -0.002,0.553 0.443,1.002 0.996,1.004 0.002,0 0.002,0 0.004,0 0.551,0 0.998,-0.445 1,-0.998 l 0.031,-10.328 c 0.002,-0.553 -0.443,-1.002 -0.996,-1.004 z"
   id="path854"
   style="fill:#44dbff;fill-opacity:1" /><path
   d="m 35.813,39.715 c -0.518,-0.002 -1,0.443 -1.002,0.996 l -0.023,7.215 c -0.002,0.553 0.445,1.002 0.998,1.004 h 0.002 c 0.551,0 0.998,-0.445 1,-0.998 l 0.023,-7.215 c 0.002,-0.551 -0.446,-1 -0.998,-1.002 z"
   id="path852"
   style="fill:#44dbff;fill-opacity:1" /><path
   d="m 29.092,39.719 c -0.002,0 -0.004,0 -0.004,0 -0.55,0 -0.998,0.445 -1,0.996 l -0.033,10.33 c -0.002,0.551 0.444,1 0.998,1.002 h 0.002 c 0.551,0 0.998,-0.445 1,-0.996 l 0.033,-10.33 c 0.002,-0.551 -0.443,-1 -0.996,-1.002 z"
   id="path850"
   style="fill:#44dbff;fill-opacity:1" /><path
   d="m 22.361,39.723 c -0.585,-0.01 -1.001,0.445 -1.003,0.998 l -0.022,7.215 c -0.002,0.551 0.444,1 0.997,1.002 0.001,0 0.002,0 0.003,0 0.551,0 0.998,-0.445 1,-0.996 l 0.022,-7.215 c 0.002,-0.553 -0.445,-1.002 -0.997,-1.004 z"
   id="path848"
   style="fill:#44dbff;fill-opacity:1" /><path
   d="m 15.639,39.729 c -10e-4,0 -0.002,0 -0.003,0 -0.551,0 -0.998,0.445 -1,0.996 l -0.032,10.33 c -0.002,0.551 0.445,1 0.997,1.002 10e-4,0 0.002,0 0.003,0 0.551,0 0.998,-0.445 1,-0.996 l 0.032,-10.33 C 16.638,40.18 16.192,39.73 15.639,39.729 Z"
   id="path846"
   style="fill:#44dbff;fill-opacity:1" /><path
   d="m 52.68,27.094 c 0,5.123 -4.154,9.277 -9.277,9.277 H 13.289 c -5.124,0 -9.278,-4.154 -9.278,-9.277 0,-4.851 3.724,-8.822 8.467,-9.234 0,-0.014 -0.002,-0.027 -0.002,-0.041 0,-4.498 3.645,-8.141 8.139,-8.141 1.669,0 3.219,0.504 4.511,1.366 2.227,-3.83 6.364,-6.411 11.114,-6.411 7.104,0 12.859,5.754 12.859,12.857 0,0.734 -0.074,1.448 -0.193,2.148 2.285,1.69 3.774,4.395 3.774,7.456 z"
   id="path2"
   style="fill:#ffffff;fill-opacity:1" />
</svg>
