<?xml version="1.0" encoding="UTF-8" standalone="no"?>
<!-- Generator: Adobe Illustrator 15.1.0, SVG Export Plug-In . SVG Version: 6.00 Build 0)  -->

<svg
   version="1.1"
   id="Layer_1"
   x="0px"
   y="0px"
   width="56.69px"
   height="56.69px"
   viewBox="0 0 56.69 56.69"
   enable-background="new 0 0 56.69 56.69"
   xml:space="preserve"
   sodipodi:docname="weather13.svg"
   inkscape:version="1.2.1 (9c6d41e410, 2022-07-14)"
   xmlns:inkscape="http://www.inkscape.org/namespaces/inkscape"
   xmlns:sodipodi="http://sodipodi.sourceforge.net/DTD/sodipodi-0.dtd"
   xmlns="http://www.w3.org/2000/svg"
   xmlns:svg="http://www.w3.org/2000/svg"><defs
   id="defs7" /><sodipodi:namedview
   id="namedview5"
   pagecolor="#ffffff"
   bordercolor="#000000"
   borderopacity="0.25"
   inkscape:showpageshadow="2"
   inkscape:pageopacity="0.0"
   inkscape:pagecheckerboard="0"
   inkscape:deskcolor="#d1d1d1"
   showgrid="false"
   inkscape:zoom="12.683013"
   inkscape:cx="28.305577"
   inkscape:cy="28.305577"
   inkscape:window-width="1920"
   inkscape:window-height="1046"
   inkscape:window-x="0"
   inkscape:window-y="34"
   inkscape:window-maximized="1"
   inkscape:current-layer="Layer_1" />
<path
   d="M25.521,8.42l0.016-0.023c0-0.001-0.002-0.006-0.002-0.006c0-0.819,2.099-4.27,2.808-4.258  c0.713,0.008,2.811,3.438,2.811,4.258c0,0,0,0.005,0,0.006l0.018,0.023H31.15c-0.021,1.266-1.265,2.293-2.808,2.293  c-1.537,0-2.781-1.027-2.806-2.293H25.521z M31.153,48.27c-0.022-1.266-1.268-2.289-2.808-2.289s-2.784,1.023-2.805,2.289h-0.02  l0.016,0.025c0,0,0,0.004,0,0.008c0,0.816,2.098,4.246,2.809,4.254c0.713,0.012,2.81-3.438,2.81-4.254  c0-0.004-0.001-0.008-0.001-0.008l0.017-0.025H31.153z M48.303,25.537c-0.004,0-0.008,0.001-0.008,0.001l-0.025-0.016v0.018  c-1.264,0.021-2.289,1.268-2.289,2.805c0,1.54,1.025,2.786,2.289,2.807v0.018l0.025-0.016c0,0,0.004,0,0.008,0  c0.818,0,4.248-2.098,4.256-2.809C52.568,27.633,49.121,25.537,48.303,25.537z M8.421,25.542v-0.02L8.396,25.54  c-0.002,0-0.006,0-0.006,0c-0.818,0-4.251,2.097-4.259,2.808c-0.011,0.71,3.44,2.81,4.258,2.81c0,0,0.005-0.002,0.007-0.002  l0.024,0.014v-0.016c1.266-0.023,2.291-1.27,2.291-2.806C10.712,26.807,9.687,25.563,8.421,25.542z M12.254,16.225l0.006,0.027  l0.011-0.011c0.912,0.88,2.517,0.724,3.606-0.364c1.087-1.089,1.242-2.693,0.362-3.603l0.013-0.014l-0.027-0.006  c-0.002-0.003-0.004-0.005-0.006-0.005c-0.578-0.579-4.487-1.521-4.996-1.025c-0.51,0.496,0.446,4.418,1.025,4.996  C12.25,16.224,12.25,16.224,12.254,16.225z M44.438,40.467l-0.008-0.027l-0.01,0.01c-0.912-0.881-2.518-0.723-3.605,0.365  s-1.242,2.691-0.361,3.602l-0.014,0.014l0.027,0.006c0,0.004,0.004,0.006,0.004,0.008c0.58,0.576,4.488,1.521,4.996,1.021  c0.512-0.496-0.443-4.418-1.023-4.994C44.443,40.467,44.439,40.467,44.438,40.467z M40.814,15.875  c1.088,1.09,2.691,1.244,3.602,0.363l0.014,0.014l0.006-0.027c0.004-0.001,0.006-0.004,0.008-0.006  c0.576-0.578,1.52-4.488,1.021-4.996c-0.494-0.509-4.416,0.445-4.994,1.024c-0.004,0.003-0.004,0.004-0.004,0.008l-0.027,0.006  l0.01,0.011C39.57,13.184,39.727,14.789,40.814,15.875z M15.877,40.814c-1.09-1.088-2.691-1.242-3.604-0.363l-0.014-0.012  l-0.004,0.027c-0.003,0-0.006,0.004-0.006,0.004c-0.578,0.58-1.523,4.488-1.025,4.994c0.496,0.516,4.418-0.441,4.996-1.021  c0.002,0,0.004-0.004,0.004-0.004l0.027-0.01l-0.01-0.008C17.121,43.51,16.964,41.902,15.877,40.814z M42.637,28.344  c0,7.896-6.396,14.294-14.291,14.294c-7.893,0-14.293-6.398-14.293-14.294c0-7.894,6.4-14.292,14.293-14.292  C36.24,14.052,42.637,20.451,42.637,28.344z M27.676,23.502h-1.938v5.815c0,0.265-0.051,0.515-0.152,0.751  c-0.102,0.234-0.24,0.438-0.414,0.614c-0.178,0.175-0.383,0.313-0.621,0.415c-0.234,0.1-0.484,0.151-0.752,0.151  c-0.266,0-0.516-0.052-0.752-0.151c-0.236-0.103-0.441-0.24-0.617-0.415c-0.176-0.176-0.316-0.38-0.416-0.614  c-0.102-0.236-0.15-0.486-0.15-0.751v-5.815H19.93v5.815c0,0.535,0.104,1.039,0.305,1.509c0.203,0.471,0.477,0.881,0.826,1.229  c0.35,0.35,0.76,0.627,1.229,0.828c0.471,0.203,0.975,0.305,1.51,0.305c0.537,0,1.039-0.102,1.51-0.305  c0.471-0.201,0.881-0.479,1.232-0.828c0.354-0.348,0.629-0.758,0.832-1.229c0.203-0.47,0.303-0.974,0.303-1.509V23.502z   M36.76,23.502h-2.215l-1.938,6.462l-1.933-6.462h-2.2l3.165,9.685h1.94L36.76,23.502z"
   id="path2"
   style="fill:#ffd800;fill-opacity:1" />
</svg>
