<?xml version="1.0" encoding="UTF-8" standalone="no"?>
<!-- Generator: Adobe Illustrator 15.1.0, SVG Export Plug-In . SVG Version: 6.00 Build 0)  -->

<svg
   version="1.1"
   id="Layer_1"
   x="0px"
   y="0px"
   width="56.69px"
   height="56.69px"
   viewBox="0 0 56.69 56.69"
   enable-background="new 0 0 56.69 56.69"
   xml:space="preserve"
   sodipodi:docname="weather23.svg"
   inkscape:version="1.2.1 (9c6d41e410, 2022-07-14)"
   xmlns:inkscape="http://www.inkscape.org/namespaces/inkscape"
   xmlns:sodipodi="http://sodipodi.sourceforge.net/DTD/sodipodi-0.dtd"
   xmlns="http://www.w3.org/2000/svg"
   xmlns:svg="http://www.w3.org/2000/svg"><defs
   id="defs7" /><sodipodi:namedview
   id="namedview5"
   pagecolor="#ffffff"
   bordercolor="#000000"
   borderopacity="0.25"
   inkscape:showpageshadow="2"
   inkscape:pageopacity="0.0"
   inkscape:pagecheckerboard="0"
   inkscape:deskcolor="#d1d1d1"
   showgrid="false"
   inkscape:zoom="12.683013"
   inkscape:cx="28.305577"
   inkscape:cy="28.305577"
   inkscape:window-width="1920"
   inkscape:window-height="1046"
   inkscape:window-x="0"
   inkscape:window-y="34"
   inkscape:window-maximized="1"
   inkscape:current-layer="Layer_1" />
<path
   d="M53.033,28.345c0,0.552-0.447,1-1,1h-5.287l4.057,4.057c0.391,0.391,0.391,1.023,0,1.414  c-0.195,0.195-0.451,0.293-0.707,0.293s-0.512-0.098-0.707-0.293l-5.471-5.471H30.077l6.858,11.879l7.644,2.048  c0.533,0.143,0.85,0.691,0.707,1.225c-0.119,0.446-0.523,0.741-0.965,0.741c-0.086,0-0.173-0.011-0.26-0.034l-5.712-1.53  l2.706,4.688c0.276,0.479,0.112,1.09-0.366,1.366c-0.157,0.091-0.329,0.134-0.499,0.134c-0.346,0-0.682-0.179-0.867-0.5  l-2.643-4.577l-1.484,5.539c-0.119,0.446-0.523,0.741-0.965,0.741c-0.086,0-0.173-0.011-0.26-0.034  c-0.533-0.143-0.85-0.691-0.707-1.225l2.002-7.471l-6.922-11.988l-6.857,11.877l2.049,7.644c0.143,0.533-0.174,1.082-0.707,1.225  c-0.087,0.023-0.174,0.034-0.26,0.034c-0.441,0-0.846-0.294-0.965-0.741l-1.531-5.712l-2.706,4.688c-0.186,0.32-0.521,0.5-0.867,0.5  c-0.169,0-0.341-0.043-0.499-0.134c-0.479-0.276-0.643-0.888-0.366-1.366l2.643-4.578l-5.54,1.484  c-0.086,0.023-0.174,0.034-0.259,0.034c-0.442,0-0.846-0.294-0.965-0.741c-0.143-0.533,0.173-1.082,0.707-1.225l7.471-2.002  l6.921-11.987H12.898L7.303,34.94c-0.195,0.195-0.451,0.293-0.707,0.293s-0.512-0.098-0.707-0.293c-0.391-0.391-0.391-1.023,0-1.414  l4.182-4.182H4.657c-0.552,0-1-0.448-1-1s0.448-1,1-1h5.287l-4.056-4.056c-0.391-0.391-0.391-1.023,0-1.414s1.023-0.391,1.414,0  l5.47,5.47h13.84l-6.857-11.877l-7.643-2.048c-0.534-0.144-0.85-0.691-0.707-1.225c0.143-0.533,0.693-0.852,1.225-0.707l5.711,1.53  l-2.706-4.687c-0.276-0.479-0.113-1.09,0.365-1.366c0.478-0.276,1.09-0.112,1.367,0.366l2.643,4.578l1.485-5.541  c0.143-0.533,0.687-0.854,1.225-0.707c0.533,0.143,0.851,0.69,0.707,1.225l-2.002,7.473l6.919,11.985l6.858-11.878l-2.048-7.642  C33.013,6.29,33.329,5.742,33.862,5.6c0.535-0.144,1.083,0.173,1.225,0.707l1.53,5.71l2.705-4.686  c0.276-0.479,0.889-0.644,1.366-0.366c0.479,0.276,0.643,0.888,0.366,1.366l-2.644,4.579l5.542-1.485  c0.535-0.144,1.081,0.173,1.225,0.707c0.143,0.533-0.174,1.081-0.707,1.225l-7.474,2.002l-6.92,11.986h13.717l5.595-5.595  c0.391-0.391,1.023-0.391,1.414,0s0.391,1.023,0,1.414l-4.181,4.181h5.411C52.586,27.345,53.033,27.793,53.033,28.345z"
   id="path2"
   style="fill:#44dbff;fill-opacity:1" />
</svg>
