<?xml version="1.0" encoding="utf-8"?>
<!-- Generator: Adobe Illustrator 15.1.0, SVG Export Plug-In . SVG Version: 6.00 Build 0)  -->
<!DOCTYPE svg PUBLIC "-//W3C//DTD SVG 1.1//EN" "http://www.w3.org/Graphics/SVG/1.1/DTD/svg11.dtd">
<svg version="1.1" id="Layer_1" xmlns="http://www.w3.org/2000/svg" xmlns:xlink="http://www.w3.org/1999/xlink" x="0px" y="0px"
	 width="56.69px" height="56.69px" viewBox="0 0 56.69 56.69" enable-background="new 0 0 56.69 56.69" xml:space="preserve">
<path d="M36.543,26.844C36.543,26.844,36.543,26.844,36.543,26.844c-0.023,0.066-0.049,0.133-0.064,0.202
	c-0.365-1.713-3.254-3.081-6.939-3.325v17.5h0.375c0.598,0,1.082,0.484,1.082,1.082s-0.484,1.084-1.082,1.084h-0.375v4.084
	c0,1.975,1.607,3.582,3.582,3.582c1.977,0,3.584-1.607,3.584-3.582c0-0.553,0.447-1,1-1s1,0.447,1,1
	c0,3.078-2.506,5.582-5.584,5.582s-5.583-2.504-5.583-5.582v-4.084H27.08c-0.598,0-1.084-0.486-1.084-1.084s0.486-1.082,1.084-1.082
	h0.459V23.698c-3.977,0.183-7.104,1.675-7.309,3.523c-0.014-0.125-0.043-0.248-0.082-0.369c0-0.001,0-0.001,0-0.001
	c-0.594-1.797-3.968-3.173-8.052-3.173c-3.503,0-6.481,1.014-7.636,2.434C6.041,14.622,15.709,5.738,27.539,5.345V4.637
	c0-0.553,0.447-1,1-1c0.553,0,1,0.447,1,1v0.729c11.652,0.57,21.127,9.383,22.691,20.748c-1.154-1.422-4.135-2.436-7.639-2.436
	C40.514,23.678,37.143,25.051,36.543,26.844z"/>
</svg>
