<?xml version="1.0" encoding="UTF-8" standalone="no"?>
<svg
   width="22"
   height="22"
   version="1.1"
   id="svg6552"
   sodipodi:docname="folder-apps.svg"
   inkscape:version="1.2.1 (9c6d41e410, 2022-07-14)"
   xmlns:inkscape="http://www.inkscape.org/namespaces/inkscape"
   xmlns:sodipodi="http://sodipodi.sourceforge.net/DTD/sodipodi-0.dtd"
   xmlns="http://www.w3.org/2000/svg"
   xmlns:svg="http://www.w3.org/2000/svg">
  <sodipodi:namedview
     id="namedview6554"
     pagecolor="#ffffff"
     bordercolor="#000000"
     borderopacity="0.25"
     inkscape:showpageshadow="2"
     inkscape:pageopacity="0.0"
     inkscape:pagecheckerboard="0"
     inkscape:deskcolor="#d1d1d1"
     showgrid="false"
     inkscape:zoom="18.250001"
     inkscape:cx="10.054794"
     inkscape:cy="12.986301"
     inkscape:window-width="1920"
     inkscape:window-height="1046"
     inkscape:window-x="0"
     inkscape:window-y="34"
     inkscape:window-maximized="1"
     inkscape:current-layer="svg6552"
     showguides="true">
    <sodipodi:guide
       position="3.292329,14.547945"
       orientation="1,0"
       id="guide14310"
       inkscape:locked="false" />
    <sodipodi:guide
       position="17.561644,18.858869"
       orientation="0,-1"
       id="guide14312"
       inkscape:locked="false" />
    <sodipodi:guide
       position="19.15963,12.383562"
       orientation="1,0"
       id="guide14314"
       inkscape:locked="false" />
    <sodipodi:guide
       position="17.753316,3.023559"
       orientation="0,-1"
       id="guide14316"
       inkscape:locked="false" />
  </sodipodi:namedview>
  <defs
     id="defs6548">
    <style
       id="current-color-scheme"
       type="text/css">.ColorScheme-Text { color:#383d43; } .ColorScheme-Highlight { color:#5294e2; }</style>
  </defs>
  <path
     style="isolation:isolate;fill:none;fill-opacity:1;fill-rule:evenodd;stroke:#383d43;stroke-width:1.821;stroke-linecap:round;stroke-dasharray:none;stroke-opacity:1"
     d="m 12.702802,13.19961 c -0.200213,0 -0.373681,0.06845 -0.51697,0.207812 -0.143291,0.139365 -0.213955,0.310615 -0.213955,0.510829 v 2.908346 c 0,0.200216 0.07066,0.371465 0.213955,0.510829 0.14329,0.139364 0.316757,0.207812 0.51697,0.207812 h 2.90118 c 0.200218,0 0.370439,-0.06846 0.509806,-0.207812 0.139365,-0.139364 0.207813,-0.310613 0.207813,-0.510829 h -0.002 v -2.908346 c 0,-0.200214 -0.06846,-0.371464 -0.207812,-0.510829 -0.139355,-0.139364 -0.309583,-0.207812 -0.509796,-0.207812 z"
     id="path14308" />
  <path
     style="isolation:isolate;fill:none;fill-opacity:1;fill-rule:evenodd;stroke:#383d43;stroke-width:1.821;stroke-linecap:round;stroke-dasharray:none;stroke-opacity:1"
     d="m 5.4426861,13.19961 c -0.2002152,0 -0.3704416,0.06845 -0.5098056,0.207812 -0.1393648,0.139365 -0.208836,0.310615 -0.208836,0.510829 v 2.908346 c 0,0.200216 0.069472,0.371465 0.208836,0.510829 0.139364,0.139364 0.3095904,0.207812 0.5098056,0.207812 h 2.9011792 c 0.2002144,0 0.3726584,-0.06846 0.515948,-0.207812 0.1432904,-0.139364 0.2139552,-0.310613 0.2139552,-0.510829 l -0.002,-2.908346 c 0,-0.200214 -0.070664,-0.371464 -0.2139552,-0.510829 C 8.7145333,13.268058 8.5420901,13.19961 8.3418757,13.19961 Z"
     id="path14306" />
  <path
     style="isolation:isolate;fill:none;fill-opacity:1;fill-rule:evenodd;stroke:#383d43;stroke-width:1.821;stroke-linecap:round;stroke-dasharray:none;stroke-opacity:1"
     d="m 5.4426861,5.9520326 c -0.2002152,0 -0.3704416,0.068456 -0.5098056,0.2078128 -0.1393648,0.139364 -0.208836,0.310616 -0.208836,0.5108288 V 9.569807 c 0,0.2002144 0.069472,0.3726576 0.208836,0.515948 0.139364,0.14329 0.3095904,0.213954 0.5098056,0.213954 h 2.9011792 c 0.2002144,0 0.3726584,-0.07066 0.515948,-0.213954 C 9.0031037,9.9424646 9.0737685,9.7700214 9.0737685,9.569807 l -0.002,-2.8991328 c 0,-0.2002128 -0.070664,-0.3714648 -0.2139552,-0.5108288 C 8.7145117,6.0204806 8.5420685,5.9520326 8.3418549,5.9520326 Z"
     id="path14304" />
  <path
     style="isolation:isolate;fill:none;fill-opacity:1;fill-rule:evenodd;stroke:#383d43;stroke-width:1.821;stroke-linecap:round;stroke-dasharray:none;stroke-opacity:1"
     d="m 14.61214,4.7595447 c -0.206104,0 -0.384424,0.07288 -0.539493,0.2200968 L 11.9157,7.1365879 c -0.147216,0.1550688 -0.220096,0.3375688 -0.220096,0.5456352 0,0.2100288 0.07288,0.3871576 0.220096,0.5343744 l 2.156947,2.1548985 c 0.155069,0.155068 0.33535,0.231358 0.539493,0.231358 0.2061,0 0.385448,-0.07629 0.540516,-0.231358 l 2.156947,-2.1548985 c 0.153104,-0.1472168 0.231357,-0.3263096 0.231357,-0.5343744 0,-0.2100272 -0.07629,-0.3905664 -0.231357,-0.5456352 L 15.152657,4.9796415 C 14.997589,4.8324247 14.81628,4.7595447 14.61214,4.7595447 Z"
     id="path1258" />
</svg>
